<?xml version="1.0" encoding="UTF-8" standalone="no"?>
<svg
   xmlns:dc="http://purl.org/dc/elements/1.1/"
   xmlns:cc="http://creativecommons.org/ns#"
   xmlns:rdf="http://www.w3.org/1999/02/22-rdf-syntax-ns#"
   xmlns:svg="http://www.w3.org/2000/svg"
   xmlns="http://www.w3.org/2000/svg"
   version="1.1"
   id="svg2"
   xml:space="preserve"
   width="414.10666"
   height="68.186668"
   viewBox="0 0 414.10666 68.186668"><metadata
     id="metadata8"><rdf:RDF><cc:Work
         rdf:about=""><dc:format>image/svg+xml</dc:format><dc:type
           rdf:resource="http://purl.org/dc/dcmitype/StillImage" /><dc:title></dc:title></cc:Work></rdf:RDF></metadata><defs
     id="defs6"><clipPath
       clipPathUnits="userSpaceOnUse"
       id="clipPath20"><path
         d="M 0,0 H 3105.8 V 511 H 0 Z"
         id="path18" /></clipPath><clipPath
       clipPathUnits="userSpaceOnUse"
       id="clipPath44"><path
         d="m 235.105,421.867 17.11,-79.672 c 0,0 -52.59,-9.574 -83.258,-35.457 -1.777,-1.504 -10.312,-7.254 -15.547,-12.758 -71.3592,-74.925 -4.238,-153.292 80.078,-147.007 6.348,0.476 27.864,2.793 27.864,2.793 l 3.21,-75.3051 c 0,0 -42.265,-3.3125 -50.996,-2.8047 C -15.9414,85.2148 -4.37109,281.234 124.289,372.078 c 17.645,12.426 22.453,13.32 30.309,17.922 38.632,22.715 80.507,31.867 80.507,31.867 z"
         id="path42" /></clipPath><linearGradient
       x1="0"
       y1="0"
       x2="1"
       y2="0"
       gradientUnits="userSpaceOnUse"
       gradientTransform="matrix(0,-350.264,-350.264,0,148.787,421.868)"
       spreadMethod="pad"
       id="linearGradient56"><stop
         style="stop-opacity:1;stop-color:#efcce9"
         offset="0"
         id="stop46" /><stop
         style="stop-opacity:1;stop-color:#992e52"
         offset="0.466292"
         id="stop48" /><stop
         style="stop-opacity:1;stop-color:#7b161d"
         offset="0.477528"
         id="stop50" /><stop
         style="stop-opacity:1;stop-color:#9f3320"
         offset="0.938202"
         id="stop52" /><stop
         style="stop-opacity:1;stop-color:#541e18"
         offset="1"
         id="stop54" /></linearGradient><clipPath
       clipPathUnits="userSpaceOnUse"
       id="clipPath66"><path
         d="M 0,0 V 511 H 3106 V 0 Z"
         id="path64" /></clipPath><clipPath
       clipPathUnits="userSpaceOnUse"
       id="clipPath78"><path
         d="m 1232.65,107.598 64.54,-45.4339 23.91,64.5739 130.28,10.731 35.84,-75.3049 66.94,50.2269 -167.29,325.293 -154.22,-330.086 z"
         id="path76" /></clipPath><linearGradient
       x1="0"
       y1="0"
       x2="1"
       y2="0"
       gradientUnits="userSpaceOnUse"
       gradientTransform="matrix(0,-375.522,-375.522,0,1393.41,437.685)"
       spreadMethod="pad"
       id="linearGradient90"><stop
         style="stop-opacity:1;stop-color:#efcce9"
         offset="0"
         id="stop80" /><stop
         style="stop-opacity:1;stop-color:#992e52"
         offset="0.466292"
         id="stop82" /><stop
         style="stop-opacity:1;stop-color:#7b161d"
         offset="0.477528"
         id="stop84" /><stop
         style="stop-opacity:1;stop-color:#9f3320"
         offset="0.938202"
         id="stop86" /><stop
         style="stop-opacity:1;stop-color:#541e18"
         offset="1"
         id="stop88" /></linearGradient><clipPath
       clipPathUnits="userSpaceOnUse"
       id="clipPath100"><path
         d="M 0,0 V 511 H 3106 V 0 Z"
         id="path98" /></clipPath><clipPath
       clipPathUnits="userSpaceOnUse"
       id="clipPath120"><path
         d="m 1632.21,422.141 4.36,2.949 13.08,-10.871 16.53,-13.867 14.85,-12.379 13.9,-11.883 28.37,-24.242 25.69,-21.774 47.06,-40.113 58.42,-49.477 v 43.11 l -0.44,34.222 -1.32,50.063 0.84,53.512 88.5,-2.012 -2.16,-31.172 -1.3,-28.746 -1.33,-25.715 -2.19,-44.098 -2.22,-43.074 -4.72,-107.972 -3.94,-79.2426 -4.38,-1.9532 -50.5,41.5704 -50.11,42.5314 -61.49,53.461 -54.85,48.004 v -17.93 -29.469 -33.808 -98.9769 l -86.67,4 2.52,54.4959 1.73,35.199 v 24.778 l 1.31,26.25 2.15,42.613 3.91,80.301 1.79,45.597 2.61,46.118 z"
         id="path118" /></clipPath><linearGradient
       x1="0"
       y1="0"
       x2="1"
       y2="0"
       gradientUnits="userSpaceOnUse"
       gradientTransform="matrix(0,-367.683,-367.683,0,1779.12,425.09)"
       spreadMethod="pad"
       id="linearGradient132"><stop
         style="stop-opacity:1;stop-color:#bad0ed"
         offset="0"
         id="stop122" /><stop
         style="stop-opacity:1;stop-color:#5f75c2"
         offset="0.466292"
         id="stop124" /><stop
         style="stop-opacity:1;stop-color:#3847a1"
         offset="0.477528"
         id="stop126" /><stop
         style="stop-opacity:1;stop-color:#5095d7"
         offset="0.898876"
         id="stop128" /><stop
         style="stop-opacity:1;stop-color:#3376b9"
         offset="1"
         id="stop130" /></linearGradient><clipPath
       clipPathUnits="userSpaceOnUse"
       id="clipPath142"><path
         d="M 0,0 V 511 H 3106 V 0 Z"
         id="path140" /></clipPath><clipPath
       clipPathUnits="userSpaceOnUse"
       id="clipPath156"><path
         d="m 878.418,424.875 8.461,-67.664 c 0,0 -44.422,1.828 -66.109,-13.512 -16.469,-11.613 -33.536,-31.754 25.968,-63.398 17.711,-9.363 33.067,-18.766 41.5,-27.899 48.957,-52.929 11.653,-137.129 -97.562,-170.9293 -29.656,-9.1524 -49.262,-9.7618 -49.262,-9.7618 l -10.191,67.1801 c 0,0 61.047,1.527 81.23,25.769 13.727,16.508 -0.055,32.879 -0.535,33.516 -7.59,10.875 -64.445,45.691 -74.785,57.453 -54.34,61.894 1.691,147.164 138.523,169.246 h 2.762 z"
         id="path154" /></clipPath><linearGradient
       x1="0"
       y1="0"
       x2="1"
       y2="0"
       gradientUnits="userSpaceOnUse"
       gradientTransform="matrix(0,-353.161,-353.161,0,813.011,424.873)"
       spreadMethod="pad"
       id="linearGradient168"><stop
         style="stop-opacity:1;stop-color:#f5dbee"
         offset="0"
         id="stop158" /><stop
         style="stop-opacity:1;stop-color:#faba0d"
         offset="0.466292"
         id="stop160" /><stop
         style="stop-opacity:1;stop-color:#f3ef13"
         offset="0.511236"
         id="stop162" /><stop
         style="stop-opacity:1;stop-color:#b09e1d"
         offset="0.955056"
         id="stop164" /><stop
         style="stop-opacity:1;stop-color:#5c4f1d"
         offset="1"
         id="stop166" /></linearGradient><clipPath
       clipPathUnits="userSpaceOnUse"
       id="clipPath178"><path
         d="M 0,0 V 511 H 3106 V 0 Z"
         id="path176" /></clipPath><clipPath
       clipPathUnits="userSpaceOnUse"
       id="clipPath190"><path
         d="m 951.805,412.816 64.795,-2.07 163.44,-0.953 45.25,3.715 1.02,-71.328 -95.87,2.793 0.94,-266.6996 -84.31,0.0469 -0.04,266.9917 -96.007,-2.914 0.782,70.418 z"
         id="path188" /></clipPath><linearGradient
       x1="0"
       y1="0"
       x2="1"
       y2="0"
       gradientUnits="userSpaceOnUse"
       gradientTransform="matrix(0,-335.233,-335.233,0,1088.67,413.508)"
       spreadMethod="pad"
       id="linearGradient202"><stop
         style="stop-opacity:1;stop-color:#bee6f8"
         offset="0"
         id="stop192" /><stop
         style="stop-opacity:1;stop-color:#36634f"
         offset="0.466292"
         id="stop194" /><stop
         style="stop-opacity:1;stop-color:#1f311e"
         offset="0.477528"
         id="stop196" /><stop
         style="stop-opacity:1;stop-color:#2fa841"
         offset="0.938202"
         id="stop198" /><stop
         style="stop-opacity:1;stop-color:#245529"
         offset="1"
         id="stop200" /></linearGradient><clipPath
       clipPathUnits="userSpaceOnUse"
       id="clipPath212"><path
         d="M 0,0 V 511 H 3106 V 0 Z"
         id="path210" /></clipPath><clipPath
       clipPathUnits="userSpaceOnUse"
       id="clipPath224"><path
         d="m 2015.18,417.125 95.06,5.32 39.69,0.391 35.7,2.07 2.08,-65.23 -47.14,-1.91 -44.9,0.55 v -83.921 l 78.36,4.738 0.64,-62.571 -80,1.579 1.87,-75.262 52.73,-0.848 43.26,2.574 2.63,-68.3589 -180.82,3.4766 0.84,337.4023 z"
         id="path222" /></clipPath><linearGradient
       x1="0"
       y1="0"
       x2="1"
       y2="0"
       gradientUnits="userSpaceOnUse"
       gradientTransform="matrix(0,-348.658,-348.658,0,2104.75,424.905)"
       spreadMethod="pad"
       id="linearGradient236"><stop
         style="stop-opacity:1;stop-color:#f5dbee"
         offset="0"
         id="stop226" /><stop
         style="stop-opacity:1;stop-color:#faba0d"
         offset="0.466292"
         id="stop228" /><stop
         style="stop-opacity:1;stop-color:#f3ef13"
         offset="0.511236"
         id="stop230" /><stop
         style="stop-opacity:1;stop-color:#b09e1d"
         offset="0.955056"
         id="stop232" /><stop
         style="stop-opacity:1;stop-color:#5c4f1d"
         offset="1"
         id="stop234" /></linearGradient><clipPath
       clipPathUnits="userSpaceOnUse"
       id="clipPath246"><path
         d="M 0,0 V 511 H 3106 V 0 Z"
         id="path244" /></clipPath><clipPath
       clipPathUnits="userSpaceOnUse"
       id="clipPath258"><path
         d="m 2256.58,412.527 64.76,-2.086 163.47,-0.925 45.24,3.687 1.01,-71.308 -95.9,2.781 0.97,-266.6877 h -84.31 V 345 l -96.05,-2.895 0.81,70.422 z"
         id="path256" /></clipPath><linearGradient
       x1="0"
       y1="0"
       x2="1"
       y2="0"
       gradientUnits="userSpaceOnUse"
       gradientTransform="matrix(0,-335.215,-335.215,0,2393.42,413.204)"
       spreadMethod="pad"
       id="linearGradient270"><stop
         style="stop-opacity:1;stop-color:#bee6f8"
         offset="0"
         id="stop260" /><stop
         style="stop-opacity:1;stop-color:#36634f"
         offset="0.466292"
         id="stop262" /><stop
         style="stop-opacity:1;stop-color:#1f311e"
         offset="0.477528"
         id="stop264" /><stop
         style="stop-opacity:1;stop-color:#2fa841"
         offset="0.938202"
         id="stop266" /><stop
         style="stop-opacity:1;stop-color:#245529"
         offset="1"
         id="stop268" /></linearGradient><clipPath
       clipPathUnits="userSpaceOnUse"
       id="clipPath280"><path
         d="M 0,0 V 511 H 3106 V 0 Z"
         id="path278" /></clipPath><clipPath
       clipPathUnits="userSpaceOnUse"
       id="clipPath292"><path
         d="m 320.504,106.035 67.691,-48.2772 25.258,69.0002 138.106,9.972 36.539,-78.9722 70.422,53.2582 -174.676,340.55 -163.34,-345.531 z"
         id="path290" /></clipPath><linearGradient
       x1="0"
       y1="0"
       x2="1"
       y2="0"
       gradientUnits="userSpaceOnUse"
       gradientTransform="matrix(0,-393.81,-393.81,0,489.512,451.567)"
       spreadMethod="pad"
       id="linearGradient304"><stop
         style="stop-opacity:1;stop-color:#bad0ed"
         offset="0"
         id="stop294" /><stop
         style="stop-opacity:1;stop-color:#5f75c2"
         offset="0.466292"
         id="stop296" /><stop
         style="stop-opacity:1;stop-color:#3847a1"
         offset="0.477528"
         id="stop298" /><stop
         style="stop-opacity:1;stop-color:#5095d7"
         offset="0.898876"
         id="stop300" /><stop
         style="stop-opacity:1;stop-color:#3376b9"
         offset="1"
         id="stop302" /></linearGradient><clipPath
       clipPathUnits="userSpaceOnUse"
       id="clipPath314"><path
         d="M 0,0 V 511 H 3106 V 0 Z"
         id="path312" /></clipPath></defs><g
     id="g10"
     transform="matrix(1.3333333,0,0,-1.3333333,0,68.186667)"><g
       id="g12"
       transform="scale(0.1)"><g
         id="g14"><g
           id="g16"
           clip-path="url(#clipPath20)"><path
             d="m 2635.46,339.129 c 0,89.605 103.04,162.234 230.11,162.234 127.12,0 230.16,-72.629 230.16,-162.234 0,-89.594 -103.04,-162.238 -230.16,-162.238 -23.11,0 -45.43,2.461 -66.47,6.925 -20.94,-22.628 -57.96,-47.324 -109.3,-44.402 -3.42,0.176 -3.82,5.031 -0.54,5.742 30.63,6.571 52.78,25.199 43.39,61.59 -58.78,29.406 -97.19,77.715 -97.19,132.383 z"
             style="fill:none;stroke:#242121;stroke-width:20.14629936;stroke-linecap:butt;stroke-linejoin:miter;stroke-miterlimit:10;stroke-dasharray:none;stroke-opacity:1"
             id="path22" /><path
             d="m 2635.46,342.207 c 0,89.578 103.04,162.227 230.11,162.227 127.12,0 230.16,-72.649 230.16,-162.227 0,-89.602 -103.04,-162.238 -230.16,-162.238 -23.11,0 -45.43,2.445 -66.47,6.914 -20.94,-22.629 -57.96,-47.332 -109.3,-44.41 -3.42,0.175 -3.82,5.035 -0.54,5.761 30.63,6.536 52.78,25.219 43.39,61.563 -58.78,29.441 -97.19,77.723 -97.19,132.41"
             style="fill:#ffffff;fill-opacity:1;fill-rule:nonzero;stroke:none"
             id="path24" /><path
             d="m 251.465,440.059 19.648,-96.121 c -27.07,-4.633 -50.32,-12.571 -69.754,-23.805 l -17.882,-11.367 -14.391,-12.379 -12.203,-14.895 c -10.168,-14.867 -15.27,-29.902 -15.27,-45.082 0,-12.867 3.641,-24.844 10.887,-35.922 7.242,-11.05 18.492,-20.027 33.559,-26.996 7.273,-3.34 15.789,-5.855 25.511,-7.707 9.742,-1.789 19.985,-2.719 30.727,-2.719 l 16.582,1.493 20.07,1.531 3.938,-90.3595 c -9.055,-1.3203 -17.793,-2.3125 -26.223,-2.9688 -8.398,-0.6445 -17.984,-0.9922 -28.73,-0.9922 -35.164,0 -67.004,5.9258 -95.43,17.8243 -15.156,6.2773 -28.082,13.3832 -38.8243,21.3282 -9.918,6.629 -19.3477,15.328 -28.3281,26.289 -16.3125,20.133 -26.0274,42.934 -29.1954,68.394 l -0.8789,15.864 c 0,22.832 4.4102,44.668 13.2852,65.664 8.8516,20.976 22.4414,41.875 40.7617,62.695 7.2422,7.938 14.1168,14.547 20.4608,19.836 l 20.926,16.852 26.605,16.871 c 13.071,7.578 27.586,14.445 43.594,20.547 15.977,6.113 32.836,11.5 50.555,16.125 v 0"
             style="fill:#ffffff;fill-opacity:1;fill-rule:nonzero;stroke:none"
             id="path26" /><path
             d="m 251.465,440.059 19.648,-96.121 c -27.07,-4.633 -50.32,-12.571 -69.754,-23.805 l -17.882,-11.367 -14.391,-12.379 -12.203,-14.895 c -10.168,-14.867 -15.27,-29.902 -15.27,-45.082 0,-12.867 3.641,-24.844 10.887,-35.922 7.242,-11.05 18.492,-20.027 33.559,-26.996 7.273,-3.34 15.789,-5.855 25.511,-7.707 9.742,-1.789 19.985,-2.719 30.727,-2.719 l 16.582,1.493 20.07,1.531 3.938,-90.3595 c -9.055,-1.3203 -17.793,-2.3125 -26.223,-2.9688 -8.398,-0.6445 -17.984,-0.9922 -28.73,-0.9922 -35.164,0 -67.004,5.9258 -95.43,17.8243 -15.156,6.2773 -28.082,13.3832 -38.8243,21.3282 -9.918,6.629 -19.3477,15.328 -28.3281,26.289 -16.3125,20.133 -26.0274,42.934 -29.1954,68.394 l -0.8789,15.864 c 0,22.832 4.4102,44.668 13.2852,65.664 8.8516,20.976 22.4414,41.875 40.7617,62.695 7.2422,7.938 14.1168,14.547 20.4608,19.836 l 20.926,16.852 26.605,16.871 c 13.071,7.578 27.586,14.445 43.594,20.547 15.977,6.113 32.836,11.5 50.555,16.125 z"
             style="fill:none;stroke:#201d1c;stroke-width:70.55410004;stroke-linecap:butt;stroke-linejoin:miter;stroke-miterlimit:10;stroke-dasharray:none;stroke-opacity:1"
             id="path28" /><path
             d="m 241.398,431.902 19.59,-96.129 c -27.039,-4.628 -50.258,-12.582 -69.707,-23.8 l -17.918,-11.411 -14.371,-12.363 -12.234,-14.875 c -10.137,-14.847 -15.211,-29.875 -15.211,-45.07 0,-12.899 3.613,-24.891 10.859,-35.922 7.274,-11.043 18.465,-20.094 33.59,-27.035 7.258,-3.274 15.762,-5.844 25.461,-7.668 9.762,-1.817 20.004,-2.719 30.758,-2.719 l 16.57,1.512 20.059,1.5 3.886,-90.3204 c -8.992,-1.3477 -17.722,-2.3711 -26.14,-3.0235 -8.36,-0.6445 -18.02,-0.9961 -28.746,-0.9961 -35.153,0 -66.981,5.9727 -95.461,17.8633 -15.125,6.2578 -28.0549,13.4024 -38.7971,21.2927 -9.875,6.629 -19.3359,15.348 -28.3242,26.258 -16.2851,20.141 -26.0312,42.945 -29.2109,68.426 l -0.8672,15.879 c 0,22.785 4.4258,44.676 13.2734,65.664 8.875,20.98 22.4688,41.887 40.7461,62.707 7.2735,7.937 14.1446,14.547 20.5039,19.836 l 20.938,16.879 26.589,16.828 c 13.075,7.597 27.606,14.476 43.567,20.551 15.996,6.129 32.851,11.507 50.597,16.136 v 0"
             style="fill:#d03327;fill-opacity:1;fill-rule:nonzero;stroke:none"
             id="path30" /><path
             d="m 241.398,431.902 19.59,-96.129 c -27.039,-4.628 -50.258,-12.582 -69.707,-23.8 l -17.918,-11.411 -14.371,-12.363 -12.234,-14.875 c -10.137,-14.847 -15.211,-29.875 -15.211,-45.07 0,-12.899 3.613,-24.891 10.859,-35.922 7.274,-11.043 18.465,-20.094 33.59,-27.035 7.258,-3.274 15.762,-5.844 25.461,-7.668 9.762,-1.817 20.004,-2.719 30.758,-2.719 l 16.57,1.512 20.059,1.5 3.886,-90.3204 c -8.992,-1.3477 -17.722,-2.3711 -26.14,-3.0235 -8.36,-0.6445 -18.02,-0.9961 -28.746,-0.9961 -35.153,0 -66.981,5.9727 -95.461,17.8633 -15.125,6.2578 -28.0549,13.4024 -38.7971,21.2927 -9.875,6.629 -19.3359,15.348 -28.3242,26.258 -16.2851,20.141 -26.0312,42.945 -29.2109,68.426 l -0.8672,15.879 c 0,22.785 4.4258,44.676 13.2734,65.664 8.875,20.98 22.4688,41.887 40.7461,62.707 7.2735,7.937 14.1446,14.547 20.5039,19.836 l 20.938,16.879 26.589,16.828 c 13.075,7.597 27.606,14.476 43.567,20.551 15.996,6.129 32.851,11.507 50.597,16.136 z"
             style="fill:none;stroke:#ffffff;stroke-width:15.11779976;stroke-linecap:butt;stroke-linejoin:miter;stroke-miterlimit:4;stroke-dasharray:none;stroke-opacity:1"
             id="path32" /><path
             d="M 315.605,315.992 282,484.273 c 0,0 -58.227,-8.906 -135.156,-46.847 C 135.223,431.699 104.895,411.051 66.9102,375.047 -18.1836,294.422 -56.4883,73.3359 198.73,39.4336 c 37.133,-4.9414 123.641,6.8008 123.641,6.8008 L 315.039,204.25 c 0,0 -48.586,-3.641 -72.816,-5.09 -78.055,-4.652 -100.289,80.145 36.699,110.067 15.14,3.308 36.683,6.765 36.683,6.765 v 0"
             style="fill:#201d1c;fill-opacity:1;fill-rule:nonzero;stroke:none"
             id="path34" /><path
             d="m 246.965,441.371 22.879,-112.18 c -8.723,-1.863 -51.571,-6.339 -89.032,-32.953 -4.238,-3.023 -10.222,-8.562 -16.136,-13.879 -40.184,-35.785 -39.258,-122.113 68.871,-119.441 11.015,0.297 42.887,3.625 42.887,3.625 L 281.289,60.8086 C 269.207,57.0195 254.137,57.4531 238.23,55.8672 90.1055,40.8438 -90.3203,181.668 93.9492,367.168 c 7.4058,7.422 16.1958,12.562 21.7658,16.902 8.691,6.735 22.644,15.875 29.004,19.332 44.554,24.231 102.246,37.969 102.246,37.969 v 0"
             style="fill:#ffffff;fill-opacity:1;fill-rule:nonzero;stroke:none"
             id="path36" /></g></g><g
         id="g38"><g
           id="g40"
           clip-path="url(#clipPath44)"><path
             d="m 235.105,421.867 17.11,-79.672 c 0,0 -52.59,-9.574 -83.258,-35.457 -1.777,-1.504 -10.312,-7.254 -15.547,-12.758 -71.3592,-74.925 -4.238,-153.292 80.078,-147.007 6.348,0.476 27.864,2.793 27.864,2.793 l 3.21,-75.3051 c 0,0 -42.265,-3.3125 -50.996,-2.8047 C -15.9414,85.2148 -4.37109,281.234 124.289,372.078 c 17.645,12.426 22.453,13.32 30.309,17.922 38.632,22.715 80.507,31.867 80.507,31.867 v 0"
             style="fill:url(#linearGradient56);fill-opacity:1;fill-rule:nonzero;stroke:none"
             id="path58" /></g></g><g
         id="g60"><g
           id="g62"
           clip-path="url(#clipPath66)"><path
             d="m 1374.92,491.316 44.44,-0.824 194.59,-381.68 L 1480.09,7.19141 1437.04,103.98 1359.33,95.6328 1324.68,4.79297 1190.82,102.828 l 184.1,388.488 v 0"
             style="fill:#201d1c;fill-opacity:1;fill-rule:nonzero;stroke:none"
             id="path68" /><path
             d="m 1382.04,456.629 11.04,1 180.22,-350.031 -92.04,-69.3441 -37.03,83.7231 -111.2,-9.586 -28.68,-75.3285 -90.83,66.9175 168.52,352.649 v 0"
             style="fill:#ffffff;fill-opacity:1;fill-rule:nonzero;stroke:none"
             id="path70" /></g></g><g
         id="g72"><g
           id="g74"
           clip-path="url(#clipPath78)"><path
             d="m 1232.65,107.598 64.54,-45.4339 23.91,64.5739 130.28,10.731 35.84,-75.3049 66.94,50.2269 -167.29,325.293 -154.22,-330.086 v 0"
             style="fill:url(#linearGradient90);fill-opacity:1;fill-rule:nonzero;stroke:none"
             id="path92" /></g></g><g
         id="g94"><g
           id="g96"
           clip-path="url(#clipPath100)"><path
             d="m 1386.87,310.812 45.39,-115.964 -90.84,-5.953 45.45,121.917 v 0"
             style="fill:#ffffff;fill-opacity:1;fill-rule:nonzero;stroke:none"
             id="path102" /><path
             d="m 1386.87,271.371 21.5,-63.359 -45.47,-3.586 23.97,66.945 v 0"
             style="fill:#201d1c;fill-opacity:1;fill-rule:nonzero;stroke:none"
             id="path104" /><path
             d="m 1642.33,430.25 4.32,2.984 13.04,-10.879 16.6,-13.82 14.8,-12.406 13.93,-11.891 28.36,-24.261 25.69,-21.743 47.04,-40.086 58.38,-49.507 v 43.129 l -0.39,34.195 -1.34,50.058 0.9,53.536 88.44,-1.993 -2.13,-31.207 -1.35,-28.73 -1.28,-25.727 -2.2,-44.086 -2.17,-43.074 -4.76,-107.953 -3.94,-79.2421 -4.36,-1.9649 -50.53,41.516 -50.13,42.566 -61.4,53.461 -54.89,48.004 V 70.9766 l -86.7,3.9687 2.54,54.4847 1.68,35.168 v 24.785 l 1.32,26.316 2.18,42.602 3.95,80.308 1.75,45.59 2.65,46.051 v 0"
             style="fill:#ffffff;fill-opacity:1;fill-rule:nonzero;stroke:none"
             id="path106" /><path
             d="m 1642.33,430.25 4.32,2.984 13.04,-10.879 16.6,-13.82 14.8,-12.406 13.93,-11.891 28.36,-24.261 25.69,-21.743 47.04,-40.086 58.38,-49.507 v 43.129 l -0.39,34.195 -1.34,50.058 0.9,53.536 88.44,-1.993 -2.13,-31.207 -1.35,-28.73 -1.28,-25.727 -2.2,-44.086 -2.17,-43.074 -4.76,-107.953 -3.94,-79.2421 -4.36,-1.9649 -50.53,41.516 -50.13,42.566 -61.4,53.461 -54.89,48.004 V 70.9766 l -86.7,3.9687 2.54,54.4847 1.68,35.168 v 24.785 l 1.32,26.316 2.18,42.602 3.95,80.308 1.75,45.59 2.65,46.051 z"
             style="fill:none;stroke:#201d1c;stroke-width:70.55410004;stroke-linecap:butt;stroke-linejoin:miter;stroke-miterlimit:10;stroke-dasharray:none;stroke-opacity:1"
             id="path108" /><path
             d="m 734.676,365.98 c 12.508,14.543 31.39,28.34 56.672,41.399 25.246,13.043 56.214,21.559 92.84,25.523 l 12.203,-83.507 c -10.496,0 -18.61,-0.247 -24.395,-0.754 -5.797,-0.516 -11.871,-1.227 -18.113,-2.223 -6.235,-1.012 -11.121,-2.082 -14.594,-3.242 -3.496,-1.125 -7.691,-2.86 -12.648,-5.164 -8.098,-4.598 -12.192,-11.235 -12.192,-19.789 0,-4.625 2.301,-8.61 7,-11.891 4.031,-3.992 12.031,-9.227 23.957,-15.816 l 8.692,-5.004 7.422,-4.934 6.546,-3.945 c 32.536,-19.781 48.789,-44.207 48.789,-73.27 l -0.433,-7.418 -0.465,-7.429 C 913.656,172.645 907.77,157.922 898.348,144.215 888.891,130.535 876.035,117.891 859.781,106.34 843.484,94.8203 824.758,85.3984 803.551,78.1641 793.699,74.5156 782.77,71.3633 770.883,68.7344 758.926,66.125 746.852,64.1367 734.676,62.7891 l -12.16,84.1089 c 23.164,0 43.765,3.071 61.613,9.172 17.898,6.102 26.824,14.774 26.824,26.059 0,4.598 -2.242,8.984 -6.754,13.141 -4.511,4.101 -8.633,7.476 -12.437,10.132 -1.414,1.336 -5.348,3.961 -11.754,7.953 l -24.887,16.805 c -30.766,21.863 -46.183,46.43 -46.183,73.86 0,11.253 2.773,22.832 8.312,34.703 4.008,9.605 9.879,18.691 17.426,27.257 v 0"
             style="fill:#f2de1b;fill-opacity:1;fill-rule:nonzero;stroke:none"
             id="path110" /><path
             d="m 734.676,365.98 c 12.508,14.543 31.39,28.34 56.672,41.399 25.246,13.043 56.214,21.559 92.84,25.523 l 12.203,-83.507 c -10.496,0 -18.61,-0.247 -24.395,-0.754 -5.797,-0.516 -11.871,-1.227 -18.113,-2.223 -6.235,-1.012 -11.121,-2.082 -14.594,-3.242 -3.496,-1.125 -7.691,-2.86 -12.648,-5.164 -8.098,-4.598 -12.192,-11.235 -12.192,-19.789 0,-4.625 2.301,-8.61 7,-11.891 4.031,-3.992 12.031,-9.227 23.957,-15.816 l 8.692,-5.004 7.422,-4.934 6.546,-3.945 c 32.536,-19.781 48.789,-44.207 48.789,-73.27 l -0.433,-7.418 -0.465,-7.429 C 913.656,172.645 907.77,157.922 898.348,144.215 888.891,130.535 876.035,117.891 859.781,106.34 843.484,94.8203 824.758,85.3984 803.551,78.1641 793.699,74.5156 782.77,71.3633 770.883,68.7344 758.926,66.125 746.852,64.1367 734.676,62.7891 l -12.16,84.1089 c 23.164,0 43.765,3.071 61.613,9.172 17.898,6.102 26.824,14.774 26.824,26.059 0,4.598 -2.242,8.984 -6.754,13.141 -4.511,4.101 -8.633,7.476 -12.437,10.132 -1.414,1.336 -5.348,3.961 -11.754,7.953 l -24.887,16.805 c -30.766,21.863 -46.183,46.43 -46.183,73.86 0,11.253 2.773,22.832 8.312,34.703 4.008,9.605 9.879,18.691 17.426,27.257 z"
             style="fill:none;stroke:#ffffff;stroke-width:15.11779976;stroke-linecap:butt;stroke-linejoin:miter;stroke-miterlimit:4;stroke-dasharray:none;stroke-opacity:1"
             id="path112" /></g></g><g
         id="g114"><g
           id="g116"
           clip-path="url(#clipPath120)"><path
             d="m 1632.21,422.141 4.36,2.949 13.08,-10.871 16.53,-13.867 14.85,-12.379 13.9,-11.883 28.37,-24.242 25.69,-21.774 47.06,-40.113 58.42,-49.477 v 43.11 l -0.44,34.222 -1.32,50.063 0.84,53.512 88.5,-2.012 -2.16,-31.172 -1.3,-28.746 -1.33,-25.715 -2.19,-44.098 -2.22,-43.074 -4.72,-107.972 -3.94,-79.2426 -4.38,-1.9532 -50.5,41.5704 -50.11,42.5314 -61.49,53.461 -54.85,48.004 V 62.7891 l -86.67,4 2.52,54.4959 1.73,35.199 v 24.778 l 1.31,26.25 2.15,42.613 3.91,80.301 1.79,45.597 2.61,46.118 v 0"
             style="fill:url(#linearGradient132);fill-opacity:1;fill-rule:nonzero;stroke:none"
             id="path134" /></g></g><g
         id="g136"><g
           id="g138"
           clip-path="url(#clipPath142)"><path
             d="m 1632.21,422.141 4.36,2.949 13.08,-10.871 16.53,-13.867 14.85,-12.379 13.9,-11.883 28.37,-24.242 25.69,-21.774 47.06,-40.113 58.42,-49.477 v 43.11 l -0.44,34.222 -1.32,50.063 0.84,53.512 88.5,-2.012 -2.16,-31.172 -1.3,-28.746 -1.33,-25.715 -2.19,-44.098 -2.22,-43.074 -4.72,-107.972 -3.94,-79.2426 -4.38,-1.9532 -50.5,41.5704 -50.11,42.5314 -61.49,53.461 -54.85,48.004 V 62.7891 l -86.67,4 2.52,54.4959 1.73,35.199 v 24.778 l 1.31,26.25 2.15,42.613 3.91,80.301 1.79,45.597 2.61,46.118 z"
             style="fill:none;stroke:#ffffff;stroke-width:15.11779976;stroke-linecap:butt;stroke-linejoin:miter;stroke-miterlimit:4;stroke-dasharray:none;stroke-opacity:1"
             id="path144" /><path
             d="M 924.723,479.559 946.18,323.543 c 0,0 -66.719,1.094 -59.868,-2.547 18.93,-10.117 42.458,-26.691 56.426,-48.023 C 988.457,203.059 959.223,83.0781 787.816,42.2422 773.27,38.7695 761.41,37.7539 750.824,36.2539 727.59,32.9258 713.781,32.0586 713.781,32.0586 l -21.761,158.6404 45.343,-0.617 c 0,0 34.953,1.66 31.321,3.789 -15.848,9.363 -35.176,23.984 -48.469,36.363 -74.903,69.332 -42.985,230.559 200.715,249.239 l 3.793,0.086 v 0"
             style="fill:#201d1c;fill-opacity:1;fill-rule:nonzero;stroke:none"
             id="path146" /><path
             d="m 890.582,441.648 14.531,-99.543 c 0,0 -47.633,2.922 -74.625,-10.554 -7.406,-3.703 -10.039,-14.461 -6.047,-17.492 26.664,-20.418 79.875,-46.993 90.704,-71.696 C 946.324,171.379 889.527,91.7227 785.676,64.6719 749.934,55.3438 728.211,54.7891 728.211,54.7891 l -14.356,100.2459 33.692,0.914 c 0,0 38.418,4.86 51.023,17.125 8.215,7.985 2.996,13.184 2.43,13.883 -9.137,11.652 -54.383,39.922 -66.051,49.434 -70.531,57.48 -31.75,186.547 152.508,204.925 l 3.125,0.332 v 0"
             style="fill:#ffffff;fill-opacity:1;fill-rule:nonzero;stroke:none"
             id="path148" /></g></g><g
         id="g150"><g
           id="g152"
           clip-path="url(#clipPath156)"><path
             d="m 878.418,424.875 8.461,-67.664 c 0,0 -44.422,1.828 -66.109,-13.512 -16.469,-11.613 -33.536,-31.754 25.968,-63.398 17.711,-9.363 33.067,-18.766 41.5,-27.899 48.957,-52.929 11.653,-137.129 -97.562,-170.9293 -29.656,-9.1524 -49.262,-9.7618 -49.262,-9.7618 l -10.191,67.1801 c 0,0 61.047,1.527 81.23,25.769 13.727,16.508 -0.055,32.879 -0.535,33.516 -7.59,10.875 -64.445,45.691 -74.785,57.453 -54.34,61.894 1.691,147.164 138.523,169.246 h 2.762 v 0"
             style="fill:url(#linearGradient168);fill-opacity:1;fill-rule:nonzero;stroke:none"
             id="path170" /></g></g><g
         id="g172"><g
           id="g174"
           clip-path="url(#clipPath178)"><path
             d="m 918.816,306.094 95.324,3.078 -0.32,-265.0118 170.78,-0.7188 -0.97,265.7576 95.51,-3.41 v 160.859 l -86.45,-5.902 -165.89,0.305 -107.663,4.992 -0.321,-159.949 v 0"
             style="fill:#201d1c;fill-opacity:1;fill-rule:nonzero;stroke:none"
             id="path180" /><path
             d="m 1241.53,429.312 0.32,-102.996 -96.48,2.801 2.35,-266.5115 -116.36,0.9218 0.72,265.5897 -96.748,-2.801 1.23,102.407 74.058,-3.141 163.83,-0.074 67.08,3.804 v 0"
             style="fill:#ffffff;fill-opacity:1;fill-rule:nonzero;stroke:none"
             id="path182" /></g></g><g
         id="g184"><g
           id="g186"
           clip-path="url(#clipPath190)"><path
             d="m 951.805,412.816 64.795,-2.07 163.44,-0.953 45.25,3.715 1.02,-71.328 -95.87,2.793 0.94,-266.6996 -84.31,0.0469 -0.04,266.9917 -96.007,-2.914 0.782,70.418 v 0"
             style="fill:url(#linearGradient202);fill-opacity:1;fill-rule:nonzero;stroke:none"
             id="path204" /></g></g><g
         id="g206"><g
           id="g208"
           clip-path="url(#clipPath212)"><path
             d="M 1982.31,466.461 V 46.0039 l 267.89,-6.6641 -5.77,157.1832 h -16.45 l -2.54,110.743 15.82,0.457 -2.83,170.843 -69.82,-4.472 -52.9,-0.637 -133.4,-6.996 v 0"
             style="fill:#201d1c;fill-opacity:1;fill-rule:nonzero;stroke:none"
             id="path214" /><path
             d="m 1998.78,432.711 111.58,6.043 50.62,-0.027 41.08,2.632 1.59,-97.632 -52.62,-0.129 -12.11,-0.856 -28.62,-0.609 0.93,-51.305 25.1,1.727 27.71,1.722 25.02,2.598 0.93,-96.875 -78.76,1.688 -0.87,-42.317 31.15,-1.801 16.4,0.868 51.08,1.734 2.61,-100.3322 -212.82,5.1875 V 432.711"
             style="fill:#ffffff;fill-opacity:1;fill-rule:nonzero;stroke:none"
             id="path216" /></g></g><g
         id="g218"><g
           id="g220"
           clip-path="url(#clipPath224)"><path
             d="m 2015.18,417.125 95.06,5.32 39.69,0.391 35.7,2.07 2.08,-65.23 -47.14,-1.91 -44.9,0.55 v -83.921 l 78.36,4.738 0.64,-62.571 -80,1.579 1.87,-75.262 52.73,-0.848 43.26,2.574 2.63,-68.3589 -180.82,3.4766 0.84,337.4023 v 0"
             style="fill:url(#linearGradient236);fill-opacity:1;fill-rule:nonzero;stroke:none"
             id="path238" /></g></g><g
         id="g240"><g
           id="g242"
           clip-path="url(#clipPath246)"><path
             d="m 2223.58,305.789 95.29,3.09 -0.33,-265.0235 170.8,-0.7188 -0.95,265.7653 95.56,-3.437 v 160.91 l -86.5,-5.898 -165.9,0.269 -107.66,4.992 -0.31,-159.949 v 0"
             style="fill:#201d1c;fill-opacity:1;fill-rule:nonzero;stroke:none"
             id="path248" /><path
             d="m 2546.3,429.012 0.3,-103.008 -96.49,2.828 2.36,-266.5039 -116.33,0.9141 0.68,265.5898 -96.72,-2.828 1.19,102.387 74.12,-3.114 163.83,-0.086 67.06,3.821 v 0"
             style="fill:#ffffff;fill-opacity:1;fill-rule:nonzero;stroke:none"
             id="path250" /></g></g><g
         id="g252"><g
           id="g254"
           clip-path="url(#clipPath258)"><path
             d="m 2256.58,412.527 64.76,-2.086 163.47,-0.925 45.24,3.687 1.01,-71.308 -95.9,2.781 0.97,-266.6877 h -84.31 V 345 l -96.05,-2.895 0.81,70.422 v 0"
             style="fill:url(#linearGradient270);fill-opacity:1;fill-rule:nonzero;stroke:none"
             id="path272" /></g></g><g
         id="g274"><g
           id="g276"
           clip-path="url(#clipPath280)"><path
             d="m 469.906,506.227 46.469,0.054 L 719.07,107.539 578.32,2.5625 535.32,100.598 452.93,94.4141 418.961,0 282.785,101.207 469.906,506.227 v 0"
             style="fill:#201d1c;fill-opacity:1;fill-rule:nonzero;stroke:none"
             id="path282" /><path
             d="m 476.293,471.176 13.766,1.097 L 677.895,106.121 582.402,33.9766 542.98,120.906 424.285,112.805 396.32,33.8281 302.504,100.598 476.293,471.176 v 0"
             style="fill:#ffffff;fill-opacity:1;fill-rule:nonzero;stroke:none"
             id="path284" /></g></g><g
         id="g286"><g
           id="g288"
           clip-path="url(#clipPath292)"><path
             d="m 320.504,106.035 67.691,-48.2772 25.258,69.0002 138.106,9.972 36.539,-78.9722 70.422,53.2582 -174.676,340.55 -163.34,-345.531 v 0"
             style="fill:url(#linearGradient304);fill-opacity:1;fill-rule:nonzero;stroke:none"
             id="path306" /></g></g><g
         id="g308"><g
           id="g310"
           clip-path="url(#clipPath314)"><path
             d="m 482.672,315.613 46.285,-117.367 -93.785,-6.348 47.5,123.715 v 0"
             style="fill:#ffffff;fill-opacity:1;fill-rule:nonzero;stroke:none"
             id="path316" /><path
             d="m 482.672,275.059 24.801,-62.883 -50.223,-3.348 25.422,66.231 v 0"
             style="fill:#201d1c;fill-opacity:1;fill-rule:nonzero;stroke:none"
             id="path318" /><path
             d="m 2717.66,331.516 c -5.97,0 -11.16,-2.157 -15.44,-6.411 -4.22,-4.218 -6.44,-9.562 -6.44,-15.472 0,-6.004 2.28,-11.317 6.59,-15.352 4.28,-3.969 9.41,-5.969 15.29,-5.969 5.88,0 11.02,2 15.27,5.946 4.34,4.058 6.62,9.367 6.62,15.375 0,5.91 -2.22,11.254 -6.42,15.457 -4.3,4.269 -9.5,6.426 -15.47,6.426 z m 0,-7.082 c 4.08,0 7.55,-1.454 10.46,-4.348 2.9,-2.906 4.35,-6.379 4.35,-10.453 0,-4.082 -1.45,-7.465 -4.35,-10.188 -2.91,-2.699 -6.38,-4.054 -10.46,-4.054 -4.07,0 -7.54,1.355 -10.45,4.054 -2.91,2.723 -4.35,6.106 -4.35,10.188 0,4.074 1.44,7.547 4.35,10.453 2.91,2.894 6.38,4.348 10.45,4.348"
             style="fill:#201d1c;fill-opacity:1;fill-rule:nonzero;stroke:none"
             id="path320" /><path
             d="m 2823.13,394.793 c -7.73,0 -14.59,-1.477 -20.41,-4.395 l 1.22,3.926 -10.97,-1.445 c -1.77,-0.234 -3.59,-0.441 -5.46,-0.617 -1.74,-0.153 -3.58,-0.246 -5.44,-0.246 -2.06,0 -4.21,0.097 -6.43,0.257 -2.24,0.172 -4.24,0.375 -5.98,0.606 l -6.66,0.879 -1.23,-6.606 c -1.84,-9.957 -3.6,-19.047 -5.25,-27.285 -1.66,-8.191 -3.28,-15.816 -4.87,-22.867 -1.59,-7.031 -3.18,-13.656 -4.76,-19.883 -1.6,-6.211 -3.17,-12.133 -4.77,-17.765 l -2.93,-10.266 10.6,1.297 c 1.78,0.219 3.68,0.324 5.82,0.324 h 13.22 c 1.93,0 3.74,-0.105 5.52,-0.324 l 6.88,-0.84 0.99,6.852 c 0.59,4.113 1.36,8.621 2.27,13.531 0.9,4.906 1.88,9.703 2.9,14.386 1.03,4.629 2.09,9.012 3.17,13.126 1.07,4.042 2.1,7.578 3.05,10.562 2.18,6.852 5,11.824 8.37,14.777 3.03,2.637 5.91,3.977 8.57,3.977 0.85,0 2.39,-0.098 3.1,-0.75 0.29,-0.262 0.55,-1.121 0.55,-2.524 0,-0.484 -0.09,-2.058 -0.95,-6.257 -0.73,-3.379 -1.63,-7.305 -2.71,-11.668 L 2809.89,343 c -0.93,-3.637 -1.9,-7.43 -2.94,-11.387 -1.29,-4.871 -2.57,-9.468 -3.84,-13.773 -1.28,-4.363 -2.46,-8.227 -3.49,-11.602 -1.3,-4.195 -1.84,-5.554 -2.01,-5.945 l -5.1,-11.438 12.43,1.528 c 1.77,0.219 3.64,0.324 5.7,0.324 h 14.72 c 1.85,0 3.68,-0.109 5.43,-0.324 l 6.56,-0.809 1.25,6.496 c 0.63,3.27 1.19,6.383 1.69,9.336 0.48,2.801 1.01,5.715 1.63,8.723 0.6,3.051 1.28,6.246 2.07,9.621 0.81,3.422 1.76,7.43 2.86,11.969 1.24,5.054 2.22,9.219 2.98,12.441 0.76,3.36 1.37,6.133 1.81,8.406 0.53,2.817 0.81,4.801 0.94,6.493 0.13,1.66 0.22,3.429 0.22,5.234 0,7.434 -2.53,13.769 -7.5,18.832 -5.01,5.09 -12.47,7.668 -22.17,7.668 z m 0,-7.078 c 7.78,0 13.48,-1.856 17.12,-5.551 3.64,-3.707 5.47,-8.332 5.47,-13.871 0,-1.605 -0.08,-3.18 -0.21,-4.731 -0.11,-1.546 -0.4,-3.429 -0.82,-5.64 -0.43,-2.223 -1.03,-4.93 -1.75,-8.141 -0.75,-3.207 -1.73,-7.343 -2.98,-12.402 -1.09,-4.555 -2.05,-8.574 -2.86,-12.012 -0.81,-3.457 -1.5,-6.73 -2.12,-9.824 -0.63,-3.082 -1.17,-6.066 -1.67,-8.961 -0.49,-2.902 -1.04,-5.965 -1.66,-9.172 -2.1,0.258 -4.21,0.375 -6.29,0.375 -2.12,0 -4.57,0 -7.41,0 -2.6,0 -5.03,0 -7.31,0 -2.29,0 -4.47,-0.117 -6.57,-0.375 0.5,1.117 1.27,3.371 2.32,6.758 1.04,3.398 2.23,7.289 3.51,11.668 1.29,4.367 2.59,9.031 3.89,13.965 1.31,4.929 2.49,9.613 3.62,14.054 1.1,4.446 2.02,8.438 2.77,11.946 0.72,3.511 1.1,6.078 1.1,7.679 0,3.458 -0.96,6.047 -2.87,7.762 -1.9,1.735 -4.53,2.59 -7.86,2.59 -4.44,0 -8.85,-1.91 -13.22,-5.727 -4.39,-3.832 -7.88,-9.812 -10.47,-17.96 -0.97,-3.079 -2.03,-6.723 -3.15,-10.915 -1.1,-4.195 -2.18,-8.664 -3.23,-13.402 -1.05,-4.758 -2.03,-9.633 -2.95,-14.621 -0.93,-5.004 -1.71,-9.605 -2.32,-13.797 -2.11,0.258 -4.22,0.375 -6.38,0.375 -2.16,0 -4.29,0 -6.38,0 -2.22,0 -4.5,0 -6.84,0 -2.36,0 -4.57,-0.117 -6.69,-0.375 1.63,5.688 3.21,11.668 4.83,17.965 1.6,6.285 3.2,12.969 4.81,20.066 1.6,7.098 3.23,14.774 4.9,23.036 1.66,8.265 3.42,17.39 5.27,27.382 1.86,-0.242 3.98,-0.461 6.4,-0.644 2.4,-0.176 4.71,-0.277 6.94,-0.277 2.07,0 4.12,0.101 6.1,0.277 1.97,0.183 3.87,0.402 5.73,0.644 -0.5,-1.601 -0.93,-2.996 -1.3,-4.164 -0.37,-1.172 -0.68,-2.312 -0.93,-3.41 -0.23,-1.117 -0.52,-2.289 -0.82,-3.531 -0.31,-1.227 -0.66,-2.699 -1.04,-4.434 4.46,5.547 9.26,9.836 14.46,12.868 5.17,3.023 11.46,4.527 18.86,4.527"
             style="fill:#201d1c;fill-opacity:1;fill-rule:nonzero;stroke:none"
             id="path322" /><path
             d="m 2894.37,356.301 c 0.21,0.754 0.44,1.508 0.66,2.258 0.96,3.074 2.15,5.855 3.51,8.203 1.2,2.023 2.55,3.601 4.09,4.765 1.03,0.782 2.24,1.153 3.77,1.153 1.31,0 2.74,-0.215 3,-0.7 1.07,-1.957 1.58,-4.238 1.58,-7.027 0,-2.848 -0.19,-5.457 -0.56,-7.754 -0.04,-0.273 -0.09,-0.543 -0.13,-0.808 -1.62,-0.067 -3.02,-0.09 -4.26,-0.09 h -11.66 z m 11.66,38.679 c -9.08,0 -17.24,-1.777 -24.26,-5.285 -6.9,-3.449 -12.76,-7.996 -17.41,-13.507 -4.64,-5.493 -8.16,-11.747 -10.46,-18.594 -2.28,-6.77 -3.44,-13.629 -3.44,-20.395 0,-6.148 0.97,-12.164 2.87,-17.879 1.96,-5.871 4.99,-11.148 9.01,-15.683 4.08,-4.614 9.35,-8.258 15.67,-10.828 6.13,-2.497 13.31,-3.758 21.35,-3.758 5.37,0 10.71,0.465 15.88,1.379 5.81,1.019 11.19,3.254 15.98,6.64 l 2.02,1.434 0.69,2.379 c 0.94,3.254 1.71,5.703 2.28,7.355 0.56,1.532 1.14,3.047 1.72,4.461 l 2.55,6.266 -6.14,2.836 -2.77,1.281 -4.56,2.106 -3.49,-3.602 c -2.86,-2.949 -5.83,-4.957 -9.08,-6.141 -3.47,-1.25 -6.56,-1.886 -9.15,-1.886 -8.18,0 -10.47,2.976 -11.23,3.953 -2.47,3.176 -3.71,7.722 -3.71,13.531 0,1.047 0.03,2.094 0.08,3.141 0.33,0.004 0.66,0.004 0.98,0.004 h 14.26 c 4.01,0 8.64,-0.055 13.88,-0.18 5.29,-0.121 11.82,-0.309 19.55,-0.555 l 6.23,-0.199 0.99,6.148 c 0.39,2.422 0.75,4.879 1.06,7.375 0.35,2.832 0.52,5.438 0.52,7.993 0,11.703 -3.62,21.414 -10.76,28.871 -7.22,7.527 -17.69,11.339 -31.11,11.339 z m -14.43,-45.757 h 14.43 c 1.36,0 2.91,0.027 4.62,0.097 1.73,0.059 3.58,0.149 5.56,0.278 0.36,1.605 0.77,3.761 1.2,6.48 0.43,2.703 0.64,5.668 0.64,8.875 0,3.945 -0.79,7.402 -2.41,10.371 -1.59,2.961 -4.68,4.434 -9.24,4.434 -3.07,0 -5.77,-0.867 -8.05,-2.59 -2.29,-1.734 -4.25,-4.02 -5.93,-6.848 -1.65,-2.84 -3.03,-6.074 -4.16,-9.715 -1.1,-3.632 -2.09,-7.308 -2.95,-11.007 0.98,-0.129 2.02,-0.219 3.15,-0.278 1.1,-0.07 2.15,-0.097 3.14,-0.097 m 14.43,38.679 c 11.46,0 20.15,-3.054 26,-9.16 5.85,-6.109 8.79,-14.09 8.79,-23.972 0,-2.34 -0.16,-4.711 -0.46,-7.106 -0.3,-2.414 -0.65,-4.793 -1.03,-7.137 -7.76,0.25 -14.32,0.434 -19.61,0.555 -5.31,0.129 -9.99,0.184 -14.05,0.184 h -8.52 c -1.6,0 -3.51,0 -5.74,0 -2.1,0 -4.57,-0.055 -7.4,-0.184 -0.24,-1.492 -0.44,-3.098 -0.56,-4.828 -0.11,-1.734 -0.18,-3.477 -0.18,-5.211 0,-7.445 1.72,-13.398 5.19,-17.852 3.44,-4.472 9.05,-6.711 16.83,-6.711 3.45,0 7.32,0.786 11.57,2.313 4.26,1.551 8.15,4.168 11.74,7.863 l 2.77,-1.281 c -0.6,-1.492 -1.22,-3.098 -1.85,-4.82 -0.6,-1.735 -1.41,-4.297 -2.39,-7.707 -3.95,-2.793 -8.34,-4.61 -13.13,-5.45 -4.83,-0.855 -9.69,-1.269 -14.64,-1.269 -7.14,0 -13.38,1.078 -18.68,3.234 -5.3,2.157 -9.66,5.145 -13.04,8.969 -3.4,3.824 -5.93,8.242 -7.59,13.227 -1.67,5.007 -2.51,10.214 -2.51,15.64 0,6.047 1.04,12.098 3.07,18.141 2.03,6.039 5.09,11.469 9.15,16.277 4.07,4.813 9.13,8.723 15.18,11.746 6.03,3.02 13.07,4.539 21.09,4.539"
             style="fill:#201d1c;fill-opacity:1;fill-rule:nonzero;stroke:none"
             id="path324" /><path
             d="m 3001.13,426.617 -4.83,-2.406 -3.33,-1.668 -4.23,-2.105 c -1.96,-0.997 -3.84,-1.84 -5.63,-2.571 -1.93,-0.793 -3.95,-1.562 -6.03,-2.351 l -6.21,-2.258 -1.57,-0.57 -3.93,-1.43 -0.64,-4.129 c -0.63,-3.988 -1.21,-7.762 -1.7,-11.313 -0.16,-1.117 -0.31,-2.195 -0.47,-3.23 -0.7,0.008 -1.44,0.031 -2.23,0.07 -1.12,0.055 -2.3,0.153 -3.57,0.258 l -6.69,0.566 -0.92,-6.644 c -0.33,-2.34 -0.59,-4.039 -0.83,-5.098 -0.22,-1.117 -0.54,-2.258 -0.95,-3.578 l -2.96,-9.558 10,0.386 2.17,0.086 c 0.44,0.02 0.87,0.035 1.29,0.051 -0.73,-3.285 -1.47,-6.555 -2.21,-9.813 -1.43,-6.195 -2.83,-12.441 -4.19,-18.769 -0.74,-3.328 -1.37,-6.195 -1.86,-8.559 l -0.24,-1.164 c -0.4,-1.898 -0.76,-3.625 -1.07,-5.187 -0.43,-2.121 -0.7,-4.028 -0.85,-5.824 -0.14,-1.625 -0.22,-3.305 -0.22,-5.004 0,-4.215 0.86,-8.137 2.55,-11.664 1.78,-3.614 4.16,-6.543 7.12,-8.774 2.68,-2.062 5.84,-3.695 9.35,-4.805 3.39,-1.078 7.03,-1.628 10.82,-1.628 3.54,0 6.72,0.332 9.72,1.015 2.48,0.547 5,1.16 7.53,1.781 l 4.03,0.993 1.1,4.011 1.67,6.106 3.26,11.902 -11.92,-3.199 c -1.23,-0.328 -2.54,-0.496 -3.91,-0.496 -1.71,0 -2.57,0.269 -2.95,0.449 -0.06,0.246 -0.15,0.727 -0.15,1.531 0,1.344 0.1,2.719 0.3,4.082 0.24,1.719 0.64,3.996 1.24,6.903 0.28,1.75 0.88,4.746 1.83,9.32 0.99,4.719 2.08,9.879 3.31,15.457 1.24,5.602 2.43,10.941 3.6,16.035 l 0.65,2.848 c 0.22,0.957 0.42,1.851 0.61,2.68 h 1.55 c 1.27,0 2.58,-0.036 3.96,-0.094 1.41,-0.055 2.87,-0.149 4.47,-0.246 l 6.94,-0.442 0.76,6.918 c 0.1,1.242 0.29,2.641 0.5,4.235 0.16,1.058 0.5,2.226 0.98,3.339 l 4.53,10.532 -11.44,-0.668 c -1.92,-0.11 -3.67,-0.207 -5.2,-0.262 -0.79,-0.031 -1.54,-0.051 -2.23,-0.066 0.46,2.269 0.99,4.492 1.55,6.679 0.6,2.258 1.25,4.621 1.9,6.993 0.65,2.261 1.45,4.839 2.41,7.687 l 1.31,3.914 -2.76,3.07 -1.49,1.664 -3.6,4.012 z m -1.67,-8.738 1.5,-1.664 c -1,-2.965 -1.83,-5.645 -2.52,-8.059 -0.66,-2.394 -1.32,-4.781 -1.94,-7.109 -0.6,-2.359 -1.17,-4.762 -1.66,-7.231 -0.49,-2.457 -1.05,-5.238 -1.66,-8.316 h 6.86 c 1.2,0 2.64,0.027 4.24,0.09 1.59,0.055 3.39,0.156 5.37,0.269 -0.74,-1.714 -1.23,-3.457 -1.49,-5.168 -0.24,-1.746 -0.44,-3.273 -0.55,-4.629 -1.74,0.11 -3.33,0.211 -4.8,0.266 -1.49,0.067 -2.9,0.102 -4.27,0.102 h -7.22 c -0.48,-2.219 -1.32,-5.899 -2.48,-11.012 -1.18,-5.117 -2.38,-10.484 -3.62,-16.098 -1.24,-5.609 -2.34,-10.8 -3.33,-15.539 -0.99,-4.754 -1.61,-7.871 -1.84,-9.347 -0.63,-3.094 -1.06,-5.52 -1.31,-7.317 -0.26,-1.789 -0.37,-3.484 -0.37,-5.09 0,-3.328 0.9,-5.668 2.7,-7.023 1.78,-1.363 4.27,-2.035 7.48,-2.035 1.96,0 3.89,0.238 5.74,0.734 l -1.67,-6.101 c -2.47,-0.606 -4.94,-1.207 -7.4,-1.75 -2.47,-0.563 -5.17,-0.84 -8.15,-0.84 -3.06,0 -5.97,0.433 -8.69,1.3 -2.71,0.86 -5.12,2.094 -7.22,3.708 -2.1,1.582 -3.76,3.66 -5,6.183 -1.22,2.535 -1.85,5.391 -1.85,8.602 0,1.492 0.07,2.965 0.2,4.441 0.12,1.492 0.36,3.152 0.73,5.004 0.37,1.852 0.81,3.945 1.3,6.289 0.49,2.34 1.11,5.18 1.85,8.516 1.36,6.297 2.75,12.507 4.17,18.683 1.41,6.176 2.8,12.387 4.15,18.692 -1.73,0 -3.55,-0.035 -5.46,-0.102 -1.91,-0.055 -4.28,-0.156 -7.12,-0.266 0.5,1.606 0.88,2.985 1.11,4.157 0.26,1.172 0.56,3.051 0.92,5.64 1.36,-0.113 2.64,-0.214 3.81,-0.269 1.17,-0.063 2.24,-0.09 3.23,-0.09 h 5.37 c 0.49,2.707 0.98,5.824 1.47,9.344 0.49,3.511 1.06,7.242 1.68,11.187 3.07,1.117 5.7,2.071 7.86,2.864 2.15,0.812 4.23,1.609 6.2,2.414 1.96,0.796 4.01,1.726 6.1,2.781 2.11,1.039 4.62,2.312 7.58,3.789"
             style="fill:#201d1c;fill-opacity:1;fill-rule:nonzero;stroke:none"
             id="path326" /></g></g></g></g></svg>