<svg width="500" height="500" viewBox="0 0 500 500" fill="none" xmlns="http://www.w3.org/2000/svg">
<path d="M500 250C500 111.93 388.07 0 250 0C111.93 0 0 111.93 0 250C0 367.24 80.72 465.62 189.61 492.64V326.4H138.06V250H189.61V217.08C189.61 131.99 228.12 92.55 311.66 92.55C327.5 92.55 354.83 95.66 366.01 98.76V168.01C360.11 167.39 349.86 167.08 337.13 167.08C296.14 167.08 280.3 182.61 280.3 222.98V250H361.96L347.93 326.4H280.3V498.17C404.09 483.22 500.01 377.82 500.01 250H500Z" fill="#0866FF"/>
<path d="M347.92 326.4L361.95 250H280.29V222.98C280.29 182.61 296.13 167.08 337.12 167.08C349.85 167.08 360.1 167.39 366 168.01V98.76C354.82 95.65 327.49 92.55 311.65 92.55C228.11 92.55 189.6 131.99 189.6 217.08V250H138.05V326.4H189.6V492.64C208.94 497.44 229.17 500 249.99 500C260.24 500 270.35 499.37 280.28 498.17V326.4H347.91H347.92Z" fill="white"/>
</svg>
