<?xml version="1.0" encoding="UTF-8"?>
<svg id="Layer_1" xmlns="http://www.w3.org/2000/svg" viewBox="0 0 492.663002699528988 864">
  <defs>
    <style>
      .cls-1 {
        fill: #fff;
      }

      .cls-2 {
        fill: #0066b2;
      }

      .cls-3 {
        fill: none;
      }

      .cls-4 {
        fill: #98989a;
      }

      .cls-5 {
        fill: #3352a3;
      }

      .cls-6 {
        fill: #ec1c24;
      }
    </style>
  </defs>
  <polygon class="cls-5" points="0 0 0 864 .012964737428774 864 246.331501349767677 704.063072128774365 492.649988288779241 864 492.663002699528988 864 492.663002699528988 0 0 0"/>
  <g>
    <g>
      <path class="cls-1" d="M115.008483204765071,188.898868964459325h19.5865731197473c6.782140840863576,0,13.455069142692082,3.067860416203075,13.455069142692082,10.813517482416501,0,4.142486527218352-1.995131769991531,8.075192206789325-6.026479608098271,9.635793045269565v.10921254178993c4.087008282710485.963516054023785,5.270875569038253,5.540533563153076,5.598273687686742,9.195147847699445.107104188857193,1.618369634718874.265652121969651,7.267904904634634,1.610175740524028,8.664054425363247h-9.899365286013563c-.860628541171536-1.293051194596956-1.025501524805804-5.052661320482002-1.132394878644845-6.131504131950351-.265652121967832-3.873039368132595-.910174770267076-7.854869608003355-5.594296352630408-7.854869608003355h-7.587108937430457v13.986373739953706h-10.010446627832607v-38.417725342538688ZM125.018929832597678,205.580346800375082h8.39439621918973c3.010091543924318,0,4.628461137760496-1.616261284488246,4.628461137760496-4.521357063122196,0-2.851754517873815-2.258675541786033-4.142697362239232-5.060855456687023-4.142697362239232h-7.962001900263203v8.664054425361428Z"/>
      <path class="cls-1" d="M168.114479925845444,188.089684147102162c12.104641666633142,0,18.938226251751075,8.875943623236708,18.938226251751075,20.016887896003027,0,11.14094427276541-6.833584585117933,20.018996246230017-18.938226251751075,20.018996246230017-12.108495075714927,0-18.94207966083286-8.878051973464608-18.94207966083286-20.018996246230017,0-11.140944272766319,6.833584585117933-20.016887896003027,18.94207966083286-20.016887896003027ZM168.114479925845444,219.517174309980874c6.45278735424381,0,8.925460438724258-5.703087365699503,8.925460438724258-11.410602266875685,0-5.705195715927402-2.472673084480448-11.404488051217413-8.925460438724258-11.404488051217413-6.462965813848314,0-8.933741383173583,5.699292335290011-8.933741383173583,11.404488051217413,0,5.707514901176182,2.470775569325269,11.410602266875685,8.933741383173583,11.410602266875685Z"/>
      <path class="cls-1" d="M189.249607059270602,188.898868964459325h17.97242022626142c6.617267857230217-.107104191562939,13.887491763453909,1.614152934263075,13.887491763453909,9.633684695042575,0,3.440405901423219-2.046575514244068,6.2364999732863-5.060883758520504,7.749873766669225,4.087036812986298,1.177724437146935,6.619406774923846,4.731348745792275,6.619406774923846,9.090152006361677,0,9.147920802603039-6.728619313954368,11.944014874465211-14.960250899684979,11.944014874465211h-18.458184106433691v-38.417725342538688ZM199.260053687105028,204.019535126870323h7.747765220714427c1.721257082342163,0,4.091042678316626-.916078173899223,4.091042678316626-3.66072850020737,0-2.79799158707101-1.990915069641233-3.710063895535313-4.091042678316626-3.710063895535313h-7.747765220714427v7.370792395742683ZM199.260053687105028,219.298960061419166h8.019531558188646c3.170747827210107,0,5.380118289600432-1.128178206794473,5.380118289600432-4.301034464330769,0-3.393178856324994-2.370026745676114-4.525573763580724-5.380118289600432-4.525573763580724h-8.019531558188646v8.826608227911493Z"/>
      <path class="cls-1" d="M242.353708140628441,188.089684147102162c12.106326471340253,0,18.942019406628788,8.875943623236708,18.942019406628788,20.016887896003027,0,11.14094427276541-6.835692935288534,20.018996246230017-18.942019406628788,20.018996246230017-12.108707786170271,0-18.942292371283656-8.878051973464608-18.942292371283656-20.018996246230017,0-11.140944272766319,6.833584585113385-20.016887896003027,18.942292371283656-20.016887896003027ZM242.353708140628441,219.517174309980874c6.456791344139674,0,8.929464428619212-5.703087365699503,8.929464428619212-11.410602266875685,0-5.705195715927402-2.472673084479538-11.404488051217413-8.929464428619212-11.404488051217413-6.458961823950631,0-8.93184574344923,5.699292335290011-8.93184574344923,11.404488051217413,0,5.707514901176182,2.472883919498599,11.410602266875685,8.93184574344923,11.410602266875685Z"/>
      <path class="cls-1" d="M293.950487552697268,197.511268809245848h-11.464154073039026v29.805325497752165h-10.008517286860297v-29.805325497752165h-11.459969198520412v-8.612399844786523h32.932640558419735v8.612399844786523Z"/>
      <path class="cls-1" d="M296.178381181937766,189.246746752014587h10.006229927490494v38.419833692766588h-10.006229927490494v-38.419833692766588Z"/>
      <path class="cls-1" d="M334.34479021318748,202.621698925961027c-.535310109269631-3.873039368127138-3.551726703719396-5.919614934073252-7.747732027739403-5.919614934073252-6.454747251758818,0-8.929739521439842,5.699292335290011-8.929739521439842,11.404488051217413,0,5.707514901176182,2.474992269681024,11.410602266875685,8.929739521439842,11.410602266875685,4.68198003920952,0,7.375009096200301-2.68898988030287,7.747732027739403-7.105351102087297h10.01255497800048c-.537418459440232,9.903553524176459-7.801317315139386,15.71374508144163-17.544214305849891,15.71374508144163-11.620593655979974,0-19.154150498989111-8.878051973464608-19.154150498989111-20.018996246230017,0-11.140944272766319,7.533556843009137-20.016887896003027,19.154150498989111-20.016887896003027,8.289400380510415,0,17.276664668730518,5.276989784699254,17.544214305849891,14.532014778858866h-10.01255497800048Z"/>
      <path class="cls-1" d="M354.246350848977272,214.406955028284756c.218425078061955,4.517351197690914,3.016416594451584,5.970847844608215,7.268115556051271,5.970847844608215,3.014308244279164,0,6.133612327228548-1.078842811473805,6.133612327228548-3.928278144091564,0-3.391070506099823-5.487192163769578-4.037701520907831-11.027725586958695-5.598302359388981-5.491198029099905-1.558703323273221-11.254162395680396-4.035593170678112-11.254162395680396-11.085283826754676,0-8.394396431249334,8.449845828779871-11.676254395555588,15.660403425070399-11.676254395555588,7.642769382029655,0,15.334874158139428,3.714280595988384,15.388426252569843,12.376226671124641h-10.002224062151072c.156473785700655-3.500283047887933-3.125629133479379-4.626352904457235-6.189272771829565-4.626352904457235-2.153679703109447,0-4.842669515479429.755632721577967-4.842669515479429,3.279749614076536,0,2.962864574868945,5.542641773359719,3.502391398114924,11.136938125991037,5.065100586824883,5.540533423179113,1.558492488252341,11.136727290969247,4.140378176991362,11.136727290969247,11.079169611094585,0,9.742897236834324-8.285183680160117,12.861990563569634-16.731023643600565,12.861990563569634-8.826608004928858,0-16.630033670249759-3.874726048315097-16.683585764680174-13.71861326105045h10.006440762499551Z"/>
    </g>
    <g>
      <path class="cls-1" d="M96.214526517125705,251.805503870795292c-.541424324775107-3.872828533107167-3.555705285838485-5.917506583849899-7.753879436221723-5.917506583849899-6.452816543626795,0-8.9318146786336,5.703298200724021-8.9318146786336,11.406596401445313,0,5.707304066155302,2.478998135006805,11.406596401443494,8.9318146786336,11.406596401443494,4.68391074734518,0,7.372900559715163-2.688989880300142,7.753879436221723-7.099236886427207h10.008549112676519c-.541635159792349,9.901445173948559-7.801317315145752,15.71163673121373-17.542105955675652,15.71163673121373-11.624810356337548,0-19.158578034355742-8.878051973465517-19.158578034355742-20.018996246230017,0-11.13461922208171,7.533767678018194-20.014990380796007,19.158578034355742-20.014990380796007,8.287081195313476,0,17.272237133357521,5.272983919262515,17.542105955675652,14.525900563200594h-10.008549112676519Z"/>
      <path class="cls-1" d="M125.801426183868898,237.279603307594698c12.106568371174035,0,18.938044606115909,8.880371158714297,18.938044606115909,20.014990380796007,0,11.1409442727645-6.831476234941874,20.018996246230017-18.938044606115909,20.018996246230017-12.108676721349184,0-18.942261306464388-8.878051973465517-18.942261306464388-20.018996246230017,0-11.13461922208171,6.833584585115204-20.014990380796007,18.942261306464388-20.014990380796007ZM125.801426183868898,268.701190089834199c6.454714058784703,0,8.92759797828603-5.699292335288192,8.92759797828603-11.406596401443494,0-5.703298200721292-2.472883919501328-11.406596401445313-8.92759797828603-11.406596401445313-6.460828274290179,0-8.933712193789688,5.703298200724021-8.933712193789688,11.406596401445313,0,5.707304066155302,2.472883919499509,11.406596401443494,8.933712193789688,11.406596401443494Z"/>
      <path class="cls-1" d="M146.987815415915065,238.086890609745751h14.750228654798775l6.615370342067763,25.610973554932571h.10921253903507l6.61937620739991-25.610973554932571h14.742006089118149v38.419622857745708h-9.415470208631632v-29.166917048831237h-.107104188857193l-8.073083652615423,29.166917048831237h-7.640661031860873l-8.073083652618152-29.166917048831237h-.104995838682953v29.166917048831237h-9.421795259153441v-38.419622857745708Z"/>
      <path class="cls-1" d="M191.423825360632691,238.086890609745751h18.2380723482338c7.154686316667721,0,13.881377547946613,3.283966314535064,13.881377547946613,12.37812418633257,0,9.524682988272616-5.433640069347348,13.2328493686-13.881377547946613,13.2328493686h-8.231631585733339v12.808649302813137h-10.006440762500461v-38.419622857745708ZM201.430266123133151,255.952207098470353h6.726480396259831c3.11719573278333,0,5.38011831176027-1.290942844371784,5.38011831176027-4.793334242484889,0-3.598953838541092-2.312257973057058-5.056667185913284-5.38011831176027-5.056667185913284h-6.726480396259831v9.850001428398173Z"/>
      <path class="cls-1" d="M225.748429349504477,238.086890609745751h30.622490627043589v8.015315060326429h-20.612043746329618v6.726480566186183h18.835126219389167v7.747765416437687h-18.835126219389167v7.319559485213176h21.147353855599249v8.610502329582232h-31.15780073631322v-38.419622857745708Z"/>
      <path class="cls-1" d="M290.880817300408125,246.695284589100083h-11.462224556738875v29.811228878391375h-10.012555230940052v-29.811228878391375h-11.455963255581082v-8.608393979354332h32.930743043260009v8.608393979354332Z"/>
      <path class="cls-1" d="M292.408527836748362,238.086890609745751h10.004332412329859v38.419622857745708h-10.004332412329859v-38.419622857745708Z"/>
      <path class="cls-1" d="M336.934986003948325,246.695284589100083h-11.46415407304994v29.811228878391375h-10.010446627829879v-29.811228878391375h-11.45803985755083v-8.608393979354332h32.932640558430649v8.608393979354332Z"/>
      <path class="cls-1" d="M338.812682669226888,238.086890609745751h10.00647451686018v38.419622857745708h-10.00647451686018v-38.419622857745708Z"/>
      <path class="cls-1" d="M370.013946064466836,237.279603307594698c12.108465886340127,0,18.944158821621386,8.880371158714297,18.944158821621386,20.014990380796007,0,11.1409442727645-6.835692935281259,20.018996246230017-18.944158821621386,20.018996246230017-12.104670856009761,0-18.940152956289239-8.878051973465517-18.940152956289239-20.018996246230017,0-11.13461922208171,6.835482100279478-20.014990380796007,18.940152956289239-20.014990380796007ZM370.013946064466836,268.701190089834199c6.462936624471695,0,8.933712193791507-5.699292335288192,8.933712193791507-11.406596401443494,0-5.703298200721292-2.470775569319812-11.406596401445313-8.933712193791507-11.406596401445313-6.454924893798307,0-8.933712193789688,5.703298200724021-8.933712193789688,11.406596401445313,0,5.707304066155302,2.478787299991382,11.406596401443494,8.933712193789688,11.406596401443494Z"/>
      <path class="cls-1" d="M389.995834841908618,238.086890609745751h10.27609874980044l13.341850738328503,23.673610530780934h.109212539031432v-23.673610530780934h9.417614190690074v38.419622857745708h-10.280315709851493l-13.341886110509222-23.947485225348828h-.109212539029613v23.947485225348828h-9.413361858460121v-38.419622857745708Z"/>
    </g>
    <g>
      <path class="cls-4" d="M243.309061345988084,64.910797943836769c2.797991516379625,0,5.515865726139054.255321212564922,8.109979780660979.728856673687915l6.17071929029953-6.431100699297531c-4.315550565450394-1.492711961149325-9.160149002511389-2.331835351740665-14.280699070960509-2.331835351740665-8.707275385070716,0-16.611691023738786,2.427554452076947-22.47332617847951,6.379656953741687l5.377979624743602,5.095882500147127c4.972333051196074-2.179401630285611,10.823637290075567-3.441460076538533,17.095346553735908-3.441460076538533Z"/>
      <path class="cls-1" d="M243.309061345988084,56.876718566486488c5.12055006844912,0,9.965148505510115.83912339059134,14.280699070960509,2.331835351740665l6.710035264899489-6.984964304087953c-6.261167512779139-2.467613106400677-13.401517048259848-3.869876842788472-20.990734335859997-3.869876842788472-11.311931190470204,0-21.633359469015886,3.113189946097918-29.510788225454235,8.234794319021603l7.037462046974724,6.667868429855844c5.861635154740725-3.95210250166474,13.766050793408795-6.379656953741687,22.47332617847951-6.379656953741687Z"/>
      <path class="cls-4" d="M211.090729826629286,84.208105907155186c.564194506659987-2.30505930385425,1.605930327806163-4.492683500027852,3.043192641662245-6.514380533285475l-2.703537428575146-2.732211059966176c-.535310109267812,1.679933461365181-.831744143782998,3.430074985305509-.831744143782998,5.230606079689096,0,1.370216812927538.170987199140654,2.709651712531013.4920889306959,4.015985513562555Z"/>
      <path class="cls-4" d="M191.117063614869949,99.324766204134903l-1.134503228819995,5.88039961983759,11.291299451554551-4.859114769581538c-.712441616717115-1.498826176812145-.852436068294082-3.452845167768828-1.264407692362511-5.042330404367021l-8.892388530372045,4.02104555411097Z"/>
      <polygon class="cls-4" points="183.171564783293434 35.344348526874455 166.829742169053134 124.830954752753314 174.559135520582458 125.460929800764461 190.740301438712777 34.672206474310769 183.171564783293434 35.344348526874455"/>
      <path class="cls-6" d="M238.124628267248227,86.839326991217604v-7.236068816199804l-11.869800646596559-11.251000154642497-5.375871274566634-5.095882500147127-7.039570397150783-6.667868429855844-23.125860557435772-21.917354791176876-16.187490968654856,90.789777501569006,34.250359417395885-15.054885635306164c-3.409413066946399-3.014308320423879-5.826636541841253-6.226169057171319-7.622107550319924-10.010657715742127l-11.149166557003809,4.785111676595989,1.118058097459652-5.853623571949356,7.22489437747663-37.654924230189863.60319898488342-3.160416991193415,5.964733478262133,6.006900633501573,7.675659644755797,7.729211934436535,3.294297147425823,3.322127453649955,13.547836550364082,11.670140179898226-13.150412542497179,6.026508290613492c3.415738117470028,3.412575678420581,7.461662102054106,6.416553082724931,12.915753168092124,8.115250861112145l16.4076027268502-7.367840705421258-7.482113098740228-7.174504989552588Z"/>
      <path class="cls-3" d="M279.140683394148255,61.63400002007711c5.579748736419788,5.515865865486376,8.882268449529874,12.362733229668265,8.882268449529874,19.781174340553662,0,1.361994247041366-.123549320211168,2.701218311623052-.339866048098884,4.018093863788636.216316727887715,1.317718892260928.339866048098884,2.657997131957018.339866048098884,4.018937203883979,0,5.67441380260243-1.935465460050182,11.01317824896978-5.340872661668982,15.674740602230486l22.306344844660089-23.226851117549813-23.574728309550665-22.635037208658105-2.273012322970317,2.368942315751156Z"/>
      <path class="cls-3" d="M268.154070635587232,73.073486685068929l-9.228037878128816,9.610914512587442,11.24593982999977,10.801289051097228c2.66010541498872-2.725042669196228,4.523465299080272-5.875128744275571,5.353101092690849-9.277584341598413-1.02318233961978-4.204261188887358-3.636060710690799-8.021640111009219-7.371003044561803-11.134619222086258Z"/>
      <path class="cls-4" d="M275.525073680149035,84.208105907155186c.319204216390062-1.306333801031542.494197280859225-2.645768700635017.494197280859225-4.015985513562555,0-4.042761561450789-1.478375142251025-7.856767123209465-4.021045452520411-11.170672010972339l-3.895598617158612,4.034328160541918c3.741056549379209,3.11318994609519,6.399264449200018,6.948068175105618,7.422446788819798,11.152329363992976Z"/>
      <path class="cls-4" d="M282.848849680797684,122.510504492242944l-9.232254578479115-8.869829407580255c-1.476266792080423,1.0088455839159-3.05563190769135,1.943477239815365-4.70685996282009,2.802208287524991l13.939114541299205,13.382963904807184,42.984410849679989-44.770395413360347-.047437878929486-7.250616432768766-42.936972970750503,44.705669061377193Z"/>
      <path class="cls-4" d="M251.526145315508074,92.441846051060566l-7.60355406878989-7.303114353435376-5.818624811179689-5.555081179723857-.02066183171064,7.255676473316271,8.180187841479892,7.856977958231255,7.819870796680334,7.510997685879374c1.986909204309995-.494197293352045,3.887376051468891-1.119955640909211,5.674413659249694-1.861251580937278l-8.231631585729701-7.904205003330389Z"/>
      <polygon class="cls-4" points="281.413695717118571 51.95287744491452 275.294631006087911 58.323257657653812 268.545380427948658 65.357557357070618 263.943695337397912 70.147729074209565 255.223980686308096 79.22755016445717 258.876486528359237 82.73289325288988 268.154070635587232 73.073486685068929 272.033224121379135 69.03473098905306 279.140683394148255 61.63400002007711 281.413695717118571 59.265057704325955 305.050198686777549 81.922654260421041 308.70695403596892 78.12804552075886 281.413695717118571 51.95287744491452"/>
      <path class="cls-1" d="M279.140683394148255,61.63400002007711l-7.10745927276912,7.40073096897595c2.542670310269386,3.312850712652107,3.986046839629125,7.114627843088783,3.986046839629125,11.157389404539572,0,1.370216812927538-.174993064469163,2.709651712531013-.494197280859225,4.015985513562555-.829635793610578,3.402455597322842-2.692995677702129,6.552541672402185-5.353101092690849,9.277584341598413-2.722090910099723,2.790823196292877-6.277823479149447,5.139103679813161-10.41419568622041,6.860360805637356-1.787037607780803.741295940028067-3.687504454939699,1.367054287585233-5.674413659249694,1.861251580937278-3.372516938899935.835960865249945-6.998246733739506,1.299165410257956-10.774301895999997,1.299165410257956-4.651231319649924,0-9.069700780039966-.693858059910781-13.07430110121004-1.941579724611074-5.456199416208619-1.698486943366333-10.134206783066475-4.425637962784094-13.552053250709832-7.840321991434394-1.247510798164512-1.243715799268102-2.324425643885661-2.579988173530182-3.213969005784747-3.992371991011169-1.095287915577501-1.7387564327164-1.90447271249468-3.588622922425202-2.378008161654179-5.524088431374366-.321101731555245-1.306333801031542-.4920889306959-2.645768700635017-.4920889306959-4.015985513562555,0-1.800531094383587.296434034515187-3.550672618323915.831744143782998-5.230606079689096l-8.161634359939853-8.263678717138646c-2.989429712216406,4.431963013471432-4.675688181664555,9.42685553771571-4.675688181664555,14.717338763865882,0,1.361994247041366.125476863624499,2.701218311623052.341763563262248,4.018093863788636.522870843238707,3.198367295292883,1.669813338087806,6.248728404610119,3.337518326001373,9.09732039714072.835960844131478,1.431991474593815,1.807729603181542,2.809376678298577,2.901089839911947,4.127095570557685,2.8722054425225,3.465284434107161,6.574046678654668,6.506368802418365,10.914296347576965,8.972927733708275,7.53566519317792,4.288806033011497,16.971797233514735,6.845813189064756,27.221330771123576,6.845813189064756,7.171131448029882,0,13.941043857869772-1.249619179908223,19.944781814360795-3.467181949313272,1.822247055699336-.673196227680819,3.570280185260344-1.434943164917968,5.241991038499691-2.279126596053175,3.870930920109458-1.958235691407936,7.305222519120434-4.352689044910221,10.171345794060471-7.088905970311316,4.809536369808484-4.594516816016039,8.021397025418992-10.146435470397591,9.015905802670204-16.207942374793674.216316727887715-1.316875552165584.339866048098884-2.656099616747269.339866048098884-4.018093863788636,0-7.418441110885396-3.302519713110087-14.265308475067286-8.882268449529874-19.781174340553662Z"/>
      <path class="cls-2" d="M251.48714083728828,92.49539814684249l8.20488710708014,7.879537305666418c4.130015587968956-1.723365476054823,7.716740904579638-4.043815736566103,10.442837680020602-6.833584757744575l-11.248048180172191-10.801289051097228-3.652505842059327-3.506397263550753,8.672308447210526-9.031539870034976,4.597436715161166-4.789960882119885,6.75135892831895-7.034510534435867,6.121173061199443-6.370169377716593,27.227444986619957,26.141223637180701-3.654614192219015,3.806837170981453-22.306555679680969,23.226851117543447c-2.34933459929016,3.218185787432049-5.396533106279094,6.076054520965045-8.999703554249209,8.542613452253136l9.166474053039565,8.843053359685655,42.984410849670894-44.76744372304529-44.76744259212137-42.983357760438594-16.765779737499543,17.460934915064172-6.710277783899073,6.986861819292244-6.174725155629858,6.431100699297531-13.271853512540474,13.887492114277848,13.383174401749784,12.911747628941157Z"/>
      <path class="cls-4" d="M213.654092374158608,89.953571112429017s.21417797216327.353148663123648.238845669204238.393207317448287c.656751079311107,1.043000857599509,1.558703283900286,1.999348520848798,2.413006774548194,2.952533658753055l13.372843485890371-6.178942012068546-30.731733811418053-28.620221834811673-.837828346429887,4.427746313013813,24.110008405967164,23.870319607017336-8.565142177762027,3.155356950647729Z"/>
      <path class="cls-4" d="M288.022951843678129,81.415174360630772c0,1.361994247041366-.123549320211168,2.701218311623052-.339866048098884,4.018093863788636-.994508777251212,6.061506904396083-4.20636943286172,11.613425558777635-9.015905802670204,16.207942374793674-2.866123274940037,2.736216925401095-6.300414873951013,5.130670278903381-10.171345794060471,7.088905970311316-1.671710853239347.844183431135207-3.419743982800355,1.605930368372356-5.241991038499691,2.279126596053175-6.003737956491022,2.217562769405049-12.773650366330912,3.467181949313272-19.944781814360795,3.467181949313272-10.249533537608841,0-19.685665577945656-2.55700715605326-27.221330771123576-6.845813189064756-4.340249668922297-2.46655893128991-8.042090905054465-5.507643299601114-10.914296347576965-8.972927733708275-1.093360236730405-1.317718892259109-2.065128995780469-2.69510409596387-2.901089839911947-4.127095570557685-1.667704987913567-2.848591992530601-2.814647482762666-5.898953101847837-3.337518326001373-9.09732039714072-.216286699637749-1.316875552165584-.341763563262248-2.656099616747269-.341763563262248-4.018093863788636,0-.42820593122633.032890262718865-.851351821911521.053552094426777-1.272389362365175-.004216700349389-.023824357572266-.012409239910994-.054606270892691-.014517590137984-.075268103122653-.218244269110073,1.317718892259109-.039034504288793,8.023748461233481-.039034504288793,9.384688533160443,0,2.156842282849539.288211468833651,4.262029985121444.821413227927223,6.303545510522781.415977489400575,1.592436926918708.986286211562401,3.140809334079677,1.698697735477253,4.639635510890002,1.795260173463248,3.784488658570808,4.4884666861808,7.255676473314452,7.9001989383205,10.269984793737422,8.206753053672401,7.237122991313299,20.523313102214161,11.845133248789352,34.295688946151131,11.845133248789352,9.557573010371016,0,18.404632012000548-2.223676985066049,25.672747568049999-5.997623892499178,1.651259856549586-.858731047705987,3.222191571459916-1.795471053836991,4.696560848389709-2.804316637749253,3.602959612950144-2.466558931289001,6.654406910291073-5.361534628828849,9.003709419581355-8.581617931460642,3.4054072016188-4.661562353260706,5.340872661668982-10.000326799628056,5.340872661668982-15.674740602230486,0-1.197332094267949.102887488508713-6.868583371522618-.012439266029105-9.122198929826482-.020661831700636-.307819133228804.012439266029105.693858059910781.012439266029105,1.085167862153867Z"/>
    </g>
    <g>
      <path class="cls-1" d="M167.912507667390855,135.794641668791883h30.600661497813235l-2.881362030488162,11.783724790317137h-14.666936861299291l-1.450048352270642,6.191077505610338h15.300138005351073l-2.663793099705799,10.917920695924295h-15.102151820288782l-3.625583465212912,15.511308241776533h-15.807978737825579l10.29705486392686-44.404031233628302Z"/>
      <path class="cls-1" d="M202.673346169056458,135.794641668791883h15.807978737820122l-10.297054863928679,44.404031233628302h-15.807978737819212l10.297054863927769-44.404031233628302Z"/>
      <path class="cls-1" d="M222.617062027291468,136.061167470602413l1.015295977833375-.133301449619466c5.075708914911957-.599278292590498,11.384668225544374-.998334569753752,14.865385630902892-.998334569753752,5.800738994860694,0,10.297060881340258.665582078973785,13.705454885489416,2.062972925896247,4.35029925165145,1.797911975171701,6.961357713280449,5.725871636900592,6.961357713280449,10.452560632362292,0,4.060413039656851-1.37780806588853,7.92206891499427-3.988866527519349,10.91792069593248-2.248160886449114,2.595947432082539-4.278058965290256,3.860884901072495-8.484494423600154,5.125745272633139l-1.014910490709553.332752490776329c.435137861569274.333523465030339.580472459259909.466824914648896.79803543674916.666353053232342,1.232556518919409,1.398161821179201,4.930842855049377,8.588344870796391,8.049356562029971,15.71083638035816h-17.403818319039601c-2.247775399319835-6.324378955227985-2.900559289079865-7.988295603955521-5.873744351660207-15.178555750997475l-3.480717405350333,15.178555750997475h-15.372763778840635l10.224429090434569-44.137505431817772ZM234.291616567427809,156.965594858504119c5.076094402020317,0,8.629437580870217-2.996622755207682,8.629437580870217-7.256563933438883,0-2.263965915577501-1.668079867599772-3.395601934943443-4.931151244740249-3.395601934943443-.942670204340175,0-1.450125449699954.066303786392382-2.465421427519686.266525801810531l-2.393104043730091,10.251567642690134c.507840732469958.066997663223447.58046650596043.134072423881662,1.160239135119809.134072423881662Z"/>
      <path class="cls-1" d="M296.691580442738086,135.794641668791883h38.355969453319631l-2.679606267969575,12.854299648263805h-11.383897251320377l-7.541824219249975,31.549731585364498h-15.807978737819212l7.541824219249975-31.549731585364498h-12.339358498051297l3.854871301840831-12.854299648263805Z"/>
      <path class="cls-1" d="M320.841030655087707,172.265347763222962c2.1306644121305,0,3.860113829291549,1.715109339613264,3.860113829291549,3.845850903005157,0,2.146469438284839-1.71433832204184,3.860884901066129-3.860113829291549,3.860884901066129-2.161657576617472,0-3.845843065550071-1.68504134345585-3.845843065550071-3.860884901066129,0-2.145775561460141,1.699296584059994-3.845850903005157,3.845843065550071-3.845850903005157ZM320.841030655087707,179.49469630528074c1.877707763690523,0,3.383497553570123-1.505789827934677,3.383497553570123-3.368463640977097,0-1.877784908561807-1.5057897898796-3.383574736483752-3.383497553570123-3.383574736483752-1.863444740240084,0-3.368540653309537,1.505789827921944-3.368540653309537,3.368540738408228,0,1.892741809202562,1.490755792190612,3.383497639052621,3.368540653309537,3.383497639052621ZM319.350274862898914,174.143826548615834c.194208411277941-.015033998071885.223582529860323-.029374119315435.611305475598783-.059442115472848.387029068930133-.030145093581268.551169484810089-.045179091656792.715309900700959-.045179091656792,1.267096164909162,0,1.892741761388606.492344162673362,1.892741761388606,1.43123661694699,0,.566203496813614-.237922650740074.908747360693269-.74537789608803,1.103032874309974l-.059442113972182.015033998071885c.04440811627137.030145093582178.059442113972182.044408117401872.074553209091391.073782236721854.134003189108626.119732302628108.581237480210802.79055700657409.95392642825027,1.401939595052681h-1.445576701669779c-.298135738950805-.551940472996648-.3878000431705-.70096979752725-.760488991221791-1.326615409819169v1.326615409819169h-1.236951072078227v-3.920404113973746ZM320.736332353167199,175.992237337848564c.342543855240365,0,.536829363931247-.164140420027252.536829363931247-.477387262018965,0-.298135746485968-.179174413580768-.462276166520496-.521787531049995-.462276166520496-.074483946849796,0-.089595041970824,0-.16414825107131.015033998077342v.90951833496274c.059519211410588.015111095499378.089664304221515.015111095499378.149106418190058.015111095499378Z"/>
      <path class="cls-1" d="M256.079194420169188,179.070120780099387c4.444358109049062,1.320524713150007,9.304348431358449,2.06066000311057,13.845155417939168,2.06066000311057,6.164016153359626,0,10.877212980200056-1.397390846925191,14.937625917280457-4.326938841471929,4.49555079863967-3.196073796350902,7.396502690229681-8.121597053567712,7.396502690229681-12.581760247223428,0-2.996622755204044-1.304803920669656-5.725871636907868-3.625205093490877-7.657085061702674-1.813023024880749-1.463617535880076-3.698279405749417-2.596024529515489-7.541901316670192-4.393165530429542l-3.117742732738407-1.464388510145c-1.015681464950831-.533051603614695-1.523136710311519-1.065409330401963-1.523136710311519-1.664687622981546,0-1.597689959768104,2.030591955659474-2.795552668098935,4.786208087460182-2.795552668098935,2.061430925290551,0,4.518217441320303.599355390008895,9.213296373511184,2.134519337256279l3.240481831890065-12.020182595972983c-3.511556375000509-.953926452352789-6.932754568952078-1.432007591211004-10.351639840180724-1.432007591211004-12.907033961630077,0-22.841653834910176,7.05626482059688-22.841653834910176,16.176890320751227,0,4.792992781858629,3.190831090780193,8.188594716792977,11.167099294780201,11.917026239932966,3.770526622500256,1.730143337693335,4.424081486509749,2.196968252348597,4.424081486509749,3.394830960678519,0,1.797141000920419-1.958351669291005,2.929547994549466-5.149105662650982,2.929547994549466-2.827933515589393,0-6.453208591108705-.865804094387386-11.384668225549831-2.663022192738936l-.006013599078869.001541948525301-3.469384084019111,12.383774057171649Z"/>
    </g>
  </g>
  <g>
    <path class="cls-1" d="M98.345786362972831,337.92626953125h7.458984375v44.66259765625h-7.458984375v-44.66259765625ZM101.753012925472831,356.4052734375h8.04248046875c.65478515625,0,1.22265625-.11767578125,1.70361328125-.35302734375.48046875-.2353515625.84423828125-.57275390625,1.08984375-1.01318359375.24560546875-.439453125.3681640625-.966796875.3681640625-1.58056640625v-4.97314453125c0-.67529296875-.12255859375-1.25830078125-.3681640625-1.74951171875s-.609375-.8642578125-1.08984375-1.1201171875c-.48095703125-.255859375-1.048828125-.3837890625-1.70361328125-.3837890625h-8.04248046875v-7.3056640625h7.58203125c2.41455078125,0,4.47607421875.39404296875,6.18505859375,1.181640625,1.70849609375.7880859375,3.01318359375,1.9443359375,3.9140625,3.46875.89990234375,1.52490234375,1.3505859375,3.35107421875,1.3505859375,5.47900390625v5.21826171875c0,2.1904296875-.45068359375,4.0673828125-1.3505859375,5.6328125-.90087890625,1.5654296875-2.21044921875,2.7578125-3.92919921875,3.576171875-1.71923828125.81884765625-3.77587890625,1.22802734375-6.169921875,1.22802734375h-7.58203125v-7.3056640625ZM107.953696519222831,362.32958984375l6.9677734375-1.412109375,7.12158203125,21.67138671875h-8.1650390625l-5.92431640625-20.25927734375Z"/>
    <path class="cls-1" d="M130.775962144222831,381.80615234375c-1.70849609375-.82861328125-3.01318359375-2.02587890625-3.91357421875-3.59130859375-.90087890625-1.5654296875-1.3505859375-3.45361328125-1.3505859375-5.66357421875v-24.556640625c0-2.21044921875.44970703125-4.10302734375,1.3505859375-5.6787109375.900390625-1.57568359375,2.205078125-2.77294921875,3.91357421875-3.591796875,1.70849609375-.81787109375,3.76025390625-1.2275390625,6.15478515625-1.2275390625,2.39404296875,0,4.44580078125.40966796875,6.15478515625,1.2275390625,1.7080078125.81884765625,3.0126953125,2.01611328125,3.91357421875,3.591796875.900390625,1.57568359375,1.3505859375,3.46826171875,1.3505859375,5.6787109375v24.556640625c0,2.2099609375-.4501953125,4.09814453125-1.3505859375,5.66357421875-.90087890625,1.5654296875-2.20556640625,2.7626953125-3.91357421875,3.59130859375-1.708984375.82861328125-3.7607421875,1.2431640625-6.15478515625,1.2431640625-2.39453125,0-4.4462890625-.41455078125-6.15478515625-1.2431640625ZM138.941489487972831,374.97607421875c.5625-.306640625.98681640625-.74658203125,1.27392578125-1.31982421875.2861328125-.57275390625.4296875-1.2685546875.4296875-2.08740234375v-22.6533203125c0-.79833984375-.1435546875-1.48388671875-.4296875-2.056640625-.287109375-.57275390625-.71142578125-1.01318359375-1.27392578125-1.3203125-.5634765625-.306640625-1.2333984375-.46044921875-2.0107421875-.46044921875-.77783203125,0-1.44287109375.15380859375-1.9951171875.46044921875-.552734375.30712890625-.97216796875.74755859375-1.2587890625,1.3203125s-.4296875,1.25830078125-.4296875,2.056640625v22.6533203125c0,.81884765625.14306640625,1.5146484375.4296875,2.08740234375.28662109375.5732421875.7060546875,1.01318359375,1.2587890625,1.31982421875.55224609375.30712890625,1.21728515625.46044921875,1.9951171875.46044921875.77734375,0,1.447265625-.1533203125,2.0107421875-.46044921875Z"/>
    <path class="cls-1" d="M157.849692612972831,381.80615234375c-1.70849609375-.82861328125-3.01318359375-2.02587890625-3.91357421875-3.59130859375-.90087890625-1.5654296875-1.3505859375-3.45361328125-1.3505859375-5.66357421875v-24.556640625c0-2.21044921875.44970703125-4.10302734375,1.3505859375-5.6787109375.900390625-1.57568359375,2.205078125-2.77294921875,3.91357421875-3.591796875,1.70849609375-.81787109375,3.76025390625-1.2275390625,6.15478515625-1.2275390625,2.39404296875,0,4.44580078125.40966796875,6.15478515625,1.2275390625,1.7080078125.81884765625,3.0126953125,2.01611328125,3.91357421875,3.591796875.900390625,1.57568359375,1.3505859375,3.46826171875,1.3505859375,5.6787109375v24.556640625c0,2.2099609375-.4501953125,4.09814453125-1.3505859375,5.66357421875-.90087890625,1.5654296875-2.20556640625,2.7626953125-3.91357421875,3.59130859375-1.708984375.82861328125-3.7607421875,1.2431640625-6.15478515625,1.2431640625-2.39453125,0-4.4462890625-.41455078125-6.15478515625-1.2431640625ZM166.015219956722831,374.97607421875c.5625-.306640625.98681640625-.74658203125,1.27392578125-1.31982421875.2861328125-.57275390625.4296875-1.2685546875.4296875-2.08740234375v-22.6533203125c0-.79833984375-.1435546875-1.48388671875-.4296875-2.056640625-.287109375-.57275390625-.71142578125-1.01318359375-1.27392578125-1.3203125-.5634765625-.306640625-1.2333984375-.46044921875-2.0107421875-.46044921875-.77783203125,0-1.44287109375.15380859375-1.9951171875.46044921875-.552734375.30712890625-.97216796875.74755859375-1.2587890625,1.3203125s-.4296875,1.25830078125-.4296875,2.056640625v22.6533203125c0,.81884765625.14306640625,1.5146484375.4296875,2.08740234375.28662109375.5732421875.7060546875,1.01318359375,1.2587890625,1.31982421875.55224609375.30712890625,1.21728515625.46044921875,1.9951171875.46044921875.77734375,0,1.447265625-.1533203125,2.0107421875-.46044921875Z"/>
    <path class="cls-1" d="M180.273520737972831,337.95703125h7.61279296875v44.6318359375h-7.61279296875v-44.6318359375ZM186.320884019222831,361.9609375l8.6865234375-24.00390625h8.59521484375l-17.28173828125,37.541015625v-13.537109375ZM189.113852769222831,358.21630859375l5.21826171875-4.57373046875,10.6826171875,28.9462890625h-8.349609375l-7.55126953125-24.37255859375Z"/>
    <path class="cls-1" d="M214.714438706722831,382.5888671875h-7.6123046875v-44.6318359375h7.6123046875v44.6318359375Z"/>
    <path class="cls-1" d="M219.564536362972831,337.95703125h7.61279296875v44.6318359375h-7.61279296875v-44.6318359375ZM222.941001206722831,337.95703125h16.453125v7.42822265625h-16.453125v-7.42822265625ZM222.941001206722831,356.7119140625h14.91845703125v7.39794921875h-14.91845703125v-7.39794921875ZM222.941001206722831,375.16064453125h16.453125v7.42822265625h-16.453125v-7.42822265625Z"/>
    <path class="cls-1" d="M255.969809800472831,337.95703125h7.61279296875v44.6318359375h-7.61279296875v-44.6318359375ZM261.034751206722831,375.283203125h5.70947265625c1.02294921875,0,1.81103515625-.3115234375,2.36328125-.93603515625.552734375-.6240234375.8291015625-1.4990234375.8291015625-2.62451171875v-22.8994140625c0-1.125-.2763671875-2-.8291015625-2.62451171875-.55224609375-.6240234375-1.34033203125-.93603515625-2.36328125-.93603515625h-5.70947265625v-7.3056640625h6.4765625c2.12841796875,0,3.94921875.39404296875,5.4638671875,1.181640625,1.5146484375.7880859375,2.6708984375,1.93359375,3.46875,3.43798828125.79833984375,1.50390625,1.197265625,3.2998046875,1.197265625,5.38720703125v24.6181640625c0,2.08740234375-.39892578125,3.8828125-1.197265625,5.38720703125-.7978515625,1.50390625-1.95947265625,2.650390625-3.48388671875,3.43798828125-1.52490234375.7880859375-3.35107421875,1.181640625-5.47900390625,1.181640625h-6.4462890625v-7.3056640625Z"/>
    <path class="cls-1" d="M282.491294175472831,337.95703125h7.61279296875v44.6318359375h-7.61279296875v-44.6318359375ZM285.867759019222831,337.95703125h16.453125v7.42822265625h-16.453125v-7.42822265625ZM285.867759019222831,356.7119140625h14.91845703125v7.39794921875h-14.91845703125v-7.39794921875ZM285.867759019222831,375.16064453125h16.453125v7.42822265625h-16.453125v-7.42822265625Z"/>
    <path class="cls-1" d="M310.823813706722831,381.74462890625c-1.67822265625-.86962890625-2.96240234375-2.1279296875-3.8525390625-3.775390625-.89013671875-1.64697265625-1.3349609375-3.626953125-1.3349609375-5.93994140625v-2.39404296875l7.58154296875-.0615234375v2.39453125c0,1.12548828125.3173828125,2.01025390625.95166015625,2.65478515625.63427734375.64501953125,1.51416015625.96728515625,2.64013671875.96728515625,1.10498046875,0,1.958984375-.3173828125,2.56298828125-.95166015625.603515625-.63427734375.90576171875-1.50439453125.90576171875-2.609375v-3.8984375c0-.81787109375-.23046875-1.529296875-.69091796875-2.13330078125-.46044921875-.60302734375-1.05419921875-1.125-1.7802734375-1.5654296875-.7265625-.43994140625-1.71435546875-.966796875-2.96240234375-1.58056640625-.08203125-.041015625-.15869140625-.08154296875-.22998046875-.123046875-.07177734375-.04052734375-.14892578125-.08154296875-.23046875-.12255859375l-.39892578125-.1845703125c-1.65771484375-.8388671875-3.0693359375-1.71337890625-4.23583984375-2.62451171875-1.16650390625-.91015625-2.138671875-2.11279296875-2.91650390625-3.6064453125s-1.166015625-3.33544921875-1.166015625-5.525390625v-2.30224609375c0-2.271484375.4345703125-4.220703125,1.30419921875-5.84765625s2.1337890625-2.8701171875,3.791015625-3.7294921875c1.65771484375-.859375,3.65283203125-1.2890625,5.98583984375-1.2890625,2.271484375,0,4.2255859375.4296875,5.86279296875,1.2890625s2.8857421875,2.11328125,3.7451171875,3.76025390625c.859375,1.6474609375,1.2890625,3.62744140625,1.2890625,5.939453125v2.51708984375l-7.58203125.09228515625v-2.5478515625c0-1.1455078125-.29150390625-2.041015625-.87451171875-2.68603515625-.58349609375-.64453125-1.39697265625-.966796875-2.4404296875-.966796875-1.10498046875,0-1.9599609375.29150390625-2.56298828125.875-.60400390625.5830078125-.90576171875,1.38671875-.90576171875,2.40966796875v2.9775390625c0,.83935546875.2197265625,1.5654296875.66015625,2.17919921875.43994140625.6142578125.9921875,1.130859375,1.65771484375,1.55029296875.66455078125.41943359375,1.5908203125.92626953125,2.77783203125,1.51953125.22509765625.1025390625.455078125.21484375.6904296875.33740234375.2353515625.123046875.47607421875.24560546875.7216796875.36865234375.04052734375.0205078125.07666015625.041015625.107421875.06103515625.03076171875.02099609375.06591796875.04150390625.107421875.0615234375,1.6982421875.90087890625,3.0693359375,1.734375,4.11328125,2.501953125,1.04345703125.76708984375,1.93359375,1.8466796875,2.67041015625,3.23828125.73681640625,1.39208984375,1.10498046875,3.17236328125,1.10498046875,5.34130859375v3.7138671875c0,2.31298828125-.43505859375,4.29296875-1.3046875,5.93994140625-.86962890625,1.6474609375-2.13330078125,2.90576171875-3.79052734375,3.775390625-1.65771484375.86962890625-3.64306640625,1.3046875-5.955078125,1.3046875-2.3330078125,0-4.3388671875-.43505859375-6.0166015625-1.3046875Z"/>
    <path class="cls-1" d="M339.739341050472831,382.5888671875h-7.6123046875v-44.6318359375h7.6123046875v44.6318359375Z"/>
    <path class="cls-1" d="M366.874594956722831,358.49267578125v13.3525390625c0,2.3330078125-.43505859375,4.3388671875-1.30419921875,6.0166015625-.8701171875,1.67822265625-2.1337890625,2.9619140625-3.791015625,3.85205078125-1.65771484375.89013671875-3.64306640625,1.33544921875-5.955078125,1.33544921875-2.353515625,0-4.36962890625-.4296875-6.04736328125-1.2890625-1.67822265625-.85986328125-2.9619140625-2.107421875-3.85205078125-3.7451171875-.89013671875-1.63671875-1.33544921875-3.59130859375-1.33544921875-5.86279296875v-23.14501953125c0-2.39404296875.4345703125-4.45556640625,1.3046875-6.18505859375.86962890625-1.72900390625,2.13330078125-3.04931640625,3.791015625-3.9599609375,1.6572265625-.91015625,3.64208984375-1.36572265625,5.955078125-1.36572265625,2.271484375,0,4.220703125.43994140625,5.84716796875,1.31982421875,1.626953125.8798828125,2.8701171875,2.1591796875,3.72998046875,3.8369140625.859375,1.67822265625,1.2890625,3.68359375,1.2890625,6.0166015625v3.43798828125h-7.82763671875v-3.43798828125c0-.71630859375-.12255859375-1.33544921875-.3681640625-1.857421875-.24560546875-.521484375-.5986328125-.9208984375-1.05908203125-1.19677734375-.46044921875-.2763671875-.99755859375-.41455078125-1.611328125-.41455078125-.67529296875,0-1.26416015625.1533203125-1.76513671875.46044921875-.501953125.30712890625-.88525390625.7470703125-1.1513671875,1.31982421875-.26611328125.5732421875-.39892578125,1.24853515625-.39892578125,2.02587890625v23.14501953125c0,.63427734375.13818359375,1.1923828125.41455078125,1.6728515625.2763671875.48095703125.68017578125.849609375,1.21240234375,1.10498046875.53173828125.25634765625,1.15576171875.3837890625,1.87255859375.3837890625.73681640625,0,1.3759765625-.1328125,1.91845703125-.39892578125.5419921875-.26611328125.95654296875-.65478515625,1.2431640625-1.16650390625.2861328125-.51123046875.4296875-1.12548828125.4296875-1.841796875v-6.1083984375h-3.7451171875v-7.3056640625h11.2041015625Z"/>
    <path class="cls-1" d="M371.724692612972831,337.95703125h5.98583984375l10.498046875,29.77490234375-.8291015625,1.197265625v-30.97216796875h6.9375v44.60107421875h-6.046875l-10.37548828125-28.05615234375.7978515625-1.22802734375v29.2841796875h-6.9677734375v-44.60107421875Z"/>
    <path class="cls-1" d="M187.042075425472831,413.3955078125h5.3408203125l10.65185546875,44.6318359375h-7.55126953125l-5.77099609375-29.25341796875-5.77099609375,29.25341796875h-7.55126953125l10.65185546875-44.6318359375ZM183.634848862972831,443.96875h12.1552734375v7.12109375h-12.1552734375v-7.12109375Z"/>
    <path class="cls-1" d="M215.619712144222831,413.3955078125h5.8935546875l4.8193359375,30.9716796875,2.2412109375-30.9716796875h7.7353515625l-5.70947265625,44.6318359375h-7.3056640625l-4.54296875-28.8544921875-4.880859375,28.8544921875h-7.3056640625l-5.740234375-44.6318359375h7.7353515625l2.24072265625,30.9716796875,4.8193359375-30.9716796875Z"/>
    <path class="cls-1" d="M244.750571519222831,413.3955078125h5.3408203125l10.65185546875,44.6318359375h-7.55126953125l-5.77099609375-29.25341796875-5.77099609375,29.25341796875h-7.55126953125l10.65185546875-44.6318359375ZM241.343344956722831,443.96875h12.1552734375v7.12109375h-12.1552734375v-7.12109375Z"/>
    <path class="cls-1" d="M264.058188706722831,413.36474609375h7.458984375v44.66259765625h-7.458984375v-44.66259765625ZM267.465415269222831,431.84375h8.04248046875c.65478515625,0,1.22265625-.11767578125,1.70361328125-.35302734375.48046875-.2353515625.84423828125-.57275390625,1.08984375-1.01318359375.24560546875-.439453125.3681640625-.966796875.3681640625-1.58056640625v-4.97314453125c0-.67529296875-.12255859375-1.25830078125-.3681640625-1.74951171875s-.609375-.8642578125-1.08984375-1.1201171875c-.48095703125-.255859375-1.048828125-.3837890625-1.70361328125-.3837890625h-8.04248046875v-7.3056640625h7.58203125c2.41455078125,0,4.47607421875.39404296875,6.18505859375,1.181640625,1.70849609375.7880859375,3.01318359375,1.9443359375,3.9140625,3.46875.89990234375,1.52490234375,1.3505859375,3.35107421875,1.3505859375,5.47900390625v5.21826171875c0,2.1904296875-.45068359375,4.0673828125-1.3505859375,5.63232421875-.90087890625,1.5654296875-2.21044921875,2.7578125-3.92919921875,3.576171875-1.71923828125.8193359375-3.77587890625,1.228515625-6.169921875,1.228515625h-7.58203125v-7.3056640625ZM273.666098862972831,437.767578125l6.9677734375-1.412109375,7.12158203125,21.671875h-8.1650390625l-5.92431640625-20.259765625Z"/>
    <path class="cls-1" d="M292.452231675472831,413.3955078125h7.61279296875v44.6318359375h-7.61279296875v-44.6318359375ZM297.517173081722831,450.7216796875h5.70947265625c1.02294921875,0,1.81103515625-.3115234375,2.36328125-.9365234375.552734375-.6240234375.8291015625-1.4990234375.8291015625-2.6240234375v-22.8994140625c0-1.125-.2763671875-2-.8291015625-2.62451171875-.55224609375-.6240234375-1.34033203125-.93603515625-2.36328125-.93603515625h-5.70947265625v-7.3056640625h6.4765625c2.12841796875,0,3.94921875.39404296875,5.4638671875,1.181640625,1.5146484375.7880859375,2.6708984375,1.93359375,3.46875,3.43798828125.79833984375,1.50390625,1.197265625,3.2998046875,1.197265625,5.38720703125v24.6181640625c0,2.0869140625-.39892578125,3.8828125-1.197265625,5.38671875-.7978515625,1.50390625-1.95947265625,2.650390625-3.48388671875,3.4384765625-1.52490234375.7880859375-3.35107421875,1.181640625-5.47900390625,1.181640625h-6.4462890625v-7.3056640625Z"/>
  </g>
  <g>
    <rect class="cls-3" x="86.094598698637128" y="515.465205036882253" width="320.473624252191257" height="174.166652313277154"/>
    <path class="cls-1" d="M209.074790269222831,586.3037109375l8.02880859375-14.115234375c1.1396484375-1.96875,1.9853515625-3.755859375,2.5380859375-5.361328125.55224609375-1.60546875.82861328125-3.021484375.82861328125-4.2470703125v-.259765625c0-1.15625-.22021484375-2.01953125-.66015625-2.58984375-.4404296875-.5693359375-1.10986328125-.8544921875-2.00732421875-.8544921875-1.07080078125,0-1.86083984375.384765625-2.3701171875,1.15234375-.50927734375.7685546875-.763671875,1.9384765625-.763671875,3.509765625v.724609375h-5.8017578125v-.724609375c.01708984375-2.279296875.34521484375-4.173828125.984375-5.685546875.638671875-1.5107421875,1.60107421875-2.6455078125,2.8876953125-3.4052734375,1.2861328125-.759765625,2.896484375-1.1396484375,4.83056640625-1.1396484375,1.93310546875,0,3.54345703125.3369140625,4.830078125,1.009765625,1.2861328125.673828125,2.25341796875,1.6796875,2.90087890625,3.017578125s.97119140625,3.0087890625.97119140625,5.01171875v.2587890625c0,1.4501953125-.30224609375,3.099609375-.90673828125,4.947265625s-1.5107421875,3.8935546875-2.71923828125,6.1376953125l-6.552734375,12.1728515625h10.126953125v5.4912109375h-17.1455078125v-5.05078125Z"/>
    <path class="cls-1" d="M232.876548081722831,589.4375c-1.50244140625-1.5361328125-2.25341796875-3.7119140625-2.25341796875-6.5263671875v-20.771484375c0-2.814453125.7509765625-4.990234375,2.25341796875-6.52734375,1.501953125-1.5361328125,3.6083984375-2.3046875,6.3193359375-2.3046875,2.71044921875,0,4.8173828125.7685546875,6.31982421875,2.3046875,1.501953125,1.537109375,2.2529296875,3.712890625,2.2529296875,6.52734375v20.771484375c0,2.814453125-.7509765625,4.990234375-2.2529296875,6.5263671875-1.50244140625,1.537109375-3.609375,2.3056640625-6.31982421875,2.3056640625-2.7109375,0-4.8173828125-.7685546875-6.3193359375-2.3056640625ZM241.319907456722831,585.37109375c.50048828125-.5869140625.7509765625-1.4150390625.7509765625-2.486328125v-20.7197265625c0-1.0703125-.2548828125-1.8994140625-.76416015625-2.486328125s-1.21337890625-.880859375-2.11083984375-.880859375c-.89794921875,0-1.6015625.2939453125-2.11083984375.880859375s-.76416015625,1.416015625-.76416015625,2.486328125v20.7197265625c0,1.0712890625.25048828125,1.8994140625.75146484375,2.486328125.50048828125.587890625,1.2080078125.880859375,2.12353515625.880859375.9150390625,0,1.623046875-.29296875,2.1240234375-.880859375Z"/>
    <path class="cls-1" d="M252.327231675472831,586.3037109375l8.02880859375-14.115234375c1.1396484375-1.96875,1.9853515625-3.755859375,2.5380859375-5.361328125.55224609375-1.60546875.82861328125-3.021484375.82861328125-4.2470703125v-.259765625c0-1.15625-.22021484375-2.01953125-.66015625-2.58984375-.4404296875-.5693359375-1.10986328125-.8544921875-2.00732421875-.8544921875-1.07080078125,0-1.86083984375.384765625-2.3701171875,1.15234375-.50927734375.7685546875-.763671875,1.9384765625-.763671875,3.509765625v.724609375h-5.8017578125v-.724609375c.01708984375-2.279296875.34521484375-4.173828125.984375-5.685546875.638671875-1.5107421875,1.60107421875-2.6455078125,2.8876953125-3.4052734375,1.2861328125-.759765625,2.896484375-1.1396484375,4.83056640625-1.1396484375,1.93310546875,0,3.54345703125.3369140625,4.830078125,1.009765625,1.2861328125.673828125,2.25341796875,1.6796875,2.90087890625,3.017578125s.97119140625,3.0087890625.97119140625,5.01171875v.2587890625c0,1.4501953125-.30224609375,3.099609375-.90673828125,4.947265625s-1.5107421875,3.8935546875-2.71923828125,6.1376953125l-6.552734375,12.1728515625h10.126953125v5.4912109375h-17.1455078125v-5.05078125Z"/>
    <path class="cls-1" d="M283.277426987972831,591.3544921875h-5.6982421875v-31.4423828125l-5.2578125,2.900390625v-6.0341796875l4.9990234375-3.08203125h5.95703125v37.658203125Z"/>
    <path class="cls-1" d="M99.634848862972831,639.716796875c-1.330078125-.759765625-2.3486328125-1.85546875-3.05615234375-3.2890625-.70849609375-1.4326171875-1.06201171875-3.16015625-1.06201171875-5.1796875v-19.1923828125c0-2.037109375.353515625-3.7724609375,1.06201171875-5.205078125.70751953125-1.43359375,1.72607421875-2.529296875,3.05615234375-3.2900390625,1.3291015625-.759765625,2.9267578125-1.1396484375,4.79150390625-1.1396484375,1.8818359375,0,3.4873046875.3759765625,4.8173828125,1.126953125,1.3291015625.7509765625,2.34375,1.8515625,3.04296875,3.302734375.69921875,1.4501953125,1.048828125,3.185546875,1.048828125,5.205078125v2.3056640625h-5.74951171875v-2.3056640625c0-.828125-.12109375-1.544921875-.36279296875-2.1494140625s-.60009765625-1.0615234375-1.07470703125-1.373046875c-.47509765625-.310546875-1.048828125-.4658203125-1.72216796875-.4658203125-.65673828125,0-1.21728515625.1552734375-1.68359375.4658203125-.46630859375.3115234375-.82861328125.7646484375-1.087890625,1.3603515625-.2587890625.595703125-.38818359375,1.31640625-.38818359375,2.162109375v19.1923828125c0,.845703125.12939453125,1.5625.38818359375,2.1494140625.25927734375.5869140625.62158203125,1.0361328125,1.087890625,1.3466796875s1.02685546875.4658203125,1.68359375.4658203125c.6904296875,0,1.26904296875-.1591796875,1.7353515625-.478515625.4658203125-.3193359375.81982421875-.7724609375,1.0615234375-1.3603515625.24169921875-.5859375.36279296875-1.302734375.36279296875-2.1494140625v-2.3046875h5.74951171875v2.3046875c-.01708984375,2.0205078125-.37109375,3.755859375-1.0615234375,5.2060546875-.69091796875,1.4501953125-1.70556640625,2.55078125-3.04345703125,3.3017578125-1.33837890625.751953125-2.939453125,1.126953125-4.80419921875,1.126953125s-3.46240234375-.3798828125-4.79150390625-1.1396484375Z"/>
    <path class="cls-1" d="M123.177817612972831,602.8095703125h4.50634765625l8.85791015625,37.658203125h-5.82763671875l-5.28369140625-27.32421875-5.283203125,27.32421875h-5.82763671875l8.85791015625-37.658203125ZM120.173423081722831,628.1142578125h10.72216796875v5.30859375h-10.72216796875v-5.30859375Z"/>
    <path class="cls-1" d="M139.598227769222831,602.8095703125h4.68798828125l9.5830078125,27.013671875-.75146484375.8291015625v-27.8427734375h5.28369140625v37.6328125h-4.73974609375l-9.5048828125-25.822265625.7509765625-.8544921875v26.6767578125h-5.3095703125v-37.6328125Z"/>
    <path class="cls-1" d="M169.797934800472831,602.8095703125h4.50634765625l8.85791015625,37.658203125h-5.82763671875l-5.28369140625-27.32421875-5.283203125,27.32421875h-5.82763671875l8.85791015625-37.658203125ZM166.793540269222831,628.1142578125h10.72216796875v5.30859375h-10.72216796875v-5.30859375Z"/>
    <path class="cls-1" d="M186.218344956722831,602.8095703125h5.69775390625v37.658203125h-5.69775390625v-37.658203125ZM189.921958237972831,635.0546875h5.853515625c.88037109375,0,1.55810546875-.2626953125,2.033203125-.7900390625.474609375-.5263671875.7119140625-1.2724609375.7119140625-2.240234375v-20.771484375c0-.966796875-.2373046875-1.712890625-.7119140625-2.240234375-.47509765625-.5263671875-1.15283203125-.7900390625-2.033203125-.7900390625h-5.853515625v-5.4130859375h6.1123046875c1.7265625,0,3.20263671875.3203125,4.42919921875.9580078125,1.2255859375.6396484375,2.16259765625,1.5673828125,2.81005859375,2.78515625.6474609375,1.216796875.97119140625,2.689453125.97119140625,4.4150390625v21.341796875c0,1.708984375-.328125,3.1767578125-.984375,4.4033203125-.65625,1.2255859375-1.59716796875,2.158203125-2.8232421875,2.796875s-2.7021484375.9580078125-4.4287109375.9580078125h-6.08642578125v-5.4130859375Z"/>
    <path class="cls-1" d="M214.008872300472831,640.4677734375h-5.69775390625v-37.658203125h5.69775390625v37.658203125Z"/>
    <path class="cls-1" d="M225.119712144222831,602.8095703125h4.50634765625l8.85791015625,37.658203125h-5.82763671875l-5.28369140625-27.32421875-5.283203125,27.32421875h-5.82763671875l8.85791015625-37.658203125ZM222.115317612972831,628.1142578125h10.72216796875v5.30859375h-10.72216796875v-5.30859375Z"/>
    <path class="cls-1" d="M241.540122300472831,602.8095703125h4.68798828125l9.5830078125,27.013671875-.75146484375.8291015625v-27.8427734375h5.28369140625v37.6328125h-4.73974609375l-9.5048828125-25.822265625.7509765625-.8544921875v26.6767578125h-5.3095703125v-37.6328125Z"/>
    <path class="cls-1" d="M275.883384019222831,602.8095703125h5.69775390625v37.658203125h-5.69775390625v-37.658203125ZM278.758384019222831,620.447265625h6.88916015625c.6044921875,0,1.1220703125-.1376953125,1.55419921875-.4140625.43115234375-.2763671875.763671875-.673828125.9970703125-1.19140625.23291015625-.5185546875.349609375-1.1484375.349609375-1.890625v-5.1025390625c0-.7763671875-.1123046875-1.4326171875-.3369140625-1.9677734375s-.556640625-.9462890625-.9970703125-1.23046875c-.4404296875-.28515625-.96240234375-.427734375-1.56689453125-.427734375h-6.88916015625v-5.4130859375h6.94091796875c1.81298828125,0,3.36279296875.3330078125,4.64892578125.9970703125,1.2861328125.6650390625,2.2705078125,1.640625,2.95263671875,2.9267578125.68212890625,1.287109375,1.02294921875,2.828125,1.02294921875,4.623046875v6.138671875c0,1.7607421875-.34521484375,3.267578125-1.03564453125,4.51953125-.69091796875,1.251953125-1.6796875,2.2060546875-2.9658203125,2.861328125-1.2861328125.6572265625-2.8271484375.984375-4.623046875.984375h-6.94091796875v-5.4130859375Z"/>
    <path class="cls-1" d="M303.777426987972831,602.8095703125h4.50634765625l8.85791015625,37.658203125h-5.82763671875l-5.28369140625-27.32421875-5.283203125,27.32421875h-5.82763671875l8.85791015625-37.658203125ZM300.773032456722831,628.1142578125h10.72216796875v5.30859375h-10.72216796875v-5.30859375Z"/>
    <path class="cls-1" d="M322.244223862972831,639.716796875c-1.330078125-.759765625-2.3486328125-1.85546875-3.05615234375-3.2890625-.70849609375-1.4326171875-1.06201171875-3.16015625-1.06201171875-5.1796875v-19.1923828125c0-2.037109375.353515625-3.7724609375,1.06201171875-5.205078125.70751953125-1.43359375,1.72607421875-2.529296875,3.05615234375-3.2900390625,1.3291015625-.759765625,2.9267578125-1.1396484375,4.79150390625-1.1396484375,1.8818359375,0,3.4873046875.3759765625,4.8173828125,1.126953125,1.3291015625.7509765625,2.34375,1.8515625,3.04296875,3.302734375.69921875,1.4501953125,1.048828125,3.185546875,1.048828125,5.205078125v2.3056640625h-5.74951171875v-2.3056640625c0-.828125-.12109375-1.544921875-.36279296875-2.1494140625s-.60009765625-1.0615234375-1.07470703125-1.373046875c-.47509765625-.310546875-1.048828125-.4658203125-1.72216796875-.4658203125-.65673828125,0-1.21728515625.1552734375-1.68359375.4658203125-.46630859375.3115234375-.82861328125.7646484375-1.087890625,1.3603515625-.2587890625.595703125-.38818359375,1.31640625-.38818359375,2.162109375v19.1923828125c0,.845703125.12939453125,1.5625.38818359375,2.1494140625.25927734375.5869140625.62158203125,1.0361328125,1.087890625,1.3466796875s1.02685546875.4658203125,1.68359375.4658203125c.6904296875,0,1.26904296875-.1591796875,1.7353515625-.478515625.4658203125-.3193359375.81982421875-.7724609375,1.0615234375-1.3603515625.24169921875-.5859375.36279296875-1.302734375.36279296875-2.1494140625v-2.3046875h5.74951171875v2.3046875c-.01708984375,2.0205078125-.37109375,3.755859375-1.0615234375,5.2060546875-.69091796875,1.4501953125-1.70556640625,2.55078125-3.04345703125,3.3017578125-1.33837890625.751953125-2.939453125,1.126953125-4.80419921875,1.126953125s-3.46240234375-.3798828125-4.79150390625-1.1396484375Z"/>
    <path class="cls-1" d="M345.191489487972831,640.4677734375h-5.69775390625v-37.658203125h5.69775390625v37.658203125Z"/>
    <path class="cls-1" d="M349.775473862972831,602.8095703125h5.69775390625v37.658203125h-5.69775390625v-37.658203125ZM352.521079331722831,602.8095703125h13.75244140625v5.4130859375h-13.75244140625v-5.4130859375ZM352.521079331722831,619.4111328125h12.45751953125v5.3876953125h-12.45751953125v-5.3876953125Z"/>
    <path class="cls-1" d="M375.260825425472831,640.4677734375h-5.69775390625v-37.658203125h5.69775390625v37.658203125Z"/>
    <path class="cls-1" d="M383.962973862972831,639.716796875c-1.330078125-.759765625-2.3486328125-1.85546875-3.05615234375-3.2890625-.70849609375-1.4326171875-1.06201171875-3.16015625-1.06201171875-5.1796875v-19.1923828125c0-2.037109375.353515625-3.7724609375,1.06201171875-5.205078125.70751953125-1.43359375,1.72607421875-2.529296875,3.05615234375-3.2900390625,1.3291015625-.759765625,2.9267578125-1.1396484375,4.79150390625-1.1396484375,1.8818359375,0,3.4873046875.3759765625,4.8173828125,1.126953125,1.3291015625.7509765625,2.34375,1.8515625,3.04296875,3.302734375.69921875,1.4501953125,1.048828125,3.185546875,1.048828125,5.205078125v2.3056640625h-5.74951171875v-2.3056640625c0-.828125-.12109375-1.544921875-.36279296875-2.1494140625s-.60009765625-1.0615234375-1.07470703125-1.373046875c-.47509765625-.310546875-1.048828125-.4658203125-1.72216796875-.4658203125-.65673828125,0-1.21728515625.1552734375-1.68359375.4658203125-.46630859375.3115234375-.82861328125.7646484375-1.087890625,1.3603515625-.2587890625.595703125-.38818359375,1.31640625-.38818359375,2.162109375v19.1923828125c0,.845703125.12939453125,1.5625.38818359375,2.1494140625.25927734375.5869140625.62158203125,1.0361328125,1.087890625,1.3466796875s1.02685546875.4658203125,1.68359375.4658203125c.6904296875,0,1.26904296875-.1591796875,1.7353515625-.478515625.4658203125-.3193359375.81982421875-.7724609375,1.0615234375-1.3603515625.24169921875-.5859375.36279296875-1.302734375.36279296875-2.1494140625v-2.3046875h5.74951171875v2.3046875c-.01708984375,2.0205078125-.37109375,3.755859375-1.0615234375,5.2060546875-.69091796875,1.4501953125-1.70556640625,2.55078125-3.04345703125,3.3017578125-1.33837890625.751953125-2.939453125,1.126953125-4.80419921875,1.126953125s-3.46240234375-.3798828125-4.79150390625-1.1396484375Z"/>
    <path class="cls-1" d="M165.562583237972831,651.8974609375h5.6201171875v37.6845703125h-5.6201171875v-37.6845703125ZM168.152426987972831,668.240234375h6.8896484375c.70751953125,0,1.32080078125-.12890625,1.8388671875-.388671875.51806640625-.2587890625.91015625-.6337890625,1.17822265625-1.1259765625.267578125-.4921875.41015625-1.1015625.42724609375-1.826171875v-4.0146484375c0-.7421875-.1337890625-1.380859375-.4013671875-1.9169921875-.267578125-.5341796875-.6650390625-.9453125-1.19140625-1.2294921875-.52685546875-.28515625-1.14404296875-.427734375-1.8515625-.427734375h-6.8896484375v-5.4130859375h6.47509765625c2.02001953125,0,3.74658203125.3330078125,5.18017578125.9970703125,1.4326171875.6650390625,2.52880859375,1.640625,3.2890625,2.9267578125.759765625,1.287109375,1.1396484375,2.828125,1.1396484375,4.623046875v4.4033203125c0,1.84765625-.3798828125,3.431640625-1.1396484375,4.7529296875-.76025390625,1.3203125-1.86083984375,2.326171875-3.30224609375,3.0166015625-1.44189453125.69140625-3.1640625,1.0361328125-5.1669921875,1.0361328125h-6.47509765625v-5.4130859375ZM174.005942612972831,672.48828125l5.2578125-1.19140625,6.03466796875,18.28515625h-6.16455078125l-5.1279296875-17.09375Z"/>
    <path class="cls-1" d="M189.520102769222831,651.923828125h5.69775390625v37.658203125h-5.69775390625v-37.658203125ZM192.239829331722831,651.923828125h13.75244140625v5.46484375h-13.75244140625v-5.46484375ZM192.239829331722831,668.1630859375h12.45751953125v5.4384765625h-12.45751953125v-5.4384765625ZM192.239829331722831,684.1171875h13.75244140625v5.46484375h-13.75244140625v-5.46484375Z"/>
    <path class="cls-1" d="M228.110923081722831,669.2763671875v11.13671875c0,2.0029296875-.36279296875,3.716796875-1.087890625,5.1416015625-.72509765625,1.423828125-1.7744140625,2.5166015625-3.14697265625,3.2763671875-1.37255859375.7587890625-3.0263671875,1.1396484375-4.9599609375,1.1396484375-1.951171875,0-3.6259765625-.359375-5.0244140625-1.0751953125-1.3984375-.716796875-2.46923828125-1.76171875-3.21142578125-3.1337890625-.74267578125-1.373046875-1.11376953125-3.017578125-1.11376953125-4.93359375v-19.6064453125c0-2.037109375.36279296875-3.78125,1.087890625-5.2314453125.72509765625-1.451171875,1.77392578125-2.5556640625,3.14697265625-3.3154296875,1.37255859375-.759765625,3.025390625-1.1396484375,4.95947265625-1.1396484375,1.8818359375,0,3.50048828125.3671875,4.8564453125,1.1005859375,1.35498046875.734375,2.38671875,1.80859375,3.0947265625,3.224609375s1.0703125,3.107421875,1.087890625,5.076171875v2.3828125h-5.93115234375v-2.3828125c0-.7939453125-.12060546875-1.4716796875-.3623046875-2.033203125-.2421875-.560546875-.595703125-.98828125-1.06201171875-1.2822265625-.46630859375-.29296875-1.02734375-.439453125-1.68359375-.439453125-.72509765625,0-1.3466796875.1591796875-1.86474609375.478515625-.51806640625.3203125-.91552734375.78125-1.19140625,1.3857421875-.2763671875.6044921875-.41455078125,1.330078125-.41455078125,2.17578125v19.6064453125c0,.7080078125.142578125,1.3291015625.427734375,1.8642578125.28466796875.53515625.69921875.94140625,1.2431640625,1.2177734375s1.1953125.4140625,1.955078125.4140625c.7421875,0,1.38134765625-.1513671875,1.9169921875-.453125.53466796875-.3017578125.9453125-.73828125,1.22998046875-1.30859375.28515625-.5693359375.42724609375-1.2685546875.42724609375-2.09765625v-5.8017578125h-3.70361328125v-5.38671875h9.32421875Z"/>
    <path class="cls-1" d="M237.875083237972831,689.58203125h-5.69775390625v-37.658203125h5.69775390625v37.658203125Z"/>
    <path class="cls-1" d="M246.836020737972831,688.8828125c-1.416015625-.7255859375-2.4990234375-1.76953125-3.25048828125-3.1337890625-.7509765625-1.3642578125-1.12646484375-3.013671875-1.12646484375-4.947265625v-20.0986328125c0-1.93359375.37548828125-3.5869140625,1.12646484375-4.958984375.75146484375-1.373046875,1.83447265625-2.41796875,3.25048828125-3.1337890625,1.41552734375-.716796875,3.125-1.0751953125,5.12841796875-1.0751953125,2.00244140625,0,3.7119140625.3583984375,5.1279296875,1.0751953125,1.41552734375.7158203125,2.49951171875,1.7607421875,3.25048828125,3.1337890625.7509765625,1.3720703125,1.12646484375,3.025390625,1.12646484375,4.958984375v20.0986328125c0,1.93359375-.37548828125,3.5830078125-1.12646484375,4.947265625s-1.8349609375,2.408203125-3.25048828125,3.1337890625c-1.416015625.724609375-3.12548828125,1.087890625-5.1279296875,1.087890625-2.00341796875,0-3.712890625-.36328125-5.12841796875-1.087890625ZM254.010337144222831,683.91015625c.56982421875-.3115234375,1.00146484375-.755859375,1.294921875-1.333984375s.4404296875-1.2734375.4404296875-2.0849609375v-19.5029296875c0-.8115234375-.14697265625-1.505859375-.4404296875-2.0849609375-.29345703125-.578125-.72509765625-1.0185546875-1.294921875-1.3203125-.56982421875-.302734375-1.251953125-.4541015625-2.0458984375-.4541015625-.79443359375,0-1.4765625.1513671875-2.04638671875.4541015625-.56982421875.3017578125-1.00146484375.7421875-1.294921875,1.3203125-.2939453125.5791015625-.4404296875,1.2734375-.4404296875,2.0849609375v19.5029296875c0,.8115234375.146484375,1.5068359375.4404296875,2.0849609375.29345703125.578125.72509765625,1.0224609375,1.294921875,1.333984375.56982421875.310546875,1.251953125.4658203125,2.04638671875.4658203125.7939453125,0,1.47607421875-.1552734375,2.0458984375-.4658203125Z"/>
    <path class="cls-1" d="M265.820395737972831,651.923828125h4.68798828125l9.5830078125,27.0126953125-.75146484375.8291015625v-27.841796875h5.28369140625v37.6318359375h-4.73974609375l-9.5048828125-25.822265625.7509765625-.8544921875v26.6767578125h-5.3095703125v-37.6318359375Z"/>
    <path class="cls-1" d="M296.019614487972831,651.923828125h4.50634765625l8.85791015625,37.658203125h-5.82763671875l-5.28369140625-27.32421875-5.283203125,27.32421875h-5.82763671875l8.85791015625-37.658203125ZM293.015219956722831,677.2275390625h10.72216796875v5.3095703125h-10.72216796875v-5.3095703125Z"/>
    <path class="cls-1" d="M312.440024644222831,651.923828125h5.69775390625v37.658203125h-5.69775390625v-37.658203125ZM315.107505112972831,684.1689453125h13.28662109375v5.4130859375h-13.28662109375v-5.4130859375Z"/>
  </g>
</svg>