<?xml version="1.0" encoding="UTF-8"?>
<svg id="Layer_1" xmlns="http://www.w3.org/2000/svg" viewBox="0 0 492.663002699509889 864">
  <defs>
    <style>
      .cls-1 {
        fill: #fff;
      }

      .cls-2 {
        fill: #0066b2;
      }

      .cls-3 {
        fill: none;
      }

      .cls-4 {
        fill: #98989a;
      }

      .cls-5 {
        fill: #3352a3;
      }

      .cls-6 {
        fill: #ec1c24;
      }
    </style>
  </defs>
  <polygon class="cls-5" points="0 0 0 864 .012964737408765 864 246.331501349750397 704.063072128774365 492.649988288760142 864 492.663002699509889 864 492.663002699509889 0 0 0"/>
  <g>
    <g>
      <path class="cls-1" d="M115.0084832047487,188.898868964459325h19.586573119750028c6.782140840859938,0,13.455069142701177,3.067860416203075,13.455069142701177,10.813517482416501,0,4.142486527218352-1.995131769999716,8.075192206789325-6.026479608110094,9.635793045269565v.10921254178993c4.087008282709576.963516054023785,5.270875569040072,5.540533563153076,5.59827368769038,9.195147847699445.107104188869926,1.618369634718874.265652121979656,7.267904904634634,1.61017574051948,8.664054425363247h-9.89936528600083c-.860628541178812-1.293051194596956-1.025501524818537-5.052661320482002-1.132394878659397-6.131504131950351-.265652121959647-3.873039368132595-.91017477026071-7.854869608003355-5.594296352619494-7.854869608003355h-7.587108937439552v13.986373739953706h-10.010446627831698v-38.417725342538688ZM125.018929832580397,205.580346800375082h8.39439621918973c3.01009154393978,0,4.628461137768682-1.616261284488246,4.628461137768682-4.521357063122196,0-2.851754517873815-2.258675541788762-4.142697362239232-5.060855456678837-4.142697362239232h-7.962001900279574v8.664054425361428Z"/>
      <path class="cls-1" d="M168.114479925839987,188.089684147102162c12.1046416666195,0,18.938226251750166,8.875943623236708,18.938226251750166,20.016887896003027,0,11.14094427276541-6.833584585130666,20.018996246230017-18.938226251750166,20.018996246230017-12.108495075730389,0-18.942079660830132-8.878051973464608-18.942079660830132-20.018996246230017,0-11.140944272766319,6.833584585099743-20.016887896003027,18.942079660830132-20.016887896003027ZM168.114479925839987,219.517174309980874c6.452787354230168,0,8.925460438718801-5.703087365699503,8.925460438718801-11.410602266875685,0-5.705195715927402-2.472673084488633-11.404488051217413-8.925460438718801-11.404488051217413-6.462965813860137,0-8.933741383179949,5.699292335290011-8.933741383179949,11.404488051217413,0,5.707514901176182,2.470775569319812,11.410602266875685,8.933741383179949,11.410602266875685Z"/>
      <path class="cls-1" d="M189.249607059258778,188.898868964459325h17.972420226269605c6.617267857222032-.107104191562939,13.887491763440266,1.614152934263075,13.887491763440266,9.633684695042575,0,3.440405901423219-2.046575514228607,6.2364999732863-5.060883758518685,7.749873766669225,4.087036812999941,1.177724437146935,6.619406774920208,4.731348745792275,6.619406774920208,9.090152006361677,0,9.147920802603039-6.72861931395164,11.944014874465211-14.960250899670427,11.944014874465211h-18.458184106440967v-38.417725342538688ZM199.260053687088657,204.019535126870323h7.747765220710789c1.721257082350348,0,4.091042678330268-.916078173899223,4.091042678330268-3.66072850020737,0-2.79799158707101-1.990915069651237-3.710063895535313-4.091042678330268-3.710063895535313h-7.747765220710789v7.370792395742683ZM199.260053687088657,219.298960061419166h8.019531558191375c3.170747827209198,0,5.380118289598613-1.128178206794473,5.380118289598613-4.301034464330769,0-3.393178856324994-2.370026745678842-4.525573763580724-5.380118289598613-4.525573763580724h-8.019531558191375v8.826608227911493Z"/>
      <path class="cls-1" d="M242.353708140619347,188.089684147102162c12.106326471330249,0,18.942019406620602,8.875943623236708,18.942019406620602,20.016887896003027,0,11.14094427276541-6.835692935290353,20.018996246230017-18.942019406620602,20.018996246230017-12.108707786159357,0-18.942292371280928-8.878051973464608-18.942292371280928-20.018996246230017,0-11.140944272766319,6.833584585121571-20.016887896003027,18.942292371280928-20.016887896003027ZM242.353708140619347,219.517174309980874c6.456791344140584,0,8.929464428620122-5.703087365699503,8.929464428620122-11.410602266875685,0-5.705195715927402-2.472673084479538-11.404488051217413-8.929464428620122-11.404488051217413-6.458961823960635,0-8.931845743460144,5.699292335290011-8.931845743460144,11.404488051217413,0,5.707514901176182,2.472883919499509,11.410602266875685,8.931845743460144,11.410602266875685Z"/>
      <path class="cls-1" d="M293.950487552699997,197.511268809245848h-11.46415407304994v29.805325497752165h-10.008517286851202v-29.805325497752165h-11.459969198538602v-8.612399844786523h32.932640558439743v8.612399844786523Z"/>
      <path class="cls-1" d="M296.178381181938676,189.246746752014587h10.006229927481399v38.419833692766588h-10.006229927481399v-38.419833692766588Z"/>
      <path class="cls-1" d="M334.34479021316838,202.621698925961027c-.535310109269631-3.873039368127138-3.551726703708482-5.919614934073252-7.747732027728489-5.919614934073252-6.454747251769732,0-8.929739521439842,5.699292335290011-8.929739521439842,11.404488051217413,0,5.707514901176182,2.474992269670111,11.410602266875685,8.929739521439842,11.410602266875685,4.681980039200425,0,7.375009096200301-2.68898988030287,7.747732027728489-7.105351102087297h10.012554978020489c-.537418459460241,9.903553524176459-7.801317315159395,15.71374508144163-17.544214305858986,15.71374508144163-11.620593655979974,0-19.154150498980016-8.878051973464608-19.154150498980016-20.018996246230017,0-11.140944272766319,7.533556843000042-20.016887896003027,19.154150498980016-20.016887896003027,8.289400380499501,0,17.276664668728699,5.276989784699254,17.544214305858986,14.532014778858866h-10.012554978020489Z"/>
      <path class="cls-1" d="M354.246350848959992,214.406955028284756c.21842507807014,4.517351197690914,3.016416594449765,5.970847844608215,7.268115556058547,5.970847844608215,3.014308244270069,0,6.133612327241281-1.078842811473805,6.133612327241281-3.928278144091564,0-3.391070506099823-5.487192163789587-4.037701520907831-11.027725586969609-5.598302359388981-5.491198029110819-1.558703323273221-11.254162395680396-4.035593170678112-11.254162395680396-11.085283826754676,0-8.394396431249334,8.449845828768957-11.676254395555588,15.66040342506858-11.676254395555588,7.642769382031474,0,15.334874158130333,3.714280595988384,15.388426252560748,12.376226671124641h-10.002224062149253c.156473785698836-3.500283047887933-3.125629133481198-4.626352904457235-6.189272771831384-4.626352904457235-2.153679703098533,0-4.842669515468515.755632721577967-4.842669515468515,3.279749614076536,0,2.962864574868945,5.542641773359719,3.502391398114924,11.136938125990127,5.065100586824883,5.540533423180023,1.558492488252341,11.136727290968338,4.140378176991362,11.136727290968338,11.079169611094585,0,9.742897236834324-8.285183680158298,12.861990563569634-16.731023643598746,12.861990563569634-8.826608004939771,0-16.630033670249759-3.874726048315097-16.683585764691088-13.71861326105045h10.00644076250137Z"/>
    </g>
    <g>
      <path class="cls-1" d="M96.214526517118429,251.805503870795292c-.541424324779655-3.872828533107167-3.555705285838485-5.917506583849899-7.753879436229909-5.917506583849899-6.45281654361861,0-8.931814678628143,5.703298200724021-8.931814678628143,11.406596401445313,0,5.707304066155302,2.478998135009533,11.406596401443494,8.931814678628143,11.406596401443494,4.683910747351547,0,7.372900559721529-2.688989880300142,7.753879436229909-7.099236886427207h10.008549112670153c-.541635159788711,9.901445173948559-7.801317315148481,15.71163673121373-17.54210595567929,15.71163673121373-11.624810356339367,0-19.158578034339371-8.878051973465517-19.158578034339371-20.018996246230017,0-11.13461922208171,7.533767678000004-20.014990380796007,19.158578034339371-20.014990380796007,8.287081195330757,0,17.272237133369345,5.272983919262515,17.54210595567929,14.525900563200594h-10.008549112670153Z"/>
      <path class="cls-1" d="M125.801426183859803,237.279603307594698c12.106568371178582,0,18.938044606118638,8.880371158714297,18.938044606118638,20.014990380796007,0,11.1409442727645-6.831476234940055,20.018996246230017-18.938044606118638,20.018996246230017-12.108676721360098,0-18.942261306459841-8.878051973465517-18.942261306459841-20.018996246230017,0-11.13461922208171,6.833584585099743-20.014990380796007,18.942261306459841-20.014990380796007ZM125.801426183859803,268.701190089834199c6.454714058780155,0,8.927597978279664-5.699292335288192,8.927597978279664-11.406596401443494,0-5.703298200721292-2.472883919499509-11.406596401445313-8.927597978279664-11.406596401445313-6.460828274301093,0-8.933712193800602,5.703298200724021-8.933712193800602,11.406596401445313,0,5.707304066155302,2.472883919499509,11.406596401443494,8.933712193800602,11.406596401443494Z"/>
      <path class="cls-1" d="M146.987815415899604,238.086890609745751h14.750228654800594l6.615370342069582,25.610973554932571h.109212539029613l6.61937620739991-25.610973554932571h14.742006089119968v38.419622857745708h-9.415470208630722v-29.166917048831237h-.107104188849917l-8.073083652619971,29.166917048831237h-7.640661031869968l-8.073083652609057-29.166917048831237h-.104995838690229v29.166917048831237h-9.421795259149803v-38.419622857745708Z"/>
      <path class="cls-1" d="M191.423825360619958,238.086890609745751h18.238072348229252c7.15468631666954,0,13.881377547950251,3.283966314535064,13.881377547950251,12.37812418633257,0,9.524682988272616-5.433640069350076,13.2328493686-13.881377547950251,13.2328493686h-8.231631585720606v12.808649302813137h-10.006440762508646v-38.419622857745708ZM201.430266123128604,255.952207098470353h6.726480396249826c3.117195732791515,0,5.38011831176118-1.290942844371784,5.38011831176118-4.793334242484889,0-3.598953838541092-2.312257973049782-5.056667185913284-5.38011831176118-5.056667185913284h-6.726480396249826v9.850001428398173Z"/>
      <path class="cls-1" d="M225.748429349499929,238.086890609745751h30.622490627039952v8.015315060326429h-20.612043746341442v6.726480566186183h18.835126219390077v7.747765416437687h-18.835126219390077v7.319559485213176h21.147353855620167v8.610502329582232h-31.157800736318677v-38.419622857745708Z"/>
      <path class="cls-1" d="M290.88081730039994,246.695284589100083h-11.46222455672978v29.811228878391375h-10.012555230960061v-29.811228878391375h-11.455963255570168v-8.608393979354332h32.930743043260009v8.608393979354332Z"/>
      <path class="cls-1" d="M292.408527836729263,238.086890609745751h10.004332412330768v38.419622857745708h-10.004332412330768v-38.419622857745708Z"/>
      <path class="cls-1" d="M336.934986003940139,246.695284589100083h-11.464154073060854v29.811228878391375h-10.010446627820784v-29.811228878391375h-11.458039857549011v-8.608393979354332h32.932640558430649v8.608393979354332Z"/>
      <path class="cls-1" d="M338.812682669218702,238.086890609745751h10.006474516851085v38.419622857745708h-10.006474516851085v-38.419622857745708Z"/>
      <path class="cls-1" d="M370.013946064458651,237.279603307594698c12.108465886340127,0,18.944158821621386,8.880371158714297,18.944158821621386,20.014990380796007,0,11.1409442727645-6.835692935281259,20.018996246230017-18.944158821621386,20.018996246230017-12.104670856018856,0-18.940152956300153-8.878051973465517-18.940152956300153-20.018996246230017,0-11.13461922208171,6.835482100281297-20.014990380796007,18.940152956300153-20.014990380796007ZM370.013946064458651,268.701190089834199c6.462936624469876,0,8.933712193791507-5.699292335288192,8.933712193791507-11.406596401443494,0-5.703298200721292-2.470775569321631-11.406596401445313-8.933712193791507-11.406596401445313-6.454924893809221,0-8.933712193778774,5.703298200724021-8.933712193778774,11.406596401445313,0,5.707304066155302,2.478787299969554,11.406596401443494,8.933712193778774,11.406596401443494Z"/>
      <path class="cls-1" d="M389.995834841898613,238.086890609745751h10.276098749811354l13.341850738308494,23.673610530780934h.109212539051441v-23.673610530780934h9.417614190670065v38.419622857745708h-10.280315709849674l-13.341886110500127-23.947485225348828h-.109212539040527v23.947485225348828h-9.413361858451026v-38.419622857745708Z"/>
    </g>
    <g>
      <path class="cls-4" d="M243.309061345969894,64.910797943836769c2.79799151638872,0,5.515865726139964.255321212564922,8.109979780680078.728856673687915l6.170719290288616-6.431100699297531c-4.315550565448575-1.492711961149325-9.160149002518665-2.331835351740665-14.280699070968694-2.331835351740665-8.707275385069806,0-16.611691023739695,2.427554452076947-22.473326178471325,6.379656953741687l5.377979624739964,5.095882500147127c4.972333051191526-2.179401630285611,10.823637290090119-3.441460076538533,17.09534655373136-3.441460076538533Z"/>
      <path class="cls-1" d="M243.309061345969894,56.876718566486488c5.120550068450029,0,9.965148505520119.83912339059134,14.280699070968694,2.331835351740665l6.710035264901308-6.984964304087953c-6.261167512770044-2.467613106400677-13.401517048259848-3.869876842788472-20.990734335870002-3.869876842788472-11.31193119046111,0-21.633359469011339,3.113189946097918-29.510788225441502,8.234794319021603l7.037462046970177,6.667868429855844c5.86163515473163-3.95210250166474,13.766050793401519-6.379656953741687,22.473326178471325-6.379656953741687Z"/>
      <path class="cls-4" d="M211.090729826610186,84.208105907155186c.564194506659987-2.30505930385425,1.605930327819806-4.492683500027852,3.043192641669521-6.514380533285475l-2.703537428580603-2.732211059966176c-.535310109269631,1.679933461365181-.83174414377936,3.430074985305509-.83174414377936,5.230606079689096,0,1.370216812927538.170987199140654,2.709651712531013.492088930690443,4.015985513562555Z"/>
      <path class="cls-4" d="M191.117063614859944,99.324766204134903l-1.13450322880999,5.88039961983759,11.291299451550003-4.859114769581538c-.712441616729848-1.498826176812145-.852436068300449-3.452845167768828-1.264407692369787-5.042330404367021l-8.892388530370226,4.02104555411097Z"/>
      <polygon class="cls-4" points="183.171564783289796 35.344348526874455 166.829742169038582 124.830954752753314 174.559135520568816 125.460929800764461 190.740301438700044 34.672206474310769 183.171564783289796 35.344348526874455"/>
      <path class="cls-6" d="M238.124628267240041,86.839326991217604v-7.236068816199804l-11.869800646600197-11.251000154642497-5.375871274571182-5.095882500147127-7.039570397138959-6.667868429855844-23.125860557449414-21.917354791176876-16.187490968650309,90.789777501569006,34.250359417399522-15.054885635306164c-3.409413066950947-3.014308320423879-5.826636541849439-6.226169057171319-7.622107550330838-10.010657715742127l-11.149166556999262,4.785111676595989,1.118058097470566-5.853623571949356,7.224894377470264-37.654924230189863.603198984879782-3.160416991193415,5.964733478258495,6.006900633501573,7.675659644770349,7.729211934436535,3.294297147411271,3.322127453649955,13.547836550369539,11.670140179898226-13.150412542490812,6.026508290613492c3.415738117460933,3.412575678420581,7.461662102050468,6.416553082724931,12.91575316808121,8.115250861112145l16.407602726858386-7.367840705421258-7.482113098738409-7.174504989552588Z"/>
      <path class="cls-3" d="M279.140683394140069,61.63400002007711c5.579748736419788,5.515865865486376,8.882268449529874,12.362733229668265,8.882268449529874,19.781174340553662,0,1.361994247041366-.123549320211168,2.701218311623052-.339866048110707,4.018093863788636.216316727899539,1.317718892260928.339866048110707,2.657997131957018.339866048110707,4.018937203883979,0,5.67441380260243-1.935465460050182,11.01317824896978-5.340872661679896,15.674740602230486l22.306344844670093-23.226851117549813-23.574728309551574-22.635037208658105-2.273012322968498,2.368942315751156Z"/>
      <path class="cls-3" d="M268.154070635569951,73.073486685068929l-9.228037878130635,9.610914512587442,11.245939830010684,10.801289051097228c2.66010541498872-2.725042669196228,4.523465299078453-5.875128744275571,5.353101092679935-9.277584341598413-1.023182339609775-4.204261188887358-3.636060710690799-8.021640111009219-7.371003044559984-11.134619222086258Z"/>
      <path class="cls-4" d="M275.525073680129935,84.208105907155186c.319204216410071-1.306333801031542.494197280870139-2.645768700635017.494197280870139-4.015985513562555,0-4.042761561450789-1.47837514226012-7.856767123209465-4.021045452531325-11.170672010972339l-3.895598617138603,4.034328160541918c3.741056549368295,3.11318994609519,6.399264449190014,6.948068175105618,7.422446788799789,11.152329363992976Z"/>
      <path class="cls-4" d="M282.848849680778585,122.510504492242944l-9.23225457847002-8.869829407580255c-1.476266792078604,1.0088455839159-3.055631907698626,1.943477239815365-4.706859962829185,2.802208287524991l13.939114541299205,13.382963904807184,42.984410849679989-44.770395413360347-.047437878918572-7.250616432768766-42.936972970761417,44.705669061377193Z"/>
      <path class="cls-4" d="M251.526145315499889,92.441846051060566l-7.60355406878989-7.303114353435376-5.818624811181508-5.555081179723857-.020661831709731,7.255676473316271,8.180187841469888,7.856977958231255,7.819870796691248,7.510997685879374c1.986909204309995-.494197293352045,3.887376051468891-1.119955640909211,5.67441365923878-1.861251580937278l-8.231631585718787-7.904205003330389Z"/>
      <polygon class="cls-4" points="281.413695717108567 51.95287744491452 275.294631006079726 58.323257657653812 268.545380427929558 65.357557357070618 263.943695337389727 70.147729074209565 255.22398068629991 79.22755016445717 258.876486528339228 82.73289325288988 268.154070635569951 73.073486685068929 272.033224121360035 69.03473098905306 279.140683394140069 61.63400002007711 281.413695717108567 59.265057704325955 305.050198686769363 81.922654260421041 308.706954035949821 78.12804552075886 281.413695717108567 51.95287744491452"/>
      <path class="cls-1" d="M279.140683394140069,61.63400002007711l-7.107459272780034,7.40073096897595c2.542670310278481,3.312850712652107,3.986046839640039,7.114627843088783,3.986046839640039,11.157389404539572,0,1.370216812927538-.174993064460068,2.709651712531013-.494197280870139,4.015985513562555-.829635793601483,3.402455597322842-2.692995677691215,6.552541672402185-5.353101092679935,9.277584341598413-2.722090910110637,2.790823196292877-6.277823479160361,5.139103679813161-10.414195686231324,6.860360805637356-1.787037607769889.741295940028067-3.687504454928785,1.367054287585233-5.67441365923878,1.861251580937278-3.372516938899935.835960865249945-6.998246733739506,1.299165410257956-10.774301896010002,1.299165410257956-4.651231319639919,0-9.069700780029962-.693858059910781-13.074301101200035-1.941579724611074-5.456199416219533-1.698486943366333-10.134206783061018-4.425637962784094-13.552053250719837-7.840321991434394-1.24751079814996-1.243715799268102-2.3244256438702-2.579988173530182-3.213969005770196-3.992371991011169-1.095287915581139-1.7387564327164-1.904472712511051-3.588622922425202-2.378008161669641-5.524088431374366-.321101731549788-1.306333801031542-.492088930690443-2.645768700635017-.492088930690443-4.015985513562555,0-1.800531094383587.29643403450973-3.550672618323915.83174414377936-5.230606079689096l-8.161634359928939-8.263678717138646c-2.989429712230049,4.431963013471432-4.675688181670921,9.42685553771571-4.675688181670921,14.717338763865882,0,1.361994247041366.125476863620861,2.701218311623052.341763563259519,4.018093863788636.522870843249621,3.198367295292883,1.669813338090535,6.248728404610119,3.337518326001373,9.09732039714072.835960844129659,1.431991474593815,1.807729603189728,2.809376678298577,2.901089839910128,4.127095570557685,2.872205442519771,3.465284434107161,6.574046678659215,6.506368802418365,10.914296347589698,8.972927733708275,7.535665193168825,4.288806033011497,16.971797233500183,6.845813189064756,27.221330771109933,6.845813189064756,7.171131448039887,0,13.941043857888872-1.249619179908223,19.944781814379894-3.467181949313272,1.822247055690241-.673196227680819,3.570280185240335-1.434943164917968,5.241991038479682-2.279126596053175,3.870930920120372-1.958235691407936,7.305222519120434-4.352689044910221,10.171345794060471-7.088905970311316,4.809536369819398-4.594516816016039,8.021397025429906-10.146435470397591,9.015905802669295-16.207942374793674.216316727899539-1.316875552165584.339866048110707-2.656099616747269.339866048110707-4.018093863788636,0-7.418441110885396-3.302519713110087-14.265308475067286-8.882268449529874-19.781174340553662Z"/>
      <path class="cls-2" d="M251.48714083726918,92.49539814684249l8.20488710708014,7.879537305666418c4.130015587979869-1.723365476054823,7.716740904590552-4.043815736566103,10.442837680040611-6.833584757744575l-11.248048180181286-10.801289051097228-3.652505842059327-3.506397263550753,8.672308447210526-9.031539870034976,4.597436715150252-4.789960882119885,6.751358928329864-7.034510534435867,6.121173061190348-6.370169377716593,27.227444986638147,26.141223637180701-3.654614192229928,3.806837170981453-22.306555679690064,23.226851117543447c-2.349334599279246,3.218185787432049-5.396533106279094,6.076054520965045-8.999703554238295,8.542613452253136l9.166474053039565,8.843053359685655,42.984410849679989-44.76744372304529-44.76744259213956-42.983357760438594-16.765779737490448,17.460934915064172-6.710277783909987,6.986861819292244-6.174725155629858,6.431100699297531-13.271853512531379,13.887492114277848,13.383174401740689,12.911747628941157Z"/>
      <path class="cls-4" d="M213.654092374139509,89.953571112429017s.214177972180551.353148663123648.238845669209695.393207317448287c.656751079310197,1.043000857599509,1.558703283899376,1.999348520848798,2.413006774550013,2.952533658753055l13.372843485889462-6.178942012068546-30.731733811418962-28.620221834811673-.837828346429887,4.427746313013813,24.110008405979897,23.870319607017336-8.565142177780217,3.155356950647729Z"/>
      <path class="cls-4" d="M288.022951843669944,81.415174360630772c0,1.361994247041366-.123549320211168,2.701218311623052-.339866048110707,4.018093863788636-.994508777239389,6.061506904396083-4.206369432849897,11.613425558777635-9.015905802669295,16.207942374793674-2.866123274940037,2.736216925401095-6.300414873940099,5.130670278903381-10.171345794060471,7.088905970311316-1.671710853239347.844183431135207-3.419743982789441,1.605930368372356-5.241991038479682,2.279126596053175-6.003737956491022,2.217562769405049-12.773650366340007,3.467181949313272-19.944781814379894,3.467181949313272-10.24953353760975,0-19.685665577941108-2.55700715605326-27.221330771109933-6.845813189064756-4.340249668930483-2.46655893128991-8.042090905069927-5.507643299601114-10.914296347589698-8.972927733708275-1.0933602367204-1.317718892259109-2.065128995780469-2.69510409596387-2.901089839910128-4.127095570557685-1.667704987910838-2.848591992530601-2.814647482751752-5.898953101847837-3.337518326001373-9.09732039714072-.216286699638658-1.316875552165584-.341763563259519-2.656099616747269-.341763563259519-4.018093863788636,0-.42820593122633.032890262720684-.851351821911521.053552094419501-1.272389362365175-.004216700339384-.023824357572266-.01240923990008-.054606270892691-.014517590128889-.075268103122653-.218244269110073,1.317718892259109-.039034504290612,8.023748461233481-.039034504290612,9.384688533160443,0,2.156842282849539.288211468830923,4.262029985121444.821413227920857,6.303545510522781.41597748940876,1.592436926918708.986286211569677,3.140809334079677,1.698697735479072,4.639635510890002,1.79526017345961,3.784488658570808,4.488466686190804,7.255676473314452,7.900198938319591,10.269984793737422,8.206753053689681,7.237122991313299,20.523313102219618,11.845133248789352,34.295688946151131,11.845133248789352,9.557573010390115,0,18.404632011999638-2.223676985066049,25.672747568060004-5.997623892499178,1.651259856549586-.858731047705987,3.222191571459916-1.795471053836991,4.696560848378795-2.804316637749253,3.602959612961058-2.466558931289001,6.654406910311081-5.361534628828849,9.003709419581355-8.581617931460642,3.405407201629714-4.661562353260706,5.340872661679896-10.000326799628056,5.340872661679896-15.674740602230486,0-1.197332094267949.102887488508713-6.868583371522618-.01243926602001-9.122198929826482-.02066183171155-.307819133228804.01243926602001.693858059910781.01243926602001,1.085167862153867Z"/>
    </g>
    <g>
      <path class="cls-1" d="M167.912507667389946,135.794641668791883h30.600661497799592l-2.881362030489981,11.783724790317137h-14.666936861300201l-1.450048352260637,6.191077505610338h15.300138005341068l-2.663793099700342,10.917920695924295h-15.102151820290601l-3.625583465200179,15.511308241776533h-15.807978737830126l10.297054863931407-44.404031233628302Z"/>
      <path class="cls-1" d="M202.673346169040087,135.794641668791883h15.807978737819212l-10.297054863920494,44.404031233628302h-15.807978737830126l10.297054863931407-44.404031233628302Z"/>
      <path class="cls-1" d="M222.617062027278735,136.061167470602413l1.015295977829737-.133301449619466c5.075708914910138-.599278292590498,11.38466822555165-.998334569753752,14.865385630910168-.998334569753752,5.800738994861604,0,10.297060881341167.665582078973785,13.705454885481231,2.062972925896247,4.350299251660545,1.797911975171701,6.96135771327863,5.725871636900592,6.96135771327863,10.452560632362292,0,4.060413039656851-1.37780806588853,7.92206891499427-3.988866527508435,10.91792069593248-2.248160886460028,2.595947432082539-4.278058965290256,3.860884901072495-8.484494423590149,5.125745272633139l-1.014910490721377.332752490776329c.435137861561088.333523465030339.580472459259909.466824914648896.798035436750069.666353053232342,1.232556518911224,1.398161821179201,4.930842855041192,8.588344870796391,8.049356562019966,15.71083638035816h-17.403818319018683c-2.247775399329839-6.324378955227985-2.90055928908987-7.988295603955521-5.873744351671121-15.178555750997475l-3.480717405360338,15.178555750997475h-15.372763778839726l10.224429090440026-44.137505431817772ZM234.29161656740871,156.965594858504119c5.076094402031231,0,8.629437580881131-2.996622755207682,8.629437580881131-7.256563933438883,0-2.263965915577501-1.668079867600682-3.395601934943443-4.931151244751163-3.395601934943443-.942670204338356,0-1.450125449689949.066303786392382-2.465421427508772.266525801810531l-2.393104043740095,10.251567642690134c.507840732479963.066997663223447.580466505969525.134072423881662,1.1602391351189.134072423881662Z"/>
      <path class="cls-1" d="M296.691580442729901,135.794641668791883h38.355969453308717l-2.679606267958661,12.854299648263805h-11.383897251331291l-7.541824219239061,31.549731585364498h-15.807978737830126l7.541824219260889-31.549731585364498h-12.339358498060392l3.854871301849926-12.854299648263805Z"/>
      <path class="cls-1" d="M320.841030655068607,172.265347763222962c2.1306644121305,0,3.860113829301554,1.715109339613264,3.860113829301554,3.845850903005157,0,2.146469438284839-1.714338322050025,3.860884901066129-3.860113829301554,3.860884901066129-2.161657576600192,0-3.845843065550071-1.68504134345585-3.845843065550071-3.860884901066129,0-2.145775561460141,1.699296584061813-3.845850903005157,3.845843065550071-3.845850903005157ZM320.841030655068607,179.49469630528074c1.877707763691433,0,3.383497553581037-1.505789827934677,3.383497553581037-3.368463640977097,0-1.877784908561807-1.505789789889604-3.383574736483752-3.383497553581037-3.383574736483752-1.863444740238265,0-3.368540653298624,1.505789827921944-3.368540653298624,3.368540738408228,0,1.892741809202562,1.490755792179698,3.383497639052621,3.368540653298624,3.383497639052621ZM319.350274862879814,174.143826548615834c.194208411288855-.015033998071885.223582529859414-.029374119315435.611305475609697-.059442115472848.387029068919219-.030145093581268.551169484810089-.045179091656792.715309900690045-.045179091656792,1.267096164909162,0,1.892741761390425.492344162673362,1.892741761390425,1.43123661694699,0,.566203496813614-.237922650720066.908747360693269-.745377896089849,1.103032874309974l-.059442113961268.015033998071885c.044408116260456.030145093582178.059442113961268.044408117401872.074553209080477.073782236721854.134003189130453.119732302628108.581237480220807.79055700657409.953926428259365,1.401939595052681h-1.445576701658865c-.2981357389599-.551940472996648-.387800043181414-.70096979752725-.760488991219972-1.326615409819169v1.326615409819169h-1.236951072100055v-3.920404113973746ZM320.736332353149919,175.992237337848564c.342543855238546,0,.536829363938523-.164140420027252.536829363938523-.477387262018965,0-.298135746485968-.179174413569854-.462276166520496-.52178753105909-.462276166520496-.074483946849796,0-.089595041969005,0-.164148251049482.015033998077342v.90951833496274c.059519211388761.015111095499378.089664304199687.015111095499378.149106418170049.015111095499378Z"/>
      <path class="cls-1" d="M256.079194420170097,179.070120780099387c4.444358109039968,1.320524713150007,9.304348431340259,2.06066000311057,13.845155417930073,2.06066000311057,6.164016153359626,0,10.877212980189142-1.397390846925191,14.937625917269543-4.326938841471929,4.495550798648765-3.196073796350902,7.396502690229681-8.121597053567712,7.396502690229681-12.581760247223428,0-2.996622755204044-1.304803920669656-5.725871636907868-3.625205093470868-7.657085061702674-1.813023024889844-1.463617535880076-3.698279405769426-2.596024529515489-7.541901316688381-4.393165530429542l-3.117742732740226-1.464388510145c-1.015681464939917-.533051603614695-1.523136710311519-1.065409330401963-1.523136710311519-1.664687622981546,0-1.597689959768104,2.030591955670388-2.795552668098935,4.786208087462001-2.795552668098935,2.061430925288732,0,4.518217441329398.599355390008895,9.213296373509365,2.134519337256279l3.240481831890065-12.020182595972983c-3.511556374989595-.953926452352789-6.932754568941164-1.432007591211004-10.351639840180724-1.432007591211004-12.907033961619163,0-22.841653834899262,7.05626482059688-22.841653834899262,16.176890320751227,0,4.792992781858629,3.190831090780193,8.188594716792977,11.167099294780201,11.917026239932966,3.770526622489342,1.730143337693335,4.424081486509749,2.196968252348597,4.424081486509749,3.394830960678519,0,1.797141000920419-1.958351669291005,2.929547994549466-5.149105662640068,2.929547994549466-2.827933515611221,0-6.453208591130533-.865804094387386-11.38466822556984-2.663022192738936l-.006013599080688.001541948525301-3.469384083999103,12.383774057171649Z"/>
    </g>
  </g>
  <g>
    <path class="cls-1" d="M183.174077838919402,337.95703125h5.8935546875l4.8193359375,30.97216796875,2.2412109375-30.97216796875h7.7353515625l-5.7099609375,44.6318359375h-7.3056640625l-4.54296875-28.8544921875-4.880859375,28.8544921875h-7.3056640625l-5.740234375-44.6318359375h7.7353515625l2.2412109375,30.97216796875,4.8193359375-30.97216796875Z"/>
    <path class="cls-1" d="M213.869390338919402,382.5888671875h-7.6123046875v-44.6318359375h7.6123046875v44.6318359375Z"/>
    <path class="cls-1" d="M218.719976276419402,337.95703125h5.9853515625l10.498046875,29.77490234375-.8291015625,1.197265625v-30.97216796875h6.9375v44.60107421875h-6.046875l-10.375-28.05615234375.7978515625-1.22802734375v29.2841796875h-6.9677734375v-44.60107421875Z"/>
    <path class="cls-1" d="M246.775640338919402,337.95703125h5.986328125l10.498046875,29.77490234375-.8291015625,1.197265625v-30.97216796875h6.9375v44.60107421875h-6.046875l-10.3759765625-28.05615234375.7978515625-1.22802734375v29.2841796875h-6.9677734375v-44.60107421875Z"/>
    <path class="cls-1" d="M274.832280963919402,337.95703125h7.6123046875v44.6318359375h-7.6123046875v-44.6318359375ZM278.208257526419402,337.95703125h16.453125v7.42822265625h-16.453125v-7.42822265625ZM278.208257526419402,356.7119140625h14.9189453125v7.39794921875h-14.9189453125v-7.39794921875ZM278.208257526419402,375.16064453125h16.453125v7.42822265625h-16.453125v-7.42822265625Z"/>
    <path class="cls-1" d="M298.591070026419402,337.92626953125h7.458984375v44.66259765625h-7.458984375v-44.66259765625ZM301.998296588919402,356.4052734375h8.0419921875c.6552734375,0,1.22265625-.11767578125,1.7041015625-.35302734375.48046875-.2353515625.84375-.57275390625,1.08984375-1.01318359375.2451171875-.439453125.3681640625-.966796875.3681640625-1.58056640625v-4.97314453125c0-.67529296875-.123046875-1.25830078125-.3681640625-1.74951171875-.24609375-.4912109375-.609375-.8642578125-1.08984375-1.1201171875-.4814453125-.255859375-1.048828125-.3837890625-1.7041015625-.3837890625h-8.0419921875v-7.3056640625h7.58203125c2.4140625,0,4.4755859375.39404296875,6.1845703125,1.181640625,1.708984375.7880859375,3.013671875,1.9443359375,3.9140625,3.46875.900390625,1.52490234375,1.3505859375,3.35107421875,1.3505859375,5.47900390625v5.21826171875c0,2.1904296875-.4501953125,4.0673828125-1.3505859375,5.6328125s-2.2099609375,2.7578125-3.9287109375,3.576171875c-1.7197265625.81884765625-3.7763671875,1.22802734375-6.169921875,1.22802734375h-7.58203125v-7.3056640625ZM308.198491901419402,362.32958984375l6.9677734375-1.412109375,7.1220703125,21.67138671875h-8.1650390625l-5.9248046875-20.25927734375Z"/>
  </g>
  <g>
    <rect class="cls-3" x="86.094598698629852" y="515.465205036882253" width="320.473624252188529" height="174.166652313277154"/>
    <path class="cls-1" d="M205.396734088919402,586.3046875l8.029296875-14.1162109375c1.1396484375-1.9677734375,1.9853515625-3.7548828125,2.5380859375-5.3603515625.5517578125-1.6064453125.828125-3.021484375.828125-4.248046875v-.2587890625c0-1.1572265625-.2197265625-2.0205078125-.66015625-2.58984375-.4404296875-.5703125-1.109375-.85546875-2.0068359375-.85546875-1.0712890625,0-1.861328125.384765625-2.3701171875,1.1533203125-.509765625.7685546875-.763671875,1.9384765625-.763671875,3.5087890625v.7255859375h-5.8017578125v-.7255859375c.0166015625-2.279296875.3447265625-4.173828125.984375-5.6845703125.638671875-1.5107421875,1.6005859375-2.6455078125,2.8876953125-3.40625,1.2861328125-.759765625,2.896484375-1.1396484375,4.830078125-1.1396484375s3.5439453125.3369140625,4.830078125,1.0107421875c1.2861328125.6728515625,2.25390625,1.6787109375,2.9013671875,3.0166015625.6474609375,1.3388671875.970703125,3.0087890625.970703125,5.01171875v.259765625c0,1.4501953125-.3017578125,3.0986328125-.90625,4.9462890625s-1.5107421875,3.8935546875-2.7197265625,6.138671875l-6.552734375,12.1728515625h10.126953125v5.490234375h-17.1455078125v-5.0498046875Z"/>
    <path class="cls-1" d="M229.198491901419402,589.4384765625c-1.501953125-1.537109375-2.2529296875-3.712890625-2.2529296875-6.52734375v-20.771484375c0-2.814453125.7509765625-4.9892578125,2.2529296875-6.5263671875s3.6083984375-2.3056640625,6.3193359375-2.3056640625,4.8173828125.7685546875,6.3203125,2.3056640625c1.501953125,1.537109375,2.2529296875,3.7119140625,2.2529296875,6.5263671875v20.771484375c0,2.814453125-.7509765625,4.990234375-2.2529296875,6.52734375-1.5029296875,1.537109375-3.609375,2.3046875-6.3203125,2.3046875s-4.8173828125-.767578125-6.3193359375-2.3046875ZM237.641851276419402,585.3720703125c.5009765625-.5869140625.7509765625-1.416015625.7509765625-2.486328125v-20.7197265625c0-1.0703125-.2548828125-1.8994140625-.763671875-2.486328125-.509765625-.5869140625-1.2138671875-.880859375-2.111328125-.880859375s-1.6015625.2939453125-2.1103515625.880859375c-.509765625.5869140625-.7646484375,1.416015625-.7646484375,2.486328125v20.7197265625c0,1.0703125.2509765625,1.8994140625.751953125,2.486328125.5.5869140625,1.2080078125.880859375,2.123046875.880859375s1.623046875-.2939453125,2.1240234375-.880859375Z"/>
    <path class="cls-1" d="M248.649663776419402,586.3046875l8.0283203125-14.1162109375c1.1396484375-1.9677734375,1.9853515625-3.7548828125,2.5380859375-5.3603515625.552734375-1.6064453125.8291015625-3.021484375.8291015625-4.248046875v-.2587890625c0-1.1572265625-.220703125-2.0205078125-.66015625-2.58984375-.4404296875-.5703125-1.1103515625-.85546875-2.0078125-.85546875-1.0703125,0-1.8603515625.384765625-2.3701171875,1.1533203125-.5087890625.7685546875-.763671875,1.9384765625-.763671875,3.5087890625v.7255859375h-5.8017578125v-.7255859375c.017578125-2.279296875.345703125-4.173828125.984375-5.6845703125s1.6015625-2.6455078125,2.8876953125-3.40625c1.2861328125-.759765625,2.896484375-1.1396484375,4.8310546875-1.1396484375,1.9326171875,0,3.54296875.3369140625,4.830078125,1.0107421875,1.2861328125.6728515625,2.2529296875,1.6787109375,2.900390625,3.0166015625.6474609375,1.3388671875.9716796875,3.0087890625.9716796875,5.01171875v.259765625c0,1.4501953125-.302734375,3.0986328125-.9072265625,4.9462890625s-1.5107421875,3.8935546875-2.71875,6.138671875l-6.552734375,12.1728515625h10.126953125v5.490234375h-17.1455078125v-5.0498046875Z"/>
    <path class="cls-1" d="M274.044195026419402,590.78515625c-1.251953125-.638671875-2.2021484375-1.580078125-2.849609375-2.8232421875s-.9794921875-2.7275390625-.9970703125-4.455078125v-1.68359375h5.6982421875v1.68359375c-.017578125.8642578125.2109375,1.533203125.6865234375,2.0078125.474609375.474609375,1.1259765625.7119140625,1.955078125.7119140625.86328125,0,1.5322265625-.2412109375,2.0078125-.7255859375.474609375-.482421875.7119140625-1.1650390625.7119140625-2.0458984375v-9.271484375c0-.8466796875-.2119140625-1.498046875-.634765625-1.9560546875-.4228515625-.45703125-1.0146484375-.6865234375-1.7744140625-.6865234375-.7763671875,0-1.380859375.216796875-1.8125.6474609375-.431640625.4326171875-.638671875,1.044921875-.6220703125,1.8388671875h-5.38671875v-20.3310546875h15.6171875v5.4912109375h-9.9189453125v8.4169921875c.5-.517578125,1.091796875-.9150390625,1.7734375-1.19140625.6826171875-.275390625,1.3681640625-.4140625,2.0595703125-.4140625,1.3466796875,0,2.4990234375.3193359375,3.45703125.9580078125.958984375.638671875,1.6875,1.5712890625,2.1884765625,2.796875.5009765625,1.2265625.751953125,2.703125.751953125,4.4296875v9.271484375c0,1.744140625-.3330078125,3.2373046875-.9970703125,4.48046875-.6650390625,1.2431640625-1.6279296875,2.1884765625-2.888671875,2.8369140625-1.259765625.6474609375-2.7705078125.970703125-4.5322265625.970703125-1.744140625,0-3.2421875-.3193359375-4.4931640625-.9580078125Z"/>
    <path class="cls-1" d="M99.635015338919402,639.7177734375c-1.330078125-.759765625-2.3486328125-1.8564453125-3.0556640625-3.2900390625-.708984375-1.4326171875-1.0625-3.1591796875-1.0625-5.1796875v-19.19140625c0-2.037109375.353515625-3.7724609375,1.0625-5.2060546875.70703125-1.4326171875,1.7255859375-2.529296875,3.0556640625-3.2890625,1.3291015625-.759765625,2.9267578125-1.1396484375,4.7919921875-1.1396484375,1.8818359375,0,3.4873046875.375,4.8173828125,1.126953125,1.3291015625.7509765625,2.34375,1.8515625,3.04296875,3.3017578125s1.048828125,3.185546875,1.048828125,5.2060546875v2.3046875h-5.75v-2.3046875c0-.8291015625-.12109375-1.544921875-.3623046875-2.1494140625-.2421875-.6044921875-.6005859375-1.0625-1.0751953125-1.373046875s-1.048828125-.4658203125-1.7216796875-.4658203125c-.6572265625,0-1.2177734375.1552734375-1.68359375.4658203125-.466796875.310546875-.8291015625.763671875-1.087890625,1.359375s-.388671875,1.3173828125-.388671875,2.1630859375v19.19140625c0,.8466796875.1298828125,1.5634765625.388671875,2.1494140625.2587890625.587890625.62109375,1.0361328125,1.087890625,1.34765625.4658203125.310546875,1.0263671875.4658203125,1.68359375.4658203125.6904296875,0,1.2685546875-.1591796875,1.7353515625-.4794921875.4658203125-.3193359375.8193359375-.7724609375,1.0615234375-1.359375.2412109375-.5869140625.3623046875-1.3037109375.3623046875-2.1494140625v-2.3056640625h5.75v2.3056640625c-.017578125,2.01953125-.37109375,3.7548828125-1.0615234375,5.205078125-.69140625,1.451171875-1.7060546875,2.5517578125-3.0439453125,3.302734375s-2.939453125,1.126953125-4.8037109375,1.126953125c-1.865234375,0-3.462890625-.380859375-4.7919921875-1.1396484375Z"/>
    <path class="cls-1" d="M123.177984088919402,602.810546875h4.5068359375l8.857421875,37.658203125h-5.8271484375l-5.2841796875-27.32421875-5.283203125,27.32421875h-5.8271484375l8.857421875-37.658203125ZM120.174077838919402,628.1142578125h10.7216796875v5.3095703125h-10.7216796875v-5.3095703125Z"/>
    <path class="cls-1" d="M139.598882526419402,602.810546875h4.6875l9.5830078125,27.0126953125-.7509765625.8291015625v-27.841796875h5.283203125v37.6318359375h-4.7392578125l-9.5048828125-25.822265625.7509765625-.8544921875v26.6767578125h-5.3095703125v-37.6318359375Z"/>
    <path class="cls-1" d="M169.798101276419402,602.810546875h4.5068359375l8.857421875,37.658203125h-5.8271484375l-5.2841796875-27.32421875-5.283203125,27.32421875h-5.8271484375l8.857421875-37.658203125ZM166.794195026419402,628.1142578125h10.7216796875v5.3095703125h-10.7216796875v-5.3095703125Z"/>
    <path class="cls-1" d="M186.218999713919402,602.810546875h5.697265625v37.658203125h-5.697265625v-37.658203125ZM189.922124713919402,635.0556640625h5.853515625c.880859375,0,1.55859375-.263671875,2.033203125-.7900390625s.7119140625-1.2734375.7119140625-2.240234375v-20.771484375c0-.966796875-.2373046875-1.7138671875-.7119140625-2.240234375-.474609375-.52734375-1.15234375-.7900390625-2.033203125-.7900390625h-5.853515625v-5.4130859375h6.1123046875c1.7265625,0,3.203125.3193359375,4.4296875.9580078125,1.2255859375.638671875,2.162109375,1.5673828125,2.8095703125,2.7841796875.6474609375,1.2177734375.9716796875,2.689453125.9716796875,4.416015625v21.341796875c0,1.708984375-.328125,3.1767578125-.984375,4.40234375-.65625,1.2265625-1.59765625,2.1591796875-2.8232421875,2.796875-1.2265625.6396484375-2.7021484375.958984375-4.4287109375.958984375h-6.0869140625v-5.4130859375Z"/>
    <path class="cls-1" d="M214.009038776419402,640.46875h-5.697265625v-37.658203125h5.697265625v37.658203125Z"/>
    <path class="cls-1" d="M225.120366901419402,602.810546875h4.505859375l8.8583984375,37.658203125h-5.828125l-5.283203125-27.32421875-5.283203125,27.32421875h-5.828125l8.8583984375-37.658203125ZM222.115484088919402,628.1142578125h10.72265625v5.3095703125h-10.72265625v-5.3095703125Z"/>
    <path class="cls-1" d="M241.540288776419402,602.810546875h4.6884765625l9.5830078125,27.0126953125-.751953125.8291015625v-27.841796875h5.2841796875v37.6318359375h-4.740234375l-9.5048828125-25.822265625.7509765625-.8544921875v26.6767578125h-5.3095703125v-37.6318359375Z"/>
    <path class="cls-1" d="M275.884038776419402,602.810546875h5.697265625v37.658203125h-5.697265625v-37.658203125ZM278.759038776419402,620.4482421875h6.888671875c.6044921875,0,1.1220703125-.138671875,1.5546875-.4150390625.4306640625-.275390625.763671875-.6728515625.9970703125-1.19140625.232421875-.517578125.349609375-1.1474609375.349609375-1.890625v-5.1015625c0-.77734375-.1123046875-1.43359375-.3369140625-1.96875s-.556640625-.9453125-.9970703125-1.23046875c-.4404296875-.2841796875-.962890625-.4267578125-1.5673828125-.4267578125h-6.888671875v-5.4130859375h6.9404296875c1.8134765625,0,3.36328125.33203125,4.6494140625.9970703125s2.2705078125,1.640625,2.9521484375,2.9267578125c.6826171875,1.2861328125,1.0234375,2.8271484375,1.0234375,4.623046875v6.1376953125c0,1.76171875-.345703125,3.2685546875-1.0361328125,4.51953125-.6904296875,1.251953125-1.6796875,2.2060546875-2.9658203125,2.8623046875s-2.8271484375.984375-4.623046875.984375h-6.9404296875v-5.4130859375Z"/>
    <path class="cls-1" d="M303.777593463919402,602.810546875h4.5068359375l8.857421875,37.658203125h-5.8271484375l-5.2841796875-27.32421875-5.283203125,27.32421875h-5.8271484375l8.857421875-37.658203125ZM300.773687213919402,628.1142578125h10.7216796875v5.3095703125h-10.7216796875v-5.3095703125Z"/>
    <path class="cls-1" d="M322.244390338919402,639.7177734375c-1.330078125-.759765625-2.3486328125-1.8564453125-3.0556640625-3.2900390625-.708984375-1.4326171875-1.0625-3.1591796875-1.0625-5.1796875v-19.19140625c0-2.037109375.353515625-3.7724609375,1.0625-5.2060546875.70703125-1.4326171875,1.7255859375-2.529296875,3.0556640625-3.2890625,1.3291015625-.759765625,2.9267578125-1.1396484375,4.7919921875-1.1396484375,1.8818359375,0,3.4873046875.375,4.8173828125,1.126953125,1.3291015625.7509765625,2.34375,1.8515625,3.04296875,3.3017578125s1.048828125,3.185546875,1.048828125,5.2060546875v2.3046875h-5.75v-2.3046875c0-.8291015625-.12109375-1.544921875-.3623046875-2.1494140625-.2421875-.6044921875-.6005859375-1.0625-1.0751953125-1.373046875s-1.048828125-.4658203125-1.7216796875-.4658203125c-.6572265625,0-1.2177734375.1552734375-1.68359375.4658203125-.466796875.310546875-.8291015625.763671875-1.087890625,1.359375s-.388671875,1.3173828125-.388671875,2.1630859375v19.19140625c0,.8466796875.1298828125,1.5634765625.388671875,2.1494140625.2587890625.587890625.62109375,1.0361328125,1.087890625,1.34765625.4658203125.310546875,1.0263671875.4658203125,1.68359375.4658203125.6904296875,0,1.2685546875-.1591796875,1.7353515625-.4794921875.4658203125-.3193359375.8193359375-.7724609375,1.0615234375-1.359375.2412109375-.5869140625.3623046875-1.3037109375.3623046875-2.1494140625v-2.3056640625h5.75v2.3056640625c-.017578125,2.01953125-.37109375,3.7548828125-1.0615234375,5.205078125-.69140625,1.451171875-1.7060546875,2.5517578125-3.0439453125,3.302734375s-2.939453125,1.126953125-4.8037109375,1.126953125c-1.865234375,0-3.462890625-.380859375-4.7919921875-1.1396484375Z"/>
    <path class="cls-1" d="M345.191655963919402,640.46875h-5.697265625v-37.658203125h5.697265625v37.658203125Z"/>
    <path class="cls-1" d="M349.775640338919402,602.810546875h5.6982421875v37.658203125h-5.6982421875v-37.658203125ZM352.521734088919402,602.810546875h13.751953125v5.4130859375h-13.751953125v-5.4130859375ZM352.521734088919402,619.412109375h12.45703125v5.38671875h-12.45703125v-5.38671875Z"/>
    <path class="cls-1" d="M375.260991901419402,640.46875h-5.697265625v-37.658203125h5.697265625v37.658203125Z"/>
    <path class="cls-1" d="M383.963140338919402,639.7177734375c-1.330078125-.759765625-2.3486328125-1.8564453125-3.0556640625-3.2900390625-.708984375-1.4326171875-1.0625-3.1591796875-1.0625-5.1796875v-19.19140625c0-2.037109375.353515625-3.7724609375,1.0625-5.2060546875.70703125-1.4326171875,1.7255859375-2.529296875,3.0556640625-3.2890625,1.3291015625-.759765625,2.9267578125-1.1396484375,4.7919921875-1.1396484375,1.8818359375,0,3.4873046875.375,4.8173828125,1.126953125,1.3291015625.7509765625,2.34375,1.8515625,3.04296875,3.3017578125s1.048828125,3.185546875,1.048828125,5.2060546875v2.3046875h-5.75v-2.3046875c0-.8291015625-.12109375-1.544921875-.3623046875-2.1494140625-.2421875-.6044921875-.6005859375-1.0625-1.0751953125-1.373046875s-1.048828125-.4658203125-1.7216796875-.4658203125c-.6572265625,0-1.2177734375.1552734375-1.68359375.4658203125-.466796875.310546875-.8291015625.763671875-1.087890625,1.359375s-.388671875,1.3173828125-.388671875,2.1630859375v19.19140625c0,.8466796875.1298828125,1.5634765625.388671875,2.1494140625.2587890625.587890625.62109375,1.0361328125,1.087890625,1.34765625.4658203125.310546875,1.0263671875.4658203125,1.68359375.4658203125.6904296875,0,1.2685546875-.1591796875,1.7353515625-.4794921875.4658203125-.3193359375.8193359375-.7724609375,1.0615234375-1.359375.2412109375-.5869140625.3623046875-1.3037109375.3623046875-2.1494140625v-2.3056640625h5.75v2.3056640625c-.017578125,2.01953125-.37109375,3.7548828125-1.0615234375,5.205078125-.69140625,1.451171875-1.7060546875,2.5517578125-3.0439453125,3.302734375s-2.939453125,1.126953125-4.8037109375,1.126953125c-1.865234375,0-3.462890625-.380859375-4.7919921875-1.1396484375Z"/>
    <path class="cls-1" d="M165.562749713919402,651.8984375h5.6201171875v37.68359375h-5.6201171875v-37.68359375ZM168.152593463919402,668.2412109375h6.8896484375c.7080078125,0,1.3212890625-.1298828125,1.8388671875-.388671875.5185546875-.2587890625.91015625-.634765625,1.1787109375-1.126953125.267578125-.4921875.41015625-1.1005859375.4267578125-1.826171875v-4.013671875c0-.7421875-.1337890625-1.3818359375-.4013671875-1.9169921875s-.6650390625-.9453125-1.19140625-1.23046875-1.1435546875-.4267578125-1.8515625-.4267578125h-6.8896484375v-5.4130859375h6.4755859375c2.01953125,0,3.74609375.33203125,5.1796875.9970703125,1.4326171875.6650390625,2.529296875,1.640625,3.2890625,2.9267578125s1.1396484375,2.8271484375,1.1396484375,4.623046875v4.40234375c0,1.84765625-.3798828125,3.431640625-1.1396484375,4.7529296875s-1.8603515625,2.3271484375-3.3017578125,3.017578125c-1.4423828125.6904296875-3.1640625,1.0361328125-5.1669921875,1.0361328125h-6.4755859375v-5.4130859375ZM174.006109088919402,672.48828125l5.2578125-1.19140625,6.03515625,18.28515625h-6.1650390625l-5.1279296875-17.09375Z"/>
    <path class="cls-1" d="M189.519780963919402,651.923828125h5.6982421875v37.658203125h-5.6982421875v-37.658203125ZM192.239507526419402,651.923828125h13.7529296875v5.46484375h-13.7529296875v-5.46484375ZM192.239507526419402,668.1630859375h12.4580078125v5.439453125h-12.4580078125v-5.439453125ZM192.239507526419402,684.1171875h13.7529296875v5.46484375h-13.7529296875v-5.46484375Z"/>
    <path class="cls-1" d="M228.110601276419402,669.2763671875v11.1376953125c0,2.0029296875-.3623046875,3.716796875-1.087890625,5.140625-.724609375,1.4248046875-1.7744140625,2.5166015625-3.146484375,3.2763671875-1.373046875.759765625-3.0263671875,1.1396484375-4.9599609375,1.1396484375-1.951171875,0-3.6259765625-.3583984375-5.0244140625-1.0751953125-1.3984375-.7158203125-2.4697265625-1.7607421875-3.2119140625-3.1337890625-.7421875-1.3720703125-1.11328125-3.0166015625-1.11328125-4.93359375v-19.6064453125c0-2.037109375.3623046875-3.78125,1.087890625-5.2314453125.724609375-1.4501953125,1.7734375-2.5546875,3.146484375-3.3154296875,1.373046875-.759765625,3.025390625-1.1396484375,4.9599609375-1.1396484375,1.8818359375,0,3.5.3671875,4.8564453125,1.1015625,1.3544921875.7333984375,2.38671875,1.80859375,3.0947265625,3.2236328125.7080078125,1.416015625,1.0703125,3.1083984375,1.087890625,5.0771484375v2.3828125h-5.931640625v-2.3828125c0-.7939453125-.1201171875-1.47265625-.3623046875-2.033203125-.2421875-.5615234375-.595703125-.98828125-1.0615234375-1.2822265625-.466796875-.2939453125-1.02734375-.4404296875-1.68359375-.4404296875-.7255859375,0-1.3466796875.16015625-1.865234375.4794921875-.517578125.3193359375-.9150390625.78125-1.19140625,1.3857421875s-.4140625,1.3291015625-.4140625,2.1748046875v19.6064453125c0,.7080078125.142578125,1.330078125.427734375,1.865234375.2841796875.53515625.69921875.9404296875,1.2431640625,1.216796875s1.1953125.4140625,1.955078125.4140625c.7421875,0,1.380859375-.150390625,1.9169921875-.453125.5341796875-.3017578125.9453125-.73828125,1.2294921875-1.3076171875.28515625-.5703125.427734375-1.26953125.427734375-2.09765625v-5.8017578125h-3.7041015625v-5.3876953125h9.32421875Z"/>
    <path class="cls-1" d="M237.875249713919402,689.58203125h-5.6982421875v-37.658203125h5.6982421875v37.658203125Z"/>
    <path class="cls-1" d="M246.836187213919402,688.8828125c-1.416015625-.724609375-2.4990234375-1.76953125-3.2509765625-3.1337890625-.7509765625-1.36328125-1.1259765625-3.0126953125-1.1259765625-4.9462890625v-20.0986328125c0-1.93359375.375-3.5869140625,1.1259765625-4.9599609375.751953125-1.373046875,1.8349609375-2.4169921875,3.2509765625-3.1337890625,1.4150390625-.7158203125,3.125-1.0751953125,5.1279296875-1.0751953125s3.7119140625.359375,5.1279296875,1.0751953125c1.416015625.716796875,2.5,1.7607421875,3.2509765625,3.1337890625s1.1259765625,3.0263671875,1.1259765625,4.9599609375v20.0986328125c0,1.93359375-.375,3.5830078125-1.1259765625,4.9462890625-.7509765625,1.3642578125-1.8349609375,2.4091796875-3.2509765625,3.1337890625-1.416015625.7255859375-3.125,1.087890625-5.1279296875,1.087890625s-3.712890625-.3623046875-5.1279296875-1.087890625ZM254.010015338919402,683.91015625c.5703125-.310546875,1.001953125-.7548828125,1.294921875-1.333984375.2939453125-.578125.4404296875-1.2724609375.4404296875-2.0849609375v-19.501953125c0-.8115234375-.146484375-1.5068359375-.4404296875-2.0849609375-.29296875-.578125-.724609375-1.0185546875-1.294921875-1.3212890625-.5693359375-.3017578125-1.251953125-.453125-2.0458984375-.453125s-1.4765625.1513671875-2.0458984375.453125c-.5703125.302734375-1.001953125.7431640625-1.294921875,1.3212890625-.2939453125.578125-.4404296875,1.2734375-.4404296875,2.0849609375v19.501953125c0,.8125.146484375,1.5068359375.4404296875,2.0849609375.29296875.5791015625.724609375,1.0234375,1.294921875,1.333984375.5693359375.310546875,1.251953125.4658203125,2.0458984375.4658203125s1.4765625-.1552734375,2.0458984375-.4658203125Z"/>
    <path class="cls-1" d="M265.820562213919402,651.923828125h4.6875l9.5830078125,27.013671875-.7509765625.8291015625v-27.8427734375h5.283203125v37.6328125h-4.7392578125l-9.5048828125-25.822265625.7509765625-.8544921875v26.6767578125h-5.3095703125v-37.6328125Z"/>
    <path class="cls-1" d="M296.019780963919402,651.923828125h4.505859375l8.8583984375,37.658203125h-5.828125l-5.283203125-27.32421875-5.283203125,27.32421875h-5.828125l8.8583984375-37.658203125ZM293.014898151419402,677.228515625h10.72265625v5.30859375h-10.72265625v-5.30859375Z"/>
    <path class="cls-1" d="M312.439702838919402,651.923828125h5.6982421875v37.658203125h-5.6982421875v-37.658203125ZM315.107671588919402,684.1689453125h13.2861328125v5.4130859375h-13.2861328125v-5.4130859375Z"/>
  </g>
</svg>