<?xml version="1.0" encoding="UTF-8"?>
<svg id="Layer_1" xmlns="http://www.w3.org/2000/svg" viewBox="0 0 492.663002699527169 864">
  <defs>
    <style>
      .cls-1 {
        fill: #fff;
      }

      .cls-2 {
        fill: #0066b2;
      }

      .cls-3 {
        fill: none;
      }

      .cls-4 {
        fill: #98989a;
      }

      .cls-5 {
        fill: #3352a3;
      }

      .cls-6 {
        fill: #ec1c24;
      }
    </style>
  </defs>
  <polygon class="cls-5" points="0 0 0 864 .012964737428774 864 246.331501349764039 704.063072128774365 492.649988288774694 864 492.663002699527169 864 492.663002699527169 0 0 0"/>
  <g>
    <g>
      <path class="cls-1" d="M115.00848320476598,188.898868964459325h19.58657311974639c6.782140840862667,0,13.455069142691173,3.067860416203075,13.455069142691173,10.813517482415591,0,4.142486527219262-1.995131769988802,8.075192206790234-6.026479608098271,9.635793045270475v.10921254178993c4.087008282711395.963516054022875,5.270875569037344,5.540533563151257,5.598273687687652,9.195147847698536.107104188857193,1.618369634718874.265652121969651,7.267904904635543,1.610175740524028,8.664054425364156h-9.899365286012653c-.860628541170627-1.293051194597865-1.025501524806714-5.052661320482002-1.132394878644845-6.13150413195126-.265652121968742-3.873039368131685-.910174770267986-7.854869608002446-5.594296352631318-7.854869608002446h-7.587108937430457v13.986373739953706h-10.010446627831698v-38.417725342538688ZM125.018929832597678,205.580346800375082h8.39439621918973c3.010091543925228,0,4.628461137759587-1.616261284488246,4.628461137759587-4.521357063122196,0-2.851754517873815-2.258675541785124-4.142697362239232-5.060855456685204-4.142697362239232h-7.962001900264113v8.664054425361428Z"/>
      <path class="cls-1" d="M168.114479925843625,188.089684147102162c12.104641666634961,0,18.938226251750166,8.875943623236708,18.938226251750166,20.016887896003027,0,11.1409442727645-6.833584585115204,20.018996246230017-18.938226251750166,20.018996246230017-12.108495075714018,0-18.942079660829222-8.878051973465517-18.942079660829222-20.018996246230017,0-11.140944272766319,6.833584585115204-20.016887896003027,18.942079660829222-20.016887896003027ZM168.114479925843625,219.517174309979964c6.45278735424472,0,8.925460438726986-5.703087365700412,8.925460438726986-11.410602266874776,0-5.705195715928312-2.472673084482267-11.404488051218323-8.925460438726986-11.404488051218323-6.462965813846495,0-8.933741383169945,5.699292335290011-8.933741383169945,11.404488051218323,0,5.707514901174363,2.47077556932345,11.410602266874776,8.933741383169945,11.410602266874776Z"/>
      <path class="cls-1" d="M189.249607059270602,188.898868964459325h17.972420226262329c6.617267857228398-.107104191564758,13.88749176345209,1.614152934261256,13.88749176345209,9.633684695041666,0,3.440405901424128-2.046575514243159,6.236499973287209-5.060883758518685,7.749873766670135,4.087036812985389,1.177724437146935,6.619406774922936,4.731348745792275,6.619406774922936,9.090152006361677,0,9.147920802603039-6.728619313954368,11.944014874465211-14.96025089968407,11.944014874465211h-18.458184106434601v-38.417725342538688ZM199.260053687104119,204.019535126870323h7.747765220715337c1.721257082343982,0,4.091042678316626-.916078173900132,4.091042678316626-3.66072850020737,0-2.79799158707101-1.990915069642142-3.710063895536223-4.091042678316626-3.710063895536223h-7.747765220715337v7.370792395743592ZM199.260053687104119,219.298960061419166h8.019531558189556c3.170747827210107,0,5.380118289600432-1.128178206795383,5.380118289600432-4.301034464332588,0-3.393178856323175-2.370026745675204-4.525573763578905-5.380118289600432-4.525573763578905h-8.019531558189556v8.826608227911493Z"/>
      <path class="cls-1" d="M242.353708140632079,188.089684147102162c12.106326471335706,0,18.94201940662515,8.875943623236708,18.94201940662515,20.016887896003027,0,11.1409442727645-6.835692935289444,20.018996246230017-18.94201940662515,20.018996246230017-12.10870778617118,0-18.942292371286385-8.878051973465517-18.942292371286385-20.018996246230017,0-11.140944272766319,6.833584585115204-20.016887896003027,18.942292371286385-20.016887896003027ZM242.353708140632079,219.517174309979964c6.456791344136036,0,8.929464428618303-5.703087365700412,8.929464428618303-11.410602266874776,0-5.705195715928312-2.472673084482267-11.404488051218323-8.929464428618303-11.404488051218323-6.458961823955178,0-8.931845743455597,5.699292335290011-8.931845743455597,11.404488051218323,0,5.707514901174363,2.472883919500418,11.410602266874776,8.931845743455597,11.410602266874776Z"/>
      <path class="cls-1" d="M293.950487552701816,197.511268809245848h-11.464154073047212v29.805325497752165h-10.00851728685393v-29.805325497752165h-11.459969198522231v-8.612399844786523h32.932640558423373v8.612399844786523Z"/>
      <path class="cls-1" d="M296.178381181942314,189.246746752014587h10.006229927484128v38.419833692766588h-10.006229927484128v-38.419833692766588Z"/>
      <path class="cls-1" d="M334.344790213184751,202.621698925961027c-.535310109269631-3.873039368128047-3.551726703717577-5.919614934074161-7.747732027731217-5.919614934074161-6.454747251770641,0-8.92973952144439,5.699292335290011-8.92973952144439,11.404488051218323,0,5.707514901174363,2.474992269673749,11.410602266874776,8.92973952144439,11.410602266874776,4.681980039203154,0,7.375009096197573-2.688989880301961,7.747732027731217-7.105351102086388h10.012554978005937c-.53741845944387,9.903553524176459-7.801317315144843,15.71374508144163-17.544214305850801,15.71374508144163-11.62059365598634,0-19.154150498988201-8.878051973465517-19.154150498988201-20.018996246230017,0-11.140944272766319,7.533556843001861-20.016887896003027,19.154150498988201-20.016887896003027,8.289400380505867,0,17.276664668725971,5.276989784697435,17.544214305850801,14.532014778858866h-10.012554978005937Z"/>
      <path class="cls-1" d="M354.246350848979091,214.406955028284756c.218425078063774,4.517351197690914,3.016416594450675,5.970847844608215,7.268115556050361,5.970847844608215,3.014308244273707,0,6.133612327230367-1.078842811473805,6.133612327230367-3.928278144091564,0-3.391070506100732-5.487192163773216-4.037701520907831-11.027725586956876-5.598302359388981-5.491198029105362-1.558703323273221-11.254162395684034-4.035593170678112-11.254162395684034-11.085283826754676,0-8.394396431249334,8.449845828774414-11.676254395555588,15.660403425066761-11.676254395555588,7.642769382031474,0,15.334874158143975,3.714280595988384,15.388426252572572,12.376226671124641h-10.002224062151981c.156473785703383-3.500283047887933-3.125629133479379-4.626352904458145-6.189272771833203-4.626352904458145-2.153679703102171,0-4.842669515473062.755632721578877-4.842669515473062,3.279749614077446,0,2.962864574868945,5.54264177335881,3.502391398114924,11.136938125988308,5.065100586824883,5.540533423186389,1.558492488252341,11.136727290972885,4.140378176990453,11.136727290972885,11.079169611094585,0,9.742897236834324-8.285183680158298,12.861990563569634-16.731023643602384,12.861990563569634-8.826608004933405,0-16.630033670250668-3.874726048315097-16.683585764680174-13.71861326105045h10.006440762500461Z"/>
    </g>
    <g>
      <path class="cls-1" d="M96.214526517126615,251.805503870795292c-.541424324776017-3.872828533107167-3.555705285838485-5.917506583849899-7.753879436221723-5.917506583849899-6.452816543626795,0-8.9318146786336,5.703298200724021-8.9318146786336,11.406596401445313,0,5.707304066154393,2.478998135006805,11.406596401443494,8.9318146786336,11.406596401443494,4.683910747344271,0,7.372900559714253-2.688989880301051,7.753879436221723-7.099236886427207h10.0085491126747c-.54163515979144,9.901445173948559-7.801317315143933,15.71163673121373-17.542105955674742,15.71163673121373-11.624810356337548,0-19.158578034354832-8.878051973465517-19.158578034354832-20.018996246230017,0-11.13461922208171,7.533767678017284-20.014990380796007,19.158578034354832-20.014990380796007,8.287081195314386,0,17.272237133357521,5.272983919262515,17.542105955674742,14.525900563200594h-10.0085491126747Z"/>
      <path class="cls-1" d="M125.801426183870717,237.279603307594698c12.106568371172216,0,18.938044606115,8.880371158714297,18.938044606115,20.014990380796007,0,11.1409442727645-6.831476234942784,20.018996246230017-18.938044606115,20.018996246230017-12.108676721351003,0-18.942261306467117-8.878051973465517-18.942261306467117-20.018996246230017,0-11.13461922208171,6.833584585116114-20.014990380796007,18.942261306467117-20.014990380796007ZM125.801426183870717,268.701190089834199c6.454714058782884,0,8.927597978283302-5.699292335289101,8.927597978283302-11.406596401443494,0-5.703298200721292-2.472883919500418-11.406596401445313-8.927597978283302-11.406596401445313-6.460828274291998,0-8.933712193791507,5.703298200724021-8.933712193791507,11.406596401445313,0,5.707304066154393,2.472883919499509,11.406596401443494,8.933712193791507,11.406596401443494Z"/>
      <path class="cls-1" d="M146.987815415915975,238.086890609745751h14.750228654796956l6.615370342070491,25.610973554932571h.109212539034161l6.619376207399-25.610973554932571h14.74200608911724v38.419622857745708h-9.415470208630722v-29.166917048833056h-.107104188855374l-8.073083652618152,29.166917048833056h-7.640661031859963l-8.073083652619061-29.166917048833056h-.104995838682953v29.166917048833056h-9.421795259151622v-38.419622857745708Z"/>
      <path class="cls-1" d="M191.4238253606336,238.086890609745751h18.238072348231071c7.15468631666954,0,13.881377547947523,3.283966314534155,13.881377547947523,12.378124186331661,0,9.524682988273526-5.433640069347348,13.23284936860091-13.881377547947523,13.23284936860091h-8.231631585730611v12.808649302813137h-10.006440762500461v-38.419622857745708ZM201.430266123134061,255.952207098469444h6.726480396258921c3.11719573278242,0,5.380118311759361-1.290942844370875,5.380118311759361-4.793334242485798,0-3.598953838539273-2.312257973057058-5.056667185911465-5.380118311759361-5.056667185911465h-6.726480396258921v9.850001428397263Z"/>
      <path class="cls-1" d="M225.748429349502658,238.086890609745751h30.622490627048137v8.015315060326429h-20.612043746331437v6.726480566186183h18.835126219388258v7.747765416437687h-18.835126219388258v7.319559485213176h21.147353855601978v8.610502329582232h-31.157800736318677v-38.419622857745708Z"/>
      <path class="cls-1" d="M290.880817300412673,246.695284589100083h-11.462224556739784v29.811228878391375h-10.01255523094369v-29.811228878391375h-11.45596325558563v-8.608393979354332h32.930743043269104v8.608393979354332Z"/>
      <path class="cls-1" d="M292.408527836748362,238.086890609745751h10.00433241232713v38.419622857745708h-10.00433241232713v-38.419622857745708Z"/>
      <path class="cls-1" d="M336.934986003945596,246.695284589100083h-11.46415407304994v29.811228878391375h-10.010446627830788v-29.811228878391375h-11.458039857544463v-8.608393979354332h32.932640558425192v8.608393979354332Z"/>
      <path class="cls-1" d="M338.812682669225069,238.086890609745751h10.006474516863818v38.419622857745708h-10.006474516863818v-38.419622857745708Z"/>
      <path class="cls-1" d="M370.013946064470474,237.279603307594698c12.108465886331942,0,18.944158821622295,8.880371158714297,18.944158821622295,20.014990380796007,0,11.1409442727645-6.835692935290353,20.018996246230017-18.944158821622295,20.018996246230017-12.104670856017037,0-18.940152956290149-8.878051973465517-18.940152956290149-20.018996246230017,0-11.13461922208171,6.835482100273111-20.014990380796007,18.940152956290149-20.014990380796007ZM370.013946064470474,268.701190089834199c6.462936624465328,0,8.933712193789688-5.699292335289101,8.933712193789688-11.406596401443494,0-5.703298200721292-2.47077556932436-11.406596401445313-8.933712193789688-11.406596401445313-6.454924893801035,0-8.933712193788779,5.703298200724021-8.933712193788779,11.406596401445313,0,5.707304066154393,2.478787299987744,11.406596401443494,8.933712193788779,11.406596401443494Z"/>
      <path class="cls-1" d="M389.995834841910437,238.086890609745751h10.27609874979953l13.341850738329413,23.673610530780024h.109212539032342v-23.673610530780024h9.417614190684617v38.419622857745708h-10.280315709853312l-13.341886110506493-23.947485225348828h-.109212539031432v23.947485225348828h-9.413361858454664v-38.419622857745708Z"/>
    </g>
    <g>
      <path class="cls-4" d="M243.309061345985356,64.910797943836769c2.797991516382353,0,5.515865726142692.255321212564922,8.109979780666436.728856673687005l6.17071929030044-6.431100699296621c-4.315550565450394-1.492711961149325-9.160149002516846-2.331835351741574-14.280699070966875-2.331835351741574-8.707275385067078,0-16.611691023738786,2.427554452076947-22.473326178474963,6.379656953742597l5.377979624740874,5.095882500147127c4.972333051196983-2.179401630285611,10.823637290081024-3.441460076538533,17.095346553734089-3.441460076538533Z"/>
      <path class="cls-1" d="M243.309061345985356,56.876718566485579c5.120550068450029,0,9.965148505516481.839123390592249,14.280699070966875,2.331835351741574l6.71003526489767-6.984964304087953c-6.261167512778229-2.467613106400677-13.401517048263486-3.869876842788472-20.990734335864545-3.869876842788472-11.311931190462928,0-21.633359469013158,3.113189946097009-29.510788225451506,8.234794319021603l7.037462046976543,6.667868429855844c5.861635154736177-3.952102501665649,13.766050793407885-6.379656953742597,22.473326178474963-6.379656953742597Z"/>
      <path class="cls-4" d="M211.090729826629286,84.208105907155186c.564194506659078-2.30505930385425,1.605930327806163-4.492683500027852,3.043192641663154-6.514380533286385l-2.703537428575146-2.732211059965266c-.535310109268721,1.679933461364271-.831744143782998,3.430074985305509-.831744143782998,5.230606079688187,0,1.370216812928447.170987199140654,2.709651712531922.49208893069499,4.015985513563464Z"/>
      <path class="cls-4" d="M191.117063614869039,99.324766204133994l-1.134503228819085,5.880399619838499,11.291299451553641-4.859114769582447c-.712441616716205-1.498826176812145-.852436068292263-3.452845167767919-1.264407692361601-5.042330404366112l-8.892388530372955,4.02104555411006Z"/>
      <polygon class="cls-4" points="183.171564783293434 35.344348526873546 166.829742169054043 124.830954752752405 174.559135520580639 125.460929800764461 190.740301438713686 34.672206474310769 183.171564783293434 35.344348526873546"/>
      <path class="cls-6" d="M238.124628267247317,86.839326991216694v-7.236068816198895l-11.86980064659565-11.251000154642497-5.375871274566634-5.095882500147127-7.039570397150783-6.667868429855844-23.125860557436681-21.917354791176876-16.187490968653947,90.789777501569006,34.250359417396794-15.054885635306164c-3.409413066948218-3.014308320423879-5.826636541843982-6.226169057172228-7.622107550321743-10.010657715742127l-11.14916655700199,4.785111676595989,1.118058097458743-5.853623571949356,7.224894377475721-37.654924230189863.603198984882511-3.160416991194325,5.964733478263952,6.006900633501573,7.675659644755797,7.729211934436535,3.294297147424913,3.322127453650864,13.547836550364082,11.670140179897317-13.150412542497179,6.026508290613492c3.415738117470028,3.41257567842149,7.461662102055925,6.416553082725841,12.915753168092124,8.115250861113054l16.407602726855657-7.367840705421258-7.482113098745685-7.174504989553498Z"/>
      <path class="cls-3" d="M279.140683394143707,61.634000020076201c5.579748736427973,5.515865865487285,8.882268449536241,12.362733229668265,8.882268449536241,19.781174340554571,0,1.361994247039547-.123549320216625,2.701218311623052-.33986604810616,4.018093863788636.216316727889534,1.317718892260018.33986604810616,2.657997131956108.33986604810616,4.018937203883979,0,5.67441380260243-1.935465460056548,11.01317824896978-5.340872661673529,15.674740602229576l22.306344844663727-23.226851117548904-23.574728309555212-22.635037208658105-2.273012322971226,2.368942315750246Z"/>
      <path class="cls-3" d="M268.154070635586322,73.073486685068929l-9.228037878129726,9.610914512586533,11.245939830004318,10.801289051098138c2.660105414981444-2.725042669196228,4.523465299074815-5.875128744276481,5.353101092684483-9.277584341598413-1.023182339615232-4.204261188888267-3.636060710691709-8.021640111010129-7.371003044559075-11.134619222086258Z"/>
      <path class="cls-4" d="M275.525073680145397,84.208105907155186c.319204216396429-1.306333801031542.494197280867411-2.645768700635017.494197280867411-4.015985513563464,0-4.042761561451698-1.478375142255572-7.856767123208556-4.021045452526778-11.17067201097143l-3.895598617154064,4.034328160540099c3.741056549373752,3.113189946097009,6.399264449198199,6.948068175106528,7.422446788813431,11.152329363994795Z"/>
      <path class="cls-4" d="M282.848849680798594,122.510504492242944l-9.232254578479115-8.869829407581165c-1.476266792082242,1.0088455839159-3.05563190769044,1.943477239815365-4.70685996282009,2.802208287524991l13.939114541299205,13.382963904808094,42.984410849674532-44.770395413360347-.047437878924029-7.250616432769675-42.936972970750503,44.705669061378103Z"/>
      <path class="cls-4" d="M251.526145315509893,92.441846051060566l-7.60355406878989-7.303114353437195-5.818624811182417-5.555081179722038-.020661831707912,7.255676473315361,8.180187841474435,7.856977958231255,7.819870796681244,7.510997685880284c1.986909204309086-.494197293352045,3.88737605147162-1.119955640909211,5.674413659254242-1.861251580938188l-8.231631585729701-7.90420500332948Z"/>
      <polygon class="cls-4" points="281.413695717114933 51.952877444913611 275.294631006087911 58.323257657652903 268.545380427946839 65.357557357069709 263.94369533740155 70.147729074208655 255.223980686309005 79.22755016445717 258.876486528359237 82.732893252888971 268.154070635586322 73.073486685068929 272.033224121379135 69.03473098905306 279.140683394143707 61.634000020076201 281.413695717114933 59.265057704325955 305.050198686780277 81.922654260421041 308.706954035966191 78.128045520757951 281.413695717114933 51.952877444913611"/>
      <path class="cls-1" d="M279.140683394143707,61.634000020076201l-7.107459272764572,7.400730968976859c2.542670310271205,3.312850712652107,3.986046839633673,7.114627843086964,3.986046839633673,11.157389404538662,0,1.370216812928447-.174993064470982,2.709651712531922-.494197280867411,4.015985513563464-.829635793609668,3.402455597321932-2.692995677703038,6.552541672402185-5.353101092684483,9.277584341598413-2.722090910107909,2.790823196291058-6.277823479156723,5.139103679812251-10.414195686221319,6.860360805636446-1.787037607782622.741295940028976-3.687504454945156,1.367054287586143-5.674413659254242,1.861251580938188-3.372516938898116.835960865249945-6.998246733734959,1.299165410257956-10.774301895999997,1.299165410257956-4.651231319645376,0-9.069700780039057-.69385805991169-13.074301101205492-1.941579724611074-5.456199416210438-1.698486943366333-10.134206783068294-4.425637962785004-13.552053250711651-7.840321991434394-1.247510798163603-1.243715799269012-2.32442564388657-2.579988173530182-3.213969005783838-3.992371991012078-1.09528791557841-1.738756432715491-1.90447271249559-3.588622922424292-2.378008161655089-5.524088431373457-.321101731554336-1.306333801031542-.49208893069499-2.645768700635017-.49208893069499-4.015985513563464,0-1.800531094382677.296434034514277-3.550672618323915.831744143782998-5.230606079688187l-8.161634359941672-8.263678717138646c-2.989429712216406,4.431963013471432-4.675688181664555,9.4268555377148-4.675688181664555,14.717338763865882,0,1.361994247039547.125476863624499,2.701218311623052.341763563262248,4.018093863788636.522870843240526,3.198367295292883,1.669813338087806,6.24872840460921,3.337518326002282,9.09732039714072.835960844131478,1.431991474592905,1.807729603181542,2.809376678298577,2.901089839912856,4.127095570557685,2.872205442520681,3.465284434107161,6.574046678652849,6.506368802418365,10.914296347576965,8.972927733708275,7.535665193175191,4.288806033010587,16.971797233513826,6.845813189064756,27.221330771119938,6.845813189064756,7.171131448027154,0,13.941043857877048-1.249619179909132,19.944781814367161-3.467181949313272,1.822247055694788-.673196227680819,3.570280185252159-1.434943164917968,5.241991038496053-2.279126596053175,3.870930920114006-1.958235691407936,7.305222519118615-4.35268904491204,10.171345794055014-7.088905970312226,4.809536369817579-4.594516816016039,8.021397025428087-10.146435470397591,9.015905802670204-16.207942374792765.216316727889534-1.316875552165584.33986604810616-2.656099616749088.33986604810616-4.018093863788636,0-7.418441110886306-3.302519713108268-14.265308475067286-8.882268449536241-19.781174340554571Z"/>
      <path class="cls-2" d="M251.487140837284642,92.49539814684249l8.204887107081049,7.879537305664599c4.130015587975322-1.723365476053004,7.716740904585095-4.043815736564284,10.442837680026969-6.833584757743665l-11.248048180179467-10.801289051097228-3.652505842050232-3.506397263550753,8.672308447205069-9.031539870034976,4.597436715161166-4.789960882118976,6.751358928316222-7.034510534436777,6.121173061201262-6.370169377716593,27.227444986623595,26.141223637180701-3.654614192225381,3.806837170980543-22.306555679680969,23.226851117545266c-2.349334599282884,3.218185787432049-5.396533106276365,6.076054520965045-8.99970355424739,8.542613452253136l9.166474053037746,8.843053359685655,42.984410849676351-44.76744372304529-44.767442592125917-42.983357760438594-16.765779737494086,17.460934915064172-6.710277783902711,6.986861819292244-6.174725155629858,6.431100699296621-13.271853512540474,13.887492114278757,13.383174401747056,12.911747628941157Z"/>
      <path class="cls-4" d="M213.654092374160427,89.953571112428108s.21417797216327.353148663123648.238845669202419.393207317449196c.656751079311107,1.043000857599509,1.558703283900286,1.999348520847889,2.413006774548194,2.952533658753055l13.372843485890371-6.178942012069456-30.731733811416234-28.620221834812583-.837828346432616,4.427746313014723,24.110008405968074,23.870319607018246-8.565142177760208,3.155356950646819Z"/>
      <path class="cls-4" d="M288.022951843679948,81.415174360630772c0,1.361994247039547-.123549320216625,2.701218311623052-.33986604810616,4.018093863788636-.994508777242118,6.061506904395173-4.206369432852625,11.613425558776726-9.015905802670204,16.207942374792765-2.866123274936399,2.736216925400186-6.300414873941008,5.13067027890429-10.171345794055014,7.088905970312226-1.671710853243894.844183431135207-3.419743982801265,1.605930368372356-5.241991038496053,2.279126596053175-6.003737956490113,2.21756276940414-12.773650366340007,3.467181949313272-19.944781814367161,3.467181949313272-10.249533537606112,0-19.685665577944746-2.557007156054169-27.221330771119938-6.845813189064756-4.340249668924116-2.46655893128991-8.042090905056284-5.507643299601114-10.914296347576965-8.972927733708275-1.093360236731314-1.317718892259109-2.065128995781379-2.69510409596478-2.901089839912856-4.127095570557685-1.667704987914476-2.84859199253151-2.814647482761757-5.898953101847837-3.337518326002282-9.09732039714072-.216286699637749-1.316875552165584-.341763563262248-2.656099616749088-.341763563262248-4.018093863788636,0-.428205931227239.032890262719775-.851351821911521.053552094428596-1.272389362366084-.004216700349389-.023824357571357-.012409239910994-.054606270891782-.014517590137984-.075268103121743-.218244269110983,1.317718892259109-.039034504290612,8.023748461232572-.039034504290612,9.384688533160443,0,2.156842282848629.288211468834561,4.262029985121444.821413227929042,6.303545510522781.415977489400575,1.592436926918708.986286211561492,3.140809334078767,1.698697735475434,4.639635510890002,1.795260173463248,3.784488658569899,4.488466686182619,7.255676473314452,7.900198938322319,10.269984793737422,8.206753053672401,7.23712299131239,20.523313102213251,11.845133248789352,34.295688946147493,11.845133248789352,9.557573010378292,0,18.404632012002367-2.223676985066049,25.672747568051818-5.997623892499178,1.651259856554134-.858731047705987,3.222191571465373-1.795471053836991,4.696560848391528-2.804316637749253,3.602959612952873-2.466558931289001,6.654406910292892-5.361534628828849,9.003709419577717-8.581617931461551,3.405407201616981-4.661562353259797,5.340872661673529-10.000326799627146,5.340872661673529-15.674740602229576,0-1.197332094267949.102887488508713-6.868583371523528-.012439266029105-9.122198929826482-.020661831707912-.307819133228804.012439266029105.693858059909871.012439266029105,1.085167862153867Z"/>
    </g>
    <g>
      <path class="cls-1" d="M167.912507667390855,135.794641668790973h30.600661497813235l-2.881362030487253,11.783724790317137h-14.666936861299291l-1.450048352272461,6.191077505611247h15.300138005351982l-2.663793099706709,10.917920695923385h-15.102151820288782l-3.625583465210184,15.511308241777442h-15.807978737828307l10.297054863927769-44.404031233629212Z"/>
      <path class="cls-1" d="M202.673346169056458,135.794641668790973h15.807978737820122l-10.29705486392686,44.404031233629212h-15.807978737821031l10.297054863927769-44.404031233629212Z"/>
      <path class="cls-1" d="M222.617062027290558,136.061167470601504l1.015295977834285-.133301449619466c5.075708914911957-.599278292590498,11.384668225549831-.998334569754661,14.865385630900164-.998334569754661,5.80073899486797,0,10.297060881339348.665582078975604,13.705454885491235,2.062972925897157,4.350299251654178,1.79791197517261,6.961357713280449,5.725871636900592,6.961357713280449,10.452560632363202,0,4.060413039656851-1.377808065893987,7.922068914993361-3.988866527518439,10.917920695930661-2.248160886450023,2.595947432084358-4.278058965292075,3.860884901073405-8.484494423598335,5.125745272634958l-1.014910490710463.33275249077542c.435137861568364.333523465031249.580472459258999.466824914649806.798035436750979.666353053233252,1.2325565189185,1.398161821177382,4.930842855045739,8.588344870796391,8.049356562029061,15.71083638035816h-17.403818319036873c-2.247775399327111-6.324378955227985-2.900559289086232-7.988295603956431-5.873744351662936-15.178555750998385l-3.480717405353062,15.178555750998385h-15.372763778837907l10.22442909043184-44.137505431818681ZM234.291616567423262,156.965594858504119c5.076094402027593,0,8.629437580875674-2.996622755207682,8.629437580875674-7.256563933440702,0-2.263965915575682-1.668079867595225-3.395601934941624-4.931151244740249-3.395601934941624-.942670204341084,0-1.450125449700863.066303786392382-2.465421427526053.266525801810531l-2.393104043729181,10.251567642690134c.507840732474506.066997663222537.580466505969525.134072423881662,1.160239135119809.134072423881662Z"/>
      <path class="cls-1" d="M296.691580442742634,135.794641668790973h38.355969453313264l-2.679606267972304,12.854299648263805h-11.383897251314011l-7.541824219248156,31.549731585365407h-15.807978737828307l7.541824219257251-31.549731585365407h-12.339358498056754l3.854871301849016-12.854299648263805Z"/>
      <path class="cls-1" d="M320.841030655088616,172.265347763222962c2.130664412125952,0,3.860113829291549,1.715109339613264,3.860113829291549,3.845850903004248,0,2.146469438285749-1.714338322040931,3.860884901065219-3.860113829291549,3.860884901065219-2.161657576615653,0-3.84584306555098-1.685041343454031-3.84584306555098-3.860884901065219,0-2.145775561459232,1.699296584059994-3.845850903004248,3.84584306555098-3.845850903004248ZM320.841030655088616,179.494696305279831c1.877707763685976,0,3.383497553572852-1.505789827933768,3.383497553572852-3.368463640976188,0-1.877784908561807-1.505789789886876-3.383574736484661-3.383497553572852-3.383574736484661-1.863444740239174,0-3.36854065330499,1.505789827922854-3.36854065330499,3.368540738408228,0,1.892741809202562,1.490755792182426,3.383497639052621,3.36854065330499,3.383497639052621ZM319.350274862898004,174.143826548615834c.19420841127976-.015033998071885.223582529858504-.029374119317254.611305475603331-.059442115472848.387029068923766-.030145093581268.551169484809179-.045179091656792.715309900694592-.045179091656792,1.267096164910981,0,1.892741761390425.492344162673362,1.892741761390425,1.43123661694699,0,.566203496813614-.237922650736436.908747360693269-.74537789608803,1.103032874309974l-.059442113973091.015033998071885c.044408116268642.030145093582178.059442113973091.044408117401872.074553209090482.073782236721854.134003189114082.119732302627199.581237480209893.79055700657409.953926428256636,1.401939595052681h-1.445576701672508c-.298135738956262-.551940472996648-.38780004317141-.70096979752725-.760488991218153-1.326615409819169v1.326615409819169h-1.236951072083684v-3.920404113973746ZM320.736332353169018,175.992237337848564c.342543855233998,0,.536829363933975-.164140420027252.536829363933975-.477387262018965,0-.298135746485968-.179174413582587-.462276166520496-.521787531057271-.462276166520496-.074483946849796,0-.089595041967186,0-.164148251064034.015033998077342v.90951833496274c.059519211400584.015111095499378.089664304214239.015111095499378.14910641818733.015111095499378Z"/>
      <path class="cls-1" d="M256.079194420173735,179.070120780097568c4.444358109047243,1.320524713151826,9.304348431353901,2.060660003112389,13.845155417936439,2.060660003112389,6.164016153355988,0,10.87721298019369-1.397390846925191,14.937625917277728-4.326938841471929,4.495550798636941-3.196073796351811,7.3965026902315-8.121597053567712,7.3965026902315-12.581760247223428,0-2.996622755204953-1.304803920673294-5.725871636908778-3.625205093486329-7.657085061703583-1.813023024881659-1.463617535879166-3.698279405753965-2.59602452951458-7.541901316677468-4.393165530428632l-3.117742732736588-1.464388510145c-1.015681464950831-.533051603614695-1.523136710310609-1.065409330401963-1.523136710310609-1.664687622981546,0-1.597689959768104,2.030591955662203-2.795552668098935,4.786208087456544-2.795552668098935,2.061430925294189,0,4.518217441326669.599355390007986,9.213296373508456,2.134519337256279l3.240481831890975-12.020182595972983c-3.511556374994143-.953926452353699-6.93275456894753-1.432007591212823-10.351639840178905-1.432007591212823-12.90703396162462,0-22.841653834905628,7.056264820598699-22.841653834905628,16.176890320753046,0,4.792992781858629,3.190831090782012,8.188594716792977,11.167099294773834,11.917026239931147,3.770526622503894,1.730143337695154,4.424081486512478,2.196968252349507,4.424081486512478,3.394830960679428,0,1.797141000921329-1.958351669291005,2.929547994548557-5.149105662644615,2.929547994548557-2.827933515593941,0-6.453208591116891-.865804094385567-11.384668225554378-2.663022192737117l-.006013599078869.001541948525301-3.469384084014564,12.38377405716983Z"/>
    </g>
  </g>
  <g>
    <path class="cls-1" d="M75.1552734375,337.92626953125h7.458984375v44.66259765625h-7.458984375v-44.66259765625ZM78.5625,356.4052734375h8.0419921875c.6552734375,0,1.22265625-.11767578125,1.7041015625-.35302734375.48046875-.2353515625.84375-.57275390625,1.08984375-1.01318359375.2451171875-.439453125.3681640625-.966796875.3681640625-1.58056640625v-4.97314453125c0-.67529296875-.123046875-1.25830078125-.3681640625-1.74951171875-.24609375-.4912109375-.609375-.8642578125-1.08984375-1.1201171875-.4814453125-.255859375-1.048828125-.3837890625-1.7041015625-.3837890625h-8.0419921875v-7.3056640625h7.58203125c2.4140625,0,4.4755859375.39404296875,6.1845703125,1.181640625,1.708984375.7880859375,3.013671875,1.9443359375,3.9140625,3.46875.900390625,1.52490234375,1.3505859375,3.35107421875,1.3505859375,5.47900390625v5.21826171875c0,2.1904296875-.4501953125,4.0673828125-1.3505859375,5.6328125s-2.2099609375,2.7578125-3.9287109375,3.576171875c-1.7197265625.81884765625-3.7763671875,1.22802734375-6.169921875,1.22802734375h-7.58203125v-7.3056640625ZM84.7626953125,362.32958984375l6.9677734375-1.412109375,7.1220703125,21.67138671875h-8.1650390625l-5.9248046875-20.25927734375Z"/>
    <path class="cls-1" d="M107.5849609375,381.80615234375c-1.7080078125-.82861328125-3.0126953125-2.02587890625-3.9130859375-3.59130859375-.9013671875-1.5654296875-1.3505859375-3.45361328125-1.3505859375-5.66357421875v-24.556640625c0-2.21044921875.44921875-4.10302734375,1.3505859375-5.6787109375.900390625-1.57568359375,2.205078125-2.77294921875,3.9130859375-3.591796875,1.708984375-.81787109375,3.7607421875-1.2275390625,6.1552734375-1.2275390625,2.3935546875,0,4.4453125.40966796875,6.154296875,1.2275390625,1.7080078125.81884765625,3.0126953125,2.01611328125,3.9140625,3.591796875.900390625,1.57568359375,1.3505859375,3.46826171875,1.3505859375,5.6787109375v24.556640625c0,2.2099609375-.4501953125,4.09814453125-1.3505859375,5.66357421875-.9013671875,1.5654296875-2.2060546875,2.7626953125-3.9140625,3.59130859375-1.708984375.82861328125-3.7607421875,1.2431640625-6.154296875,1.2431640625-2.39453125,0-4.4462890625-.41455078125-6.1552734375-1.2431640625ZM115.7509765625,374.97607421875c.5625-.306640625.986328125-.74658203125,1.2734375-1.31982421875.2861328125-.57275390625.4296875-1.2685546875.4296875-2.08740234375v-22.6533203125c0-.79833984375-.1435546875-1.48388671875-.4296875-2.056640625-.287109375-.57275390625-.7109375-1.01318359375-1.2734375-1.3203125-.5634765625-.306640625-1.2333984375-.46044921875-2.0107421875-.46044921875-.7783203125,0-1.443359375.15380859375-1.9951171875.46044921875-.552734375.30712890625-.97265625.74755859375-1.2587890625,1.3203125-.287109375.57275390625-.4296875,1.25830078125-.4296875,2.056640625v22.6533203125c0,.81884765625.142578125,1.5146484375.4296875,2.08740234375.2861328125.5732421875.7060546875,1.01318359375,1.2587890625,1.31982421875.5517578125.30712890625,1.216796875.46044921875,1.9951171875.46044921875.77734375,0,1.447265625-.1533203125,2.0107421875-.46044921875Z"/>
    <path class="cls-1" d="M134.6591796875,381.80615234375c-1.708984375-.82861328125-3.013671875-2.02587890625-3.9140625-3.59130859375s-1.3505859375-3.45361328125-1.3505859375-5.66357421875v-24.556640625c0-2.21044921875.4501953125-4.10302734375,1.3505859375-5.6787109375s2.205078125-2.77294921875,3.9140625-3.591796875c1.7080078125-.81787109375,3.759765625-1.2275390625,6.154296875-1.2275390625s4.4462890625.40966796875,6.1552734375,1.2275390625c1.7080078125.81884765625,3.0126953125,2.01611328125,3.9130859375,3.591796875s1.3505859375,3.46826171875,1.3505859375,5.6787109375v24.556640625c0,2.2099609375-.4501953125,4.09814453125-1.3505859375,5.66357421875s-2.205078125,2.7626953125-3.9130859375,3.59130859375c-1.708984375.82861328125-3.7607421875,1.2431640625-6.1552734375,1.2431640625s-4.4462890625-.41455078125-6.154296875-1.2431640625ZM142.82421875,374.97607421875c.5625-.306640625.9873046875-.74658203125,1.2744140625-1.31982421875.2861328125-.57275390625.4296875-1.2685546875.4296875-2.08740234375v-22.6533203125c0-.79833984375-.1435546875-1.48388671875-.4296875-2.056640625-.287109375-.57275390625-.7119140625-1.01318359375-1.2744140625-1.3203125-.5634765625-.306640625-1.2333984375-.46044921875-2.0107421875-.46044921875s-1.4423828125.15380859375-1.9951171875.46044921875c-.552734375.30712890625-.9716796875.74755859375-1.2587890625,1.3203125-.2861328125.57275390625-.4296875,1.25830078125-.4296875,2.056640625v22.6533203125c0,.81884765625.1435546875,1.5146484375.4296875,2.08740234375.287109375.5732421875.7060546875,1.01318359375,1.2587890625,1.31982421875.552734375.30712890625,1.2177734375.46044921875,1.9951171875.46044921875s1.447265625-.1533203125,2.0107421875-.46044921875Z"/>
    <path class="cls-1" d="M157.0830078125,337.95703125h7.6123046875v44.6318359375h-7.6123046875v-44.6318359375ZM163.1298828125,361.9609375l8.6865234375-24.00390625h8.595703125l-17.2822265625,37.541015625v-13.537109375ZM165.9228515625,358.21630859375l5.21875-4.57373046875,10.6826171875,28.9462890625h-8.349609375l-7.5517578125-24.37255859375Z"/>
    <path class="cls-1" d="M191.5234375,382.5888671875h-7.6123046875v-44.6318359375h7.6123046875v44.6318359375Z"/>
    <path class="cls-1" d="M196.3740234375,337.95703125h7.6123046875v44.6318359375h-7.6123046875v-44.6318359375ZM199.75,337.95703125h16.453125v7.42822265625h-16.453125v-7.42822265625ZM199.75,356.7119140625h14.9189453125v7.39794921875h-14.9189453125v-7.39794921875ZM199.75,375.16064453125h16.453125v7.42822265625h-16.453125v-7.42822265625Z"/>
    <path class="cls-1" d="M241.2822265625,337.95703125h5.3408203125l10.6513671875,44.6318359375h-7.55078125l-5.771484375-29.25341796875-5.7705078125,29.25341796875h-7.5517578125l10.65234375-44.6318359375ZM237.875,368.5302734375h12.1552734375v7.12109375h-12.1552734375v-7.12109375Z"/>
    <path class="cls-1" d="M260.58984375,337.95703125h7.6123046875v44.6318359375h-7.6123046875v-44.6318359375ZM263.720703125,375.283203125h16.0849609375v7.3056640625h-16.0849609375v-7.3056640625Z"/>
    <path class="cls-1" d="M283.734375,337.95703125h7.61328125v44.6318359375h-7.61328125v-44.6318359375ZM286.865234375,375.283203125h16.0849609375v7.3056640625h-16.0849609375v-7.3056640625Z"/>
    <path class="cls-1" d="M324.099609375,381.74462890625c-1.677734375-.86962890625-2.9619140625-2.1279296875-3.8525390625-3.775390625-.8896484375-1.64697265625-1.3349609375-3.626953125-1.3349609375-5.93994140625v-2.39404296875l7.58203125-.0615234375v2.39453125c0,1.12548828125.3173828125,2.01025390625.951171875,2.65478515625.634765625.64501953125,1.5146484375.96728515625,2.640625.96728515625,1.1044921875,0,1.958984375-.3173828125,2.5625-.95166015625s.90625-1.50439453125.90625-2.609375v-3.8984375c0-.81787109375-.23046875-1.529296875-.69140625-2.13330078125-.4599609375-.60302734375-1.0537109375-1.125-1.7802734375-1.5654296875-.7265625-.43994140625-1.7138671875-.966796875-2.9619140625-1.58056640625-.08203125-.041015625-.1591796875-.08154296875-.23046875-.123046875-.0712890625-.04052734375-.1484375-.08154296875-.23046875-.12255859375l-.3984375-.1845703125c-1.658203125-.8388671875-3.0693359375-1.71337890625-4.236328125-2.62451171875-1.166015625-.91015625-2.138671875-2.11279296875-2.916015625-3.6064453125-.7783203125-1.49365234375-1.166015625-3.33544921875-1.166015625-5.525390625v-2.30224609375c0-2.271484375.4345703125-4.220703125,1.3037109375-5.84765625.8701171875-1.626953125,2.1337890625-2.8701171875,3.791015625-3.7294921875,1.658203125-.859375,3.6533203125-1.2890625,5.986328125-1.2890625,2.271484375,0,4.2255859375.4296875,5.8623046875,1.2890625,1.6376953125.859375,2.8857421875,2.11328125,3.7451171875,3.76025390625.859375,1.6474609375,1.2890625,3.62744140625,1.2890625,5.939453125v2.51708984375l-7.58203125.09228515625v-2.5478515625c0-1.1455078125-.291015625-2.041015625-.8740234375-2.68603515625-.583984375-.64453125-1.3974609375-.966796875-2.4404296875-.966796875-1.10546875,0-1.9599609375.29150390625-2.5634765625.875-.603515625.5830078125-.9052734375,1.38671875-.9052734375,2.40966796875v2.9775390625c0,.83935546875.2197265625,1.5654296875.66015625,2.17919921875.439453125.6142578125.9921875,1.130859375,1.6572265625,1.55029296875s1.5908203125.92626953125,2.7783203125,1.51953125c.224609375.1025390625.455078125.21484375.6904296875.33740234375.2353515625.123046875.4755859375.24560546875.7216796875.36865234375.0400390625.0205078125.076171875.041015625.107421875.06103515625.0302734375.02099609375.0654296875.04150390625.107421875.0615234375,1.6982421875.90087890625,3.0693359375,1.734375,4.11328125,2.501953125,1.04296875.76708984375,1.93359375,1.8466796875,2.669921875,3.23828125.7373046875,1.39208984375,1.10546875,3.17236328125,1.10546875,5.34130859375v3.7138671875c0,2.31298828125-.435546875,4.29296875-1.3046875,5.93994140625-.8701171875,1.6474609375-2.1337890625,2.90576171875-3.791015625,3.775390625s-3.642578125,1.3046875-5.955078125,1.3046875c-2.3330078125,0-4.3388671875-.43505859375-6.0166015625-1.3046875Z"/>
    <path class="cls-1" d="M343.560546875,337.95703125h22.34765625v7.3056640625h-22.34765625v-7.3056640625ZM350.927734375,341.70166015625h7.61328125v40.88720703125h-7.61328125v-40.88720703125Z"/>
    <path class="cls-1" d="M375.2705078125,337.95703125h5.3408203125l10.6513671875,44.6318359375h-7.55078125l-5.771484375-29.25341796875-5.7705078125,29.25341796875h-7.5517578125l10.65234375-44.6318359375ZM371.86328125,368.5302734375h12.1552734375v7.12109375h-12.1552734375v-7.12109375Z"/>
    <path class="cls-1" d="M394.578125,337.92626953125h7.458984375v44.66259765625h-7.458984375v-44.66259765625ZM397.9853515625,356.4052734375h8.0419921875c.6552734375,0,1.22265625-.11767578125,1.7041015625-.35302734375.48046875-.2353515625.84375-.57275390625,1.08984375-1.01318359375.2451171875-.439453125.3681640625-.966796875.3681640625-1.58056640625v-4.97314453125c0-.67529296875-.123046875-1.25830078125-.3681640625-1.74951171875-.24609375-.4912109375-.609375-.8642578125-1.08984375-1.1201171875-.4814453125-.255859375-1.048828125-.3837890625-1.7041015625-.3837890625h-8.0419921875v-7.3056640625h7.58203125c2.4140625,0,4.4755859375.39404296875,6.1845703125,1.181640625,1.708984375.7880859375,3.013671875,1.9443359375,3.9140625,3.46875.900390625,1.52490234375,1.3505859375,3.35107421875,1.3505859375,5.47900390625v5.21826171875c0,2.1904296875-.4501953125,4.0673828125-1.3505859375,5.6328125s-2.2099609375,2.7578125-3.9287109375,3.576171875c-1.7197265625.81884765625-3.7763671875,1.22802734375-6.169921875,1.22802734375h-7.58203125v-7.3056640625ZM404.185546875,362.32958984375l6.9677734375-1.412109375,7.1220703125,21.67138671875h-8.1650390625l-5.9248046875-20.25927734375Z"/>
    <path class="cls-1" d="M187.0419921875,413.3955078125h5.3408203125l10.65234375,44.6318359375h-7.5517578125l-5.7705078125-29.25341796875-5.771484375,29.25341796875h-7.55078125l10.6513671875-44.6318359375ZM183.634765625,443.96875h12.1552734375v7.12109375h-12.1552734375v-7.12109375Z"/>
    <path class="cls-1" d="M215.6201171875,413.3955078125h5.8935546875l4.8193359375,30.9716796875,2.2412109375-30.9716796875h7.7353515625l-5.7099609375,44.6318359375h-7.3056640625l-4.54296875-28.8544921875-4.880859375,28.8544921875h-7.3056640625l-5.740234375-44.6318359375h7.7353515625l2.2412109375,30.9716796875,4.8193359375-30.9716796875Z"/>
    <path class="cls-1" d="M244.7509765625,413.3955078125h5.3408203125l10.6513671875,44.6318359375h-7.55078125l-5.771484375-29.25341796875-5.7705078125,29.25341796875h-7.5517578125l10.65234375-44.6318359375ZM241.34375,443.96875h12.1552734375v7.12109375h-12.1552734375v-7.12109375Z"/>
    <path class="cls-1" d="M264.05859375,413.36474609375h7.458984375v44.66259765625h-7.458984375v-44.66259765625ZM267.4658203125,431.84375h8.0419921875c.6552734375,0,1.22265625-.11767578125,1.7041015625-.35302734375.48046875-.2353515625.84375-.57275390625,1.08984375-1.01318359375.2451171875-.439453125.3681640625-.966796875.3681640625-1.58056640625v-4.97314453125c0-.67529296875-.123046875-1.25830078125-.3681640625-1.74951171875-.24609375-.4912109375-.609375-.8642578125-1.08984375-1.1201171875-.4814453125-.255859375-1.048828125-.3837890625-1.7041015625-.3837890625h-8.0419921875v-7.3056640625h7.58203125c2.4140625,0,4.4755859375.39404296875,6.1845703125,1.181640625,1.708984375.7880859375,3.013671875,1.9443359375,3.9140625,3.46875.900390625,1.52490234375,1.3505859375,3.35107421875,1.3505859375,5.47900390625v5.21826171875c0,2.1904296875-.4501953125,4.0673828125-1.3505859375,5.63232421875-.900390625,1.5654296875-2.2099609375,2.7578125-3.9287109375,3.576171875-1.7197265625.8193359375-3.7763671875,1.228515625-6.169921875,1.228515625h-7.58203125v-7.3056640625ZM273.666015625,437.767578125l6.9677734375-1.412109375,7.1220703125,21.671875h-8.1650390625l-5.9248046875-20.259765625Z"/>
    <path class="cls-1" d="M292.4521484375,413.3955078125h7.61328125v44.6318359375h-7.61328125v-44.6318359375ZM297.517578125,450.7216796875h5.708984375c1.0234375,0,1.8115234375-.3115234375,2.36328125-.9365234375.552734375-.6240234375.8291015625-1.4990234375.8291015625-2.6240234375v-22.8994140625c0-1.125-.2763671875-2-.8291015625-2.62451171875-.5517578125-.6240234375-1.33984375-.93603515625-2.36328125-.93603515625h-5.708984375v-7.3056640625h6.4765625c2.1279296875,0,3.94921875.39404296875,5.4638671875,1.181640625,1.5146484375.7880859375,2.6708984375,1.93359375,3.46875,3.43798828125.7978515625,1.50390625,1.197265625,3.2998046875,1.197265625,5.38720703125v24.6181640625c0,2.0869140625-.3994140625,3.8828125-1.197265625,5.38671875s-1.9599609375,2.650390625-3.484375,3.4384765625-3.3505859375,1.181640625-5.478515625,1.181640625h-6.4462890625v-7.3056640625Z"/>
  </g>
  <g>
    <rect class="cls-3" x="86.094598698638038" y="515.465205036882253" width="320.473624252194895" height="174.166652313277154"/>
    <path class="cls-1" d="M205.203125,586.3037109375l8.0283203125-14.115234375c1.1396484375-1.96875,1.9853515625-3.755859375,2.5380859375-5.361328125s.8291015625-3.021484375.8291015625-4.2470703125v-.259765625c0-1.15625-.220703125-2.01953125-.66015625-2.58984375-.4404296875-.5693359375-1.1103515625-.8544921875-2.0078125-.8544921875-1.0703125,0-1.8603515625.384765625-2.3701171875,1.15234375-.5087890625.7685546875-.763671875,1.9384765625-.763671875,3.509765625v.724609375h-5.8017578125v-.724609375c.017578125-2.279296875.345703125-4.173828125.984375-5.685546875.638671875-1.5107421875,1.6015625-2.6455078125,2.8876953125-3.4052734375s2.896484375-1.1396484375,4.8310546875-1.1396484375c1.9326171875,0,3.54296875.3369140625,4.830078125,1.009765625,1.2861328125.673828125,2.2529296875,1.6796875,2.900390625,3.017578125s.9716796875,3.0087890625.9716796875,5.01171875v.2587890625c0,1.4501953125-.302734375,3.099609375-.9072265625,4.947265625s-1.5107421875,3.8935546875-2.71875,6.1376953125l-6.552734375,12.1728515625h10.126953125v5.4912109375h-17.1455078125v-5.05078125Z"/>
    <path class="cls-1" d="M229.0048828125,589.4375c-1.5029296875-1.5361328125-2.25390625-3.7119140625-2.25390625-6.5263671875v-20.771484375c0-2.814453125.7509765625-4.990234375,2.25390625-6.52734375,1.501953125-1.5361328125,3.6083984375-2.3046875,6.3193359375-2.3046875,2.7099609375,0,4.8173828125.7685546875,6.3193359375,2.3046875,1.501953125,1.537109375,2.2529296875,3.712890625,2.2529296875,6.52734375v20.771484375c0,2.814453125-.7509765625,4.990234375-2.2529296875,6.5263671875-1.501953125,1.537109375-3.609375,2.3056640625-6.3193359375,2.3056640625-2.7109375,0-4.8173828125-.7685546875-6.3193359375-2.3056640625ZM237.4482421875,585.37109375c.5-.5869140625.7509765625-1.4150390625.7509765625-2.486328125v-20.7197265625c0-1.0703125-.2548828125-1.8994140625-.7646484375-2.486328125-.5087890625-.5869140625-1.212890625-.880859375-2.1103515625-.880859375-.8984375,0-1.6015625.2939453125-2.111328125.880859375-.5087890625.5869140625-.763671875,1.416015625-.763671875,2.486328125v20.7197265625c0,1.0712890625.25,1.8994140625.7509765625,2.486328125.5009765625.587890625,1.2080078125.880859375,2.1240234375.880859375.9150390625,0,1.623046875-.29296875,2.1240234375-.880859375Z"/>
    <path class="cls-1" d="M248.455078125,586.3037109375l8.029296875-14.115234375c1.1396484375-1.96875,1.9853515625-3.755859375,2.5380859375-5.361328125.5517578125-1.60546875.828125-3.021484375.828125-4.2470703125v-.259765625c0-1.15625-.2197265625-2.01953125-.66015625-2.58984375-.4404296875-.5693359375-1.109375-.8544921875-2.0068359375-.8544921875-1.0712890625,0-1.861328125.384765625-2.3701171875,1.15234375-.509765625.7685546875-.763671875,1.9384765625-.763671875,3.509765625v.724609375h-5.8017578125v-.724609375c.0166015625-2.279296875.3447265625-4.173828125.984375-5.685546875.638671875-1.5107421875,1.6005859375-2.6455078125,2.8876953125-3.4052734375,1.2861328125-.759765625,2.896484375-1.1396484375,4.830078125-1.1396484375s3.5439453125.3369140625,4.830078125,1.009765625c1.2861328125.673828125,2.25390625,1.6796875,2.9013671875,3.017578125s.970703125,3.0087890625.970703125,5.01171875v.2587890625c0,1.4501953125-.3017578125,3.099609375-.90625,4.947265625s-1.5107421875,3.8935546875-2.7197265625,6.1376953125l-6.552734375,12.1728515625h10.126953125v5.4912109375h-17.1455078125v-5.05078125Z"/>
    <path class="cls-1" d="M272.2568359375,589.4375c-1.501953125-1.5361328125-2.2529296875-3.7119140625-2.2529296875-6.5263671875v-20.771484375c0-2.814453125.7509765625-4.990234375,2.2529296875-6.52734375,1.501953125-1.5361328125,3.6083984375-2.3046875,6.3193359375-2.3046875s4.8173828125.7685546875,6.3203125,2.3046875c1.501953125,1.537109375,2.2529296875,3.712890625,2.2529296875,6.52734375v20.771484375c0,2.814453125-.7509765625,4.990234375-2.2529296875,6.5263671875-1.5029296875,1.537109375-3.609375,2.3056640625-6.3203125,2.3056640625s-4.8173828125-.7685546875-6.3193359375-2.3056640625ZM280.7001953125,585.37109375c.5009765625-.5869140625.7509765625-1.4150390625.7509765625-2.486328125v-20.7197265625c0-1.0703125-.2548828125-1.8994140625-.763671875-2.486328125-.509765625-.5869140625-1.2138671875-.880859375-2.111328125-.880859375s-1.6015625.2939453125-2.1103515625.880859375c-.509765625.5869140625-.7646484375,1.416015625-.7646484375,2.486328125v20.7197265625c0,1.0712890625.2509765625,1.8994140625.751953125,2.486328125.5.587890625,1.2080078125.880859375,2.123046875.880859375s1.623046875-.29296875,2.1240234375-.880859375Z"/>
    <path class="cls-1" d="M99.634765625,639.716796875c-1.330078125-.759765625-2.3486328125-1.85546875-3.0556640625-3.2890625-.708984375-1.4326171875-1.0625-3.16015625-1.0625-5.1796875v-19.1923828125c0-2.037109375.353515625-3.7724609375,1.0625-5.205078125.70703125-1.43359375,1.7255859375-2.529296875,3.0556640625-3.2900390625,1.3291015625-.759765625,2.9267578125-1.1396484375,4.7919921875-1.1396484375,1.8818359375,0,3.4873046875.3759765625,4.8173828125,1.126953125,1.3291015625.7509765625,2.34375,1.8515625,3.04296875,3.302734375.69921875,1.4501953125,1.048828125,3.185546875,1.048828125,5.205078125v2.3056640625h-5.75v-2.3056640625c0-.828125-.12109375-1.544921875-.3623046875-2.1494140625-.2421875-.6044921875-.6005859375-1.0615234375-1.0751953125-1.373046875-.474609375-.310546875-1.048828125-.4658203125-1.7216796875-.4658203125-.6572265625,0-1.2177734375.1552734375-1.68359375.4658203125-.466796875.3115234375-.8291015625.7646484375-1.087890625,1.3603515625s-.388671875,1.31640625-.388671875,2.162109375v19.1923828125c0,.845703125.1298828125,1.5625.388671875,2.1494140625s.62109375,1.0361328125,1.087890625,1.3466796875c.4658203125.310546875,1.0263671875.4658203125,1.68359375.4658203125.6904296875,0,1.2685546875-.1591796875,1.7353515625-.478515625.4658203125-.3193359375.8193359375-.7724609375,1.0615234375-1.3603515625.2412109375-.5859375.3623046875-1.302734375.3623046875-2.1494140625v-2.3046875h5.75v2.3046875c-.017578125,2.0205078125-.37109375,3.755859375-1.0615234375,5.2060546875-.69140625,1.4501953125-1.7060546875,2.55078125-3.0439453125,3.3017578125-1.337890625.751953125-2.939453125,1.126953125-4.8037109375,1.126953125-1.865234375,0-3.462890625-.3798828125-4.7919921875-1.1396484375Z"/>
    <path class="cls-1" d="M123.177734375,602.8095703125h4.5068359375l8.857421875,37.658203125h-5.8271484375l-5.2841796875-27.32421875-5.283203125,27.32421875h-5.8271484375l8.857421875-37.658203125ZM120.173828125,628.1142578125h10.7216796875v5.30859375h-10.7216796875v-5.30859375Z"/>
    <path class="cls-1" d="M139.5986328125,602.8095703125h4.6875l9.5830078125,27.013671875-.7509765625.8291015625v-27.8427734375h5.283203125v37.6328125h-4.7392578125l-9.5048828125-25.822265625.7509765625-.8544921875v26.6767578125h-5.3095703125v-37.6328125Z"/>
    <path class="cls-1" d="M169.7978515625,602.8095703125h4.5068359375l8.857421875,37.658203125h-5.8271484375l-5.2841796875-27.32421875-5.283203125,27.32421875h-5.8271484375l8.857421875-37.658203125ZM166.7939453125,628.1142578125h10.7216796875v5.30859375h-10.7216796875v-5.30859375Z"/>
    <path class="cls-1" d="M186.21875,602.8095703125h5.697265625v37.658203125h-5.697265625v-37.658203125ZM189.921875,635.0546875h5.853515625c.880859375,0,1.55859375-.2626953125,2.033203125-.7900390625.474609375-.5263671875.7119140625-1.2724609375.7119140625-2.240234375v-20.771484375c0-.966796875-.2373046875-1.712890625-.7119140625-2.240234375-.474609375-.5263671875-1.15234375-.7900390625-2.033203125-.7900390625h-5.853515625v-5.4130859375h6.1123046875c1.7265625,0,3.203125.3203125,4.4296875.9580078125,1.2255859375.6396484375,2.162109375,1.5673828125,2.8095703125,2.78515625.6474609375,1.216796875.9716796875,2.689453125.9716796875,4.4150390625v21.341796875c0,1.708984375-.328125,3.1767578125-.984375,4.4033203125-.65625,1.2255859375-1.59765625,2.158203125-2.8232421875,2.796875-1.2265625.638671875-2.7021484375.9580078125-4.4287109375.9580078125h-6.0869140625v-5.4130859375Z"/>
    <path class="cls-1" d="M214.0087890625,640.4677734375h-5.697265625v-37.658203125h5.697265625v37.658203125Z"/>
    <path class="cls-1" d="M225.1201171875,602.8095703125h4.505859375l8.8583984375,37.658203125h-5.828125l-5.283203125-27.32421875-5.283203125,27.32421875h-5.828125l8.8583984375-37.658203125ZM222.115234375,628.1142578125h10.72265625v5.30859375h-10.72265625v-5.30859375Z"/>
    <path class="cls-1" d="M241.5400390625,602.8095703125h4.6884765625l9.5830078125,27.013671875-.751953125.8291015625v-27.8427734375h5.2841796875v37.6328125h-4.740234375l-9.5048828125-25.822265625.7509765625-.8544921875v26.6767578125h-5.3095703125v-37.6328125Z"/>
    <path class="cls-1" d="M275.8837890625,602.8095703125h5.697265625v37.658203125h-5.697265625v-37.658203125ZM278.7587890625,620.447265625h6.888671875c.6044921875,0,1.1220703125-.1376953125,1.5546875-.4140625.4306640625-.2763671875.763671875-.673828125.9970703125-1.19140625.232421875-.5185546875.349609375-1.1484375.349609375-1.890625v-5.1025390625c0-.7763671875-.1123046875-1.4326171875-.3369140625-1.9677734375s-.556640625-.9462890625-.9970703125-1.23046875c-.4404296875-.28515625-.962890625-.427734375-1.5673828125-.427734375h-6.888671875v-5.4130859375h6.9404296875c1.8134765625,0,3.36328125.3330078125,4.6494140625.9970703125,1.2861328125.6650390625,2.2705078125,1.640625,2.9521484375,2.9267578125.6826171875,1.287109375,1.0234375,2.828125,1.0234375,4.623046875v6.138671875c0,1.7607421875-.345703125,3.267578125-1.0361328125,4.51953125s-1.6796875,2.2060546875-2.9658203125,2.861328125c-1.2861328125.6572265625-2.8271484375.984375-4.623046875.984375h-6.9404296875v-5.4130859375Z"/>
    <path class="cls-1" d="M303.77734375,602.8095703125h4.5068359375l8.857421875,37.658203125h-5.8271484375l-5.2841796875-27.32421875-5.283203125,27.32421875h-5.8271484375l8.857421875-37.658203125ZM300.7734375,628.1142578125h10.7216796875v5.30859375h-10.7216796875v-5.30859375Z"/>
    <path class="cls-1" d="M322.244140625,639.716796875c-1.330078125-.759765625-2.3486328125-1.85546875-3.0556640625-3.2890625-.708984375-1.4326171875-1.0625-3.16015625-1.0625-5.1796875v-19.1923828125c0-2.037109375.353515625-3.7724609375,1.0625-5.205078125.70703125-1.43359375,1.7255859375-2.529296875,3.0556640625-3.2900390625,1.3291015625-.759765625,2.9267578125-1.1396484375,4.7919921875-1.1396484375,1.8818359375,0,3.4873046875.3759765625,4.8173828125,1.126953125,1.3291015625.7509765625,2.34375,1.8515625,3.04296875,3.302734375.69921875,1.4501953125,1.048828125,3.185546875,1.048828125,5.205078125v2.3056640625h-5.75v-2.3056640625c0-.828125-.12109375-1.544921875-.3623046875-2.1494140625-.2421875-.6044921875-.6005859375-1.0615234375-1.0751953125-1.373046875-.474609375-.310546875-1.048828125-.4658203125-1.7216796875-.4658203125-.6572265625,0-1.2177734375.1552734375-1.68359375.4658203125-.466796875.3115234375-.8291015625.7646484375-1.087890625,1.3603515625s-.388671875,1.31640625-.388671875,2.162109375v19.1923828125c0,.845703125.1298828125,1.5625.388671875,2.1494140625s.62109375,1.0361328125,1.087890625,1.3466796875c.4658203125.310546875,1.0263671875.4658203125,1.68359375.4658203125.6904296875,0,1.2685546875-.1591796875,1.7353515625-.478515625.4658203125-.3193359375.8193359375-.7724609375,1.0615234375-1.3603515625.2412109375-.5859375.3623046875-1.302734375.3623046875-2.1494140625v-2.3046875h5.75v2.3046875c-.017578125,2.0205078125-.37109375,3.755859375-1.0615234375,5.2060546875-.69140625,1.4501953125-1.7060546875,2.55078125-3.0439453125,3.3017578125-1.337890625.751953125-2.939453125,1.126953125-4.8037109375,1.126953125-1.865234375,0-3.462890625-.3798828125-4.7919921875-1.1396484375Z"/>
    <path class="cls-1" d="M345.19140625,640.4677734375h-5.697265625v-37.658203125h5.697265625v37.658203125Z"/>
    <path class="cls-1" d="M349.775390625,602.8095703125h5.6982421875v37.658203125h-5.6982421875v-37.658203125ZM352.521484375,602.8095703125h13.751953125v5.4130859375h-13.751953125v-5.4130859375ZM352.521484375,619.4111328125h12.45703125v5.3876953125h-12.45703125v-5.3876953125Z"/>
    <path class="cls-1" d="M375.2607421875,640.4677734375h-5.697265625v-37.658203125h5.697265625v37.658203125Z"/>
    <path class="cls-1" d="M383.962890625,639.716796875c-1.330078125-.759765625-2.3486328125-1.85546875-3.0556640625-3.2890625-.708984375-1.4326171875-1.0625-3.16015625-1.0625-5.1796875v-19.1923828125c0-2.037109375.353515625-3.7724609375,1.0625-5.205078125.70703125-1.43359375,1.7255859375-2.529296875,3.0556640625-3.2900390625,1.3291015625-.759765625,2.9267578125-1.1396484375,4.7919921875-1.1396484375,1.8818359375,0,3.4873046875.3759765625,4.8173828125,1.126953125,1.3291015625.7509765625,2.34375,1.8515625,3.04296875,3.302734375.69921875,1.4501953125,1.048828125,3.185546875,1.048828125,5.205078125v2.3056640625h-5.75v-2.3056640625c0-.828125-.12109375-1.544921875-.3623046875-2.1494140625-.2421875-.6044921875-.6005859375-1.0615234375-1.0751953125-1.373046875-.474609375-.310546875-1.048828125-.4658203125-1.7216796875-.4658203125-.6572265625,0-1.2177734375.1552734375-1.68359375.4658203125-.466796875.3115234375-.8291015625.7646484375-1.087890625,1.3603515625s-.388671875,1.31640625-.388671875,2.162109375v19.1923828125c0,.845703125.1298828125,1.5625.388671875,2.1494140625s.62109375,1.0361328125,1.087890625,1.3466796875c.4658203125.310546875,1.0263671875.4658203125,1.68359375.4658203125.6904296875,0,1.2685546875-.1591796875,1.7353515625-.478515625.4658203125-.3193359375.8193359375-.7724609375,1.0615234375-1.3603515625.2412109375-.5859375.3623046875-1.302734375.3623046875-2.1494140625v-2.3046875h5.75v2.3046875c-.017578125,2.0205078125-.37109375,3.755859375-1.0615234375,5.2060546875-.69140625,1.4501953125-1.7060546875,2.55078125-3.0439453125,3.3017578125-1.337890625.751953125-2.939453125,1.126953125-4.8037109375,1.126953125-1.865234375,0-3.462890625-.3798828125-4.7919921875-1.1396484375Z"/>
    <path class="cls-1" d="M165.5625,651.8974609375h5.6201171875v37.6845703125h-5.6201171875v-37.6845703125ZM168.15234375,668.240234375h6.8896484375c.7080078125,0,1.3212890625-.12890625,1.8388671875-.388671875.5185546875-.2587890625.91015625-.6337890625,1.1787109375-1.1259765625.267578125-.4921875.41015625-1.1015625.4267578125-1.826171875v-4.0146484375c0-.7421875-.1337890625-1.380859375-.4013671875-1.9169921875-.267578125-.5341796875-.6650390625-.9453125-1.19140625-1.2294921875-.5263671875-.28515625-1.1435546875-.427734375-1.8515625-.427734375h-6.8896484375v-5.4130859375h6.4755859375c2.01953125,0,3.74609375.3330078125,5.1796875.9970703125,1.4326171875.6650390625,2.529296875,1.640625,3.2890625,2.9267578125.759765625,1.287109375,1.1396484375,2.828125,1.1396484375,4.623046875v4.4033203125c0,1.84765625-.3798828125,3.431640625-1.1396484375,4.7529296875-.759765625,1.3203125-1.8603515625,2.326171875-3.3017578125,3.0166015625-1.4423828125.69140625-3.1640625,1.0361328125-5.1669921875,1.0361328125h-6.4755859375v-5.4130859375ZM174.005859375,672.48828125l5.2578125-1.19140625,6.03515625,18.28515625h-6.1650390625l-5.1279296875-17.09375Z"/>
    <path class="cls-1" d="M189.5205078125,651.923828125h5.697265625v37.658203125h-5.697265625v-37.658203125ZM192.240234375,651.923828125h13.751953125v5.46484375h-13.751953125v-5.46484375ZM192.240234375,668.1630859375h12.45703125v5.4384765625h-12.45703125v-5.4384765625ZM192.240234375,684.1171875h13.751953125v5.46484375h-13.751953125v-5.46484375Z"/>
    <path class="cls-1" d="M228.111328125,669.2763671875v11.13671875c0,2.0029296875-.36328125,3.716796875-1.087890625,5.1416015625-.7255859375,1.423828125-1.7744140625,2.5166015625-3.1474609375,3.2763671875-1.3720703125.7587890625-3.0263671875,1.1396484375-4.9599609375,1.1396484375-1.951171875,0-3.6259765625-.359375-5.0244140625-1.0751953125-1.3984375-.716796875-2.46875-1.76171875-3.2109375-3.1337890625-.7431640625-1.373046875-1.1142578125-3.017578125-1.1142578125-4.93359375v-19.6064453125c0-2.037109375.36328125-3.78125,1.087890625-5.2314453125.7255859375-1.451171875,1.7744140625-2.5556640625,3.1474609375-3.3154296875,1.3720703125-.759765625,3.025390625-1.1396484375,4.958984375-1.1396484375,1.8818359375,0,3.5009765625.3671875,4.8564453125,1.1005859375,1.35546875.734375,2.38671875,1.80859375,3.0947265625,3.224609375s1.0703125,3.107421875,1.087890625,5.076171875v2.3828125h-5.9306640625v-2.3828125c0-.7939453125-.12109375-1.4716796875-.3623046875-2.033203125-.2421875-.560546875-.595703125-.98828125-1.0625-1.2822265625-.4658203125-.29296875-1.02734375-.439453125-1.68359375-.439453125-.724609375,0-1.3466796875.1591796875-1.8642578125.478515625-.5185546875.3203125-.916015625.78125-1.19140625,1.3857421875-.2763671875.6044921875-.4150390625,1.330078125-.4150390625,2.17578125v19.6064453125c0,.7080078125.142578125,1.3291015625.427734375,1.8642578125s.69921875.94140625,1.2431640625,1.2177734375,1.1953125.4140625,1.955078125.4140625c.7421875,0,1.3818359375-.1513671875,1.9169921875-.453125s.9453125-.73828125,1.23046875-1.30859375c.28515625-.5693359375.4267578125-1.2685546875.4267578125-2.09765625v-5.8017578125h-3.703125v-5.38671875h9.32421875Z"/>
    <path class="cls-1" d="M237.875,689.58203125h-5.697265625v-37.658203125h5.697265625v37.658203125Z"/>
    <path class="cls-1" d="M246.8359375,688.8828125c-1.416015625-.7255859375-2.4990234375-1.76953125-3.25-3.1337890625s-1.126953125-3.013671875-1.126953125-4.947265625v-20.0986328125c0-1.93359375.3759765625-3.5869140625,1.126953125-4.958984375.7509765625-1.373046875,1.833984375-2.41796875,3.25-3.1337890625,1.416015625-.716796875,3.125-1.0751953125,5.12890625-1.0751953125,2.001953125,0,3.7119140625.3583984375,5.1279296875,1.0751953125,1.4150390625.7158203125,2.4990234375,1.7607421875,3.25,3.1337890625.7509765625,1.3720703125,1.126953125,3.025390625,1.126953125,4.958984375v20.0986328125c0,1.93359375-.3759765625,3.5830078125-1.126953125,4.947265625s-1.8349609375,2.408203125-3.25,3.1337890625c-1.416015625.724609375-3.1259765625,1.087890625-5.1279296875,1.087890625-2.00390625,0-3.712890625-.36328125-5.12890625-1.087890625ZM254.0107421875,683.91015625c.5693359375-.3115234375,1.0009765625-.755859375,1.294921875-1.333984375.29296875-.578125.4404296875-1.2734375.4404296875-2.0849609375v-19.5029296875c0-.8115234375-.1474609375-1.505859375-.4404296875-2.0849609375-.2939453125-.578125-.7255859375-1.0185546875-1.294921875-1.3203125-.5703125-.302734375-1.251953125-.4541015625-2.0458984375-.4541015625-.794921875,0-1.4765625.1513671875-2.046875.4541015625-.5693359375.3017578125-1.0009765625.7421875-1.294921875,1.3203125-.2939453125.5791015625-.4404296875,1.2734375-.4404296875,2.0849609375v19.5029296875c0,.8115234375.146484375,1.5068359375.4404296875,2.0849609375s.7255859375,1.0224609375,1.294921875,1.333984375c.5703125.310546875,1.251953125.4658203125,2.046875.4658203125.7939453125,0,1.4755859375-.1552734375,2.0458984375-.4658203125Z"/>
    <path class="cls-1" d="M265.8203125,651.923828125h4.6884765625l9.5830078125,27.0126953125-.751953125.8291015625v-27.841796875h5.2841796875v37.6318359375h-4.740234375l-9.5048828125-25.822265625.7509765625-.8544921875v26.6767578125h-5.3095703125v-37.6318359375Z"/>
    <path class="cls-1" d="M296.01953125,651.923828125h4.5068359375l8.857421875,37.658203125h-5.8271484375l-5.2841796875-27.32421875-5.283203125,27.32421875h-5.8271484375l8.857421875-37.658203125ZM293.015625,677.2275390625h10.7216796875v5.3095703125h-10.7216796875v-5.3095703125Z"/>
    <path class="cls-1" d="M312.4404296875,651.923828125h5.697265625v37.658203125h-5.697265625v-37.658203125ZM315.107421875,684.1689453125h13.287109375v5.4130859375h-13.287109375v-5.4130859375Z"/>
  </g>
</svg>