<?xml version="1.0" encoding="UTF-8"?>
<svg id="Layer_1" data-name="Layer 1" xmlns="http://www.w3.org/2000/svg" viewBox="0 0 1000 1000">
  <defs>
    <style>
      .cls-1 {
        fill: #f9b317;
      }
    </style>
  </defs>
  <path class="cls-1" d="M996.85,443.59l-.88.88-125.75,125.75c-4.69,4.69-10.83,7.03-16.97,7.03s-12.28-2.34-16.97-7.03l-70.6-70.6c-5.67,1.52-11.75,2.04-18.05,1.31-22.57-2.61-40.41-21.08-42.22-43.73-2.37-29.61,22.17-54.15,51.78-51.79,22.65,1.8,41.12,19.65,43.74,42.21.73,6.3.21,12.38-1.31,18.05l53.63,53.63,128.03-128.03c1.56-1.56,3.28-2.83,5.11-3.87.26-.15.52-.31.78-.45-19.41-83.99-59.99-159.88-115.81-221.75-.09-.11-.19-.21-.28-.32-1.2-1.33-2.41-2.65-3.63-3.97-.26-.28-.52-.56-.78-.84-1.09-1.17-2.18-2.34-3.28-3.5-.36-.38-.72-.77-1.09-1.15-1.07-1.12-2.15-2.24-3.23-3.36-.38-.39-.75-.79-1.13-1.18-1.45-1.49-2.91-2.97-4.39-4.44C763.07,55.97,638.07,0,500,0,224.17,0,0,224.17,0,500c0,138.07,55.96,263.07,146.45,353.55,1.47,1.47,2.96,2.94,4.44,4.39.39.38.78.76,1.18,1.13,1.12,1.08,2.23,2.16,3.36,3.23.38.36.77.72,1.15,1.09,1.16,1.1,2.33,2.2,3.5,3.28.28.26.56.52.84.77,1.32,1.22,2.64,2.43,3.97,3.63.11.1.21.19.32.28,60.75,54.8,135,94.91,217.18,114.72.1-.27.21-.53.33-.79,1.17-2.73,2.85-5.28,5.07-7.51l128.03-128.03-53.63-53.63c-5.67,1.52-11.75,2.04-18.05,1.31-22.57-2.61-40.41-21.08-42.22-43.73-2.37-29.61,22.17-54.15,51.78-51.79,22.65,1.8,41.12,19.65,43.74,42.21.73,6.3.21,12.38-1.31,18.05l70.6,70.6c9.37,9.37,9.37,24.57,0,33.94l-128.52,128.52-.86.86c20.53,2.57,41.44,3.89,62.66,3.89,103.84,0,200.28-31.66,280.21-85.84l-.09-.09-247.35-247.35c-.2-.2-.37-.41-.56-.62-5.68,1.52-11.76,2.05-18.07,1.32-22.59-2.61-40.45-21.1-42.24-43.77-2.34-29.59,22.17-54.09,51.76-51.75,22.67,1.79,41.16,19.66,43.76,42.24.73,6.31.2,12.39-1.32,18.07.2.19.42.36.62.56l252.24,252.24.02.02c5.37-4.45,10.64-9.01,15.81-13.68.1-.09.21-.19.31-.28,1.33-1.2,2.65-2.41,3.97-3.63.28-.26.56-.51.83-.77,1.17-1.09,2.34-2.19,3.51-3.29.38-.36.77-.72,1.15-1.08,1.12-1.07,2.24-2.15,3.36-3.23.39-.38.79-.75,1.18-1.13,1.49-1.45,2.97-2.91,4.44-4.39,1.47-1.47,2.94-2.96,4.39-4.44.38-.39.76-.78,1.13-1.18,1.08-1.12,2.16-2.23,3.23-3.36.36-.38.72-.77,1.09-1.15,1.1-1.16,2.2-2.33,3.28-3.5.26-.28.52-.56.78-.84,1.22-1.32,2.43-2.64,3.63-3.97.09-.11.19-.21.28-.32,4.67-5.17,9.23-10.45,13.68-15.81l-.02-.02-248.74-248.74c-.2-.2-.37-.41-.56-.62-5.68,1.52-11.76,2.05-18.07,1.32-22.59-2.61-40.45-21.1-42.24-43.77-2.34-29.59,22.17-54.09,51.76-51.75,22.67,1.79,41.16,19.66,43.76,42.24.73,6.31.2,12.39-1.32,18.07.2.19.42.36.62.56l243.85,243.85.09.09c54.19-79.93,85.84-176.37,85.84-280.21,0-19.07-1.07-37.89-3.15-56.41ZM549.2,371.83c-8.95-3.45-18.29-5.99-27.87-7.51s-17.71-8.82-20.27-18.4l-15-56c-4.45-16.59,8.58-32.67,25.74-31.82,34.96,1.73,68.71,11.06,99.12,26.75,15.15,7.82,18.16,28.23,6.1,40.29l-40.94,40.94c-7.04,7.04-17.58,9.33-26.88,5.75ZM68.76,682.16c-24.4-57.68-36.76-118.96-36.76-182.16s12.37-124.48,36.76-182.16c23.57-55.73,57.32-105.78,100.31-148.77,42.99-42.99,93.04-76.74,148.77-100.31,57.68-24.4,118.96-36.76,182.16-36.76s124.48,12.37,182.16,36.76c55.73,23.57,105.78,57.32,148.77,100.31l-69.3,69.3-21.21-21.21-72.32,34.71c-33.51-22.67-71.48-38.57-111.57-46.37l-26.53-75.5h-60s0,0,0,0l-26.48,75.37c-5.7,1.1-11.41,2.34-17.1,3.79-34.86,8.83-66.71,23.46-94.81,42.57l-72.02-34.57-42.43,42.43s0,0,0,0l34.65,72.18c-22.7,33.54-38.59,71.56-46.36,111.73l-75.45,26.51s0,0,0,0v60s0,0,0,0l75.41,26.5c1.62,8.4,3.58,16.8,5.95,25.19,8.95,31.67,22.76,60.75,40.39,86.65l-34.6,72.08,21.21,21.21-69.3,69.3c-42.99-42.99-76.74-93.04-100.31-148.77ZM289.94,486.04l56.01,15.01c9.62,2.58,16.87,10.56,18.41,20.4.74,4.7,1.73,9.4,2.98,14.1,1.26,4.7,2.75,9.26,4.46,13.7,3.58,9.29,1.3,19.83-5.75,26.87l-41,41.01c-12.18,12.18-32.61,8.84-40.48-6.49s-13.94-31.03-18.47-47.97c-4.54-16.93-7.15-33.94-7.98-50.78-.85-17.21,15.17-30.31,31.81-25.86ZM413.7,393.16c-7.53,6.11-14.36,12.97-20.38,20.44-6.26,7.75-16.52,11.04-26.15,8.46l-55.92-14.99c-16.47-4.41-24.07-23.59-14.86-37.94,18.49-28.8,43.06-53.76,72.47-72.74,14.43-9.31,33.75-1.91,38.2,14.69l15,56c2.57,9.58-.66,19.83-8.36,26.07ZM500,500l-56.2,56.2c-9.28-9.25-16.39-20.91-20.22-34.34-.12-.43-.26-.84-.38-1.27-.12-.43-.2-.86-.31-1.29-6.88-27.5,1.53-55.42,19.97-74.55.62-.64,1.25-1.26,1.88-1.88,9.4-9.12,21.16-16.05,34.67-19.67,13.52-3.62,27.17-3.5,39.86-.31.86.22,1.72.44,2.57.69,12.95,3.73,24.8,10.71,34.34,20.23l-56.2,56.2Z"/>
  <path class="cls-1" d="M425.83,747.8c-1.17,14.79,11.08,27.04,25.87,25.87,11.63-.92,21.06-10.34,21.98-21.98,1.17-14.79-11.08-27.04-25.87-25.87-11.63.92-21.06,10.34-21.98,21.98Z"/>
  <path class="cls-1" d="M495.83,617.8c-1.17,14.79,11.08,27.04,25.87,25.87,11.63-.92,21.06-10.34,21.98-21.98,1.17-14.79-11.08-27.04-25.87-25.87-11.63.92-21.06,10.34-21.98,21.98Z"/>
  <path class="cls-1" d="M599.83,520.8c-1.17,14.79,11.08,27.04,25.87,25.87,11.63-.92,21.06-10.34,21.98-21.98,1.17-14.79-11.08-27.04-25.87-25.87-11.63.92-21.06,10.34-21.98,21.98Z"/>
  <path class="cls-1" d="M729.83,450.8c-1.17,14.79,11.08,27.04,25.87,25.87,11.63-.92,21.06-10.34,21.98-21.98,1.17-14.79-11.08-27.04-25.87-25.87-11.63.92-21.06,10.34-21.98,21.98Z"/>
</svg>