<?xml version="1.0" encoding="UTF-8"?>
<svg id="Layer_1" data-name="Layer 1" xmlns="http://www.w3.org/2000/svg" xmlns:xlink="http://www.w3.org/1999/xlink" viewBox="0 0 859.48 624.75">
  <defs>
    <style>
      .cls-1 {
        fill: #f8b218;
        font-family: Audiowide-Regular, Audiowide;
        font-size: 26.25px;
      }

      .cls-2 {
        fill: #2fa449;
      }

      .cls-2, .cls-3, .cls-4, .cls-5, .cls-6 {
        stroke-width: 0px;
      }

      .cls-3 {
        fill: url(#linear-gradient);
      }

      .cls-4 {
        fill: #000;
      }

      .cls-5 {
        fill: #818181;
      }

      .cls-7 {
        letter-spacing: -.02em;
      }

      .cls-8 {
        letter-spacing: 0em;
      }

      .cls-9 {
        letter-spacing: 0em;
      }

      .cls-10 {
        letter-spacing: 0em;
      }

      .cls-11 {
        letter-spacing: 0em;
      }

      .cls-6 {
        fill: #fff;
      }
    </style>
    <linearGradient id="linear-gradient" x1="117.15" y1="157.84" x2="743.43" y2="157.84" gradientUnits="userSpaceOnUse">
      <stop offset="0" stop-color="#bcbcbb"/>
      <stop offset="0" stop-color="#fff"/>
      <stop offset=".12" stop-color="#d4d4d4"/>
      <stop offset=".29" stop-color="#9f9f9f"/>
      <stop offset=".41" stop-color="#7e7e7e"/>
      <stop offset=".48" stop-color="#727272"/>
      <stop offset=".77" stop-color="#fff"/>
      <stop offset="1" stop-color="#ebebeb"/>
    </linearGradient>
  </defs>
  <g>
    <rect class="cls-6" x="0" y="0" width="859.48" height="624.75" rx="98.71" ry="98.71"/>
    <rect class="cls-4" x="0" y="0" width="859.48" height="241.15" rx="98.71" ry="98.71"/>
  </g>
  <g>
    <image width="3064" height="3063" transform="translate(334.62 36.71) scale(.02)" xlink:href="../PR_Circle_Big_Text.png"/>
    <text class="cls-1" transform="translate(400 56.46)"><tspan x="0" y="0">Pe</tspan><tspan class="cls-7" x="38.31" y="0">n</tspan><tspan class="cls-8" x="56.17" y="0">tic</tspan><tspan class="cls-10" x="93.71" y="0">t</tspan><tspan x="108.45" y="0">on</tspan><tspan class="cls-11" x="7.96" y="31.5">R</tspan><tspan x="29.54" y="31.5">ob</tspan><tspan class="cls-9" x="65.56" y="31.5">o</tspan><tspan x="83.4" y="31.5">tics</tspan></text>
  </g>
  <path class="cls-3" d="M135.16,163.36c-6.36-2.02-10.96-4.53-13.78-7.53-2.83-3-4.24-6.67-4.24-11.02,0-4.74,1.65-8.49,4.96-11.24,3.31-2.75,8.04-4.13,14.2-4.13,4.64,0,8.85.53,12.64,1.59,1.21.35,2.18,1.07,2.92,2.16.73,1.09,1.1,2.28,1.1,3.6v2.2c0,1.01-.43,1.79-1.29,2.35-.86.55-1.77.66-2.73.3-4.29-1.51-8.25-2.27-11.88-2.27-4.65,0-6.97,1.82-6.97,5.45,0,3.08,2.02,5.28,6.06,6.59,6.97,2.12,11.8,4.59,14.5,7.42s4.05,6.54,4.05,11.13c0,10.85-6.84,16.28-20.52,16.28-4.34,0-8.28-.68-11.81-2.05-1.21-.45-2.16-1.25-2.84-2.38-.68-1.13-1.02-2.38-1.02-3.75v-2.42c0-.91.4-1.6,1.21-2.08.8-.48,1.61-.52,2.42-.11,3.68,1.82,7.44,2.72,11.28,2.72,2.68,0,4.71-.52,6.1-1.55,1.39-1.03,2.08-2.51,2.08-4.43,0-1.66-.48-3.03-1.43-4.09-.96-1.06-2.63-1.97-5-2.73ZM169.69,185.47c-1.16,0-2.16-.43-2.99-1.29-.83-.86-1.25-1.86-1.25-3.03v-46.63c0-1.16.42-2.17,1.25-3.03.83-.86,1.83-1.29,2.99-1.29h5.6c1.16,0,2.16.43,2.99,1.29.83.86,1.25,1.87,1.25,3.03v46.63c0,1.16-.42,2.17-1.25,3.03-.83.86-1.83,1.29-2.99,1.29h-5.6ZM196.49,185.47c-1.17,0-2.17-.43-3.03-1.29-.86-.86-1.29-1.86-1.29-3.03v-46.63c0-1.16.43-2.17,1.29-3.03.85-.86,1.86-1.29,3.03-1.29h4.69c1.16,0,2.16.43,2.99,1.29.83.86,1.25,1.87,1.25,3.03v39.67c0,.4.23.61.68.61h18.4c1.16,0,2.17.43,3.03,1.28.85.86,1.28,1.87,1.28,3.03v2.04c0,1.16-.43,2.17-1.28,3.03-.86.86-1.87,1.29-3.03,1.29h-28.01ZM241.15,181.38l-15.3-47.09c-.35-1.01-.21-1.94.42-2.8.63-.86,1.48-1.29,2.54-1.29h5.07c1.26,0,2.4.39,3.41,1.17,1.01.78,1.66,1.78,1.97,2.99l9.92,38.69c0,.05.03.08.08.08.05,0,.07-.03.07-.08l10.22-38.69c.3-1.21.96-2.21,1.97-2.99,1.01-.78,2.14-1.17,3.4-1.17h4.77c1.06,0,1.91.43,2.54,1.29.63.86.77,1.79.42,2.8l-15.3,47.09c-.35,1.21-1.05,2.2-2.08,2.95-1.03.76-2.21,1.13-3.52,1.13h-4.99c-1.26,0-2.41-.38-3.45-1.13-1.04-.76-1.76-1.74-2.16-2.95ZM283.85,185.47c-1.16,0-2.16-.43-2.99-1.29-.83-.86-1.25-1.86-1.25-3.03v-46.63c0-1.16.42-2.17,1.25-3.03.83-.86,1.83-1.29,2.99-1.29h26.8c1.16,0,2.16.43,2.99,1.29.83.86,1.25,1.87,1.25,3.03v1.74c0,1.16-.42,2.17-1.25,3.03-.83.86-1.83,1.29-2.99,1.29h-17.57c-.41,0-.61.2-.61.61v9.99c0,.45.2.68.61.68h16.05c1.16,0,2.16.43,2.99,1.29.83.86,1.25,1.87,1.25,3.03v1.13c0,1.16-.42,2.17-1.25,3.03-.83.86-1.83,1.29-2.99,1.29h-16.05c-.41,0-.61.2-.61.61v12.26c0,.4.2.61.61.61h17.57c1.16,0,2.16.43,2.99,1.28.83.86,1.25,1.87,1.25,3.03v1.74c0,1.16-.42,2.17-1.25,3.03-.83.86-1.83,1.29-2.99,1.29h-26.8ZM329.95,185.47c-1.17,0-2.17-.43-3.03-1.29-.86-.86-1.29-1.86-1.29-3.03v-46.26c0-1.26.42-2.35,1.25-3.25.83-.91,1.86-1.41,3.07-1.51,4.49-.46,9.11-.68,13.85-.68,7.57,0,13.21,1.43,16.92,4.28,3.71,2.85,5.57,6.9,5.57,12.15,0,3.38-.98,6.42-2.95,9.12s-4.54,4.63-7.72,5.79c-.05,0-.08.03-.08.08,0,.1.05.15.15.15,2.47,1.41,4.57,4.39,6.28,8.93l4.32,11.51c.35.96.23,1.87-.38,2.72-.61.86-1.41,1.29-2.42,1.29h-4.62c-1.31,0-2.5-.38-3.56-1.13-1.06-.76-1.79-1.74-2.2-2.95l-3.79-10.9c-.71-2.12-1.56-3.56-2.57-4.32-1.01-.76-2.57-1.13-4.7-1.13h-3.18c-.4,0-.61.23-.61.68v15.44c0,1.16-.43,2.17-1.29,3.03-.85.86-1.87,1.29-3.03,1.29h-4.01ZM338.28,140.35v14.54c0,.45.2.68.61.68h3.63c3.54,0,6.23-.75,8.1-2.23,1.87-1.49,2.8-3.57,2.8-6.25,0-5.25-3.46-7.87-10.37-7.87-1.57,0-2.93.1-4.09.3-.45.1-.68.38-.68.83ZM413.16,163.36c-6.36-2.02-10.96-4.53-13.78-7.53-2.83-3-4.24-6.67-4.24-11.02,0-4.74,1.65-8.49,4.96-11.24,3.31-2.75,8.04-4.13,14.2-4.13,4.64,0,8.85.53,12.64,1.59,1.21.35,2.18,1.07,2.92,2.16.73,1.09,1.1,2.28,1.1,3.6v2.2c0,1.01-.43,1.79-1.29,2.35-.86.55-1.77.66-2.73.3-4.29-1.51-8.25-2.27-11.88-2.27-4.65,0-6.97,1.82-6.97,5.45,0,3.08,2.02,5.28,6.06,6.59,6.97,2.12,11.8,4.59,14.5,7.42s4.05,6.54,4.05,11.13c0,10.85-6.84,16.28-20.52,16.28-4.34,0-8.28-.68-11.81-2.05-1.21-.45-2.16-1.25-2.84-2.38-.68-1.13-1.02-2.38-1.02-3.75v-2.42c0-.91.4-1.6,1.21-2.08.8-.48,1.61-.52,2.42-.11,3.68,1.82,7.44,2.72,11.28,2.72,2.68,0,4.71-.52,6.1-1.55,1.39-1.03,2.08-2.51,2.08-4.43,0-1.66-.48-3.03-1.43-4.09-.96-1.06-2.63-1.97-5-2.73ZM446.61,185.47c-1.17,0-2.17-.43-3.03-1.29-.86-.86-1.29-1.86-1.29-3.03v-46.26c0-1.21.4-2.29,1.21-3.25.8-.96,1.82-1.49,3.03-1.59,4.29-.4,8.43-.61,12.42-.61,16.15,0,24.23,6.01,24.23,18.02,0,6.51-1.88,11.44-5.64,14.8s-9.27,5.04-16.54,5.04c-1.92,0-3.71-.08-5.37-.23-.45,0-.68.2-.68.61v13.47c0,1.16-.43,2.17-1.29,3.03-.85.86-1.87,1.29-3.03,1.29h-4.01ZM454.94,140.35v16.5c0,.35.23.58.68.68,1.71.2,3.08.3,4.09.3,3.63,0,6.44-.84,8.44-2.53,1.99-1.69,2.99-4.05,2.99-7.08,0-6-3.81-9.01-11.43-9.01-1.26,0-2.65.12-4.17.38-.4.1-.61.35-.61.76ZM532.32,178.7c-4.65,5.02-10.96,7.53-18.93,7.53s-14.28-2.51-18.92-7.53c-4.65-5.02-6.97-11.97-6.97-20.86s2.32-15.83,6.97-20.86c4.64-5.02,10.95-7.53,18.92-7.53s14.28,2.51,18.93,7.53c4.64,5.02,6.97,11.97,6.97,20.86s-2.33,15.84-6.97,20.86ZM526.11,157.84c0-11.86-4.24-17.79-12.72-17.79s-12.72,5.93-12.72,17.79,4.24,17.79,12.72,17.79,12.72-5.93,12.72-17.79ZM551.69,185.47c-1.17,0-2.17-.43-3.03-1.29-.86-.86-1.29-1.86-1.29-3.03v-46.63c0-1.16.43-2.17,1.29-3.03.85-.86,1.86-1.29,3.03-1.29h3.71c2.88,0,4.97,1.26,6.28,3.78l15.9,30.06c0,.05.03.08.08.08s.08-.03.08-.08v-29.52c0-1.16.43-2.17,1.29-3.03.85-.86,1.86-1.29,3.03-1.29h3.71c1.16,0,2.17.43,3.03,1.29.85.86,1.29,1.87,1.29,3.03v46.63c0,1.16-.43,2.17-1.29,3.03-.86.86-1.87,1.29-3.03,1.29h-3.71c-2.88,0-4.97-1.26-6.28-3.79l-15.9-30.06s-.03-.07-.08-.07c-.05,0-.08.03-.08.07v29.53c0,1.16-.43,2.17-1.29,3.03-.86.86-1.87,1.29-3.03,1.29h-3.71ZM617.71,163.36c-6.36-2.02-10.96-4.53-13.78-7.53-2.83-3-4.24-6.67-4.24-11.02,0-4.74,1.65-8.49,4.96-11.24,3.31-2.75,8.04-4.13,14.2-4.13,4.64,0,8.85.53,12.64,1.59,1.21.35,2.18,1.07,2.92,2.16.73,1.09,1.1,2.28,1.1,3.6v2.2c0,1.01-.43,1.79-1.29,2.35-.86.55-1.77.66-2.73.3-4.29-1.51-8.25-2.27-11.88-2.27-4.65,0-6.97,1.82-6.97,5.45,0,3.08,2.02,5.28,6.06,6.59,6.97,2.12,11.8,4.59,14.5,7.42,2.7,2.83,4.05,6.54,4.05,11.13,0,10.85-6.84,16.28-20.52,16.28-4.34,0-8.28-.68-11.81-2.05-1.21-.45-2.16-1.25-2.84-2.38-.68-1.13-1.02-2.38-1.02-3.75v-2.42c0-.91.4-1.6,1.21-2.08.8-.48,1.61-.52,2.42-.11,3.68,1.82,7.44,2.72,11.28,2.72,2.68,0,4.71-.52,6.1-1.55,1.39-1.03,2.08-2.51,2.08-4.43,0-1.66-.48-3.03-1.43-4.09-.96-1.06-2.63-1.97-5-2.73ZM687.51,178.7c-4.65,5.02-10.96,7.53-18.93,7.53s-14.28-2.51-18.92-7.53c-4.65-5.02-6.97-11.97-6.97-20.86s2.32-15.83,6.97-20.86c4.64-5.02,10.95-7.53,18.92-7.53s14.28,2.51,18.93,7.53c4.64,5.02,6.97,11.97,6.97,20.86s-2.33,15.84-6.97,20.86ZM681.3,157.84c0-11.86-4.24-17.79-12.72-17.79s-12.72,5.93-12.72,17.79,4.24,17.79,12.72,17.79,12.72-5.93,12.72-17.79ZM706.89,185.47c-1.17,0-2.17-.43-3.03-1.29-.86-.86-1.29-1.86-1.29-3.03v-46.26c0-1.26.42-2.35,1.25-3.25.83-.91,1.86-1.41,3.07-1.51,4.49-.46,9.11-.68,13.85-.68,7.57,0,13.21,1.43,16.92,4.28,3.71,2.85,5.57,6.9,5.57,12.15,0,3.38-.98,6.42-2.95,9.12-1.97,2.7-4.54,4.63-7.72,5.79-.05,0-.08.03-.08.08,0,.1.05.15.15.15,2.47,1.41,4.57,4.39,6.28,8.93l4.32,11.51c.35.96.23,1.87-.38,2.72-.61.86-1.41,1.29-2.42,1.29h-4.62c-1.31,0-2.5-.38-3.56-1.13-1.06-.76-1.79-1.74-2.2-2.95l-3.79-10.9c-.71-2.12-1.56-3.56-2.57-4.32-1.01-.76-2.57-1.13-4.7-1.13h-3.18c-.4,0-.61.23-.61.68v15.44c0,1.16-.43,2.17-1.29,3.03-.85.86-1.87,1.29-3.03,1.29h-4.01ZM715.22,140.35v14.54c0,.45.2.68.61.68h3.63c3.54,0,6.23-.75,8.1-2.23,1.87-1.49,2.8-3.57,2.8-6.25,0-5.25-3.46-7.87-10.37-7.87-1.57,0-2.93.1-4.09.3-.45.1-.68.38-.68.83Z"/>
  <g>
    <polygon class="cls-5" points="674.26 283.11 582.87 374.49 674.26 465.88 696.91 443.23 628.16 374.49 696.91 305.75 674.26 283.11"/>
    <polygon class="cls-5" points="714.29 425.85 736.94 403.21 708.23 374.49 736.94 345.78 714.29 323.14 662.94 374.49 714.29 425.85"/>
    <rect class="cls-5" x="737.48" y="362.08" width="21.72" height="21.72" transform="translate(-44.52 638.39) rotate(-45)"/>
    <path class="cls-2" d="M166.09,496.6c3.6,0,5.46,1.86,5.6,5.59l2.59,63.35h-14.09l-2.3-57.25h-1.8l-11.09,43.06c-.6,3.2-2.59,4.8-5.99,4.8h-9.59c-3.4,0-5.43-1.6-6.09-4.8l-11.19-43.06h-1.7l-2.1,57.25h-14.09l2.5-63.35c.2-3.73,2.1-5.59,5.7-5.59h14.29c3.26,0,5.26,1.6,6,4.8l8.89,34.77c.4,1.6.73,3.21,1,4.84.26,1.63.56,3.28.9,4.95h1.3c.33-1.67.65-3.31.95-4.95.3-1.63.62-3.28.95-4.94l8.79-34.67c.67-3.2,2.7-4.8,6.1-4.8h14.49Z"/>
    <path class="cls-2" d="M207.68,496.3c3.66,0,7.39.02,11.19.05,3.79.03,7.53.12,11.19.25,3.67.13,7.1.36,10.29.7l-.7,11.09h-26.48c-1.66,0-2.91.42-3.74,1.25-.84.83-1.25,2.11-1.25,3.85v35.17c0,1.66.41,2.93,1.25,3.79.83.87,2.08,1.3,3.74,1.3h26.48l.7,11.09c-3.2.26-6.63.46-10.29.6-3.66.13-7.39.22-11.19.25-3.8.03-7.53.05-11.19.05-4.4,0-7.94-1.27-10.64-3.79-2.7-2.53-4.08-5.86-4.15-9.99v-41.77c.07-4.2,1.45-7.56,4.15-10.09,2.7-2.53,6.24-3.8,10.64-3.8M194.69,524.27h41.27v10.79h-41.27v-10.79Z"/>
    <path class="cls-2" d="M284.85,495.4c3.26,0,6.04.09,8.35.25,2.3.17,4.41.41,6.34.74,1.93.34,3.93.77,6,1.3l-1.2,11.29c-2.2-.13-4.22-.23-6.04-.3-1.83-.07-3.8-.13-5.9-.2-2.1-.07-4.61-.1-7.54-.1-3.4,0-6.04.68-7.94,2.05-1.9,1.37-3.25,3.68-4.05,6.94-.8,3.27-1.2,7.83-1.2,13.69s.4,10.34,1.2,13.64c.8,3.3,2.15,5.61,4.05,6.95,1.9,1.33,4.55,1.99,7.94,1.99,4.6,0,8.46-.07,11.59-.2,3.13-.13,6.23-.37,9.29-.7l1.3,11.19c-3.2,1.01-6.46,1.72-9.79,2.15-3.33.43-7.46.65-12.39.65-7.13,0-12.83-1.15-17.09-3.45-4.26-2.3-7.34-6.05-9.24-11.24-1.9-5.19-2.85-12.19-2.85-20.98s.95-15.78,2.85-20.98c1.9-5.2,4.98-8.94,9.24-11.24,4.26-2.3,9.96-3.45,17.09-3.45"/>
    <path class="cls-2" d="M338.76,565.54h-15.29v-68.94h15.29v68.94ZM364.44,534.46h-26.48v-11.39h26.48v11.39ZM378.53,565.54h-15.19v-68.94h15.19v68.94Z"/>
    <path class="cls-2" d="M432.04,496.6c1.26,0,2.38.35,3.35,1.05.96.7,1.61,1.68,1.95,2.95l19.98,64.94h-15.59l-14.09-50.76c-.26-1.06-.53-2.18-.8-3.34-.27-1.16-.5-2.28-.7-3.35h-2.7c-.2,1.07-.42,2.19-.65,3.35-.24,1.17-.52,2.28-.85,3.34l-14.09,50.76h-15.59l19.98-64.94c.34-1.27.98-2.25,1.95-2.95.96-.7,2.08-1.05,3.35-1.05h14.49ZM442.63,547.25h-35.77v-11.39h35.77v11.39Z"/>
    <path class="cls-2" d="M529.32,496.6v63.45c0,3.67-1.83,5.49-5.49,5.49h-8.39c-1.67,0-2.92-.38-3.75-1.15-.84-.77-1.65-1.92-2.45-3.45l-19.09-36.27c-.79-1.53-1.58-3.21-2.35-5.05-.77-1.83-1.42-3.61-1.95-5.35h-1.1c.2,1.73.36,3.53.5,5.4.13,1.87.19,3.67.19,5.4v40.46h-14.39v-63.45c0-3.67,1.83-5.49,5.49-5.49h8.3c1.6,0,2.81.38,3.65,1.15.83.77,1.65,1.88,2.45,3.35l18.48,35.17c.86,1.53,1.73,3.23,2.6,5.09.86,1.87,1.67,3.8,2.4,5.8h1.2c-.13-2-.26-3.95-.39-5.85-.14-1.9-.2-3.78-.2-5.65v-39.07h14.29Z"/>
    <rect class="cls-2" x="550.15" y="496.6" width="15.19" height="68.94"/>
    <path class="cls-2" d="M613.14,495.4c3.26,0,6.04.09,8.35.25,2.3.17,4.41.41,6.35.74,1.93.34,3.93.77,5.99,1.3l-1.2,11.29c-2.2-.13-4.22-.23-6.05-.3-1.83-.07-3.79-.13-5.9-.2-2.1-.07-4.61-.1-7.54-.1-3.39,0-6.04.68-7.94,2.05-1.9,1.37-3.24,3.68-4.04,6.94-.8,3.27-1.2,7.83-1.2,13.69s.4,10.34,1.2,13.64c.8,3.3,2.14,5.61,4.04,6.95,1.9,1.33,4.55,1.99,7.94,1.99,4.6,0,8.46-.07,11.59-.2,3.13-.13,6.23-.37,9.29-.7l1.3,11.19c-3.19,1.01-6.46,1.72-9.79,2.15-3.33.43-7.46.65-12.39.65-7.13,0-12.83-1.15-17.08-3.45-4.27-2.3-7.34-6.05-9.24-11.24-1.9-5.19-2.85-12.19-2.85-20.98s.95-15.78,2.85-20.98c1.9-5.2,4.98-8.94,9.24-11.24,4.26-2.3,9.95-3.45,17.08-3.45"/>
    <path class="cls-2" d="M684.64,496.6c1.27,0,2.38.35,3.35,1.05.96.7,1.61,1.68,1.95,2.95l19.98,64.94h-15.59l-14.09-50.76c-.26-1.06-.53-2.18-.8-3.34-.27-1.16-.5-2.28-.7-3.35h-2.7c-.2,1.07-.41,2.19-.65,3.35-.24,1.17-.52,2.28-.85,3.34l-14.08,50.76h-15.59l19.98-64.94c.33-1.27.98-2.25,1.95-2.95.96-.7,2.08-1.05,3.35-1.05h14.49ZM695.23,547.25h-35.77v-11.39h35.77v11.39Z"/>
    <path class="cls-2" d="M738.66,496.6v51.56c0,1.66.46,2.93,1.4,3.8.93.86,2.26,1.3,4,1.3h24.08l.7,11.49c-4.73.47-9.68.75-14.84.85-5.16.1-10.28.15-15.34.15s-8.86-1.33-11.39-4c-2.53-2.66-3.79-6.09-3.79-10.29v-54.85h15.19Z"/>
    <path class="cls-4" d="M177.47,458.27h-79.73c-1.71,0-3.19-.62-4.43-1.87-1.25-1.24-1.87-2.72-1.87-4.43v-150.6c0-1.71.62-3.19,1.87-4.43,1.24-1.24,2.72-1.86,4.43-1.86h77.4c22.07,0,38.35,4,48.84,12,10.49,8.01,15.73,20.09,15.73,36.26v.7c0,6.68-1.94,12.63-5.83,17.83-3.89,5.21-8.16,8.97-12.82,11.31,6.21,2.49,11.46,6.88,15.74,13.17,4.27,6.29,6.41,13.17,6.41,20.63,0,34.2-21.91,51.29-65.74,51.29M176.42,353.36c1.63-2.01,2.45-4.43,2.45-7.22s-.82-5.32-2.45-7.58c-1.63-2.25-4.01-3.38-7.11-3.38h-19.58v21.22h19.58c3.11,0,5.48-1.01,7.11-3.03M149.72,395.33v22.85h21.68c3.57,0,6.26-1.2,8.04-3.61,1.79-2.41,2.68-5.09,2.68-8.04v-.24c0-2.95-.97-5.52-2.91-7.69-1.94-2.18-4.55-3.26-7.81-3.26h-21.68Z"/>
    <path class="cls-4" d="M274.99,311.67c14.22-11.21,33.07-16.82,56.53-16.82s42.32,5.65,56.54,16.93c14.22,11.29,21.33,27.16,21.33,47.62v35.46c0,20.76-7.03,36.56-21.1,47.39-14.07,10.84-32.99,16.25-56.77,16.25s-42.7-5.42-56.77-16.25c-14.07-10.83-21.1-26.63-21.1-47.39v-35.46c0-20.61,7.11-36.52,21.33-47.73M318.94,408.64c3.11,2.94,7.3,4.41,12.59,4.41s9.48-1.47,12.59-4.41c3.11-2.94,4.66-7.42,4.66-13.45v-37.03c0-5.88-1.56-10.32-4.66-13.33-3.11-3.01-7.31-4.52-12.59-4.52s-9.48,1.51-12.59,4.52c-3.11,3.02-4.66,7.46-4.66,13.33v37.03c0,6.03,1.55,10.51,4.66,13.45"/>
    <path class="cls-4" d="M584.46,450.58c.46.78.7,1.75.7,2.91s-.5,2.25-1.51,3.26c-1.01,1.01-2.21,1.51-3.61,1.51h-52.46c-4.2,0-7.38-1.78-9.56-5.36l-20.28-31.24-19.35,31.24c-2.18,3.58-5.36,5.36-9.56,5.36h-50.82c-1.4,0-2.6-.5-3.61-1.51-1.01-1.01-1.52-2.1-1.52-3.26s.23-2.13.7-2.91l48.96-75.77-44.06-72.04c-.47-.93-.7-1.94-.7-3.03s.5-2.13,1.52-3.15c1.01-1.01,2.21-1.51,3.61-1.51h50.59c4.34,0,7.61,1.94,9.79,5.83l16.32,28.44,17.72-28.44c2.18-3.89,5.44-5.83,9.79-5.83h48.26c1.4,0,2.6.51,3.61,1.51,1.01,1.01,1.51,2.1,1.51,3.26s-.24,2.14-.7,2.91l-44.99,71.34,49.66,76.47Z"/>
  </g>
</svg>