<?xml version="1.0" encoding="UTF-8"?>
<svg id="Layer_1" data-name="Layer 1" xmlns="http://www.w3.org/2000/svg" viewBox="0 0 239.89 146.16">
  <defs>
    <style>
      .cls-1 {
        fill: #af1f65;
      }
    </style>
  </defs>
  <path class="cls-1" d="M175.96,62.39h50.08l3.27-13.88c-8.35.46-16.67.74-24.94.74h-6.07l2.6-11.12h25.73l3.29-13.41c-5.18.18-10.25.27-15.4.27h-10.48l2.54-10.75h13.6c5.52,0,11.07.28,16.63.56l3.06-13.69h-49.99c-5.22,29.59-11.05,51.18-13.93,61.29M167.94,1.1h-32.53c-3.11,17.64-10.82,52.01-13.47,61.29h18.19c4.05-22.97,6.73-34,9.94-48.06,2.42-.19,4.75-.37,7.14-.37,4.23,0,7.28.92,6.41,5.88-.97,5.51-5.65,7.53-10.61,7.53-1.29,0-2.54-.18-3.71-.36l.85,11.85c1.96.37,3.94.55,6.06.55,12.5,0,23.8-7.81,26.1-20.86.99-5.61.69-17.46-14.38-17.46M109.31,1.1c-1.9,9.74-4.17,19.48-6.62,29.22-2.71,10.66-4.68,19.76-16.26,19.76-7.35,0-9.53-4.87-8.07-13.14,1.34-7.62,6.17-25.64,8.62-35.84h-19.3c-3.24,16.26-7.66,30.41-10.09,44.2-1.49,8.45,3.5,18.19,26.47,18.19s32.5-9.74,34.52-19.11c3.04-14.15,9.45-39.51,10.39-43.28h-19.66ZM19.93,33.26c1.62-9.19,9.56-19.85,25.1-19.85,4.87,0,9.45,1.1,13.94,2.21l1.82-13.97c-5.26-.92-10.64-1.66-16.16-1.66C23.95,0,4.53,11.12.6,33.45c-4.23,23.98,14.92,30.05,29.35,30.05,5.7,0,11.58-.55,17.33-1.38l4.95-14.52c-5.57,1.38-11.19,2.48-16.79,2.48-10.47,0-17.48-5.6-15.51-16.82"/>
  <g>
    <path class="cls-1" d="M38.16,144.12l-.31-4.47c-.09-1.45-.19-2.76-.29-3.94-.1-1.18-.3-3.1-.6-5.75,6.13,1.75,11.2,2.62,15.23,2.62,2.16,0,4.15-.34,5.97-1.02s3.22-1.65,4.2-2.9c.98-1.25,1.46-2.61,1.46-4.1,0-2.17-1-3.81-3-4.92-2-1.11-5.13-1.67-9.39-1.67-1.89,0-3.75.07-5.57.2-1.82.13-4.29.41-7.39.82l2.28-28.68c.09-1.42.18-3.39.27-5.91,7.43.06,14.57.09,21.44.09,8.7,0,15.95-.03,21.75-.09-.27,3.08-.43,5.52-.49,7.33l-.22,6.04-5.91-.22-2.75-.04h-4.31c-1.83-.03-4.11-.04-6.84-.04-.92,0-2.43.03-4.53.09l-.9,10.17c1.98-.15,3.52-.22,4.62-.22,4.62,0,8.69.73,12.21,2.2s6.1,3.52,7.73,6.15c1.63,2.64,2.44,5.61,2.44,8.92s-.83,6.33-2.49,9.3c-1.66,2.98-3.93,5.34-6.82,7.1-2.89,1.76-6.23,3.03-10.03,3.82-3.8.78-7.7,1.18-11.7,1.18-1.51,0-3.3-.1-5.37-.29-2.07-.19-3.82-.41-5.24-.64-1.42-.24-3.24-.61-5.46-1.11Z"/>
    <path class="cls-1" d="M93.75,145c.12-1.39.21-3.23.29-5.52.07-2.29.17-4.64.29-7.03,3.08-2.52,5.91-4.96,8.48-7.33,4.17-3.85,7.87-7.46,11.1-10.84,2.58-2.69,4.74-5.17,6.48-7.42,1.01-1.33,1.67-2.44,2-3.33.24-.62.36-1.26.36-1.91,0-.86-.19-1.61-.58-2.24-.39-.64-.99-1.18-1.82-1.62-.83-.44-1.84-.8-3.02-1.07-1.18-.27-2.53-.4-4.04-.4-2.07,0-4.25.18-6.55.53-2.29.36-5.42,1.04-9.39,2.04l1.15-6.35c.27-1.27.65-3.71,1.15-7.33,7.79-1.3,15.08-1.95,21.89-1.95,3.11,0,6.08.28,8.93.84,2.84.56,5.39,1.52,7.64,2.86,2.25,1.35,3.94,2.92,5.06,4.71,1.12,1.79,1.69,3.72,1.69,5.79,0,1.36-.16,2.71-.49,4.04-.33,1.27-.93,2.77-1.82,4.48-1.12,2.13-2.52,4.23-4.17,6.31-2.46,3.11-5.3,6.32-8.53,9.63-3.08,3.14-6.78,6.66-11.1,10.57l4.88.04c1.15,0,3.44-.03,6.86-.09,3.42-.06,5.79-.12,7.13-.18,1.33-.06,2.97-.19,4.93-.4-.09,1.42-.23,3.2-.42,5.33-.19,2.13-.39,4.74-.6,7.81-7.37-.06-15.08-.09-23.13-.09-9.71,0-17.92.03-24.64.09Z"/>
    <path class="cls-1" d="M155.51,143.8c-.39-6.01-.77-10.79-1.16-14.34,6.6,2.22,12.57,3.33,17.89,3.33,3.29,0,5.94-.66,7.97-1.98,2.03-1.32,3.04-3.09,3.04-5.31s-1.03-3.74-3.09-4.75c-2.06-1.01-5.26-1.51-9.61-1.51-2.81,0-5.39.16-7.73.49.41-4.62.75-9.16,1.02-13.63,2.13.38,4.37.58,6.71.58,2.66,0,4.88-.17,6.64-.51,1.76-.34,3.1-1,4.02-1.99.92-.99,1.38-2.06,1.38-3.21,0-1.03-.36-1.96-1.09-2.79-.73-.83-1.81-1.41-3.26-1.75-1.45-.34-3.26-.51-5.42-.51-1.87,0-3.85.1-5.95.31-2.1.21-4.96.68-8.57,1.42l2.22-10.34c.18-.92.36-1.9.53-2.94,6.42-.77,12.31-1.16,17.67-1.16,3.49,0,6.85.24,10.08.71,3.23.47,5.99,1.34,8.28,2.6s3.98,2.89,5.06,4.91,1.62,4.28,1.62,6.79c0,1.51-.2,2.96-.6,4.35-.4,1.39-1.01,2.69-1.84,3.88-.83,1.2-1.81,2.26-2.93,3.17-1.12.92-2.22,1.66-3.29,2.22s-2.49,1.2-4.26,1.91c1.87.38,3.32.78,4.37,1.2,1.05.42,2.11,1.01,3.17,1.8,1.07.78,1.97,1.7,2.71,2.75.74,1.05,1.29,2.23,1.64,3.53.36,1.3.53,2.69.53,4.17,0,2.93-.67,5.64-2.02,8.13-1.35,2.49-3.33,4.55-5.95,6.19-2.62,1.64-5.62,2.82-9.01,3.53-3.39.71-6.8,1.07-10.23,1.07s-6.54-.17-9.57-.51c-3.04-.34-6.7-.95-10.99-1.84Z"/>
  </g>
</svg>