<?xml version="1.0" encoding="UTF-8"?>
<svg id="uuid-b821956c-9164-4470-8d24-2b65a55443c0" data-name="Layer 1" xmlns="http://www.w3.org/2000/svg" xmlns:xlink="http://www.w3.org/1999/xlink" viewBox="0 0 164.94 119.9">
  <defs>
    <style>
      .uuid-8faae452-01e9-468a-aa0b-f937d573526f {
        fill: #fff;
      }

      .uuid-ad97797d-bec8-42e1-b740-7daebe54b5d9 {
        fill: url(#uuid-0c7429b5-3686-4086-9d27-adc04a48efa8);
      }

      .uuid-2e408a90-ad9e-4e19-b019-6110a6dee61e {
        fill: #98989a;
      }

      .uuid-a43dbb66-250f-4387-b094-f8c9122b6ee7 {
        letter-spacing: -.02em;
      }

      .uuid-6b6e08e5-1437-4e38-a23f-4860bc06cebd {
        letter-spacing: 0em;
      }

      .uuid-dbf9500d-46af-4552-a2cf-4d509c8d68d2 {
        letter-spacing: 0em;
      }

      .uuid-674c5d5e-80e9-4482-9a13-d3e24097a4ec {
        fill: #0033a1;
      }

      .uuid-a2392355-b392-465b-bcac-e5bbcea1d9c8 {
        letter-spacing: 0em;
      }

      .uuid-11d127a9-ddd7-4c22-b5dd-e7ce48cd92f6 {
        fill: none;
      }

      .uuid-abdb663e-6643-4332-8516-cf542509ee24 {
        letter-spacing: 0em;
      }

      .uuid-293626f9-d2a3-4c5c-b84f-875f9d5e224c {
        fill: #e1251b;
      }

      .uuid-7d358e07-6cc8-49ff-a8ba-affc7a76f60b {
        fill: #231f20;
      }

      .uuid-9ee1c41d-a357-4536-a954-996970f693f9 {
        fill: #f8b218;
        font-family: Audiowide-Regular, Audiowide;
        font-size: 5.04px;
      }

      .uuid-0dd24fef-c4ff-41b6-b2ae-431f7571d3e9 {
        fill: #fab417;
      }
    </style>
    <linearGradient id="uuid-0c7429b5-3686-4086-9d27-adc04a48efa8" x1="26.69" y1="31.87" x2="138.18" y2="31.87" gradientUnits="userSpaceOnUse">
      <stop offset="0" stop-color="#c9a861"/>
      <stop offset="0" stop-color="#b88e2f"/>
      <stop offset=".23" stop-color="#fede9f"/>
      <stop offset=".41" stop-color="#eac05b"/>
      <stop offset=".59" stop-color="#a77e2c"/>
      <stop offset=".77" stop-color="#c7972c"/>
      <stop offset="1" stop-color="#956d29"/>
    </linearGradient>
  </defs>
  <g>
    <rect class="uuid-8faae452-01e9-468a-aa0b-f937d573526f" x="0" y="0" width="164.94" height="119.9" rx="18.94" ry="18.94"/>
    <rect x="0" y="0" width="164.94" height="46.28" rx="18.94" ry="18.94"/>
  </g>
  <g>
    <text class="uuid-9ee1c41d-a357-4536-a954-996970f693f9" transform="translate(76.76 10.84)"><tspan x="0" y="0">Pe</tspan><tspan class="uuid-a43dbb66-250f-4387-b094-f8c9122b6ee7" x="7.35" y="0">n</tspan><tspan x="10.78" y="0">tic</tspan><tspan class="uuid-dbf9500d-46af-4552-a2cf-4d509c8d68d2" x="17.99" y="0">t</tspan><tspan x="20.81" y="0">on</tspan><tspan class="uuid-6b6e08e5-1437-4e38-a23f-4860bc06cebd" x="1.53" y="6.04">R</tspan><tspan x="5.67" y="6.04">ob</tspan><tspan class="uuid-abdb663e-6643-4332-8516-cf542509ee24" x="12.58" y="6.04">o</tspan><tspan class="uuid-a2392355-b392-465b-bcac-e5bbcea1d9c8" x="16.01" y="6.04">tics</tspan></text>
    <g>
      <path class="uuid-0dd24fef-c4ff-41b6-b2ae-431f7571d3e9" d="m75.11,12.44c0,3.04-2.46,5.5-5.5,5.5s-5.5-2.46-5.5-5.5,2.46-5.5,5.5-5.5,5.5,2.46,5.5,5.5Zm-3.74,5.07c.11-.04.27-.1.27-.1,0,0,0-.01-.02-.02-.03-.02-.1-.09-.14-.13-.03-.03-.19-.2-.2-.22-.02-.02-.13-.13-.17-.17-.06-.05-.19-.19-.24-.23-.06-.07-.07-.07-.08-.09,0,0-.02-.02-.02-.03,0,0-.01-.02-.01-.02,0,0-.01-.02-.03-.03-.01-.01-.03-.03-.04-.04,0,0-.03-.03-.04-.04-.03-.03-.25-.26-.59-.59-.54-.54-.98-.99-1.27-1.28-.29-.29-.32-.32-.32-.33,0,0,0-.03.02-.05,0-.02.02-.06.02-.08,0-.04,0-.13,0-.17-.01-.09-.05-.17-.11-.24l-.03-.03.16-.16c.09-.09.16-.16.16-.17,0,0,0-.02-.02-.03-.06-.07-.09-.15-.11-.23,0-.04,0-.13,0-.17.01-.07.04-.14.09-.2.03-.04.09-.1.12-.12.08-.06.18-.09.28-.09.07,0,.15.02.22.05.04.02.09.05.11.08h.01s-.1.11-.1.11l-.1.1h0s-.08-.06-.13-.06c-.04,0-.07,0-.1.02-.06.03-.1.07-.12.13,0,.02,0,.03,0,.08s0,.05.01.08c.01.03.03.06.04.07h0s-.09.1-.09.1c-.05.05-.09.09-.09.1,0,0,0,.01.02.02.05.05.13.09.21.11.04.01.05.01.12.01.06,0,.08,0,.1,0,.03,0,.08-.02.1-.03,0,0,.01,0,.34.33.18.18.43.44.56.57.23.23.47.47.91.92.13.13.33.33.45.45.12.12.33.33.45.45s.23.23.23.24c0,0,.04.05.09.1.05.05.14.14.2.2.06.06.12.12.13.12.01,0,.03.02.04.04.02.02.02.02.03.02.03-.01.27-.2.27-.2,0,0,0-.01-.02-.02,0,0-.04-.04-.07-.08-.03-.03-.08-.09-.12-.12-.12-.11-.49-.48-1.18-1.18-.18-.19-.44-.45-.57-.57-.37-.37-.68-.69-.93-.93-.12-.13-.3-.3-.4-.4-.09-.09-.17-.17-.17-.17,0,0,0-.01,0-.03.02-.07.03-.11.03-.18,0-.07,0-.11-.02-.16-.02-.07-.06-.13-.1-.17l-.02-.02.18-.18.18-.18.02.02c.06.05.15.1.23.11.04,0,.13.01.17,0,.04,0,.09-.02.12-.03.01,0,.03,0,.03,0,0,0,.08.08.17.17.09.09.27.27.39.39s.33.33.46.46.4.39.59.59.45.45.57.57c.77.77,1.01,1,1.02,1.01,0,0,.07.07.14.14.07.07.12.12.13.12,0,0,.21-.27.21-.28,0,0-.01-.01-.02-.02-.02-.02-.07-.07-.16-.15-.03-.03-.11-.11-.18-.17-.07-.07-.22-.22-.34-.33s-.32-.32-.45-.44c-.25-.25-.58-.57-.93-.93-.13-.13-.34-.34-.47-.46-.13-.13-.34-.33-.46-.46-.13-.13-.28-.27-.33-.33l-.1-.1v-.03c.07-.17.04-.37-.08-.5l-.02-.02.16-.16.16-.16.03.02c.06.06.14.09.22.11.05.01.16.01.2,0,.03,0,.07-.02.1-.03h.01s.06.05.06.05c.05.05.68.67,1.11,1.1.55.55.65.64.93.92.04.04.07.07.07.07,0,0,.05.04.1.09.08.08.12.12.15.15.01.01.12.11.13.13,0,0,.02.03.04.04s.04.04.06.05c.01.01.05.05.09.09.04.04.08.07.09.08.04.04.09.09.12.12.02.02.04.04.05.05,0,0,.03.04.05.06.02.02.06.07.09.09.03.03.05.05.06.06,0,0,0,0,.01,0,0,0,.02-.03.06-.13,0-.02.02-.05.02-.05,0-.02.03-.09.05-.14v-.04s-.11-.12-.11-.12c-.07-.07-.13-.13-.15-.15-.03-.02-.03-.03-.08-.09-.01-.01-.04-.04-.06-.06-.02-.02-.1-.1-.18-.18-.08-.08-.16-.16-.19-.18s-.06-.06-.09-.08-.05-.05-.05-.05c-.03-.03-.1-.09-.2-.19,0,0-.02-.02-.03-.03-.02-.02-.09-.08-.58-.57-.12-.12-.31-.31-.43-.42-.12-.12-.31-.31-.42-.42s-.28-.27-.36-.36c-.08-.08-.15-.15-.16-.16,0,0,0-.01,0-.04.02-.05.02-.08.02-.14,0-.14-.04-.26-.12-.35l-.02-.02.95-.95.95-.95.03.03s.02.02-.01-.02c-.17-.18-.46-.43-.73-.62-.43-.3-.92-.55-1.41-.7-.11-.04-.13-.04-.19-.06-.03,0-.06-.02-.07-.02-.06-.02-.24-.06-.35-.08-.16-.03-.35-.06-.49-.08-.11-.01-.13-.01-.2-.02-.32-.02-.69-.02-1,.02-.74.08-1.43.31-2.07.68-.93.53-1.69,1.34-2.16,2.29-.04.09-.05.11-.07.15,0,.01-.01.03-.02.04-.04.08-.11.25-.15.37-.03.09-.11.32-.12.38,0,0,0,.02,0,.04-.02.06-.05.2-.06.24,0,0,0,.03-.01.05,0,.03-.02.1-.03.15,0,.01,0,.03,0,.05-.09.53-.1,1.14-.02,1.69.03.23.08.48.14.68,0,.02.01.04.01.04.02.06.05.18.1.31.02.07.08.21.12.3.24.56.56,1.07.97,1.53.07.07.16.17.19.2.02.02.02.02.01,0l-.02-.02.95-.95.95-.95.02.02c.13.12.33.15.5.09h.02s.04.03.04.03c.06.06.65.66.9.91.12.12.31.31.43.43.12.12.28.29.38.38.09.09.17.17.17.17,0,0,.04.04.09.1.02.02.04.04.04.05,0,0,.04.04.06.07s.08.08.12.12.09.09.12.12c.07.08.26.26.33.33.03.03.08.07.1.09.04.04.06.05.08.07,0,0,.06.06.11.11.06.06.1.1.1.1,0,0,.03,0,.07-.02h0Z"/>
      <path class="uuid-0dd24fef-c4ff-41b6-b2ae-431f7571d3e9" d="m67.66,14.3c-.06-.07-.1-.15-.12-.24,0-.04,0-.13,0-.17.03-.18.16-.33.33-.39.1-.03.21-.03.31,0,.06.02.12.06.16.09l.02.02-.09.09-.09.09h-.02s-.07-.06-.13-.06c-.07,0-.12.02-.17.06-.04.04-.06.08-.07.13,0,.06,0,.11.04.16v.02s-.08.09-.08.09c-.05.05-.09.09-.09.09s0,0-.02-.02h0Z"/>
      <path class="uuid-0dd24fef-c4ff-41b6-b2ae-431f7571d3e9" d="m67.98,14.19s-.07-.03-.09-.05l-.02-.02.15-.15c.08-.08.15-.15.16-.15.01,0,.04.05.06.09,0,.02,0,.03,0,.06,0,.05,0,.07-.03.11-.02.03-.06.06-.08.08-.04.02-.11.03-.15.02h0Z"/>
      <path class="uuid-0dd24fef-c4ff-41b6-b2ae-431f7571d3e9" d="m69.01,13.17s-.06-.02-.09-.04l-.03-.02.16-.16.16-.16.02.02s.04.06.04.08c0,.03,0,.08,0,.11-.02.07-.09.14-.17.15-.03,0-.07,0-.09,0h0Z"/>
      <path class="uuid-0dd24fef-c4ff-41b6-b2ae-431f7571d3e9" d="m69.75,12.2s-.05-.07-.07-.11c-.03-.06-.05-.16-.05-.23,0-.13.06-.24.15-.33.08-.08.16-.12.26-.14.03,0,.13,0,.17,0,.06.01.13.04.18.07.03.02.08.06.08.06,0,0-.04.04-.09.09l-.09.09-.02-.02s-.08-.04-.14-.04c-.05,0-.08,0-.11.03-.03.02-.05.04-.07.07-.02.04-.04.08-.04.12,0,.05.01.1.04.14v.02s-.08.09-.08.09c-.05.05-.1.09-.1.09,0,0-.01,0-.02-.02h0Z"/>
      <path class="uuid-0dd24fef-c4ff-41b6-b2ae-431f7571d3e9" d="m67.51,12.18s-.04-.02-.04-.03c0-.01,0-.06-.01-.1,0-.03,0-.04-.02-.06-.01-.01-.03-.02-.07-.02-.06,0-.07,0-.1.07-.04.09-.05.1-.11.08-.03,0-.05-.02-.05-.04,0,0,0-.03,0-.05.01-.08.01-.08,0-.1,0,0-.01-.02-.02-.02-.02-.01-.07-.03-.09-.03-.02,0-.03,0-.05.03,0,.01-.02.02-.02.02,0,0-.01.02-.03.03-.03.04-.04.04-.06.04-.04-.01-.07-.04-.07-.06,0,0,0-.03.02-.07.02-.05.02-.07.02-.08,0-.02,0-.02-.02-.04-.01,0-.02-.02-.03-.02,0,0-.02,0-.02-.01-.03-.02-.06-.01-.09.02-.07.06-.08.07-.1.06-.02,0-.05-.03-.06-.05-.01-.02-.01-.03.01-.08.04-.07.05-.08.05-.09,0-.02,0-.03-.03-.06-.01-.01-.02-.02-.02-.03,0-.01-.03-.02-.05-.02-.01,0-.02,0-.05.02-.02.01-.05.03-.06.03h-.03s-.01,0-.01,0c-.02,0-.02-.01-.04-.04-.03-.04-.03-.05.03-.11.05-.05.06-.06.05-.09,0-.02-.04-.08-.06-.09-.02-.01-.04-.01-.11,0l-.06.02h-.02s-.02-.02-.03-.04c-.01-.02-.02-.03-.02-.05,0-.02,0-.02.06-.07.06-.04.07-.05.07-.08,0-.02-.02-.09-.04-.11-.01-.01-.03-.02-.09-.01-.06,0-.08,0-.09-.01-.01,0-.02-.05-.02-.07,0-.02.01-.04.04-.05.01,0,.02,0,.03-.01,0,0,.02,0,.02,0,.03-.01.05-.02.06-.03h.01s0-.06,0-.06c0-.05,0-.07-.02-.08-.01-.01-.03-.02-.11-.03-.02,0-.04,0-.05-.01,0,0-.01-.01-.02-.02-.02-.03-.01-.08.02-.1,0,0,.03-.01.07-.02.03,0,.06-.01.07-.01.03,0,.04-.03.04-.09,0-.06,0-.07-.08-.1-.06-.02-.07-.03-.08-.05,0-.02,0-.07.02-.08.02-.02.02-.02.09-.02.08,0,.09,0,.1-.02,0,0,.01-.03.02-.05,0-.02.01-.04.01-.04,0-.03,0-.05-.07-.09-.05-.04-.06-.04-.06-.06,0-.03.03-.08.06-.09,0,0,.03,0,.06.01.03,0,.06.02.07.02.03,0,.04,0,.07-.05.04-.06.03-.08,0-.12-.03-.03-.07-.08-.07-.08,0-.01,0-.04.03-.06.03-.04.04-.04.1,0,.06.03.07.04.09.03.02,0,.03-.01.06-.04.03-.03.04-.04.04-.06,0-.02,0-.03-.05-.1,0-.01-.02-.03-.02-.04v-.02s0-.02,0-.02c0-.02.05-.05.06-.06.02,0,.04,0,.08.05.04.04.06.05.07.05.02,0,.03,0,.07-.03s.05-.04.05-.06c0,0,0-.04-.02-.07-.01-.03-.02-.06-.02-.07,0-.02.06-.06.09-.06.02,0,.03.01.07.06.02.03.04.05.05.06.02.01.04,0,.08-.01.04-.02.05-.02.06-.04,0-.01,0-.02,0-.1,0-.06,0-.05,0-.07.02-.02.07-.03.09-.02.02,0,.03.02.04.06.03.08.05.09.08.09.01,0,.04,0,.09-.01.01,0,.03-.02.04-.04,0,0,0-.04,0-.07,0-.05,0-.07.02-.08,0,0,.03-.02.05-.02.03,0,.04,0,.06.02,0,.01.01.02.02.06.01.07.02.09.03.1.02.02.1.02.13.01.02,0,.03-.02.05-.08.02-.06.02-.07.04-.08,0,0,.01,0,.04,0,.04,0,.06.01.07.03,0,.01,0,.02,0,.08,0,.08,0,.08.03.1.01,0,.04.01.06.02.03,0,.03,0,.05,0,.02,0,.03-.02.04-.04,0,0,.01-.02.02-.03s.01-.02.02-.03c0-.01.02-.02.02-.03.03-.02.12.02.11.05,0,0,0,.02,0,.04,0,.02,0,.04-.01.05,0,.02,0,.06,0,.07,0,.01.02.02.06.04.06.03.07.03.13-.04.05-.05.06-.06.08-.05.02,0,.06.03.07.05.01.02,0,.02-.03.11-.02.05-.02.07.02.11.05.04.05.04.07.04.02,0,.03,0,.07-.03.06-.04.07-.04.08-.04.02,0,.05.04.06.06,0,.01,0,.02,0,.03,0,.01-.04.06-.07.09,0,0-.02.04-.02.04,0,.01.02.04.04.07,0,0,.01.01.01.02s0,0,.02.01c.03.01.03.01.11-.02.04-.02.06-.02.07-.02.01,0,.03.02.04.04.03.05.02.06-.06.12-.03.03-.05.05-.05.07,0,0,0,.03.02.05.03.06.04.07.11.05.02,0,.05,0,.06-.01.04,0,.05.01.07.06,0,.03,0,.02,0,.05,0,0-.02.02-.05.03-.02.01-.05.03-.06.04-.03.01-.03.03-.03.05,0,.03.01.08.02.1.01.02.02.02.08.02.07,0,.09,0,.1.02,0,0,.01.02.01.04,0,.03,0,.03,0,.04-.01.02-.03.03-.08.04-.02,0-.05.01-.07.02-.01,0-.02.01-.02.02,0,.01,0,.02,0,.06,0,.04,0,.05,0,.06,0,.01.03.03.05.03.05.01.1.03.1.03,0,0,.01,0,.02.03,0,.01,0,.02,0,.02,0,0,0,.02,0,.03,0,.04-.02.05-.11.05-.07,0-.08,0-.1.07,0,.02,0,.04,0,.05,0,.04,0,.04.07.08.03.02.06.03.06.03,0,0,0,.01.01.02,0,.02,0,.02,0,.07,0,.02-.01.02-.02.03h-.01s-.04,0-.04,0c-.02,0-.05,0-.07-.01-.05,0-.06,0-.09.05-.04.08-.04.08.05.15.04.03.05.05.05.06,0,.01-.02.05-.04.07-.02.02-.03.02-.05.01-.01,0-.02,0-.03-.01,0,0-.02,0-.03-.01-.07-.03-.09-.03-.13.02-.02.02-.04.06-.04.07s.02.04.03.05c.02.02.06.08.06.09,0,.01,0,.03-.02.05-.02.02-.04.03-.05.03,0,0-.05-.02-.08-.05-.01-.01-.03-.02-.04-.02-.02,0-.04,0-.05,0-.01,0-.06.05-.07.06-.02.02-.02.05.02.11.01.03.02.06.03.06,0,.02,0,.03-.03.05-.03.02-.04.02-.06.02h-.02l-.05-.05s-.06-.06-.08-.06c-.01,0-.04.01-.07.03,0,0-.02.01-.03.02-.02.01-.03.04-.01.11,0,.02.01.04.01.05,0,.02,0,.03,0,.04,0,.01-.03.03-.06.03-.01,0-.02,0-.03,0-.01,0-.02,0-.03-.03,0-.01-.02-.03-.02-.03,0-.02-.04-.06-.05-.07-.02,0-.05,0-.09,0-.04.01-.06.03-.06.05,0,.15,0,.14-.02.16,0,0-.02,0-.04.01-.02,0-.03,0-.04,0-.02,0-.03-.02-.05-.08-.01-.03-.02-.06-.03-.07-.01-.01-.02-.02-.08-.01-.05,0-.05,0-.06.01-.02.01-.02.02-.03.09,0,.03-.02.06-.02.07-.01.02-.04.03-.08.02h0Zm-.16-.51s.01,0,.02,0c.03,0,.07-.05.08-.1,0-.01,0-.09,0-.21v-.22s-.03-.03-.06-.04c-.09-.04-.17-.08-.21-.12-.02-.02-.05-.04-.06-.04-.03,0-.04,0-.17.08-.04.02-.09.05-.11.07-.1.06-.11.07-.13.09-.01.02-.03.06-.03.08,0,.03.02.07.06.11.09.09.2.16.31.22.04.02.13.06.13.06,0,0,.01,0,.03,0,.06.02.13.04.14.03Zm.62,0s.12-.04.15-.05c0,0,.02,0,.03-.01.03-.01.07-.03.09-.04,0,0,.02-.01.03-.02.08-.05.2-.13.25-.19.02-.02.03-.04.04-.07,0-.02,0-.02,0-.05-.01-.05-.04-.07-.1-.11-.02-.01-.06-.04-.09-.05-.03-.02-.06-.04-.08-.05-.11-.07-.13-.08-.15-.07s-.04,0-.08.05c-.03.03-.13.09-.14.09,0,0-.08.03-.09.04,0,0-.02.02-.02.03,0,.01,0,.03,0,.22v.21s.01.02.01.02c.01.03.04.06.06.06,0,0,.02,0,.02,0,.02,0,.04,0,.08,0h0Zm.13-1.23c0-.26-.21-.47-.47-.47s-.47.21-.47.47.21.47.47.47.47-.21.47-.47Zm-1.52.41s.04-.02.17-.09c.03-.02.07-.04.08-.05.11-.06.11-.06.12-.09,0-.02,0-.02,0-.06-.02-.1-.02-.15,0-.24,0-.04,0-.05,0-.07,0-.02-.02-.03-.13-.1-.05-.03-.11-.07-.13-.08-.11-.06-.11-.06-.15-.06-.03,0-.04,0-.06,0-.03.01-.05.03-.06.06,0,.02-.03.08-.03.13-.02.1-.02.25-.01.34,0,.03,0,.07,0,.07,0,0,0,.02,0,.03,0,.01,0,.04.01.06.01.05.02.08.05.1.01.01.04.03.06.04.02,0,.07,0,.09,0h0Zm2.22,0s.06-.05.07-.11c.02-.07.02-.08.03-.14,0-.05,0-.08,0-.16,0-.13,0-.2-.03-.3-.02-.07-.04-.1-.08-.12-.02,0-.03,0-.06,0-.03,0-.04,0-.06.01-.01,0-.04.02-.05.03-.03.02-.1.06-.17.1-.08.05-.11.07-.12.08-.02.02-.02.03-.01.08,0,.06,0,.19,0,.23,0,.04,0,.06,0,.07,0,.02.02.02.07.05.02.01.06.03.07.04.02.01.03.02.03.02,0,0,0,0,.01,0,0,0,.02.01.03.02s.04.02.07.04c.09.05.1.06.15.06.02,0,.03,0,.05-.01h0Zm-1.65-.91s.03-.02.04-.03c.02-.02.08-.05.1-.07.03-.02.08-.04.11-.05.04-.01.05-.03.06-.05,0-.02,0-.4,0-.43-.01-.04-.03-.07-.07-.09-.02,0-.03-.01-.05-.01-.04,0-.08.01-.19.05-.05.02-.12.06-.17.09-.04.02-.07.05-.09.06-.01,0-.03.02-.03.03-.04.03-.11.09-.13.12-.03.04-.03.1,0,.14.02.03.04.04.09.07.02.01.05.03.05.03s.03.02.04.02.06.04.1.06c.1.06.11.06.15.05h0Zm1.03,0s.05-.03.08-.05c.05-.03.13-.07.22-.13.04-.02.06-.04.07-.08.02-.04.02-.07,0-.11,0-.02-.05-.06-.1-.11-.02-.02-.14-.1-.14-.1,0,0-.01,0-.02-.01-.01,0-.03-.02-.04-.03-.04-.02-.07-.03-.08-.04,0,0-.02,0-.03-.01-.01,0-.03-.01-.04-.01,0,0-.02,0-.03-.01,0,0-.02,0-.03-.01s-.03,0-.04-.01c-.02,0-.06-.01-.08-.01-.04,0-.08.04-.1.08v.02s-.01.21-.01.21c0,.23,0,.23.03.25,0,0,.03.02.05.02.07.02.13.06.21.12.04.03.06.04.1.02h0Z"/>
      <path class="uuid-0dd24fef-c4ff-41b6-b2ae-431f7571d3e9" d="m70.08,12.09s-.06-.03-.08-.04l-.02-.02.15-.15c.09-.09.16-.15.16-.15,0,0,.03.04.04.06.02.04.03.1.02.14-.02.08-.09.14-.16.16-.03,0-.08,0-.11,0h0Z"/>
      <path class="uuid-0dd24fef-c4ff-41b6-b2ae-431f7571d3e9" d="m70.79,11.17c-.05-.06-.09-.14-.11-.23,0-.04-.01-.12,0-.16.03-.18.16-.34.34-.4.16-.05.33-.02.46.1l.02.02-.09.09-.09.09h-.01s-.06-.05-.08-.05c-.03,0-.1,0-.12,0-.06.02-.11.06-.14.11,0,.02-.02.04-.02.06-.01.06,0,.14.05.19h.01s-.09.1-.09.1c-.05.05-.09.09-.09.09,0,0,0,0-.02-.02h0Z"/>
      <path class="uuid-0dd24fef-c4ff-41b6-b2ae-431f7571d3e9" d="m71.14,11.07s-.09-.03-.12-.05h-.02s.15-.17.15-.17c.08-.08.15-.15.16-.15,0,0,.02.02.04.05.05.09.03.19-.04.26-.02.02-.03.03-.06.04-.04.02-.08.03-.11.02Z"/>
    </g>
  </g>
  <path class="uuid-ad97797d-bec8-42e1-b740-7daebe54b5d9" d="m32.06,37.32c-1.63,0-2.93-.48-3.91-1.45s-1.47-2.3-1.47-4,.48-3.05,1.44-4.01,2.31-1.44,4.04-1.44c.72,0,1.41.06,2.08.17.23.04.42.15.57.34.15.19.23.4.23.65v.39c0,.2-.08.37-.25.49-.17.13-.35.16-.55.12-.6-.14-1.2-.2-1.79-.2-2.17,0-3.25,1.16-3.25,3.49,0,1.16.26,2.03.78,2.62.52.58,1.26.87,2.23.87.3,0,.6-.04.92-.12.09-.02.13-.07.13-.16v-2.37c0-.08-.04-.12-.13-.12h-1.35c-.22,0-.42-.08-.58-.25-.16-.16-.25-.36-.25-.58v-.22c0-.22.08-.42.25-.58.17-.17.36-.25.58-.25h3.01c.22,0,.41.08.57.25.16.16.24.36.24.58v4.34c0,.25-.07.48-.22.68-.15.2-.33.33-.57.4-.87.23-1.79.35-2.75.35Zm13.61-1.45c-.89.96-2.1,1.45-3.63,1.45s-2.74-.48-3.63-1.45c-.89-.96-1.34-2.3-1.34-4s.45-3.04,1.34-4c.89-.96,2.1-1.45,3.63-1.45s2.74.48,3.63,1.45c.89.96,1.34,2.3,1.34,4s-.45,3.04-1.34,4Zm-1.19-4c0-2.28-.81-3.41-2.44-3.41s-2.44,1.14-2.44,3.41.81,3.41,2.44,3.41,2.44-1.14,2.44-3.41Zm4.91,5.3c-.22,0-.42-.08-.58-.25-.17-.16-.25-.36-.25-.58v-8.95c0-.22.08-.42.25-.58.16-.17.36-.25.58-.25h.9c.22,0,.41.08.57.25.16.16.24.36.24.58v7.61c0,.08.04.12.13.12h3.53c.22,0,.42.08.58.25.16.17.25.36.25.58v.39c0,.22-.08.42-.25.58-.17.17-.36.25-.58.25h-5.38Zm8.86.03c-.23-.02-.43-.12-.58-.3-.16-.18-.23-.39-.23-.63v-8.8c0-.24.08-.45.23-.63.15-.18.35-.28.58-.3.75-.08,1.5-.12,2.24-.12,1.73,0,3.07.46,4.01,1.38.94.92,1.41,2.23,1.41,3.92,0,1.84-.47,3.23-1.41,4.18-.94.94-2.28,1.42-4.01,1.42-.74,0-1.48-.04-2.24-.12Zm1.6-8.63v6.6c0,.09.04.14.13.16.19.04.43.06.7.06.98,0,1.7-.29,2.17-.86.47-.57.7-1.51.7-2.8,0-1.16-.24-2.01-.71-2.56s-1.2-.81-2.17-.81c-.27,0-.5.02-.7.06-.09.02-.13.07-.13.16Zm14.94,4.36c-1.22-.39-2.1-.87-2.64-1.45-.54-.58-.81-1.28-.81-2.11,0-.91.32-1.63.95-2.16.63-.53,1.54-.79,2.72-.79.89,0,1.7.1,2.43.31.23.07.42.21.56.41.14.21.21.44.21.69v.42c0,.19-.08.34-.25.45-.17.11-.34.13-.52.06-.82-.29-1.58-.44-2.28-.44-.89,0-1.34.35-1.34,1.05,0,.59.39,1.01,1.16,1.26,1.34.41,2.26.88,2.78,1.42s.78,1.25.78,2.14c0,2.08-1.31,3.12-3.94,3.12-.83,0-1.59-.13-2.27-.39-.23-.09-.41-.24-.54-.46-.13-.22-.2-.46-.2-.72v-.46c0-.17.08-.31.23-.4.15-.09.31-.1.46-.02.71.35,1.43.52,2.16.52.51,0,.9-.1,1.17-.3.27-.2.4-.48.4-.85,0-.32-.09-.58-.28-.78-.18-.2-.5-.38-.96-.52Zm6.42,4.24c-.22,0-.42-.08-.58-.25-.17-.16-.25-.36-.25-.58v-8.88c0-.23.08-.44.23-.62.15-.18.35-.29.58-.31.82-.08,1.62-.12,2.38-.12,3.1,0,4.65,1.15,4.65,3.46,0,1.25-.36,2.2-1.08,2.84s-1.78.97-3.17.97c-.37,0-.71-.01-1.03-.04-.09,0-.13.04-.13.12v2.59c0,.22-.08.42-.25.58-.16.17-.36.25-.58.25h-.77Zm1.6-8.66v3.17c0,.07.04.11.13.13.33.04.59.06.79.06.7,0,1.24-.16,1.62-.49.38-.32.57-.78.57-1.36,0-1.15-.73-1.73-2.19-1.73-.24,0-.51.02-.8.07-.08.02-.12.07-.12.15Zm14.85,7.36c-.89.96-2.1,1.45-3.63,1.45s-2.74-.48-3.63-1.45c-.89-.96-1.34-2.3-1.34-4s.45-3.04,1.34-4c.89-.96,2.1-1.45,3.63-1.45s2.74.48,3.63,1.45c.89.96,1.34,2.3,1.34,4s-.45,3.04-1.34,4Zm-1.19-4c0-2.28-.81-3.41-2.44-3.41s-2.44,1.14-2.44,3.41.81,3.41,2.44,3.41,2.44-1.14,2.44-3.41Zm4.91,5.3c-.22,0-.42-.08-.58-.25-.17-.16-.25-.36-.25-.58v-8.95c0-.22.08-.42.25-.58.16-.17.36-.25.58-.25h.71c.55,0,.95.24,1.21.73l3.05,5.77s0,.01.01.01.01,0,.01-.01v-5.67c0-.22.08-.42.25-.58.16-.17.36-.25.58-.25h.71c.22,0,.42.08.58.25.16.16.25.36.25.58v8.95c0,.22-.08.42-.25.58-.17.17-.36.25-.58.25h-.71c-.55,0-.95-.24-1.21-.73l-3.05-5.77s0-.01-.01-.01c0,0-.01,0-.01.01v5.67c0,.22-.08.42-.25.58-.17.17-.36.25-.58.25h-.71Zm12.67-4.24c-1.22-.39-2.1-.87-2.64-1.45-.54-.58-.81-1.28-.81-2.11,0-.91.32-1.63.95-2.16.63-.53,1.54-.79,2.72-.79.89,0,1.7.1,2.43.31.23.07.42.21.56.41.14.21.21.44.21.69v.42c0,.19-.08.34-.25.45-.17.11-.34.13-.52.06-.82-.29-1.58-.44-2.28-.44-.89,0-1.34.35-1.34,1.05,0,.59.39,1.01,1.16,1.26,1.34.41,2.26.88,2.78,1.42s.78,1.25.78,2.14c0,2.08-1.31,3.12-3.94,3.12-.83,0-1.59-.13-2.27-.39-.23-.09-.41-.24-.54-.46-.13-.22-.2-.46-.2-.72v-.46c0-.17.08-.31.23-.4.15-.09.31-.1.46-.02.71.35,1.43.52,2.16.52.51,0,.9-.1,1.17-.3.27-.2.4-.48.4-.85,0-.32-.09-.58-.28-.78-.18-.2-.5-.38-.96-.52Zm13.4,2.94c-.89.96-2.1,1.45-3.63,1.45s-2.74-.48-3.63-1.45c-.89-.96-1.34-2.3-1.34-4s.45-3.04,1.34-4c.89-.96,2.1-1.45,3.63-1.45s2.74.48,3.63,1.45c.89.96,1.34,2.3,1.34,4s-.45,3.04-1.34,4Zm-1.19-4c0-2.28-.81-3.41-2.44-3.41s-2.44,1.14-2.44,3.41.81,3.41,2.44,3.41,2.44-1.14,2.44-3.41Zm4.91,5.3c-.22,0-.42-.08-.58-.25-.17-.16-.25-.36-.25-.58v-8.88c0-.24.08-.45.24-.62.16-.17.36-.27.59-.29.86-.09,1.75-.13,2.66-.13,1.45,0,2.54.27,3.25.82.71.55,1.07,1.32,1.07,2.33,0,.65-.19,1.23-.57,1.75s-.87.89-1.48,1.11c0,0-.01,0-.01.01,0,.02,0,.03.03.03.47.27.88.84,1.21,1.71l.83,2.21c.07.18.04.36-.07.52-.12.17-.27.25-.46.25h-.89c-.25,0-.48-.07-.68-.22-.2-.15-.34-.33-.42-.57l-.73-2.09c-.14-.41-.3-.68-.49-.83-.19-.15-.49-.22-.9-.22h-.61c-.08,0-.12.04-.12.13v2.96c0,.22-.08.42-.25.58-.16.17-.36.25-.58.25h-.77Zm1.6-8.66v2.79c0,.09.04.13.12.13h.7c.68,0,1.2-.14,1.55-.43s.54-.69.54-1.2c0-1.01-.66-1.51-1.99-1.51-.3,0-.56.02-.79.06-.09.02-.13.07-.13.16Z"/>
  <g>
    <g>
      <path class="uuid-2e408a90-ad9e-4e19-b019-6110a6dee61e" d="m81.38,63.26c1.08,0,2.14.1,3.14.28l2.39-2.49c-1.67-.58-3.55-.9-5.53-.9-3.37,0-6.43.94-8.7,2.47l2.08,1.97c1.93-.84,4.19-1.33,6.62-1.33Z"/>
      <path class="uuid-8faae452-01e9-468a-aa0b-f937d573526f" d="m81.38,60.15c1.98,0,3.86.32,5.53.9l2.6-2.71c-2.42-.96-5.19-1.5-8.13-1.5-4.38,0-8.38,1.21-11.43,3.19l2.73,2.58c2.27-1.53,5.33-2.47,8.7-2.47Z"/>
      <path class="uuid-2e408a90-ad9e-4e19-b019-6110a6dee61e" d="m68.9,70.73c.22-.89.62-1.74,1.18-2.52l-1.05-1.06c-.21.65-.32,1.33-.32,2.03,0,.53.07,1.05.19,1.56Z"/>
      <path class="uuid-2e408a90-ad9e-4e19-b019-6110a6dee61e" d="m61.16,76.59l-.44,2.28,4.37-1.88c-.28-.58-.33-1.34-.49-1.95l-3.44,1.56Z"/>
      <polygon class="uuid-2e408a90-ad9e-4e19-b019-6110a6dee61e" points="58.09 51.81 51.76 86.47 54.75 86.71 61.02 51.55 58.09 51.81"/>
      <path class="uuid-293626f9-d2a3-4c5c-b84f-875f9d5e224c" d="m79.37,71.75v-2.8l-4.6-4.36-2.08-1.97-2.73-2.58-8.96-8.49-6.27,35.16,13.27-5.83c-1.32-1.17-2.26-2.41-2.95-3.88l-4.32,1.85.43-2.27,2.8-14.58.23-1.22,2.31,2.33,2.97,2.99,1.28,1.29,5.25,4.52-5.09,2.33c1.32,1.32,2.89,2.49,5,3.14l6.36-2.85-2.9-2.78Z"/>
      <path class="uuid-11d127a9-ddd7-4c22-b5dd-e7ce48cd92f6" d="m95.25,61.99c2.16,2.14,3.44,4.79,3.44,7.66,0,.53-.05,1.05-.13,1.56.08.51.13,1.03.13,1.56,0,2.2-.75,4.27-2.07,6.07l8.64-9-9.13-8.77-.88.92Z"/>
      <path class="uuid-11d127a9-ddd7-4c22-b5dd-e7ce48cd92f6" d="m91,66.42l-3.57,3.72,4.36,4.18c1.03-1.06,1.75-2.28,2.07-3.59-.4-1.63-1.41-3.11-2.85-4.31Z"/>
      <path class="uuid-2e408a90-ad9e-4e19-b019-6110a6dee61e" d="m93.85,70.73c.12-.51.19-1.02.19-1.56,0-1.57-.57-3.04-1.56-4.33l-1.51,1.56c1.45,1.21,2.48,2.69,2.87,4.32Z"/>
      <path class="uuid-2e408a90-ad9e-4e19-b019-6110a6dee61e" d="m96.69,85.57l-3.58-3.44c-.57.39-1.18.75-1.82,1.09l5.4,5.18,16.65-17.34-.02-2.81-16.63,17.31Z"/>
      <path class="uuid-2e408a90-ad9e-4e19-b019-6110a6dee61e" d="m84.56,73.92l-2.94-2.83-2.25-2.15v2.81s3.16,3.04,3.16,3.04l3.03,2.91c.77-.19,1.5-.43,2.2-.72l-3.19-3.06Z"/>
      <polygon class="uuid-2e408a90-ad9e-4e19-b019-6110a6dee61e" points="96.14 58.24 93.77 60.71 91.15 63.43 89.37 65.29 85.99 68.8 87.41 70.16 91 66.42 92.5 64.86 95.25 61.99 96.14 61.07 105.29 69.85 106.71 68.38 96.14 58.24"/>
      <path class="uuid-8faae452-01e9-468a-aa0b-f937d573526f" d="m95.25,61.99l-2.75,2.87c.98,1.28,1.54,2.76,1.54,4.32,0,.53-.07,1.05-.19,1.56-.32,1.32-1.04,2.54-2.07,3.59-1.06,1.08-2.43,1.99-4.03,2.66-.69.29-1.43.53-2.2.72-1.31.32-2.71.5-4.17.5-1.8,0-3.51-.27-5.06-.75-2.11-.66-3.92-1.71-5.25-3.04-.48-.48-.9-1-1.24-1.55-.42-.67-.74-1.39-.92-2.14-.12-.51-.19-1.02-.19-1.56,0-.7.11-1.38.32-2.03l-3.16-3.2c-1.16,1.72-1.81,3.65-1.81,5.7,0,.53.05,1.05.13,1.56.2,1.24.65,2.42,1.29,3.52.32.55.7,1.09,1.12,1.6,1.11,1.34,2.55,2.52,4.23,3.48,2.92,1.66,6.57,2.65,10.54,2.65,2.78,0,5.4-.48,7.73-1.34.71-.26,1.38-.56,2.03-.88,1.5-.76,2.83-1.69,3.94-2.75,1.86-1.78,3.11-3.93,3.49-6.28.08-.51.13-1.03.13-1.56,0-2.87-1.28-5.52-3.44-7.66Z"/>
      <path class="uuid-674c5d5e-80e9-4482-9a13-d3e24097a4ec" d="m84.55,73.94l3.18,3.05c1.6-.67,2.99-1.57,4.04-2.65l-4.36-4.18-1.41-1.36,3.36-3.5,1.78-1.86,2.61-2.72,2.37-2.47,10.55,10.12-1.42,1.47-8.64,9c-.91,1.25-2.09,2.35-3.48,3.31l3.55,3.42,16.65-17.34-17.34-16.65-6.49,6.76-2.6,2.71-2.39,2.49-5.14,5.38,5.18,5Z"/>
      <path class="uuid-2e408a90-ad9e-4e19-b019-6110a6dee61e" d="m69.89,72.96s.08.14.09.15c.25.4.6.77.93,1.14l5.18-2.39-11.9-11.08-.33,1.71,9.34,9.24-3.32,1.22Z"/>
      <path class="uuid-2e408a90-ad9e-4e19-b019-6110a6dee61e" d="m98.7,69.65c0,.53-.05,1.05-.13,1.56-.38,2.35-1.63,4.5-3.49,6.28-1.11,1.06-2.44,1.99-3.94,2.75-.65.33-1.32.62-2.03.88-2.33.86-4.95,1.34-7.73,1.34-3.97,0-7.62-.99-10.54-2.65-1.68-.96-3.11-2.13-4.23-3.48-.42-.51-.8-1.04-1.12-1.6-.65-1.1-1.09-2.28-1.29-3.52-.08-.51-.13-1.03-.13-1.56,0-.17.01-.33.02-.49,0,0,0-.02,0-.03-.08.51-.02,3.11-.02,3.63,0,.84.11,1.65.32,2.44.16.62.38,1.22.66,1.8.69,1.47,1.74,2.81,3.06,3.98,3.18,2.8,7.95,4.59,13.28,4.59,3.7,0,7.13-.86,9.94-2.32.64-.33,1.25-.69,1.82-1.09,1.4-.95,2.58-2.08,3.49-3.32,1.32-1.81,2.07-3.87,2.07-6.07,0-.46.04-2.66,0-3.53,0-.12,0,.27,0,.42Z"/>
    </g>
    <g>
      <path class="uuid-7d358e07-6cc8-49ff-a8ba-affc7a76f60b" d="m47.23,91.13h13.78l-1.3,5.31h-6.61l-.65,2.79h6.89l-1.2,4.92h-6.8l-1.63,6.99h-7.12l4.64-20Z"/>
      <path class="uuid-7d358e07-6cc8-49ff-a8ba-affc7a76f60b" d="m62.89,91.13h7.12l-4.64,20h-7.12l4.64-20Z"/>
      <path class="uuid-7d358e07-6cc8-49ff-a8ba-affc7a76f60b" d="m71.87,91.25l.46-.06c2.29-.27,5.13-.45,6.7-.45,2.61,0,4.64.3,6.17.93,1.96.81,3.14,2.58,3.14,4.71,0,1.83-.62,3.57-1.8,4.92-1.01,1.17-1.93,1.74-3.82,2.31l-.46.15c.2.15.26.21.36.3.56.63,2.22,3.87,3.63,7.08h-7.84c-1.01-2.85-1.31-3.6-2.65-6.84l-1.57,6.84h-6.92l4.6-19.88Zm5.26,9.42c2.29,0,3.89-1.35,3.89-3.27,0-1.02-.75-1.53-2.22-1.53-.42,0-.65.03-1.11.12l-1.08,4.62c.23.03.26.06.52.06Z"/>
      <path class="uuid-7d358e07-6cc8-49ff-a8ba-affc7a76f60b" d="m105.23,91.13h17.27l-1.21,5.79h-5.13l-3.4,14.21h-7.12l3.4-14.21h-5.56l1.74-5.79Z"/>
      <path class="uuid-7d358e07-6cc8-49ff-a8ba-affc7a76f60b" d="m116.11,107.55c.96,0,1.74.77,1.74,1.73s-.77,1.74-1.74,1.74-1.73-.76-1.73-1.74.77-1.73,1.73-1.73Zm0,3.26c.85,0,1.52-.68,1.52-1.52s-.68-1.52-1.52-1.52-1.52.68-1.52,1.52.67,1.52,1.52,1.52Zm-.67-2.41c.09,0,.1-.01.28-.03.17-.01.25-.02.32-.02.57,0,.85.22.85.64,0,.26-.11.41-.34.5h-.03s.03.03.03.04c.06.05.26.36.43.63h-.65c-.13-.25-.17-.32-.34-.6v.6h-.56v-1.77Zm.62.83c.15,0,.24-.07.24-.22s-.08-.21-.24-.21c-.03,0-.04,0-.07,0v.41s.04,0,.07,0Z"/>
      <path class="uuid-7d358e07-6cc8-49ff-a8ba-affc7a76f60b" d="m86.94,110.62c2,.59,4.19.93,6.24.93,2.78,0,4.9-.63,6.73-1.95,2.02-1.44,3.33-3.66,3.33-5.67,0-1.35-.59-2.58-1.63-3.45-.82-.66-1.67-1.17-3.4-1.98l-1.4-.66c-.46-.24-.69-.48-.69-.75,0-.72.91-1.26,2.16-1.26.93,0,2.03.27,4.15.96l1.46-5.41c-1.58-.43-3.12-.64-4.66-.64-5.81,0-10.29,3.18-10.29,7.29,0,2.16,1.44,3.69,5.03,5.37,1.7.78,1.99.99,1.99,1.53,0,.81-.88,1.32-2.32,1.32-1.27,0-2.91-.39-5.13-1.2h0s-1.56,5.58-1.56,5.58Z"/>
    </g>
  </g>
</svg>