<?xml version="1.0" encoding="UTF-8"?>
<svg id="Layer_1" data-name="Layer 1" xmlns="http://www.w3.org/2000/svg" xmlns:xlink="http://www.w3.org/1999/xlink" viewBox="0 0 169.71 216">
  <defs>
    <style>
      .cls-1 {
        clip-path: url(#clippath-4);
      }

      .cls-2 {
        fill: url(#linear-gradient-2);
      }

      .cls-3 {
        fill: #baa294;
      }

      .cls-4 {
        fill: #fff;
      }

      .cls-5 {
        fill: #00529b;
      }

      .cls-6 {
        fill: none;
      }

      .cls-7 {
        clip-path: url(#clippath-1);
      }

      .cls-8 {
        fill: #6e4739;
      }

      .cls-9 {
        fill: #bca394;
      }

      .cls-10 {
        clip-path: url(#clippath-3);
      }

      .cls-11 {
        fill: #ce1141;
      }

      .cls-12 {
        fill: #92715f;
      }

      .cls-13 {
        clip-path: url(#clippath-2);
      }

      .cls-14 {
        fill: #ab8f7f;
      }

      .cls-15 {
        fill: url(#linear-gradient);
      }

      .cls-16 {
        clip-path: url(#clippath);
      }

      .cls-17 {
        fill: #fdb927;
      }
    </style>
    <clipPath id="clippath">
      <rect class="cls-6" width="169.71" height="216"/>
    </clipPath>
    <clipPath id="clippath-1">
      <path class="cls-6" d="M23.09,34.74c-2.43.42-4.35.23-6,.04-1.19-.14-2.23-.27-3.23-.18,2.16,1.23,4.11,2.23,5.77,2.38-2.81.58-6.42.94-9.08.87,2.09.94,6.27,1.23,9.73.94-1.66,1.44-4.61,2.67-8.2,3.12,3.08.42,5.39.2,7.8-.44-.19,1.24-1.4,3.16-4.61,4.39,1.98.65,7.68.86,11.29.14.43,1.44-.79,2.96-3.05,3.7.44.44,1.59.25,3.14.06,2.4-.29,5.78-.58,9.06,1.43-2.02.22-4.69,1.3-5.07,2.14.27.6,2.14.44,4.31.28,2.62-.19,5.7-.39,6.96.76,1.15-1.59,4.97-1.01,7.94-.05-5.35-2.12-8.88-7.09-13.29-8.78,1.99.58,3.75.36,5.3.13,1.6-.23,2.98-.47,4.15.19,1.52.33,2.73.25,3.92.17,1.93-.13,3.82-.26,6.89,1.34-8.48-7.1-18.02-11.87-26.6-14.13-.43.58-.29,1.95.14,2.74-2.52-1.66-8.94-3.6-11.82-4.04.58,1.3,3.03,1.66,4.54,2.81"/>
    </clipPath>
    <linearGradient id="linear-gradient" x1="-215.37" y1="-291.67" x2="-215.15" y2="-291.67" gradientTransform="translate(52064.33 38442.7) rotate(90) scale(178.39 -178.39)" gradientUnits="userSpaceOnUse">
      <stop offset="0" stop-color="#ab8f7f"/>
      <stop offset="1" stop-color="#6e4739"/>
    </linearGradient>
    <clipPath id="clippath-2">
      <rect class="cls-6" width="169.71" height="216"/>
    </clipPath>
    <clipPath id="clippath-3">
      <path class="cls-6" d="M127.52,32.23c-.27-5.83-.15-11.21,1.02-16.07-3.39,2.21-3.89,7.45-3.54,11.13-1.96-.27-3.06-1.75-3.74-2.94-.56,2.02-.27,6.45.81,9.69-1.44-.97-2.52-3.1-4.1-4.04-.91,1.35.34,5.44,1.8,7.65-2.41-1.07-4.3-2.83-5.2-4.04-1.04,1.09-.25,4.68,1.01,8.1-2.15-3.1-4.63-4.09-6.53-4.44-.61,1.37-.34,4.25.79,6.24,1.13,1.98,3.53,5.62,3.53,5.62,0,0-2.91-7.47-2.02-8.79.45,2.57,5.51,3.92,8.52,13.24.28-7.53-2.75-11.54-2.62-14.6,4.65,1.86,3.96,9.04,5.91,13.36,1.65-2.98-.54-12.82-.46-15.11,2.4,3.64,2.32,8.36,4.3,10.9-.39-3.54-.72-11.94.49-13.44-.18,5.07.24,7.59,1.89,10.04.75-4.64,3.23-5.76,3.94-9.97,1.33,2.22.92,10.36-.93,13.55,1.51.19,3.46-1.42,4.34-4.19.62,3.15,1.23,5.38-2.73,11.22,6.71-6.51,15.61-25.19,18.29-28-3.17,1.07-8.52,8.22-10.6,9.22.24-5.12,5.79-13.48,8.45-16.43-6.1,2.23-11.56,17.04-15.18,18.42-.16-1.95,7.23-17,8.37-24.28-2.97,1.69-7.23,15.53-10.9,15.89-.62-3.92,2.77-12.81,3.82-16.04-4.47,1.84-6.6,14.23-8.7,18.1"/>
    </clipPath>
    <linearGradient id="linear-gradient-2" x1="-214.75" y1="-290.57" x2="-214.54" y2="-290.57" gradientTransform="translate(54380.33 40110.03) rotate(90) scale(186.7 -186.7)" gradientUnits="userSpaceOnUse">
      <stop offset="0" stop-color="#9e7f6f"/>
      <stop offset="1" stop-color="#6e4739"/>
    </linearGradient>
    <clipPath id="clippath-4">
      <rect class="cls-6" width="169.71" height="216"/>
    </clipPath>
  </defs>
  <g class="cls-16">
    <path class="cls-11" d="M154.64,133.3c0,24.63-13.18,46.16-32.89,57.94v5.78h-12.37c-6.95,2.42-14.43,3.75-22.21,3.75s-15.26-1.32-22.22-3.75c-3.59,0-12.34,0-12.34,0,0,0,0-3.94,0-5.76-19.71-11.78-32.91-33.33-32.91-57.96,0-37.26,30.21-67.47,67.47-67.47s67.47,30.21,67.47,67.47M87.17,82.44c-28.09,0-50.86,22.77-50.86,50.86,0,14.86,6.37,28.24,16.54,37.53,9.52,0,61.52,0,68.65,0,10.16-9.3,16.54-22.67,16.54-37.54,0-28.09-22.77-50.86-50.86-50.86"/>
    <path class="cls-4" d="M153.19,133.3c0,24.43-13.27,45.77-33,57.19,0,2.14,0,5,0,5,0,0-8.48,0-10.78,0-6.95,2.49-14.44,3.83-22.24,3.83s-15.27-1.35-22.22-3.83c-2.66,0-10.78,0-10.78,0v-4.99c-19.75-11.41-33.02-32.75-33.02-57.19,0-36.46,29.56-66.02,66.02-66.02s66.02,29.56,66.02,66.02M87.17,80.92c-28.93,0-52.38,23.45-52.38,52.38,0,15.56,6.78,29.53,17.55,39.13,11.07,0,61.24,0,69.65,0,10.77-9.59,17.56-23.57,17.56-39.13,0-28.93-23.45-52.38-52.38-52.38"/>
    <path class="cls-5" d="M48.3,170.54c-.33-.35-.66-.7-.98-1.05l-7.95,7.21c.39.43.78.84,1.18,1.26l7.76-7.42Z"/>
    <path class="cls-5" d="M50.27,172.49c-.34-.32-.68-.64-1.01-.97l-7.56,7.62c.39.39.79.77,1.19,1.15l7.38-7.8Z"/>
    <path class="cls-5" d="M44.6,166.25c-7.06-9.11-11.26-20.53-11.26-32.95,0-29.73,24.1-53.83,53.83-53.83s53.83,24.1,53.83,53.83c0,12.4-4.19,23.82-11.24,32.92l8.49,6.57c8.45-10.92,13.49-24.61,13.49-39.49,0-35.66-28.91-64.57-64.57-64.57S22.61,97.64,22.61,133.3c0,14.89,5.04,28.6,13.51,39.52l8.49-6.57Z"/>
    <path class="cls-5" d="M38.25,175.43l8.14-6.99c-.31-.35-.61-.72-.9-1.08l-8.31,6.8c.35.43.71.85,1.07,1.27"/>
    <path class="cls-5" d="M54.57,176.14c-.37-.28-.74-.57-1.1-.87l-6.74,8.35c.44.36.89.71,1.34,1.05l6.5-8.54Z"/>
    <path class="cls-5" d="M52.38,174.37c-.36-.3-.71-.61-1.06-.92l-7.16,8c.42.38.84.74,1.27,1.11l6.95-8.18Z"/>
    <path class="cls-5" d="M126.11,170.51c.33-.35.66-.7.98-1.05l7.95,7.21c-.39.42-.78.84-1.18,1.26l-7.76-7.42Z"/>
    <path class="cls-5" d="M124.13,172.46c.34-.32.68-.65,1.01-.97l7.56,7.62c-.39.39-.79.77-1.19,1.15l-7.38-7.8Z"/>
    <path class="cls-5" d="M136.16,175.4l-8.14-6.99c.31-.36.61-.71.9-1.08l8.31,6.8c-.35.43-.71.85-1.07,1.27"/>
    <path class="cls-5" d="M119.84,176.1c.37-.28.74-.57,1.1-.87l6.74,8.35c-.44.36-.89.71-1.34,1.05l-6.5-8.54Z"/>
    <path class="cls-5" d="M122.03,174.34c.36-.3.71-.61,1.06-.92l7.16,8c-.42.37-.84.74-1.27,1.11l-6.95-8.18Z"/>
    <polygon class="cls-4" points="35.62 158.08 34.3 155.27 35.33 154.79 37.19 158.79 31.53 161.44 30.97 160.25 35.62 158.08"/>
    <rect class="cls-4" x="28.81" y="153.95" width="6.25" height="1.31" transform="translate(-53.5 21.86) rotate(-21.1)"/>
    <path class="cls-4" d="M28.18,153.55l-.87-2.91c-.44-1.47.37-2.12.98-2.3.86-.26,1.25.15,1.45.37.06-.82.58-1.18,1.18-1.36.48-.14.99-.08,1.39.15.44.24.74.51,1.11,1.73l.76,2.54-5.99,1.79ZM30.16,151.65l-.44-1.47c-.15-.49-.46-.83-.93-.68-.49.15-.54.54-.37,1.11l.43,1.44,1.31-.39ZM32.77,150.87l-.46-1.54c-.18-.61-.55-.88-1.16-.7-.53.16-.59.67-.46,1.12l.48,1.59,1.6-.48Z"/>
    <polygon class="cls-4" points="26.59 142.34 27.2 145.6 28.49 145.36 27.93 142.36 29.02 142.16 29.58 145.16 31.17 144.86 30.53 141.45 31.62 141.24 32.49 145.91 26.35 147.06 25.5 142.54 26.59 142.34"/>
    <path class="cls-4" d="M25.27,140.85l-.25-3.15c-.13-1.66,1.07-2.06,1.6-2.11.69-.06,1.3.24,1.56.84.18-.53.35-.82,1.52-.92.91-.07,1.14-.09,1.22-.38h.17s.12,1.43.12,1.43c-.29.11-.61.19-1.25.24-.85.07-1.18.15-1.1,1.11l.11,1.35,2.44-.2.1,1.28-6.23.5ZM27.78,137.83c-.05-.68-.32-.99-.93-.94-.33.03-.8.21-.74.98l.13,1.62,1.67-.14-.12-1.53Z"/>
    <polygon class="cls-4" points="31.13 131.75 31.11 133.06 25.97 132.98 25.94 134.87 24.83 134.85 24.91 129.77 26.02 129.78 25.99 131.67 31.13 131.75"/>
    <polygon class="cls-4" points="31.54 126.36 31.39 127.66 29.05 127.39 24.94 129.11 25.11 127.58 27.95 126.59 25.39 125.06 25.55 123.59 29.21 126.1 31.54 126.36"/>
    <polygon class="cls-4" points="34.13 115.12 33.72 116.36 28.83 114.75 28.24 116.54 27.19 116.2 28.78 111.37 29.83 111.71 29.24 113.51 34.13 115.12"/>
    <path class="cls-4" d="M29.22,110.24l1.29-2.89c.68-1.52,1.92-1.3,2.42-1.08.63.28,1.03.84.97,1.49.42-.38.7-.55,1.77-.08.84.37,1.04.46,1.25.25l.15.07-.59,1.32c-.31-.04-.62-.12-1.21-.39-.78-.35-1.1-.43-1.5.45l-.55,1.23,2.24,1-.52,1.17-5.71-2.54ZM32.88,108.79c.28-.62.2-1.02-.37-1.27-.3-.13-.81-.2-1.12.5l-.66,1.49,1.53.68.62-1.4Z"/>
    <path class="cls-4" d="M38.07,101.86c1.42.83,1.53,2.04.74,3.4-.29.5-.84,1.16-1.65,1.34-.5.1-1-.04-1.56-.34l-3.58-2.09.67-1.15,3.51,2.04c.75.44,1.34.19,1.65-.33.45-.78.26-1.31-.4-1.69l-3.56-2.07.67-1.15,3.52,2.05Z"/>
    <polygon class="cls-4" points="42.14 99.91 41.37 100.97 37.2 97.95 36.09 99.48 35.2 98.83 38.18 94.71 39.08 95.36 37.97 96.89 42.14 99.91"/>
    <polygon class="cls-4" points="42.36 95.12 44.45 96.99 43.58 97.96 38.91 93.81 39.78 92.83 41.55 94.4 43.17 92.58 41.4 91.01 42.27 90.03 46.94 94.19 46.07 95.16 43.98 93.3 42.36 95.12"/>
    <path class="cls-4" d="M123.64,88.34c-.8,1.05-1.74,1.15-2.74.39-1.66-1.26-.85-2.31-.13-3.26l.97.74c-.6.78-.83,1.21-.28,1.63.54.41.85.1,1.14-.28l2.69-3.53,1.04.79-2.69,3.53Z"/>
    <path class="cls-4" d="M128.57,92.26c-1.12,1.21-2.33,1.05-3.48-.02-.42-.39-.95-1.07-.94-1.9.01-.51.26-.97.67-1.44l2.82-3.04.98.91-2.76,2.98c-.59.64-.48,1.26-.03,1.68.66.61,1.22.54,1.74-.02l2.8-3.02.98.91-2.76,2.99Z"/>
    <path class="cls-4" d="M129.89,94.08c-.26.24-.64.8.11,1.66.41.46.97.88,1.47.45.37-.32.15-.76-.16-1.36l-.32-.61c-.49-.91-.96-1.8.07-2.71.52-.46,1.69-.99,3.03.54,1.26,1.44.66,2.65.09,3.17l-.83-.94c.19-.21.61-.73-.14-1.58-.33-.37-.86-.7-1.28-.32-.37.32-.18.69-.05.93l.72,1.39c.41.78.66,1.6-.18,2.34-1.41,1.24-2.8-.09-3.16-.5-1.51-1.71-.78-2.88-.19-3.39l.83.94Z"/>
    <polygon class="cls-4" points="133.04 101.07 132.28 100.01 136.46 97 135.35 95.47 136.25 94.82 139.22 98.94 138.33 99.59 137.22 98.06 133.04 101.07"/>
    <rect class="cls-4" x="134.26" y="101.32" width="6.25" height="1.31" transform="translate(-33.16 88.34) rotate(-32.01)"/>
    <path class="cls-4" d="M141.3,106.73c.28-.27.82-.77.31-1.73-.29-.56-1.09-1.18-2.66-.36-1,.52-1.69,1.38-1.17,2.36.33.64.93.9,1.68.68l.61,1.16c-1.33.4-2.58.05-3.31-1.34-.77-1.47-.33-3.05,1.58-4.05,1.94-1.01,3.51-.41,4.26,1.02.87,1.66.08,2.93-.71,3.42l-.61-1.16Z"/>
    <polygon class="cls-4" points="144.96 112.95 143.73 109.86 142.51 110.35 143.63 113.18 142.61 113.59 141.48 110.76 139.98 111.35 141.25 114.58 140.23 114.98 138.48 110.57 144.29 108.27 145.98 112.54 144.96 112.95"/>
    <polygon class="cls-4" points="148.02 126.3 147.52 123.02 146.22 123.22 146.68 126.24 145.59 126.4 145.13 123.39 143.53 123.63 144.05 127.06 142.96 127.23 142.24 122.54 148.42 121.59 149.12 126.14 148.02 126.3"/>
    <path class="cls-4" d="M142.82,133.17l.67-.77c-.37-.58-.47-1.22-.49-1.58-.04-.83.23-3.02,3.16-3.15,2.93-.13,3.38,2.03,3.42,2.86.04.83-.23,3.02-3.16,3.15-1.03.05-1.75-.19-2.26-.56l-.61.71-.73-.66ZM145.61,131.45l-.59.69c.33.16.77.25,1.35.23,1.75-.08,2.14-1.09,2.11-1.79-.03-.71-.51-1.68-2.26-1.6-1.75.08-2.14,1.09-2.11,1.79,0,.22.06.47.2.7l.56-.65.73.64Z"/>
    <path class="cls-4" d="M145.12,139.7c-1.64-.11-2.28-1.15-2.18-2.72.04-.57.23-1.42.89-1.93.4-.31.92-.41,1.54-.39l4.14.27-.09,1.33-4.05-.27c-.87-.06-1.29.42-1.33,1.03-.06.89.35,1.29,1.11,1.34l4.11.27-.09,1.33-4.06-.27Z"/>
    <path class="cls-4" d="M142.71,141.08l.23-1.36,5.8,3.24-.25,1.49-6.53,1.14.24-1.4,1.34-.18.38-2.28-1.2-.64ZM144.92,142.25l-.26,1.57,2.57-.35v-.02s-2.3-1.2-2.3-1.2Z"/>
    <polygon class="cls-4" points="142.52 147.76 141.7 150.76 140.61 150.46 141.77 146.2 147.8 147.85 147.46 149.11 142.52 147.76"/>
    <rect class="cls-4" x="142.41" y="149.67" width="1.31" height="6.25" transform="translate(-48.32 237.57) rotate(-70.77)"/>
    <polygon class="cls-4" points="138.51 155.85 139.02 154.65 143.76 156.67 144.5 154.93 145.52 155.36 143.52 160.04 142.51 159.61 143.25 157.87 138.51 155.85"/>
    <polygon class="cls-4" points="136.1 160.69 136.72 159.54 138.79 160.67 143.25 160.64 142.51 161.99 139.5 161.83 141.3 164.22 140.59 165.52 138.15 161.81 136.1 160.69"/>
    <path class="cls-17" d="M61.23,174.84v18.28h5.09s0-5.49,0-6.75h5.19v-5.02h-5.19v-1.49h6.42v-5.02h-11.52ZM71.94,175.65v3.41h-6.42v3.1h5.19v3.41h-5.19c0,.4,0,6.74,0,6.74h-3.48v-16.67h9.91Z"/>
    <path class="cls-17" d="M101.58,174.84v18.28h11.52v-5.02h-6.42v-1.73h5.19v-5.02h-5.19v-1.48h6.42v-5.02h-11.52ZM112.29,175.65v3.41h-6.42v3.1h5.19v3.41h-5.19v3.34h6.42v3.41h-9.91v-16.67h9.91Z"/>
    <path class="cls-17" d="M81.25,175.93c-1.55.9-2.79,2.13-3.67,3.66-.89,1.53-1.34,3.24-1.34,5.06,0,2.72.96,5.1,2.86,7.08,1.91,1.99,4.34,3,7.21,3s5.12-.98,7.05-2.91c1.93-1.93,2.91-4.32,2.91-7.11s-.99-5.22-2.94-7.17c-1.95-1.96-4.32-2.95-7.04-2.95-1.79,0-3.49.45-5.04,1.35M83.48,188.16h0c-1.05-.85-1.56-1.99-1.56-3.48,0-1.33.42-2.44,1.25-3.28.83-.85,1.84-1.26,3.07-1.26s2.22.42,3.07,1.3c.86.88,1.28,1.94,1.28,3.22s-.41,2.35-1.26,3.22c-.84.86-1.83,1.28-3.02,1.28-1.05,0-2-.34-2.82-1"/>
    <path class="cls-4" d="M86.28,175.59c-1.61,0-3.14.41-4.53,1.21-1.4.81-2.51,1.91-3.31,3.29-.8,1.38-1.2,2.91-1.2,4.55,0,2.45.87,4.6,2.58,6.38,1.71,1.78,3.9,2.69,6.48,2.69s4.6-.88,6.34-2.62c1.73-1.74,2.61-3.89,2.61-6.4s-.89-4.7-2.65-6.46c-1.76-1.76-3.88-2.65-6.32-2.65M82.84,188.95c-1.28-1.04-1.93-2.47-1.93-4.26,0-1.61.52-2.95,1.54-3.99,1.02-1.04,2.3-1.56,3.79-1.56s2.76.54,3.79,1.6c1.04,1.07,1.56,2.39,1.56,3.93s-.52,2.87-1.55,3.92c-1.03,1.05-2.29,1.59-3.75,1.59-1.29,0-2.45-.41-3.45-1.22"/>
    <polygon class="cls-5" points="112.08 175.65 102.39 175.65 102.39 192.32 112.29 192.32 112.29 188.91 105.87 188.91 105.87 185.57 111.06 185.57 111.06 182.16 105.87 182.16 105.87 179.06 112.29 179.06 112.29 175.65 112.08 175.65"/>
    <path class="cls-11" d="M71.73,175.65h-9.69v16.67h3.48s0-6.34,0-6.74h5.19v-3.41h-5.19v-3.1h6.42v-3.41h-.21Z"/>
    <path class="cls-5" d="M113.87,162.96c0-1.88,1.52-3.26,3.32-3.26s3.3,1.38,3.3,3.26-1.52,3.28-3.3,3.28-3.32-1.38-3.32-3.28M117.19,165.7c1.48,0,2.65-1.16,2.65-2.73s-1.17-2.72-2.65-2.72-2.66,1.17-2.66,2.72,1.17,2.73,2.66,2.73M116.5,164.86h-.57v-3.77h1.44c.89,0,1.33.33,1.33,1.07,0,.67-.42.97-.98,1.04l1.07,1.66h-.64l-.99-1.64h-.66v1.64ZM117.18,162.74c.48,0,.92-.03.92-.61,0-.47-.42-.55-.82-.55h-.78v1.17h.68Z"/>
    <path class="cls-8" d="M78.37,60.72c1.09,1.67,2.41,2.41,3.57,2.71-.63-1.23-1.24-2.5-1.12-4.01,1.79-1.08,4.3-.26,6.15.2-1.5-.76-2.63-1.42-3.06-3.92,2.27-1.03,5.85.14,7.46.88-1.91-1.33-3.56-4.94-3.5-6.72,3.18-.57,7.38,1.37,9.79,2.25-3.84-2.18-4.51-6.17-4.4-7.42,2.08-.47,3.83.07,5.29.9-1.05-1.15-.95-2.75.16-4.26,1.64.85,2.79,1.04,3.59.94-.87-1.12.19-3.21.67-4.07,1.44,1.66,3.72,2.5,5.3,3.95-1.12-2.13-1.18-4.47-.01-6.64,1.37.38,2.48.98,5.16,2.33-.71-2.68-.77-4.79.69-6.95.8,1.08,1.93,2.62,3.42,3.62-.94-2.4-1.58-5.04-.36-7.22.71.92,1.26,1.63,3,2.99-.68-4.27-.41-7.44,1.17-8.99.9,1.29,1.16,2.59,2.42,3.93-.23-4.42,1.99-9.91,6.64-11.65-1.47,3.29-1.26,8.83-1.99,14.09,1.21-3.12,2.88-14.32,9.93-15.24-1.08,1.68-4.79,14.17-5.02,16.27,2.2-1.65,6.62-15.65,12.06-16.95-1.74,5.22-4.47,16.1-8.82,24.45,1.96-1.7,8-17.88,16.73-17.71-2.74,1.6-11.49,15.45-9.74,15.56,2.95-4.6,8.43-8.2,11.91-8.74-4.08,3.13-8.93,13.63-13.04,21.2-4.11,7.57-8.89,10.57-12.9,15.57-4.01,5-20.84,31.82-21.62,33.45-1.39,2.89-.33,6.33,2.83,7.75,1.48.67,3.86,1.92,4.17,3.26.13-.66.16-1.19.4-1.72,1.32.37,4.01,2.3,4.63,3.52.08-.57.23-.95.62-1.48.91.79,3.8,3.66,5.31,4.91-.13-.73.1-1.47.55-2.01.29,1.92,6.42,6.54,4.81,11.07.98,2.08.07,5.7.82,7.05,1.8,3.24,1.22,5.79-.12,7.3-1.34,1.3-3.65,1.67-4.99.1.82,0,1.78-.35,2-1.14.43-1.57-.35-3.49-2.39-4.51,1.08,2.15-1.58,3.32-.25,4.85-2.28,1-3.53-1.54-3.3-3.53-.55-.07-.94-.6-1.08-1.24-1.51-.43-2.68-1.85-3.45-2.88-.74-.98-2.09-1.73-4.46-1.18-.23-.83-.14-1.49.36-1.83-.72-.08-3.3-.39-4.53,1.52-.95,1.48-1.47,2.99-3.9,4.5-3.73.41-6.45,3.84-10.85,3.32.36,1.15.31,2.27.14,3.26.96.79,2.57,2.06,3.21,2.56,2.66-4.31,6.64-4.19,8.8-.38,1.66.33,2.53.86,2.97,1.32.6.62,1,2.16.98,2.96-.03,1.41-.6,3.05-2.74,2.58.83-1.27.22-1.94-.35-2.64-.57-.15-2.06-.27-2.06-.27,0,0,1.36,1.52,1.85,2.21.5.69,1.02,2.03.74,2.99-.35,1.19-2.28,2.27-4.56,1.99.68-.82,1.61-2.07.52-2.87-1.19-.69-2.05-1.65-2.5-1.8-1.5.85-1.38.07-3.09.47-1.71.4-1.87,0-2.49,1.2,2.24.02,4.46,4.72,1.32,6.32.15-2.38-1.65-3.38-3.08-2.5,1.75.57,2.69,1.86,2.87,2.54.66,2.47-.34,4.61-3.11,4.68,1.44-1.61.68-3.93-1.37-4.57-.38.53-1.24.9-2.1.93.41-.47.42-.9.34-1.51-.9.92-3.17.66-3.71,1.49.02.63-.52,1.41-1.15,1.72-.79,1.94-.11,3.9,2.73,3.3-.93,2.77-4.31,2.4-5.37,1.31-1.14-1.17-1.45-2.9-1.82-3.68-.48-1.02-.49-1.93-.16-2.71.57-1.37,1.58-2.43,2.48-3.04-.46-1.86-2.44-4.96-3.62-6.14-1.23,1.64-3.34.45-4.8-.07-3.07,3.48-4.47,8.79-5.48,12.69-.5,1.93-1.73,3.05-3.03,3.17-1.15-.29-2.14-1.33-2.32-2.19-.34.52-.97.9-1.84.79-.66-.41-.91-1.12-.91-1.12,0,0-.89,1.12-2.33,1.25-1.03-.47-1.01-1.84-1.01-1.84,0,0-1.73,1.8-3.91,1.59-.82-.76-1.02-2.12-1.02-2.12,0,0-2.07.51-3.6.14-.53-.63-.49-1.57-.49-1.57,0,0-1.14.33-2.68-.18-.55-1.06-.55-1.9-.38-2.44-1.32-.19-2.47-1.48-1.55-3.24-1.43.34-2.53.21-3.66-.72.18-1.33.65-2.68,1.19-3.45-1.85-.04-3.54-.5-4.11-1.92,1.6-1.91,1.47-3.56-.21-3.97,3.14-6.93,15.03-8.32,18.97-12.28,1.94-1.95,6.17-4.92,9.46-7.58,1.43-1.96,3.32-3.6,5.75-4.91-2.88,1.23-4.9,1.37-6.7-.36.14-1.23.65-2.16,1.59-2.74-2.52.22-4.18-.43-5.41-2.31.43-1.3,1.36-2.21,2.74-2.96-1.64.03-3.86-.92-4.58-2.48,2.04-2.17,6.52-2.99,8.51-4.26-3.22.64-8.41,1.19-10.45-1.12,1.01-1.14,2.64-2.11,4.44-2.52-1.66-.08-6.11-.43-6.76-1.94,1.34-.47,3.05-1.5,4.28-2.67-1.79.46-4.3.33-6.97-2.01,1.68-.4,3.81-1.56,5.48-3.05-2.7.37-6.37.43-8.97-2.73,1.72-2.1,5.88-2.64,6.19-3.36-2.51-1.39-6.33-.72-7.69-4.64,2.72-.39,5.28-2.29,6.11-3.69-1.55-1.42-4.5.65-4.33-2.51-1.27-.95-2.59-1.28-4.52-1.05.16-1.06,1.86-3.23,2.84-3.5-2.73-.42-4.74-1.39-5.77-2.83,1.05-1.75,2.03-1.65,2.51-2.92-3.6-1.86-5.19.14-7.77-2.14.29-1.16,2-2.07,2.92-2.19-4.1-1.72-9.11.99-11.24-1.24.73-1.91,2.73-2.15,3.52-2.62-4.62-1.76-8.02,1.46-10.66-1.19.5-1.2,3.17-1.43,2.94-2.61-2.41.3-8.84.61-12.05-1.48,2.72-.76,4.22-1.86,5.36-3.2-2.31.22-7.81,1.17-8.72-.77,1.45-.7,6.49-1.62,7.72-2.21-2.94,0-8.15.05-9.53-2.5,2.43-.48,6.42-.22,8.75-.33-1.12-.31-5.06-2.03-5.35-2.91,2.68-.63,5.19.12,9.09.23-2.09-.58-3.32-1.87-3.53-3.31,2.23-.1,10.83,2.28,12.38,3.4-.32-.83-.31-1.58-.03-2.32,6.02,1.12,16.63,5.73,22.19,9.81,10.98,7.71,16.04,13.12,26.33,22.97-.72-1.56-.53-3.01.76-3.91M93.41,146.56c.13-1.02.84-2.42,1.9-2.97-.04-1.08-1.86-3.32-2.97-4.14-.92.32-1.38,1.71-2.98,1.34-.18.94-.53,1.32-1.46,1.5-.59-.34-.41-1.35-1.59-1.89-.8,1.69.01,5.84,1.57,7.08,1.93-1.97,3-2.13,4.86-.76.22.16.63.11.66-.16"/>
  </g>
  <g class="cls-7">
    <rect class="cls-15" x="8.75" y="19.67" width="49.86" height="46.92" transform="translate(-19.85 31.74) rotate(-40)"/>
  </g>
  <g class="cls-13">
    <path class="cls-4" d="M40.02,139.1c2.49-3.68,11.28-6.31,17.62-10.02,1.5-1.74,6.22-5.72,9.19-7.84-3.71,3.95-9.09,19.39-16.53,23.83,8,3.79,20.14-4.42,24.72-1.52-1.93-.12-3.93.39-7.08,2.82,3.68-1.95,5.65-2.04,6.86-1.71-2.98,2.88-4.7,10.13-5.07,11.46-.43,1.59-.94,2.81-2.31,3.39-1.15-.58-1.71-1.58-1.8-2.71-.36.64-.77,1.16-1.84,1.49-.81-.33-1.06-1.08-1.14-1.62-.4.74-1.38,1.71-2.24,1.67-.38-.49-.63-1.27-.39-2.73-.89,1.26-2.93,2.57-4.3,2.62-.46-.63-.78-1.56-.61-2.72-.97.98-2.7,1.19-4.01.88-.23-.42-.55-1.13-.08-2.09-1.06.62-2.07.59-2.94.4-.31-.57-.5-1.64.12-2.46-2.22.3-2.95-1.76-1.23-3.78-1.78.72-3,.77-4.16.07.16-1.05.77-2.53,1.5-3.57-1.9.07-3.32-.59-4.19-1.42,1.34-1.35,1.57-4.05-.08-4.47"/>
  </g>
  <g class="cls-10">
    <rect class="cls-2" x="104.86" y="10.28" width="50.98" height="48.92" transform="translate(-4.26 25.85) rotate(-11.15)"/>
  </g>
  <g class="cls-1">
    <path class="cls-3" d="M89.25,73.92c.82,1.71,1.99,4.26,1.71,4.98-.56-.37-1.32-3-1.71-4.98"/>
    <path class="cls-3" d="M88.23,67.79c.29,1.15,2.05,3.64,1.7,4.98-.33-1.08-2.1-3.63-1.7-4.98"/>
    <path class="cls-3" d="M85.91,66.13c.29,1.15,2.05,3.64,1.71,4.98-.34-1.08-2.1-3.63-1.71-4.98"/>
    <path class="cls-3" d="M83.94,65.67c.29,1.15,1.53,2.24,1.19,3.57-.33-1.08-1.59-2.22-1.19-3.57"/>
    <path class="cls-3" d="M82.24,64.98c.29,1.15,1.53,2.24,1.19,3.57-.34-1.08-1.59-2.22-1.19-3.57"/>
    <path class="cls-3" d="M79.96,64.16c.29,1.15,1.16,1.89,1.08,3.05-.33-1.08-1.06-1.72-1.08-3.05"/>
    <path class="cls-3" d="M96.5,73.28c.29,1.15,1.16,1.89,1.08,3.05-.33-1.08-1.06-1.72-1.08-3.05"/>
    <path class="cls-3" d="M90.32,69.55c.29,1.15,2.05,3.64,1.71,4.98-.33-1.08-2.1-3.63-1.71-4.98"/>
    <path class="cls-3" d="M88.91,78.54c.72.79,1.83,2.74,1.19,3.98-.3-.94-.22-1.71-1.19-3.98"/>
    <path class="cls-3" d="M90.23,80.16c.72.79,1.36,2.72.72,3.96-.42-.62.25-1.69-.72-3.96"/>
    <path class="cls-3" d="M91.38,81.86c.72.79,1.36,2.72.72,3.96-.42-.62.25-1.69-.72-3.96"/>
    <path class="cls-3" d="M92.73,83.35c.72.79,1.36,2.72.72,3.96-.42-.62.25-1.69-.72-3.96"/>
    <path class="cls-3" d="M89.16,61.8c1.08,1.18,1.29,3.79,2.08,4.72-1.39-.63-1.51-3.39-2.08-4.72"/>
    <path class="cls-3" d="M87.13,61c1.08,1.18,1.22,3.74,2.01,4.68-1.39-.63-1.44-3.34-2.01-4.68"/>
    <path class="cls-3" d="M85.46,60.78c1.08,1.18,1,3.24,1.79,4.18-1.39-.63-1.22-2.84-1.79-4.18"/>
    <path class="cls-3" d="M83.84,60.56c.81,1.35.66,2.1,1.08,3.05-1.14-1.17-.52-1.71-1.08-3.05"/>
    <path class="cls-3" d="M91.44,63.59c1.08,1.18,1.29,3.79,2.08,4.72-1.39-.63-1.51-3.39-2.08-4.72"/>
    <path class="cls-3" d="M93.23,64.08c1.08,1.18,1.44,4.55,2.23,5.48-1.39-.63-1.66-4.14-2.23-5.48"/>
    <path class="cls-3" d="M95.09,65.23c1.08,1.18,1.58,4.94,2.36,5.87-1.39-.63-1.8-4.54-2.36-5.87"/>
    <path class="cls-3" d="M93.51,57.87c1.08,1.18,2.9,4.02,2.69,5.69-.78-1.18-1.76-4-2.69-5.69"/>
    <path class="cls-3" d="M92.42,58.45c1.08,1.18,1.54,2.29,1.58,4.34-.72-1.49-.65-2.65-1.58-4.34"/>
    <path class="cls-3" d="M91.21,57.54c1.08,1.18,1.54,2.29,1.58,4.34-.72-1.49-.65-2.65-1.58-4.34"/>
    <path class="cls-3" d="M89.94,56.88c1.08,1.18,1.54,2.29,1.58,4.34-.72-1.49-.65-2.65-1.58-4.34"/>
    <path class="cls-3" d="M88.59,56.18c1.08,1.18,1.37,1.72,1.25,2.96-.19-.99-.61-1.87-1.25-2.96"/>
    <path class="cls-3" d="M87.64,55.94c1.08,1.18,1.37,1.72,1.25,2.96-.2-.99-.61-1.87-1.25-2.96"/>
    <path class="cls-3" d="M86.83,56.11c.94.78,1.01,1.13.89,2.36-.19-.99-.25-1.28-.89-2.36"/>
    <path class="cls-3" d="M95.32,59.02c1.08,1.18,2.57,4.2,2.36,5.88-.78-1.18-1.43-4.19-2.36-5.88"/>
    <path class="cls-3" d="M97.32,60.32c1.08,1.18,2.58,4.2,2.36,5.87-.78-1.18-1.43-4.19-2.36-5.87"/>
    <path class="cls-3" d="M98.59,61.22c1.08,1.18,2.57,4.2,2.36,5.87-.78-1.18-1.43-4.19-2.36-5.87"/>
    <path class="cls-3" d="M100.73,62.61c1.08,1.18,2.57,4.2,2.36,5.87-.78-1.17-1.43-4.19-2.36-5.87"/>
    <path class="cls-3" d="M100.37,48.85c1.55.84.92,4.65,2.4,6.35-1.53-1.63-2.22-4.82-2.4-6.35"/>
    <path class="cls-3" d="M98.03,46.47c1.55.84,1.67,4.5,2.4,6.35-1.24-1.99-1.64-4.33-2.4-6.35"/>
    <path class="cls-3" d="M96.71,45.58c1.22,1.27,1.22,3.14,1.95,4.99-1.24-1.99-1.19-2.97-1.95-4.99"/>
    <path class="cls-3" d="M95.48,45.16c1.22,1.27,1.12,2.32,1.64,3.72-.89-1.45-.88-1.7-1.64-3.72"/>
    <path class="cls-3" d="M102.24,50.96c1.55.84.92,4.65,2.4,6.35-1.53-1.63-2.22-4.82-2.4-6.35"/>
    <path class="cls-3" d="M104.08,53.55c1.55.84.92,4.65,2.4,6.35-1.53-1.63-2.22-4.82-2.4-6.35"/>
    <path class="cls-3" d="M105.75,55.94c1.55.84.92,4.65,2.4,6.35-1.53-1.63-2.22-4.82-2.4-6.35"/>
    <path class="cls-3" d="M103.75,46.07c1.23,1.63,1.24,2.59,1.56,5.49-.62-2.23-1.57-3.68-1.56-5.49"/>
    <path class="cls-3" d="M101.57,43.3c1.23,1.63,1.49,2.97,1.82,5.86-.62-2.23-1.82-4.05-1.82-5.86"/>
    <path class="cls-3" d="M99.72,42.45c1.23,1.63,1.6,2.28,1.65,4.38-.41-1.49-1.65-2.57-1.65-4.38"/>
    <path class="cls-3" d="M105.66,49.32c1.23,1.63.96,2.41,1.29,5.3-.62-2.23-1.29-3.49-1.29-5.3"/>
    <path class="cls-3" d="M107.64,52.97c1.23,1.63,1.12,2.01,1.45,4.91-.62-2.23-1.45-3.09-1.45-4.91"/>
    <path class="cls-3" d="M109.99,56.31c1.23,1.63.88,2,1.21,4.9-.62-2.23-1.21-3.08-1.21-4.9"/>
    <path class="cls-3" d="M108.82,44.53c1.08,1.18,1.87,5.49,1.39,7.03-.32-1.63-.82-5.7-1.39-7.03"/>
    <path class="cls-3" d="M107.08,42.75c1.08,1.18,1.87,5.49,1.39,7.03-.32-1.63-.82-5.7-1.39-7.03"/>
    <path class="cls-3" d="M110.79,37.37c1.71,1.95.66,5.18,1.39,7.03-1.14-1.83-.82-5.7-1.39-7.03"/>
    <path class="cls-3" d="M112.01,39.85c1.71,1.96.66,5.18,1.39,7.03-1.15-1.83-.82-5.7-1.39-7.03"/>
    <path class="cls-3" d="M115.11,34.77c.22,1.71-.76,1.96,0,5.55-.83-2.67-.8-4.37,0-5.55"/>
    <path class="cls-3" d="M114.2,33.2c.22,1.71-.76,1.96,0,5.55-.83-2.67-.8-4.37,0-5.55"/>
    <path class="cls-3" d="M115.7,36.22c.22,1.71-.76,1.96,0,5.55-.83-2.68-.8-4.37,0-5.55"/>
    <path class="cls-3" d="M116.32,37.85c.22,1.71-.76,1.96,0,5.55-.83-2.67-.8-4.37,0-5.55"/>
    <path class="cls-3" d="M117.01,39.83c.22,1.71-.76,1.96,0,5.55-.83-2.67-.8-4.37,0-5.55"/>
    <path class="cls-3" d="M118.05,42.04c.22,1.71-.25,3.31.18,6.73-.83-2.67-.97-5.55-.18-6.73"/>
    <path class="cls-3" d="M118.78,31.33c-.27,1.68-.22,2.58-.14,4.5-.55-2.19-.65-3.31.14-4.5"/>
    <path class="cls-3" d="M117.95,29.56c-.27,1.68-.22,2.58-.14,4.5-.55-2.19-.65-3.31.14-4.5"/>
    <path class="cls-3" d="M119.82,32.93c-.05,1.88-.33,2.3-.29,4.65-.31-2.48-.43-3.72.29-4.65"/>
    <path class="cls-3" d="M126.86,24.84c.1,2.64-1.73,2.2-2.16,4.64.11-2.5,1.6-2.9,2.16-4.64"/>
    <path class="cls-3" d="M127.23,22.42c.1,2.64-1.65,1.8-2.07,4.24.11-2.5,1.51-2.5,2.07-4.24"/>
    <path class="cls-3" d="M127.4,20.21c.1,2.64-1.79,1.92-2.21,4.36.11-2.5,1.65-2.61,2.21-4.36"/>
    <path class="cls-3" d="M127.79,17.59c-.19,2.73-1.95,2.32-2.38,4.76.11-2.5,1.67-2.96,2.38-4.76"/>
    <path class="cls-3" d="M127.08,26.86c.1,2.64-2.02,2.33-2.44,4.77.11-2.5,1.88-3.03,2.44-4.77"/>
    <path class="cls-3" d="M126.72,29.34c.1,2.64-1.74,2.21-2.16,4.65.11-2.5,1.6-2.91,2.16-4.65"/>
    <path class="cls-3" d="M126.61,31.54c.1,2.64-1.75,2.76-2.18,5.2.11-2.5,1.61-3.46,2.18-5.2"/>
    <path class="cls-3" d="M126.24,34.57c.1,2.64-1.45,3.97-1.49,6.87-.28-3.27.92-5.13,1.49-6.87"/>
    <path class="cls-3" d="M126.08,38.65c1.25,2.35-1.13,4.39-.59,7.12-.98-3.13.97-5.2.59-7.12"/>
    <path class="cls-3" d="M126.2,44.18c1.12,1.71-.53,3.73.25,6.47-1.19-2.97.26-4.52-.25-6.47"/>
    <path class="cls-3" d="M120.62,34.53c-.05,1.88-.35,2.85-.4,4.12-.3-1.81-.4-2.94.4-4.12"/>
    <path class="cls-3" d="M121.47,25.06c-.35,1.28-.36,3.09-.35,4.96-.3-1.81-.84-3.64.35-4.96"/>
    <path class="cls-3" d="M122.15,27.28c-.35,1.28-.36,3.09-.35,4.96-.3-1.81-.84-3.64.35-4.96"/>
    <path class="cls-3" d="M135.12,15.34c-.64,1.35-1.18,2.56-1.17,4.43-.3-1.81-.02-3.11,1.17-4.43"/>
    <path class="cls-3" d="M133.42,17.88c-.35,1.28,0,2.44-.06,3.78-.2-1.07-.81-2.4.06-3.78"/>
    <path class="cls-3" d="M132.58,19.81c-.14,1.26-.24,2.1.23,3.63-.67-1.2-1.1-2.18-.23-3.63"/>
    <path class="cls-3" d="M131.74,21.92c-.35,1.28.12,1.84.61,3.74-.87-1.64-1.41-2.48-.61-3.74"/>
    <path class="cls-3" d="M131.08,23.94c-.35,1.28.37,2.14.86,4.04-.87-1.64-1.61-2.64-.86-4.04"/>
    <path class="cls-3" d="M130.45,25.93c-.24,1.62.94,2.13.91,4.13-.22-1.71-1.72-2.4-.91-4.13"/>
    <path class="cls-3" d="M129.89,27.72c-.08,1.41,1.05,2.21,1.02,4.21-.22-1.71-1.45-2.44-1.02-4.21"/>
    <path class="cls-3" d="M129.4,29.57c-.08,1.41.9,2.23.87,4.22-.21-1.71-1.48-2.48-.87-4.22"/>
    <path class="cls-3" d="M128.92,31.63c-.08,1.41.62,2.23.59,4.23-.22-1.71-1.4-2.5-.59-4.23"/>
    <path class="cls-3" d="M128.47,33.95c-.08,1.41.62,2.23.59,4.23-.21-1.71-1.4-2.5-.59-4.23"/>
    <path class="cls-3" d="M130.21,36.03c.87,1.74-.13,2.61.27,4.08-.67-1.67.12-2.37-.27-4.08"/>
    <path class="cls-3" d="M133.12,37.27c.35,2.1,1.14,2.43.3,4.29.37-1.52-.57-2.3-.3-4.29"/>
    <path class="cls-3" d="M134.41,34.74c-.14.87.58,1.35.1,3.27.24-1.63-.72-2.21-.1-3.27"/>
    <path class="cls-3" d="M132.38,39.61c.35,2.1,1.14,2.43.3,4.29.36-1.52-.57-2.3-.3-4.29"/>
    <path class="cls-3" d="M145.8,33.29c-.53,1.54.67,2.44-.17,4.3.36-1.52-1.03-2.71.17-4.3"/>
    <path class="cls-3" d="M144.65,34.98c-.53,1.54.67,2.44-.17,4.3.36-1.52-1.03-2.71.17-4.3"/>
    <path class="cls-3" d="M139.84,33.39c-.24,1.54,1.2,3.08,1.1,5.24-.29-1.92-1.92-3.32-1.1-5.24"/>
    <path class="cls-3" d="M138.88,35.12c-.24,1.54,1.1,2.55,1.01,4.71-.29-1.92-1.83-2.79-1.01-4.71"/>
    <path class="cls-3" d="M137.92,36.37c-.24,1.54,1.1,2.55,1.01,4.71-.29-1.92-1.83-2.79-1.01-4.71"/>
    <path class="cls-3" d="M146.96,32.09c-.24,1.11.67,2.02-.29,3.7.67-1.54-.67-2.45.29-3.7"/>
    <path class="cls-3" d="M148.69,30.22c-.87,1.39-.05,2.4-1.01,3.84.62-1.35-.38-2.35,1.01-3.84"/>
    <path class="cls-3" d="M150.51,28.82c-1.25,1.11-.87,1.78-1.59,2.98.38-1.06-.29-1.87,1.59-2.98"/>
    <path class="cls-3" d="M131.68,42.09c.35,2.1,1.14,2.43.3,4.29.36-1.52-.57-2.3-.3-4.29"/>
    <path class="cls-3" d="M130.77,44.4c.35,2.1,1.59,3.76.75,5.62.37-1.52-1.02-3.63-.75-5.62"/>
    <path class="cls-3" d="M138.7,46.3c.35,2.1.29,3.32-.9,4.95.91-1.51.62-2.96.9-4.95"/>
    <path class="cls-3" d="M137.55,47.5c.35,2.1.29,3.32-.9,4.95.91-1.51.62-2.96.9-4.95"/>
    <path class="cls-3" d="M136.23,48.57c.35,2.1-.32,3.97-1.51,5.6.91-1.51,1.24-3.61,1.51-5.6"/>
    <path class="cls-3" d="M129.73,46.18c.35,2.1,1.51,3.64.67,5.5.37-1.52-.94-3.52-.67-5.5"/>
    <path class="cls-3" d="M131.08,34.36c.94,1.6.27,2.34.6,3.81-.67-1.6-.13-2.34-.6-3.81"/>
    <path class="cls-3" d="M131.83,31.66c1.25,1.44.46,2.93,1,4.45-1.04-1.61-.34-2.95-1-4.45"/>
    <path class="cls-3" d="M134.56,29.29c.71,1.79.48,3.95,1.02,5.48-1.54-.78-.68-3.43-1.02-5.48"/>
    <path class="cls-3" d="M135.5,27.96c.71,1.79.55,3.39,1.09,4.92-1.63-.28-.75-2.87-1.09-4.92"/>
    <path class="cls-3" d="M136.45,27.03c.72,1.79.54,3.03,1.08,4.56-1.16-.07-.74-2.51-1.08-4.56"/>
    <path class="cls-3" d="M137.29,24.87c.72,1.79.25,2.99.79,4.52-1.16-.07-.45-2.47-.79-4.52"/>
    <path class="cls-3" d="M138.24,23.21c.71,1.79.07,2.66.61,4.18-1.16-.07-.27-2.13-.61-4.18"/>
    <path class="cls-3" d="M139.17,21.12c.16,2.02,1.18,2.35.1,4.5.3-1.27-.5-2.55-.1-4.5"/>
    <path class="cls-3" d="M140.08,19.68c.11,1.42.95,1.97.19,3.47.21-.89-.47-2.11-.19-3.47"/>
    <path class="cls-3" d="M140.78,18.04c.11,1.42.91,1.93.15,3.44.2-.89-.43-2.07-.15-3.44"/>
    <path class="cls-3" d="M141.81,16.4c-.16,1,.39,1.58-.06,3.05.06-1.29-.48-1.9.06-3.05"/>
    <path class="cls-3" d="M142.87,15.05c-.16.77-.48,1.16-.51,2.31-.19-1.19-.16-1.64.51-2.31"/>
    <path class="cls-3" d="M132.82,30.48c1.25,1.44.6,2.36,1.14,3.88-1.04-1.61-.48-2.38-1.14-3.88"/>
    <path class="cls-3" d="M128.23,37.01c-.09,1.41,1.58,3.43.98,5.71.27-2.14-1.78-3.98-.98-5.71"/>
    <path class="cls-3" d="M122.83,29.81c-.35,1.28-.36,3.09-.35,4.96-.3-1.81-.84-3.64.35-4.96"/>
    <path class="cls-3" d="M123.6,33.7c-.35,1.28-.36,3.09-.35,4.96-.3-1.81-.84-3.64.35-4.96"/>
    <path class="cls-3" d="M121.4,36.97c.6,1.21-.48,2.75-.55,4.27-.36-1.5.26-2.95.55-4.27"/>
    <path class="cls-3" d="M121.84,38.88c.6,1.21-.48,2.75-.55,4.27-.36-1.5.26-2.95.55-4.27"/>
    <path class="cls-3" d="M122.41,41.48c.6,1.21-.48,2.75-.55,4.27-.36-1.5.26-2.95.55-4.27"/>
    <path class="cls-3" d="M123.04,43.47c.6,1.21-.86,3.31-.92,4.83-.36-1.5.64-3.51.92-4.83"/>
    <path class="cls-3" d="M123.52,46.82c.6,1.21-.86,3.31-.92,4.83-.35-1.5.64-3.51.92-4.83"/>
    <path class="cls-3" d="M124.08,49.67c.21,1.35-.49,1.79-.53,3.43-.36-1.5.25-2.1.53-3.43"/>
    <path class="cls-3" d="M119,44.69c.22,1.71-.25,3.31.18,6.73-.83-2.67-.97-5.55-.18-6.73"/>
    <path class="cls-3" d="M120.13,46.76c.22,1.71-.25,3.31.18,6.73-.83-2.68-.97-5.55-.18-6.73"/>
    <path class="cls-3" d="M113.75,43.49c1.71,1.96.66,5.18,1.39,7.03-1.15-1.83-.82-5.7-1.39-7.03"/>
    <path class="cls-3" d="M115.29,47.66c1.71,1.95.66,5.18,1.39,7.03-1.14-1.83-.82-5.7-1.39-7.03"/>
    <path class="cls-3" d="M117.06,52.02c1.12,2.01.43,3.71,1.16,5.57-1.14-1.83-.59-4.23-1.16-5.57"/>
    <path class="cls-3" d="M109.77,36.79c1.12,2.01.43,3.71,1.16,5.57-1.14-1.83-.59-4.23-1.16-5.57"/>
    <path class="cls-3" d="M108.74,36.15c1.12,2.01.31,2.47,1.03,4.32-1.15-1.83-.47-2.98-1.03-4.32"/>
    <path class="cls-3" d="M105.39,41.22c1.08,1.18,1.93,4.87,1.45,6.42-.32-1.63-.88-5.08-1.45-6.42"/>
    <path class="cls-3" d="M103.76,39.97c1.08,1.18,1.55,2.96,1.34,4.63-.32-1.63-.77-3.29-1.34-4.63"/>
    <path class="cls-3" d="M111.07,48.61c.78,2.14,1.26,5.19.78,6.73-.32-1.63-.38-4.7-.78-6.73"/>
    <path class="cls-3" d="M112.91,51.81c.58,1.7,1.38,5.77.9,7.31-.32-1.63-.81-5.64-.9-7.31"/>
    <path class="cls-3" d="M92.67,51.45c1.08,1.18,1.47,3.46,1.57,4.58-.9-1.21-.72-3.06-1.57-4.58"/>
    <path class="cls-3" d="M91.15,50.78c1.08,1.18,1.26,2.41,1.36,3.54-.9-1.21-.52-2.01-1.36-3.54"/>
    <path class="cls-3" d="M90.01,50.22c1.08,1.18,1.26,2.41,1.36,3.54-.9-1.21-.52-2.01-1.36-3.54"/>
    <path class="cls-3" d="M93.98,52.28c1.08,1.18,1.47,3.45,1.57,4.58-.9-1.21-.72-3.06-1.57-4.58"/>
    <path class="cls-3" d="M95.35,53.1c1.08,1.18,1.47,3.46,1.57,4.58-.9-1.21-.72-3.06-1.57-4.58"/>
    <path class="cls-3" d="M96.78,53.3c1.08,1.18,1.66,4.44,1.76,5.57-.9-1.21-.92-4.05-1.76-5.57"/>
    <path class="cls-3" d="M97.99,54.21c1.08,1.18,1.66,4.44,1.76,5.57-.9-1.21-.92-4.05-1.76-5.57"/>
    <path class="cls-3" d="M99.32,55.46c1.08,1.18,1.93,3.97,1.76,5.57-.9-1.21-.92-4.05-1.76-5.57"/>
    <path class="cls-3" d="M101,56.94c1.08,1.18,1.93,3.97,1.76,5.57-.9-1.21-.92-4.05-1.76-5.57"/>
    <path class="cls-3" d="M102.91,58.67c1.08,1.18,1.93,3.97,1.76,5.57-.9-1.21-.92-4.05-1.76-5.57"/>
    <path class="cls-3" d="M97.18,66.63c1.08,1.18,1.52,4.65,2.31,5.58-1.39-.63-1.74-4.25-2.31-5.58"/>
    <path class="cls-3" d="M99.39,68.67c1.08,1.18.87,2.61,1.66,3.54-1.39-.63-1.1-2.2-1.66-3.54"/>
    <path class="cls-3" d="M92.33,70.54c.29,1.15,2.05,3.64,1.71,4.98-.33-1.08-2.1-3.63-1.71-4.98"/>
    <path class="cls-3" d="M94.3,71.66c.29,1.15,2.05,3.64,1.71,4.98-.33-1.08-2.1-3.63-1.71-4.98"/>
    <path class="cls-3" d="M87.51,73.06c.82,1.71,1.76,3.7,1.48,4.42-.56-.37-1.09-2.44-1.48-4.42"/>
    <path class="cls-3" d="M85.53,71.88c.82,1.71,1.56,3.01,1.28,3.73-.56-.37-.89-1.76-1.28-3.73"/>
    <path class="cls-3" d="M91.34,75.02c.82,1.71,1.99,4.26,1.71,4.98-.56-.37-1.32-3-1.71-4.98"/>
    <path class="cls-3" d="M93.17,76.66c.82,1.71,1.99,4.26,1.71,4.98-.56-.37-1.32-3-1.71-4.98"/>
    <path class="cls-3" d="M94.98,77.87c.82,1.71,1.99,4.26,1.71,4.98-.56-.37-1.32-3-1.71-4.98"/>
    <path class="cls-4" d="M115.13,124.49c-.14-.63,2.34-1.31,3.68-1.19-2.16-.75-10.06-.31-11.54-1.34,2.39.34,5.68-.43,6.28-1.09-1.64-.97-7.62-.78-10.61-1.75,2.89.18,9.16-1.11,10.87-.79-1.52-1.25-5.57-.29-8.16-1.99,1.87-.07,6.82-.91,8.71-.48-.96-1.06-5.59-1.01-7.68-2.73,3.26.45,5.78-.46,7.06-.27-3.16-.68-3.48-1.89-6.16-3.25,3.26-.29,5.1,1.01,6.45,1.29-.47-.92-1.29-1.68-1.19-2.84.83.98,1.65,1.59,2.76,2.35-.47-.85-.64-1.49-.67-2.28,1.2,1.18,3.53,2.24,3.53,2.24,0,0-2.82-2.49-2.23-3.88,2.7.9,4.43,4.87,5.59,5.84-.73-1.48-1.35-2.83-.89-3.64,1.85,1.23,4.32,3.58,5.37,6.5.62-.75.09-1.37.62-2.69,2.49,2.47,4.75,7.03,3.35,8.7.86,1.41.45,4.25.69,5.92-1.35-.47-2.7.28-3.67.55-1.95.25-3.64-.09-5.22.78-2.8-1.07-2.21-4.63-6.95-3.94"/>
    <path class="cls-17" d="M122.78,128.84c.96-.65,4.89-.61,4.89-.61,0,0,2.76-1.52,3.93.21.69,1.03,1.3,3.63.45,5.25-.85,1.62-2.04,2.33-4.04,1.8,1.37-.11,1.54-1.17,1.67-1.77.19-2.26-1.28-4.58-4.05-4.91.39.73.58,1.64.28,2.56-.3.93-1.12,1.72-.6,2.7-.65-.19-1.1-.84-1.27-1.41-.32-1.02-.24-1.7-.3-2.24-.58-.26-.8-.99-.94-1.58"/>
    <path class="cls-8" d="M124.58,117.33c1.28,3.4,4.73,5.68,4.3,9.45-1.36-.75-2.8-.85-3.52-1.33-2.2-1.48,1.01-5.56-1.17-7.16-.54-.4-.02-1.72.38-.96"/>
    <path class="cls-14" d="M28.32,39.18c1.07,1.07,3.93.02,6.21.18-1.18-.35-4.78-.4-6.21-.18"/>
    <path class="cls-14" d="M26.47,37.84c1.07,1.07,3.93.02,6.21.18-1.18-.35-4.79-.4-6.21-.18"/>
    <path class="cls-14" d="M31.93,37.01c2.43.56,4.88.57,6.21.18-1.69-1.13-3.32.23-6.21-.18"/>
    <path class="cls-14" d="M31.31,35.82c1.95.43,2.47.43,3.8.05-1.28-.7-2,.1-3.8-.05"/>
    <path class="cls-14" d="M34.48,38.38c2.43.56,4.88.57,6.21.18-1.69-1.13-3.32.23-6.21-.18"/>
    <path class="cls-14" d="M37.28,39.68c2.43.56,4.88.57,6.21.18-1.69-1.13-3.32.23-6.21-.18"/>
    <path class="cls-14" d="M39.88,41.37c2.43.56,4.88.57,6.21.18-1.69-1.13-3.32.23-6.21-.18"/>
    <path class="cls-14" d="M42.37,42.84c2.43.56,4.88.57,6.21.18-1.69-1.13-3.32.23-6.21-.18"/>
    <path class="cls-14" d="M45.56,44.77c2.43.56,4.88.57,6.21.18-1.69-1.13-3.32.23-6.21-.18"/>
    <path class="cls-14" d="M30.64,40.43c1.05,1.27,3.26.1,5.44.28-2.93-.58-4.17-.09-5.44-.28"/>
    <path class="cls-14" d="M28.18,44.65c1.61-.2,3.94-.16,5.88.37-2.21-1.28-4.65-1.28-5.88-.37"/>
    <path class="cls-14" d="M25.72,43.06c1.61-.2,3.94-.16,5.88.37-2.21-1.28-4.65-1.28-5.88-.37"/>
    <path class="cls-14" d="M22.62,41.59c1.61-.2,3.94-.17,5.88.37-2.21-1.28-4.65-1.28-5.88-.37"/>
    <path class="cls-14" d="M20.51,40.17c1.61-.2,3.94-.17,5.88.37-2.21-1.28-4.65-1.28-5.88-.37"/>
    <path class="cls-14" d="M23.78,37.23c-.42.02-2.36.1-3.29.34.85-.04,3.55.03,4.16.34-.05-.24-.45-.71-.87-.68"/>
    <path class="cls-14" d="M21.2,36.02c-.42.02-2.36.1-3.29.34.85-.04,3.55.03,4.16.34-.05-.24-.44-.71-.87-.68"/>
    <path class="cls-14" d="M25.02,34.82c-.42.02-2.36.1-3.29.34.85-.04,3.55.03,4.16.34-.05-.24-.45-.71-.87-.68"/>
    <path class="cls-14" d="M27.54,35.85c-.42.02-2.36.1-3.29.34.85-.04,3.55.03,4.16.34-.05-.24-.45-.71-.87-.68"/>
    <path class="cls-14" d="M20.11,40.54c-.42.02-2.36.1-3.29.34.85-.04,3.55.03,4.16.34-.05-.24-.45-.71-.87-.68"/>
    <path class="cls-14" d="M30.92,46.5c1.61-.2,3.94-.17,5.88.37-2.21-1.28-4.65-1.28-5.88-.37"/>
    <path class="cls-14" d="M33.55,48.06c1.61-.19,3.94-.17,5.88.37-2.21-1.28-4.65-1.28-5.88-.37"/>
    <path class="cls-14" d="M36.36,49.89c1.61-.2,3.94-.17,5.88.37-2.21-1.28-4.65-1.28-5.88-.37"/>
    <path class="cls-14" d="M41.84,54.43c2.57-1.28,5.86-.84,7.37.34-2.71-.08-3.85-1.12-7.37-.34"/>
    <path class="cls-14" d="M42.33,47.92c2.62.2,6.04-.03,8.03,1.66-2.14-1.23-5.64-.11-8.03-1.66"/>
    <path class="cls-14" d="M39.95,46.19c2.62.2,6.04-.03,8.03,1.66-2.14-1.23-5.64-.11-8.03-1.66"/>
    <path class="cls-14" d="M44.26,49.37c2.1.3,6.04-.03,8.03,1.66-2.14-1.23-5.64-.11-8.03-1.66"/>
    <path class="cls-14" d="M46.37,50.94c2.45.53,6.04-.03,8.03,1.66-2.14-1.23-5.64-.11-8.03-1.66"/>
    <path class="cls-14" d="M48.29,52.48c2.48.63,6.04-.03,8.03,1.66-2.14-1.23-6.01-.08-8.03-1.66"/>
    <path class="cls-14" d="M49.89,47.04c2.14.31,4.22,0,5.52,1.02-1.8-.75-3.34.14-5.52-1.02"/>
    <path class="cls-14" d="M51.68,48.79c2.14.31,4.12.11,5.42,1.14-1.8-.75-3.24.02-5.42-1.14"/>
    <path class="cls-14" d="M53.63,50.59c2.14.31,4.22.34,5.52,1.37-1.8-.75-3.33-.21-5.52-1.37"/>
    <path class="cls-14" d="M44.17,55.74c2.61-.78,6.21-.11,7.26,1.2-2.71-.08-3.11-1.53-7.26-1.2"/>
    <path class="cls-14" d="M46.03,57.7c2.61-.78,6.21-.11,7.26,1.2-2.7-.08-3.11-1.53-7.26-1.2"/>
    <path class="cls-14" d="M51.01,55.07c2.61-.78,6.21-.11,7.26,1.2-2.7-.08-3.11-1.53-7.26-1.2"/>
    <path class="cls-14" d="M53.46,56.97c2.61-.78,6.21-.11,7.26,1.2-2.7-.08-3.11-1.53-7.26-1.2"/>
    <path class="cls-14" d="M55.01,58.93c2.61-.78,6.21-.11,7.26,1.2-2.71-.08-3.11-1.53-7.26-1.2"/>
    <path class="cls-14" d="M56.17,60.16c2.61-.78,6.21-.11,7.26,1.2-2.7-.08-3.11-1.53-7.26-1.2"/>
    <path class="cls-14" d="M51.94,65.7c2.14-.3,4.49-2.35,5.72-2.59.12.89-3.36,2.49-5.72,2.59"/>
    <path class="cls-14" d="M51.16,64.79c1.71-.24,3.59-1.88,4.58-2.07.09.71-2.69,1.99-4.58,2.07"/>
    <path class="cls-14" d="M50.13,64.2c1.71-.24,3.59-1.88,4.58-2.07.09.71-2.69,2-4.58,2.07"/>
    <path class="cls-14" d="M48.94,63.76c1.71-.24,3.59-1.88,4.58-2.07.09.71-2.69,1.99-4.58,2.07"/>
    <path class="cls-14" d="M47.68,63.47c1.71-.24,3.59-1.88,4.58-2.07.09.71-2.69,1.99-4.58,2.07"/>
    <path class="cls-14" d="M47.5,62.53c1.37-.19,2.87-1.5,3.66-1.66.07.57-2.15,1.6-3.66,1.66"/>
    <path class="cls-14" d="M45.91,62.42c1.37-.19,2.87-1.5,3.66-1.66.07.57-2.15,1.6-3.66,1.66"/>
    <path class="cls-14" d="M44.04,62.12c1.37-.19,2.87-1.51,3.66-1.66.07.57-2.15,1.6-3.66,1.66"/>
    <path class="cls-14" d="M39.05,57.39c1.37-.19,3.26-1.25,4.05-1.41.07.57-2.54,1.34-4.05,1.41"/>
    <path class="cls-14" d="M25.77,49.29c1.37-.19,2.87-1.5,3.66-1.66.07.57-2.15,1.6-3.66,1.66"/>
    <path class="cls-14" d="M17.72,45.46c1.37-.19,2.87-1.5,3.66-1.66.07.57-2.15,1.6-3.66,1.66"/>
    <path class="cls-14" d="M21.57,45.77c1.37-.19,2.87-1.5,3.66-1.66.07.57-2.15,1.6-3.66,1.66"/>
    <path class="cls-14" d="M28.19,49.1c1.37-.19,2.87-1.5,3.66-1.66.07.57-2.15,1.6-3.66,1.66"/>
    <path class="cls-14" d="M41.23,57.78c1.37-.19,2.61-1.36,3.4-1.51.07.57-1.88,1.45-3.4,1.51"/>
    <path class="cls-14" d="M43.4,58c1.37-.19,2.52-1.4,3.31-1.56.07.57-1.8,1.49-3.31,1.56"/>
    <path class="cls-14" d="M53.83,66c2.14-.3,4.49-2.35,5.72-2.59.12.89-3.36,2.49-5.72,2.59"/>
    <path class="cls-14" d="M55.67,66.31c2.14-.3,4.49-2.35,5.72-2.59.12.89-3.36,2.49-5.72,2.59"/>
    <path class="cls-14" d="M57.9,66.48c2.14-.3,4.49-2.35,5.72-2.59.11.89-3.36,2.49-5.72,2.59"/>
    <path class="cls-14" d="M53.81,70.25c2.16-.03,4.75-1.77,6-1.85,0,.9-3.65,2.05-6,1.85"/>
    <path class="cls-14" d="M56.26,70.56c2.16-.03,4.75-1.77,6-1.85,0,.9-3.65,2.05-6,1.85"/>
    <path class="cls-14" d="M56,77.71c2.38-.65,3.89-3.52,6.33-3.29-1.45.44-3.31,2.76-6.33,3.29"/>
    <path class="cls-14" d="M54.47,77.2c2.38-.65,3.89-3.52,6.33-3.29-1.45.44-3.31,2.76-6.33,3.29"/>
    <path class="cls-14" d="M54.35,76.04c2.23-1.11,2.14-2.81,4.57-2.58-1.45.44-2.31,1.95-4.57,2.58"/>
    <path class="cls-14" d="M31.94,53.65c1.64-.13,1.63-1.69,3.63-1.99-1.45.44-1.59,2.37-3.63,1.99"/>
    <path class="cls-14" d="M33.42,53.75c1.64-.13,1.63-1.69,3.63-1.99-1.45.44-1.59,2.37-3.63,1.99"/>
    <path class="cls-14" d="M35.35,53.57c1.64-.13,1.63-1.69,3.63-1.99-1.45.44-1.59,2.37-3.63,1.99"/>
    <path class="cls-14" d="M37.2,53.5c1.64-.13,2.02-1.67,4.02-1.97-1.45.44-1.99,2.35-4.02,1.97"/>
    <path class="cls-14" d="M39.5,53.81c1.64-.13,2.06-2.06,4.06-2.35-1.45.44-2.02,2.74-4.06,2.35"/>
    <path class="cls-14" d="M57.81,89.92c1.56-.78,2.13-2.75,3.84-2.59-1.01.31-2.25,2.15-3.84,2.59"/>
    <path class="cls-14" d="M56.03,89.83c1.56-.78,2.01-2.23,3.72-2.08-1.01.31-2.14,1.64-3.72,2.08"/>
    <path class="cls-14" d="M53.48,74.75c2.38-.65,2.44-1.89,4.25-2.03-1.45.44-1.65,1.58-4.25,2.03"/>
    <path class="cls-14" d="M57.88,78.36c2.38-.65,4.54-3.95,6.97-3.73-1.45.44-3.96,3.19-6.97,3.73"/>
    <path class="cls-14" d="M60.2,78.33c2.38-.65,4.68-3.86,7.11-3.63-1.45.44-4.1,3.1-7.11,3.63"/>
    <path class="cls-14" d="M62.59,78.41c2.38-.65,4.87-3.83,7.3-3.61-1.45.44-4.29,3.07-7.3,3.61"/>
    <path class="cls-14" d="M65.91,78.18c2.38-.65,4.49-3.57,6.93-3.35-1.45.44-3.91,2.82-6.93,3.35"/>
    <path class="cls-14" d="M68.93,78.02c2.38-.65,4.17-3.33,6.61-3.1-1.45.44-3.59,2.57-6.61,3.1"/>
    <path class="cls-14" d="M58.48,70.98c2.16-.03,4.75-1.77,6-1.85,0,.9-3.65,2.05-6,1.85"/>
    <path class="cls-14" d="M61.05,71.33c2.16-.03,4.75-1.77,6-1.85,0,.9-3.65,2.05-6,1.85"/>
    <path class="cls-14" d="M63.45,71.71c2.16-.03,4.75-1.77,6-1.85,0,.9-3.65,2.05-6,1.85"/>
    <path class="cls-14" d="M67.36,71.78c1.3-.02,2.85-1.06,3.6-1.11,0,.54-2.19,1.23-3.6,1.11"/>
    <path class="cls-14" d="M73.59,76.92c1.3-.02,2.85-1.06,3.6-1.11,0,.54-2.19,1.23-3.6,1.11"/>
    <path class="cls-14" d="M76.32,88.11c1.25-.34,2.49-1.75,3.21-1.99.14.52-1.81,1.74-3.21,1.99"/>
    <path class="cls-14" d="M78.07,88.21c1.25-.34,2.49-1.75,3.21-1.99.14.52-1.81,1.74-3.21,1.99"/>
    <path class="cls-14" d="M53.66,69.22c1.3-.02,2.85-1.06,3.6-1.11,0,.54-2.19,1.23-3.6,1.11"/>
    <path class="cls-14" d="M52.35,68.8c1.3-.02,2.85-1.06,3.6-1.11,0,.54-2.19,1.23-3.6,1.11"/>
    <path class="cls-14" d="M50.76,68.45c1.3-.02,2.85-1.06,3.6-1.11,0,.54-2.19,1.23-3.6,1.11"/>
    <path class="cls-14" d="M48.61,67.96c1.3-.02,2.85-1.06,3.6-1.11,0,.54-2.19,1.23-3.6,1.11"/>
    <path class="cls-14" d="M49.73,76.65c1.3-.02,2.85-1.06,3.6-1.11,0,.54-2.19,1.23-3.6,1.11"/>
    <path class="cls-14" d="M51.01,77.18c1.3-.02,2.85-1.06,3.6-1.11,0,.54-2.19,1.23-3.6,1.11"/>
    <path class="cls-14" d="M52.7,78.32c1.3-.02,2.85-1.06,3.6-1.11,0,.54-2.19,1.23-3.6,1.11"/>
    <path class="cls-14" d="M47.51,67.58c1.3-.02,2.85-1.06,3.6-1.11,0,.54-2.19,1.23-3.6,1.11"/>
    <path class="cls-14" d="M59.82,66.9c2.14-.3,4.49-2.35,5.72-2.59.12.89-3.36,2.49-5.72,2.59"/>
    <path class="cls-14" d="M61.83,67.17c2.14-.3,4.49-2.35,5.72-2.59.11.89-3.36,2.49-5.72,2.59"/>
    <path class="cls-14" d="M65.63,67.31c1.99-.63,2.36-1.19,3.23-1.66-.35.97-.9,1.26-3.23,1.66"/>
    <path class="cls-14" d="M67.57,67.65c1.99-.63,2.21-1.04,2.86-1.41-.2.52-.82,1.07-2.86,1.41"/>
    <path class="cls-14" d="M67,58.11c2.18.65,3.15,1.48,3.71,2.13-1.36-.14-1.94-1.11-3.71-2.13"/>
    <path class="cls-14" d="M60.05,51.15c2.58,1.65,5.7,5.05,6.86,5.51-1.98.39-5.04-4.2-6.86-5.51"/>
    <path class="cls-14" d="M62.99,56.88c2.72,1.25,5.86,4.68,7.03,5.13-1.98.39-4.77-3.77-7.03-5.13"/>
    <path class="cls-14" d="M47.85,59.48c2.61-.78,6.21-.11,7.26,1.19-2.7-.08-3.11-1.53-7.26-1.19"/>
    <path class="cls-14" d="M32.86,41.77c1.05,1.27,3.26.1,5.44.28-2.93-.58-4.17-.09-5.44-.28"/>
    <path class="cls-14" d="M35.15,43.15c1.05,1.27,3.26.1,5.44.28-2.93-.59-4.17-.09-5.44-.28"/>
    <path class="cls-14" d="M37.45,44.59c1.05,1.27,3.26.1,5.44.28-2.93-.58-4.18-.09-5.44-.28"/>
    <path class="cls-14" d="M63.15,85.14c1.52-.53,5.31-4.92,7.74-5.21-1.61.67-5.28,5.07-7.74,5.21"/>
    <path class="cls-14" d="M60.62,85.09c1.52-.53,5.31-4.92,7.74-5.21-1.61.67-5.28,5.07-7.74,5.21"/>
    <path class="cls-14" d="M58.37,84.92c1.52-.53,5.31-4.92,7.74-5.21-1.61.67-5.28,5.07-7.74,5.21"/>
    <path class="cls-14" d="M57.3,83.81c1.23-.63,4.99-4.4,6.52-4.7-1.28.6-4.07,4.56-6.52,4.7"/>
    <path class="cls-14" d="M66.42,84.58c1.37-.48,4.78-4.43,6.96-4.69-1.45.6-4.75,4.57-6.96,4.69"/>
    <path class="cls-14" d="M68.69,89.67c.69-1.5,2-4,4.4-4.28-.5,1.12-2.68,1.34-4.4,4.28"/>
    <path class="cls-14" d="M65.95,90.33c.69-1.5,2-4,4.4-4.28-.5,1.12-2.68,1.34-4.4,4.28"/>
    <path class="cls-14" d="M67.14,94.73c1.12-.69,2.46-3.31,4.86-3.59-1.85.56-2.54,3.7-4.86,3.59"/>
    <path class="cls-14" d="M64.96,94.9c1.12-.69,2.46-3.31,4.86-3.59-1.85.56-2.54,3.7-4.86,3.59"/>
    <path class="cls-14" d="M63.95,98.75c1.68-.48,2.58-2.55,4.43-3.11-1.72.86-2.61,3.98-4.43,3.11"/>
    <path class="cls-14" d="M66.08,98.59c1.68-.48,2.58-2.55,4.43-3.11-1.72.86-2.61,3.98-4.43,3.11"/>
    <path class="cls-14" d="M68.07,121.32c2.25.12,5.93-1.9,7.89-3.86-1.39,1.78-6.14,5.83-7.89,3.86"/>
    <path class="cls-14" d="M71.31,121.51c2.25.12,5.96-2.58,7.92-4.54-1.39,1.78-6.17,6.51-7.92,4.54"/>
    <path class="cls-14" d="M75.36,121.17c2.23-.36,5.4-3.11,6.9-5.44-.99,2.03-4.78,6.99-6.9,5.44"/>
    <path class="cls-14" d="M80.03,120.25c2.08-.86,4.53-4.28,5.45-6.89-.49,2.2-3.02,7.91-5.45,6.89"/>
    <path class="cls-14" d="M71.09,118.64c1.45-.37,2.92-2.73,5.75-3.83-2.4,1.35-3.8,4.43-5.75,3.83"/>
    <path class="cls-14" d="M77.36,115.19c1.31-.81,2.37-2.63,5.75-3.83-2.9,1.47-3.88,3.7-5.75,3.83"/>
    <path class="cls-14" d="M79.08,115.19c1.31-.81,2.37-2.63,5.75-3.83-2.9,1.47-3.88,3.71-5.75,3.83"/>
    <path class="cls-14" d="M81.49,114.56c1.31-.81,2.37-2.63,5.75-3.83-2.9,1.47-3.88,3.71-5.75,3.83"/>
    <path class="cls-14" d="M84.31,113.86c1.31-.81,2.37-2.63,5.75-3.83-2.9,1.47-3.88,3.7-5.75,3.83"/>
    <path class="cls-14" d="M68.96,97.83c1.35-.38,2.07-2.04,3.55-2.49-1.38.69-2.09,3.18-3.55,2.49"/>
    <path class="cls-14" d="M62.98,104.32c1.91-.38.95-1.88,2.65-1.84-.47.61-1.14,2.06-2.65,1.84"/>
    <path class="cls-14" d="M65.04,104.36c1.69-1.14,1.13-2.87,2.82-2.83-.47.61-1.1,2.27-2.82,2.83"/>
    <path class="cls-14" d="M67.36,103.83c1.43-1.31,1.4-3.73,3.09-3.69-1.13.96-1.38,2.7-3.09,3.69"/>
    <path class="cls-14" d="M73.48,108.7c1.44-1.25,1.35-3.51,3.39-5.12-1.66,1.61-1.27,4.49-3.39,5.12"/>
    <path class="cls-14" d="M76.37,106.7c.76-1.08.85-2.76,2.25-3.82-1.06,1.2-.87,3.03-2.25,3.82"/>
    <path class="cls-14" d="M78.76,105.02c-.04-1.44,1.12-2.58,1.83-3.56-.66,1.58-1.12,2.58-1.83,3.56"/>
    <path class="cls-14" d="M80.45,104.09c-.04-1.44,1.12-2.58,1.83-3.56-.66,1.58-1.12,2.58-1.83,3.56"/>
    <path class="cls-14" d="M82.13,102.74c-.04-1.44,1.12-2.58,1.84-3.56-.66,1.58-1.12,2.58-1.84,3.56"/>
    <path class="cls-14" d="M63.74,109.34c-.04-1.44,2.05-2.07,2.77-3.06-.66,1.58-2.05,2.07-2.77,3.06"/>
    <path class="cls-14" d="M66.27,108.48c-.04-1.44,1.38-2.04,2.09-3.03-.66,1.58-1.38,2.04-2.09,3.03"/>
    <path class="cls-14" d="M68.62,107.23c-.04-1.44,1.23-2.05,1.94-3.04-.66,1.58-1.25,1.63-1.94,3.04"/>
    <path class="cls-14" d="M70.33,106.14c-.04-1.44,1.23-2.05,1.94-3.04-.66,1.58-1.25,1.64-1.94,3.04"/>
    <path class="cls-14" d="M72.07,105.03c-.04-1.44,1.23-2.05,1.94-3.04-.66,1.58-1.25,1.63-1.94,3.04"/>
    <path class="cls-14" d="M74.05,104.08c-.04-1.44,2.07-2.65,2.78-3.63-.66,1.58-2.09,2.23-2.78,3.63"/>
    <path class="cls-14" d="M77.3,102.28c-.04-1.44,2.49-3.08,3.2-4.06-.65,1.58-2.51,2.66-3.2,4.06"/>
    <path class="cls-14" d="M65.62,110.86c2.02-.14,2.67-2.52,4.9-3.68-1.59,1.23-2.38,4.33-4.9,3.68"/>
    <path class="cls-14" d="M68.21,110.64c2.02-.14,1.73-2.88,3.96-4.04-1.59,1.23-1.44,4.69-3.96,4.04"/>
    <path class="cls-14" d="M70.52,110.07c2.02-.14,1.08-3.1,3.32-4.25-1.59,1.23-.79,4.9-3.32,4.25"/>
    <path class="cls-14" d="M68.93,103.59c1.43-1.31,1.4-3.73,3.09-3.69-1.13.96-1.38,2.7-3.09,3.69"/>
    <path class="cls-14" d="M70.93,102.54c1.43-1.31,1.4-3.73,3.09-3.7-1.13.96-1.38,2.7-3.09,3.7"/>
    <path class="cls-14" d="M70.55,114.52c1.25-1.2.5-2.97,1.7-3.59-.67,1.33-.22,2.88-1.7,3.59"/>
    <path class="cls-14" d="M71.98,114.04c1.13-1.23.58-3.35,1.78-3.97-.67,1.32-.07,3.03-1.78,3.97"/>
    <path class="cls-14" d="M73.62,113.33c1.25-1.2.51-3.55,1.71-4.18-.67,1.32.11,3.24-1.71,4.18"/>
    <path class="cls-14" d="M75.49,112.25c.87-1.23.02-3.73,1.23-4.35-.67,1.32.29,3.2-1.23,4.35"/>
    <path class="cls-14" d="M78,112.27c.14-1.07.64-1.92,1.62-2.44-.27.55-.84,1.4-1.62,2.44"/>
    <path class="cls-14" d="M69.47,113.92c.14-1.07.64-1.92,1.62-2.43-.27.55-.84,1.4-1.62,2.43"/>
    <path class="cls-14" d="M68.33,114.16c.14-1.07.64-1.92,1.62-2.43-.27.55-.84,1.4-1.62,2.43"/>
    <path class="cls-14" d="M67.19,114.25c.25-1.11.64-1.53,1.46-2.11-.27.55-.67,1.07-1.46,2.11"/>
    <path class="cls-14" d="M79.4,111.63c.14-1.07.64-1.92,1.62-2.43-.27.55-.84,1.4-1.62,2.43"/>
    <path class="cls-14" d="M81.03,110.79c.14-1.07.64-1.92,1.62-2.43-.27.55-.84,1.4-1.62,2.43"/>
    <path class="cls-14" d="M82.59,109.72c.14-1.07.64-1.92,1.63-2.44-.27.55-.84,1.4-1.63,2.44"/>
    <path class="cls-14" d="M84.38,108.71c.63-.56.34-1.91,1.62-2.44-.27.55-.4,1.85-1.62,2.44"/>
    <path class="cls-14" d="M85.96,107.99c.63-.56.27-2.2,1.55-2.73-.27.55-.33,2.15-1.55,2.73"/>
    <path class="cls-14" d="M87.36,107.34c.63-.56.5-2.45,1.78-2.97-.27.55-.56,2.39-1.78,2.97"/>
    <path class="cls-14" d="M88.55,106.68c.63-.56.83-3.12,2.11-3.64-.27.55-.89,3.06-2.11,3.64"/>
    <path class="cls-14" d="M76.94,110.81c.82-1.11.05-3.32,1.25-3.94-.67,1.32.24,2.98-1.25,3.94"/>
    <path class="cls-14" d="M78.23,109.8c1.25-1.2.05-3.22,1.25-3.84-.67,1.32.43,2.79-1.25,3.84"/>
    <path class="cls-14" d="M79.53,108.89c1.25-1.2.24-3.22,1.44-3.84-.67,1.32.38,2.79-1.44,3.84"/>
    <path class="cls-14" d="M81.07,108.17c1.25-1.2.29-3.7,1.49-4.32-.67,1.32.24,3.22-1.49,4.32"/>
    <path class="cls-14" d="M82.7,107.11c1.2-1.25.23-4.01,1.43-4.63-.85,1.17.25,3.33-1.43,4.63"/>
    <path class="cls-14" d="M73.25,101.27c1.43-1.31,1.4-3.73,3.09-3.7-1.13.96-1.38,2.7-3.09,3.7"/>
    <path class="cls-14" d="M71.55,97.18c1.35-.38,2.07-2.04,3.54-2.49-1.38.69-2.09,3.18-3.54,2.49"/>
    <path class="cls-14" d="M74.54,96.54c1.01-.29,1.55-1.53,2.66-1.87-1.03.52-1.57,2.39-2.66,1.87"/>
    <path class="cls-14" d="M61.94,98.82c1.68-.48,2.58-2.55,4.43-3.11-1.72.86-2.61,3.98-4.43,3.11"/>
    <path class="cls-14" d="M60.55,98.36c1.19-.39,2.69-1.96,3.84-2.07-1.11.31-2.2,2.16-3.84,2.07"/>
    <path class="cls-14" d="M62.88,94.98c1.12-.69,2.46-3.3,4.86-3.59-1.85.56-2.54,3.7-4.86,3.59"/>
    <path class="cls-14" d="M58.11,94.62c.76-.2,3.24-2.34,4.67-2.08-1.16,0-3.35,2.55-4.67,2.08"/>
    <path class="cls-14" d="M60.37,94.92c.76-.2,3.23-3.03,4.65-2.77-1.16,0-3.34,3.25-4.65,2.77"/>
    <path class="cls-14" d="M70.24,94.06c.9-.56,1.97-2.64,3.89-2.87-1.48.45-2.03,2.96-3.89,2.87"/>
    <path class="cls-14" d="M72.67,93.75c.9-.56,1.97-2.64,3.89-2.87-1.48.45-2.03,2.96-3.89,2.87"/>
    <path class="cls-14" d="M75.48,93.08c.67-.42,1.48-1.98,2.92-2.15-1.11.34-1.52,2.22-2.92,2.15"/>
    <path class="cls-14" d="M77.57,92.74c.67-.42,1.48-1.98,2.92-2.15-1.11.34-1.52,2.22-2.92,2.15"/>
    <path class="cls-14" d="M64.17,90.14c.69-1.5,1.23-3.39,3.63-3.67-.5,1.12-1.9.73-3.63,3.67"/>
    <path class="cls-14" d="M62.44,90.05c.69-1.5,1.19-3.22,3.59-3.5-.5,1.12-1.86.56-3.59,3.5"/>
    <path class="cls-14" d="M60.37,89.98c1.11-1.69,1.54-2.83,3.81-3.4-.91,1.08-1.93,1.05-3.81,3.4"/>
    <path class="cls-14" d="M70.88,89.74c.69-1.5,2-4,4.4-4.28-.5,1.12-2.68,1.34-4.4,4.28"/>
    <path class="cls-14" d="M73.13,89.57c.69-1.5,2-4,4.4-4.28-.5,1.12-2.68,1.34-4.4,4.28"/>
    <path class="cls-14" d="M68.65,84.42c1.22-.43,4.25-3.94,6.19-4.17-1.29.53-4.23,4.06-6.19,4.17"/>
    <path class="cls-14" d="M55.27,83.97c1.22-.43,4.25-3.94,6.19-4.17-1.29.53-4.23,4.06-6.19,4.17"/>
    <path class="cls-14" d="M71.03,84.04c1.07-.37,3.72-3.45,5.42-3.65-1.13.47-3.7,3.55-5.42,3.65"/>
    <path class="cls-14" d="M53.52,83.89c1.07-.37,3.72-3.45,5.42-3.65-1.13.47-3.7,3.55-5.42,3.65"/>
    <path class="cls-14" d="M73.61,83.66c.91-.32,3.19-2.95,4.64-3.12-.97.4-3.17,3.04-4.64,3.12"/>
    <path class="cls-14" d="M51.5,84.27c.91-.32,3.19-2.95,4.64-3.12-.97.4-3.17,3.04-4.64,3.12"/>
    <path class="cls-14" d="M76.2,83.35c.76-.27,2.66-2.46,3.87-2.6-.81.33-2.64,2.54-3.87,2.6"/>
    <path class="cls-17" d="M88.28,148.33c.28-.34,1.38-1.71,2.39-1.68.81.03,1.43.73,2.02,1.35.15.15.44.58.66,1.43.34,1.29-.13,2.8-1.34,3.77.52-2.11-.86-2.87-1.27-3.82-.66.06-1.29-.28-1.26-1.27-.49.5-.38,1.41.69,1.66.7,2.32-1.83,1.54-2.53,3.05-.65,1.41-2.53-.05-2.42-1.48.07-.89.75-1.53,1.68-1.44-.56-.8-1.07-.19-1.81-.18,1.05-.35.44-1.27-.85-1.46.94-.22.63-1.12-.81-1.22.96-.46.56-1.39-.7-1.47.79-.7.37-1.42-1.28-1.44,1.03-.47,2.95-.93,3.41-.14.46.79,1.83,3.49,2.08,3.88.25.39,1.05.8,1.33.46"/>
    <path class="cls-17" d="M85.4,158.59c-.27-.73-.25-1.77.05-2.69-.99.31-1.78-.42-1.66-1.15.28.61.96,1.1,1.64.73.31-.17.75-.62.94-1.36-1.1-.07-1.78-1.32-1.76-2.13-.95.79-1.66,1.91-1.94,2.82-.16.52.14,1.37.3,1.73.29.63.26,1.17.88,2.41.61,1.24,2.55,2.03,4.05.85-1.55.21-2.21-.39-2.51-1.21"/>
    <path class="cls-17" d="M96.88,149.67c-.47-.24-.89-.24-1.34-.24-.44,0-.98.15-1.37.45.09-.89-.29-1.84-1.29-2.54,1.23-.51,2.18-.54,3.03-.23.93.34,1.78,1.14,2.15,1.74.55.88.74,2.5.13,3.32.23-1.08-.66-2.16-1.31-2.49"/>
    <path class="cls-17" d="M95.73,154.63c-.44-1.11-1.46-1.84-2.24-2.01.2-.43.36-.9.49-1.54,1.29.31,3.01,1.75,3.09,3.35.04.84-.35,1.87-1.49,2.53.6-.91.41-1.67.15-2.32"/>
    <path class="cls-17" d="M96.22,146.06c-.58-.09-1.22-.18-1.85-.04.23-1.57,1.11-2.2,2.38-2.69,1.32-.17,3.23.19,3.76,1.48-1.7-.41-3.41.06-4.29,1.25"/>
    <path class="cls-17" d="M92.83,138.78c.35-.38,2.37-.9,3.05-.37.68.52,1.6,1.66,3.13,2.41.43-1.15,1.4-2.62,2.36-3.39.96-.77,2.32-.57,3.14-.31.82.26,2.14,1.42,1.66,3.05-.49,1.63-1.29,2.58-2.72,3.48,1.25-1.56.86-2.35.37-2.85-.59-.57-.43-2-.03-2.49-.63.02-.95,1.25-.87,2.04-.8-.29-1.34-.58-1.68-1.2.02.47.04,1.11.95,1.39.28.46-.73.78-.88,1.52s.59,1.92-.22,1.99c-.8.07-.85-2-4.41-1.34.54-.28.64-1.16-.68-1.29.5-.39-.02-.89-.93-.97.57-.39.39-.84-1.03-.75.53-.53.34-1.07-1.2-.9"/>
    <path class="cls-17" d="M101.96,142.96c-.18-.47.02-.95.43-1.12-.01-.37.23-.75.6-.81.22.26.55.51.71.66.02.63-1.59,1.68-1.74,1.28"/>
    <path class="cls-17" d="M106.45,141.57c.46-.49.74-1.35.5-2.03,1.07.28,1.92.4,2.41.86.49.46,1.13,1.91,1.04,2.44-.08.53-.14,1.75-1.18,2.16.75-1.19-.08-2.05-.48-2.73-.85-.18-2.75-.21-2.3-.7"/>
    <path class="cls-17" d="M104.16,143.93c-.3.33-.65,1.03.33,1.68.97.65,2.88,2.1.99,3.71,1.41-.42,2.33-1.15,2.51-1.94.18-.8-.61-2.09-.61-2.09,0,0-1.11-1.43-1.98-2.14-.37.07-.93.46-1.24.79"/>
    <path class="cls-4" d="M126.22,124.61c-.59-.82.29-1.81.92-1.68-.87-.7-2.26.75-.92,1.68"/>
    <path class="cls-12" d="M123.96,123.52c-.52.33-.78-.35-.75-.74.03-.39.21-1.47.15-2.84.62,1.71.24,2.4.6,3.58"/>
    <path class="cls-12" d="M122.94,121.51c.03.36-.1.63-.36.69-.26-.45-.69-2.38-.56-3.37.27,1.94.84,1.72.92,2.68"/>
    <path class="cls-12" d="M121.65,119.72c.02.5.04,1.01-.42,1.05-.35-1.07.2-2.89-.61-4.04,1.03,1.26,1.01,2.49,1.03,2.99"/>
    <path class="cls-12" d="M120.21,120.07c-.18.2-.64-.43-.74-1.03-.1-.6.45-2.06-.79-3.62,1.54,1.36,1.24,2.74,1.61,3.66.13.31.1.79-.08.99"/>
    <path class="cls-3" d="M74.67,127.22c1.87.18,4.55-1.78,7.67-2.22-2.8.62-5.17,3.79-7.67,2.22"/>
    <path class="cls-3" d="M63.59,133.53c1.85-1.14,2.16-5.36,4.31-6.63-2.33,2.52-1.71,6.29-4.31,6.63"/>
    <path class="cls-3" d="M64.75,134.26c1.85-1.14,2.16-5.36,4.31-6.63-2.33,2.52-1.71,6.29-4.31,6.63"/>
    <path class="cls-3" d="M66.31,134.67c1.85-1.14,2.16-5.36,4.31-6.63-2.33,2.52-1.71,6.29-4.31,6.63"/>
    <path class="cls-3" d="M68.78,134.34c1.85-1.14,1.28-3.79,3.63-5.77-2.03,2.81-1.03,5.44-3.63,5.77"/>
    <path class="cls-3" d="M70.9,133.78c1.85-1.14,1.26-2.54,3.13-4.87-1.55,2.73-.61,4.06-3.13,4.87"/>
    <path class="cls-3" d="M56.29,140.81c.94-.33,1.74-2.33,2.91-2.56-.7.38-1.95,2.87-2.91,2.56"/>
    <path class="cls-3" d="M59.87,137.12c.99-.51,1.51-3.49,2.85-4.19-.8.74-1.59,4.5-2.85,4.19"/>
    <path class="cls-3" d="M61.03,137.84c.99-.51,1.22-2.24,2.55-2.95-.8.74-1.3,3.25-2.55,2.95"/>
    <path class="cls-3" d="M54.37,144.86c.99-.51,1.7-1.84,3.04-2.54-.8.74-1.78,2.85-3.04,2.54"/>
    <path class="cls-12" d="M44.5,147.85c1.35-.32,3.17-1.86,5.31-2.53-1.75.87-2.71,2.79-5.31,2.53"/>
    <path class="cls-3" d="M62.93,137.82c.99-.51,1.22-2.24,2.55-2.95-.8.74-1.3,3.25-2.55,2.95"/>
    <path class="cls-3" d="M64.48,137.94c.99-.51,1.22-2.24,2.55-2.95-.8.74-1.3,3.25-2.55,2.95"/>
    <path class="cls-3" d="M66.31,137.87c.99-.51,1.22-2.24,2.55-2.95-.8.74-1.3,3.25-2.55,2.95"/>
    <path class="cls-3" d="M67.97,137.81c.99-.51,1.22-2.24,2.55-2.95-.8.74-1.3,3.25-2.55,2.95"/>
    <path class="cls-3" d="M70.26,142.14c.99-.51,3.07-2.24,4.41-2.95-.8.74-3.15,3.25-4.41,2.95"/>
    <path class="cls-3" d="M57.43,141.3c.94-.33,1.64-2.02,2.82-2.24-.7.38-1.86,2.56-2.82,2.24"/>
    <path class="cls-3" d="M51.59,144.78c.99-.02,2.8-1.51,3.84-2.17-.84,1.19-2.64,2.81-3.84,2.17"/>
    <path class="cls-3" d="M58.92,141.54c.94-.33,1.97-2.24,3.15-2.46-.7.38-2.18,2.78-3.15,2.46"/>
    <path class="cls-3" d="M60.24,141.78c.94-.33,2.87-2.53,4.05-2.75-.7.38-3.09,3.07-4.05,2.75"/>
    <path class="cls-3" d="M55.87,145.28c1.46-.47,2.45-2.59,3.63-2.81-.93.39-1.78,3.03-3.63,2.81"/>
    <path class="cls-3" d="M58.35,145.12c1.46-.47,2.45-2.59,3.63-2.81-.93.39-1.78,3.03-3.63,2.81"/>
    <path class="cls-3" d="M61.11,144.3c1.46-.47,2.45-2.59,3.63-2.81-.93.39-1.78,3.03-3.63,2.81"/>
    <path class="cls-3" d="M63.92,143.48c1.46-.47,2.45-2.59,3.63-2.81-.93.39-1.78,3.03-3.63,2.81"/>
    <path class="cls-3" d="M66.21,142.8c1.46-.47,2.45-2.59,3.63-2.81-.93.39-1.78,3.03-3.63,2.81"/>
    <path class="cls-3" d="M72.15,125.6c.32-1.21,3.43-1.65,4.81-2.64-1.15,1.19-3.19,1.17-3.41,2.22,1.84.35,4.5-1.86,6.37-2.13-2.8.62-4.64,3.62-7.77,2.55"/>
    <path class="cls-12" d="M45.36,144.59c7.4-3.03,8.22-11.25,12.2-14.56-2.83,2.6-4.99,13.38-12.2,14.56"/>
    <path class="cls-3" d="M48.82,154.06c4.23-1.06,3.56-4.81,7.3-6.82-3.08,2.21-2.4,6.25-7.3,6.82"/>
    <path class="cls-3" d="M47.09,151.27c3.27-.29,2.98-2.5,5.67-4.04-2.31,1.92-2.21,4.23-5.67,4.04"/>
    <path class="cls-3" d="M51.99,155.79c4.71-1.73,3.84-6.63,8.27-8.94-3.75,2.4-2.79,7.98-8.27,8.94"/>
    <path class="cls-3" d="M56.51,157.14c4.81-3.36,2.88-8.07,7.88-10.96-4.42,3.08-2.21,8.07-7.88,10.96"/>
    <path class="cls-3" d="M64.01,157.33c2.88-3.94.19-7.79,3.17-10.48-2.31,2.6.48,6.44-3.17,10.48"/>
    <path class="cls-3" d="M68.33,155.6c.87-4.52-1.2-7.18,3.05-9.78-3.32,2.6-1.71,6.22-3.05,9.78"/>
    <path class="cls-3" d="M62,131.93c.84-.61,2.96-5.93,5.58-8.81-2.26,2.87-3.36,8.37-5.58,8.81"/>
    <path class="cls-12" d="M42.05,142.14c3.83-.72,7.39-7.07,10.62-8.84-3.63,2.71-5.86,8.55-10.62,8.84"/>
    <path class="cls-3" d="M76.36,127.92c1.87.18,4.55-1.78,7.67-2.22-2.8.62-5.18,3.79-7.67,2.22"/>
    <path class="cls-3" d="M77.93,128.69c1.82.43,4.75-1.15,7.9-1.16-2.86.24-5.64,3.06-7.9,1.16"/>
    <path class="cls-3" d="M87.74,134.35c2.93-.69,3.62-3.39,9.01-1.94-4.8-.9-5.91,1.96-9.01,1.94"/>
    <path class="cls-3" d="M76.34,143.67c2.06,1.15,3.11.1,4.54-.03-.47.81-2.28,1.93-4.54.03"/>
    <path class="cls-3" d="M76.73,142.43c2.06,1.15,3.11.1,4.54-.03-.47.81-2.28,1.93-4.54.03"/>
    <path class="cls-3" d="M76.9,141.27c2.06,1.15,3.11.1,4.54-.03-.47.81-2.28,1.93-4.54.03"/>
    <path class="cls-3" d="M77.21,140.03c2.06,1.15,3.11.1,4.54-.03-.47.81-2.28,1.93-4.54.03"/>
    <path class="cls-3" d="M85.19,143.04c-.31-1.47-.33-6.02-.18-8.29.1-1.58-.37-2.16-3.52-1.52,3.25-1.79,4.89-.7,4.53,1.48-.41,2.47-.56,5.94-.83,8.33"/>
    <path class="cls-3" d="M89.31,139.63c2.29-.45,4.29-4.71,5.15-3.09-1.92.58-3.54,3.53-5.15,3.09"/>
    <path class="cls-3" d="M89.26,138.26c2.29-.45,4.29-4.71,5.15-3.09-1.93.58-3.54,3.53-5.15,3.09"/>
    <path class="cls-3" d="M90.33,135.99c1.91-.87,2.83-3.21,4.02-2.32-1.92.58-2.3,1.96-4.02,2.32"/>
    <path class="cls-3" d="M78.79,136.15c2.07-.59,3.79-2.67,5.35-1.58-1.3-.17-3.12,1.35-5.35,1.58"/>
    <path class="cls-3" d="M77.49,138c2.07-.59,3.79-2.67,5.35-1.58-1.3-.17-3.12,1.35-5.35,1.58"/>
    <path class="cls-3" d="M75.55,140.02c2.07-.59,3.79-2.67,5.35-1.58-1.3-.17-3.12,1.35-5.35,1.58"/>
    <path class="cls-3" d="M82.42,129c1.09.26,2.85-.69,4.74-.7-1.71.14-3.38,1.83-4.74.7"/>
    <path class="cls-3" d="M101.05,113.51c-2.59.4-3.56,2.87-4.91,3.33,1.71-.13,3.57-2.75,4.91-3.33"/>
    <path class="cls-3" d="M97.79,119.57c-1.45.89-3.74,1.33-5.23,2.63,2.02-1.38,4.42-.71,5.23-2.63"/>
    <path class="cls-3" d="M96.58,118.9c-1.45.89-3.74,1.33-5.23,2.63,2.02-1.38,4.42-.71,5.23-2.63"/>
    <path class="cls-3" d="M95.25,118.3c-1.45.89-3.74,1.33-5.23,2.63,2.02-1.38,4.42-.71,5.23-2.63"/>
    <path class="cls-3" d="M102.61,116.07c-1.45-.35-1.66.61-3.49,1.17,2.54-.39,2.21-.89,3.49-1.17"/>
    <path class="cls-3" d="M104.45,114.34c-.98,1.69-2.75.11-4.24,1.41,2.02-1.38,3.69,1.2,4.24-1.41"/>
    <path class="cls-3" d="M100.65,112.28c-2.59.4-2.87,2.48-4.21,2.95,1.71-.13,2.87-2.37,4.21-2.95"/>
    <path class="cls-3" d="M100.29,110.69c-2.59.4-2.57,2.65-3.91,3.12,1.71-.13,2.57-2.53,3.91-3.12"/>
    <path class="cls-3" d="M99.64,109.18c-2.59.4-2.04,2.45-3.38,2.92,1.71-.13,2.04-2.33,3.38-2.92"/>
    <path class="cls-3" d="M95.49,112.84c-2.59.4-2.04,2.45-3.38,2.92,1.71-.13,2.04-2.33,3.38-2.92"/>
    <path class="cls-3" d="M95.74,114.18c-2.59.4-2.04,2.45-3.38,2.92,1.71-.13,2.04-2.33,3.38-2.92"/>
    <path class="cls-3" d="M105.21,124.73c-.18.39-.66.92-.94,1.07-.28.16-.74.13-.54-.15.21-.27.92-.37,1.48-.92"/>
    <path class="cls-3" d="M103.19,125.34c-.18.39-.66.92-.94,1.07-.28.16-.74.12-.54-.15.21-.27.92-.37,1.48-.92"/>
    <path class="cls-3" d="M102.59,124.25c-.18.39-.66.92-.94,1.07-.28.16-.74.13-.54-.15.21-.27.92-.37,1.48-.92"/>
    <path class="cls-3" d="M102.5,123.2c-.18.39-.66.92-.94,1.07-.28.16-.74.12-.54-.15.21-.27.92-.37,1.48-.92"/>
    <path class="cls-3" d="M101.01,126.38c-.18.39-.66.92-.94,1.07-.28.16-.74.12-.54-.15.21-.27.92-.37,1.48-.92"/>
    <path class="cls-12" d="M101.54,76.77c1.52.78,5.24-.74,5.56.86-1.7.82-4.43.38-5.56-.86"/>
    <path class="cls-12" d="M80.79,95.69c3.37-1.02,10.16-1.55,10.48.05-1.7.82-6.08-.92-10.48-.05"/>
    <path class="cls-12" d="M85.61,102.36c1.92-1.26,4.17-4.1,6.31-2.76-1.62.09-3.94,1.71-6.31,2.76"/>
    <path class="cls-12" d="M106.61,68.23c2.53-.6,5.24-.74,5.56.86-1.11.32-1.98-1.08-5.56-.86"/>
    <path class="cls-12" d="M111.68,63.12c2.53-.6,5.24-.74,5.56.86-1.11.32-1.98-1.08-5.56-.86"/>
    <path class="cls-12" d="M80.4,93.13c3.24-1.4,8.17-2.51,8.49-.91-.95.27-4.57-.33-8.49.91"/>
    <path class="cls-12" d="M78.99,89.55c4.88-.49,8.12-2.49,8.43-.88-1.11.32-4.85.67-8.43.88"/>
    <path class="cls-12" d="M67.92,73.17c4.08-.1,6.99-1.38,8.3.37-1.11.32-4.02.25-8.3-.37"/>
    <path class="cls-12" d="M104.42,113.2c.54-4.25-1.49-10.51-4.42-13.93-2.93-3.42-10.08-14.62-10.08-14.62,0,0-5.37-10.1-8.61-13.88-3.24-3.78-6.95-7.19-10.91-9.9,2.44,2.19,3.61,4.14,3.61,4.14,0,0-1.51-.93-3.46-1.42,1.98,1.08,5.92,4.17,5.92,4.17,0,0-1.4-.55-2.21,0,1.56-.33,4.32,1.79,4.32,1.79,0,0-4.39-.98-5.11-.56,4.5.97,6.88,3.59,6.88,3.59,0,0-.79-.57-1.67-.26,1.16.06,3.95,2.9,3.95,2.9,0,0-5.15-2.42-8.01-2.51,5.39,1.28,10.01,5.21,10.01,5.21,0,0-5.53-.24-9.2.23,9.18.38,10.43,2.09,11.05,3.23-1.26-.82-2.53-.87-3.66-.54,1.76.26,3.73,1.78,4.79,2.78-1.09-.24-6.74-.14-7.67.41,4.28-.74,8.09.86,9.08,1.8-.83.13-1.54.57-2.62,1.3,2.78-.37,4.15.76,4.89,1.53-1.35-.14-2.32-.03-3.51.84,2.25-.08,3.73,1.03,3.73,1.03,0,0-7.55-.82-8.93-.3,5.82-.13,9.19,1.65,10.11,2.57-1.01.28-2.94.25-3.7.87,1.98-.08,4.82.29,5.58,1.99-1.44.22-2.5,1.06-4.22,2.45,3.26-.84,4.57-.18,6.42.5-1.66.26-6.66,3.37-7.33,4.52,3.85-3.2,7.79-3.43,9.56-2.16-1.4.29-2.57.73-3.69,1.59,1.66-.44,2.88-.31,4.19.22-1.74.28-2.75,1.39-5.07,2.4,3.43-.53,5.31-.03,7.46.98-1.41,0-2.42.35-3.49.97,3.52-.2,5.6,2.22,6.01,6.11"/>
    <path class="cls-12" d="M108.8,104.01c1.52.72,3.39,1.8,3.89,2.81-2.96-1.08-5.05.95-6.81.44,2.13-.8,2.48-1.51,2.06-2.14-1.08-1.61-2.31-.89-4.47-3.2,1.87-.07,1.33-1.31,1.33-1.31,0,0-2.12.16-4.22-2.69,2.3,1.03,3.39-.22,3.39-.22,0,0-4.66-1.48-6.6-4.33,4.08,2.33,5.39.63,5.39.63,0,0-4.69-1.94-6.42-3.56,3.79,1.51,4.83.12,4.83.12,0,0-3.94-1.37-6.06-4.18,3.91,2.46,7.01,1.21,7.01,1.21,0,0-.26-1.76-4.32-2.51,2.85-.38,7.74,1.38,7.74,1.38,0,0-1.49-2.43-4.2-3.27,2.21-.24,5.79.42,5.79.42,0,0-4.97-3.71-9.04-4.97,3.28.24,8.48,2.25,8.48,2.25,0,0,1.75-1.03-1.52-2.25,2.28-.35,6-.2,6-.2,0,0-2.37-2.76-7.88-3.44,4.8-.45,9.03,1.16,9.03,1.16,0,0-.18-1.93-4.08-2.73,2.7-.33,6.18.63,6.18.63,0,0-3.72-2.68-10.46-4.09,4.54.18,11.85,2.65,11.85,2.65,0,0-1.11-1.82-3.65-2.79,2.41-.18,4.58.37,4.58.37,0,0-6.3-3.66-8.84-6.59,5.61,4.09,10.82,3.97,10.82,3.97,0,0-.23-2.37-3.09-2.41,1.62-.74,3.31-.5,3.31-.5,0,0-.13-1.88-2.18-2.38,2.46-.49,4.14.31,4.14.31,0,0-3.2-2.01-4.87-6.48,4.08,5.27,8.09,3.61,8.09,3.61,0,0,.05-2.17-1.72-2.36,1.94-.51,3.01.04,3.01.04,0,0-.17-1.21-2.22-1.46,1.78-.48,3.37.24,3.37.24,0,0,.45-1.42-2.24-2.06.95.08,2.03.06,4.28.28,2.25.21,2.87,3.05,1.85,4.34-1.01,1.29-4.18,6.08-4.18,6.08,0,0-.46-1.67-2.48-1.54,1.4.36,1.89,2.2,1.89,2.2l-2.9,4.31s-.68-1.62-2.49-1.62c1.39.63,1.51,2.28,1.51,2.28,0,0-2.14-1.1-3.52-.46,1.68-.03,2.87,2.18,2.87,2.18l-2.92,4.5s-1.31-2.34-4.26-1.09c2.3.03,3.28,2.03,3.28,2.03,0,0-.74-.47-1.92-.3.92.36.95,1.63.95,1.63,0,0-2.28-.7-3.68.42,2.77-.27,3.07.75,3.07.75l-4.12,6.33s-1.03-1.53-3.2-1.18c1.79.55,2.4,2.61,2.4,2.61,0,0-1.39-2.01-3.89-2.3,2.9,1.29,2.95,4.02,2.95,4.02,0,0-1.58,2.28-2.72,4.05-.36-.81-1.13-1.25-2.04-1.07,1.06.55,2,1.85,1.43,2.89-1.73,3.17-.69,7.05,2.48,8.56"/>
    <path class="cls-12" d="M131.81,55.92c-.2-2.51-1.27-2.98-2.97-2.65.91-.87,3.34-1.44,4.08-1.19.73.25.56,2.34-1.1,3.84"/>
    <path class="cls-12" d="M134.37,52.48c-.07-1.36-1.09-1.55-1.86-1.49.74-.73,1.83-1.64,3.18-3.27-.72,1.81.35,3.26-1.31,4.76"/>
    <path class="cls-17" d="M88.46,152.72c.34-.62,2.5-.62,2.45-2.11.35.32.44.83.35,1.14-.19.62-1.45.39-2.8.96"/>
    <path class="cls-9" d="M20.89,44.76c1.37-.19,2.87-1.5,3.66-1.66.07.57-2.15,1.6-3.66,1.66"/>
    <path class="cls-3" d="M143.3,36.56c-.53,1.54.87,2.73.02,4.59.36-1.52-1.22-3-.02-4.59"/>
    <path class="cls-3" d="M141.96,38.34c-.53,1.54,1.06,2.83.22,4.68.36-1.52-1.42-3.1-.22-4.68"/>
    <path class="cls-3" d="M140.56,40.21c-.53,1.54,1.3,3.26.46,5.11.36-1.52-1.66-3.53-.46-5.11"/>
    <path class="cls-3" d="M139.27,41.99c-.53,1.54,1.35,3.31.5,5.16.36-1.52-1.71-3.58-.5-5.16"/>
    <path class="cls-3" d="M136.94,37.76c-.24,1.54,1.1,2.55,1.01,4.71-.29-1.92-1.83-2.79-1.01-4.71"/>
    <path class="cls-3" d="M135.93,39.11c-.24,1.54,2.19,4.23,2.09,6.39-.29-1.92-2.91-4.47-2.09-6.39"/>
    <path class="cls-3" d="M135.09,40.69c-.24,1.54.89,2.26.79,4.42-.29-1.92-1.61-2.5-.79-4.42"/>
    <path class="cls-3" d="M134.44,43.1c-.12,1.44.79,1.63.55,3.36-.05-1.44-1.06-1.73-.55-3.36"/>
    <path class="cls-3" d="M140.78,31.66c-.24,1.54.79,2.4.6,4.47-.05-1.73-1.42-2.55-.6-4.47"/>
    <path class="cls-3" d="M141.77,29.88c-.24,1.54.24,1.78.05,3.84-.05-1.73-.86-1.92-.05-3.84"/>
    <path class="cls-3" d="M142.77,28.15c-.29,1.25.38,1.97-.24,3.56.29-1.44-.62-2.02.24-3.56"/>
    <path class="cls-3" d="M144.02,26.42c-.29,1.25.1,1.73-.53,3.32.29-1.44-.34-1.78.53-3.32"/>
    <path class="cls-3" d="M145.66,24.31c-.53.96-.24,2.02-.96,3.27.38-1.15-.05-2.21.96-3.27"/>
    <path class="cls-3" d="M147.87,21.9c-.82.96-.91,2.11-1.87,3.46.63-1.15.67-2.5,1.87-3.46"/>
    <path class="cls-14" d="M58.24,54.73c2.14.31,4.21.3,5.52,1.33-1.8-.75-3.33-.17-5.52-1.33"/>
    <path class="cls-14" d="M56.34,52.78c2.14.31,3.82.3,5.12,1.33-1.8-.75-2.94-.17-5.12-1.33"/>
  </g>
</svg>