<?xml version="1.0" encoding="UTF-8"?>
<svg xmlns="http://www.w3.org/2000/svg" version="1.1" xmlns:xlink="http://www.w3.org/1999/xlink" viewBox="0 0 164.9 119.9">
  <defs>
    <style>
      .cls-1 {
        fill: #fab417;
      }

      .cls-2 {
        fill: #fff;
      }

      .cls-3, .cls-4 {
        isolation: isolate;
      }

      .cls-4 {
        fill: #f8b218;
        font-family: Audiowide-Regular, Audiowide;
        font-size: 5px;
      }

      .cls-5 {
        fill: url(#linear-gradient);
      }
    </style>
    <linearGradient id="linear-gradient" x1="22.5" y1="700.3" x2="142.7" y2="700.3" gradientTransform="translate(0 -670)" gradientUnits="userSpaceOnUse">
      <stop offset="0" stop-color="#bcbcbb"/>
      <stop offset="0" stop-color="#fff"/>
      <stop offset="0" stop-color="#d4d4d4"/>
      <stop offset=".3" stop-color="#9f9f9f"/>
      <stop offset=".4" stop-color="#7e7e7e"/>
      <stop offset=".5" stop-color="#727272"/>
      <stop offset=".8" stop-color="#fff"/>
      <stop offset="1" stop-color="#ebebeb"/>
    </linearGradient>
  </defs>
  <!-- Generator: Adobe Illustrator 28.7.2, SVG Export Plug-In . SVG Version: 1.2.0 Build 154)  -->
  <g>
    <g id="Layer_1">
      <g id="uuid-f42db671-26a9-4b3b-9cc0-3cab8d929bee">
        <g>
          <rect class="cls-2" width="164.9" height="119.9" rx="18.9" ry="18.9"/>
          <rect y="0" width="164.9" height="46.3" rx="18.9" ry="18.9"/>
        </g>
        <g>
          <g class="cls-3">
            <g class="cls-3">
              <text class="cls-4" transform="translate(76.8 10.8)"><tspan x="0" y="0">Pe</tspan></text>
            </g>
            <g class="cls-3">
              <text class="cls-4" transform="translate(84.1 10.8)"><tspan x="0" y="0">n</tspan></text>
            </g>
            <g class="cls-3">
              <text class="cls-4" transform="translate(87.5 10.8)"><tspan x="0" y="0">tic</tspan></text>
            </g>
            <g class="cls-3">
              <text class="cls-4" transform="translate(94.8 10.8)"><tspan x="0" y="0">t</tspan></text>
            </g>
            <g class="cls-3">
              <text class="cls-4" transform="translate(97.6 10.8)"><tspan x="0" y="0">on</tspan></text>
            </g>
            <g class="cls-3">
              <text class="cls-4" transform="translate(78.3 16.9)"><tspan x="0" y="0">R</tspan></text>
            </g>
            <g class="cls-3">
              <text class="cls-4" transform="translate(82.4 16.9)"><tspan x="0" y="0">ob</tspan></text>
            </g>
            <g class="cls-3">
              <text class="cls-4" transform="translate(89.3 16.9)"><tspan x="0" y="0">o</tspan></text>
            </g>
            <g class="cls-3">
              <text class="cls-4" transform="translate(92.8 16.9)"><tspan x="0" y="0">tics</tspan></text>
            </g>
          </g>
          <g>
            <path class="cls-1" d="M75.1,12.4c0,3-2.5,5.5-5.5,5.5s-5.5-2.5-5.5-5.5,2.5-5.5,5.5-5.5,5.5,2.5,5.5,5.5ZM71.4,17.5c0,0,.3-.1.3-.1h0c0-.1-.2-.3-.2-.3l-.2-.2-.2-.2h0s-.2-.3-.6-.6c-.5-.5-1-1-1.3-1.3l-.3-.3h0v-.2s0-.2,0-.2h0l.2-.2.2-.2h0s0-.1,0-.2v-.4s0-.1,0-.1h.6v.2h0c0,0,0,0,0,0h0v.3c0,0,0,0,0,0h0v.2h0s0,0,.2.1h0l.3.3c.2.2.4.4.6.6.2.2.5.5.9.9,0,.1.3.3.4.4s.3.3.4.4l.2.2h0c0,.1,0,.2.2.3h0c0,.1.3-.1.3-.1h0c0-.2-.5-.6-1.2-1.3-.2-.2-.4-.4-.6-.6-.4-.4-.7-.7-.9-.9,0-.1-.3-.3-.4-.4l-.2-.2h0v-.6h0l.2-.2.2-.2h.2c0,.1,0,.1.2.1h0l.2.2c.2.2.3.3.4.4s.3.3.5.5.4.4.6.6.4.4.6.6c.8.8,1,1,1,1h0c0,.1,0,.2,0,.2l.2-.3h-.2c0-.1,0-.2-.2-.3,0,0-.2-.2-.3-.3s-.3-.3-.4-.4c-.2-.2-.6-.6-.9-.9,0-.1-.3-.3-.5-.5,0-.1-.3-.3-.5-.5,0-.1-.3-.3-.3-.3h0v-.6h0l.2-.2.2-.2h0s0,.1.2.1h.2c0,.1.7.7,1.1,1.2.6.6.7.6.9.9h0s0,.1.2.1h0q0,.1,0,.2h0v-.2h0v-.2c0,0-.2-.1-.3-.1h0s0-.1-.2-.2-.2-.2-.2-.2h0l-.2-.2h0l-.6-.6c0-.1-.3-.3-.4-.4,0-.1-.3-.3-.4-.4s-.3-.3-.4-.4c0,0-.2-.1-.2-.2h0v-.2c0-.1,0-.3,0-.4h0l.9-1,.9-.9h0c-.2-.2-.5-.4-.7-.6-.4-.3-.9-.6-1.4-.7h-2.2c-.7,0-1.4.3-2.1.7-.9.5-1.7,1.3-2.2,2.3h0c0,.1,0,.3-.2.5,0,0,0,.3,0,.4h0v.3h0v1.8c0,.2,0,.5,0,.7h0v.3s0,.2,0,.3c.2.6.6,1.1,1,1.5l.2.2h0l.9-1,.9-.9h0c0,.1.3.2.5.1h0s.7.7.9.9c0,.1.3.3.4.4s.3.3.4.4l.2.2h0q0,.1,0,.2h0c0,.1.3.4.3.4h0v.2h0l1,.5Z"/>
            <path class="cls-1" d="M67.7,14.3s0-.1,0-.2v-.2c0-.2.2-.3.3-.4h.5q0,.1,0,.1h-.2v.3h0c0,.1-.4.4-.4.4Z"/>
            <path class="cls-1" d="M68,14.2h0l.2-.2h.2c0,0,0,0-.2,0h-.2Z"/>
            <path class="cls-1" d="M69,13.2h0l.2-.2.2-.2h0q0,.3-.2.4h-.2Z"/>
            <path class="cls-1" d="M69.8,12.2h0v-.3c0-.1,0-.2.2-.3,0,0,.2-.1.3-.1h.4-.2v.2h0c0,.1-.7.5-.7.5Z"/>
            <path class="cls-1" d="M67.5,12.2h0c0-.1,0,0,0-.1h0v-.2c0,0,0,0,0,0h0s0,0,0,0h0q0-.1,0-.1h0v-.2h0v-.2h0v-.2h0v-.3h0q0-.1,0,0h0v.2h0q0,.1,0,.1h0v.2h0v.2h0c0,0,0,0,0,0h0q0,.1,0,.1h0v.3h0s0,.1,0,.1,0,0,0,0h0c0,.2,0,.1,0,.1h0c0,.2,0,.1,0,.1h0c0,.1,0,0,0,0h0v.3h0s0,0,0,0h0v-.4ZM67.3,11.7h0v-.5h0s-.2,0-.2-.1h-.4c0,.1.2.3.3.3h.2v.3ZM68,11.7h.2s.2-.1.2-.2h0v-.2h-.2c0,0,0,0,0,0h0v.4h0ZM68.1,10.4c0-.3-.2-.5-.5-.5s-.5.2-.5.5.2.5.5.5.5-.2.5-.5ZM66.6,10.9h.2c0,0,0,0,0,0h0v-.3h0v-.2h-.4v.4h0v.2h0c0,.1,0-.1,0-.1ZM68.8,10.9h0v-.7h0q0-.1-.2,0h0v.2h0q0,.1.2.1c.2,0,0,0,0,0h0v.4ZM67.2,9.9h0v-.4h-.4s0,0,0,.1h0c0,.1,0,.1.2.1h0l.2.2ZM68.2,9.9h0s0,0,.2-.1h0v-.2h0c0-.1,0,0,0,0v.2h0s0,0,.2.1,0,0,0,0h-.3Z"/>
            <path class="cls-1" d="M70.1,12.1h0l.2-.2h.2c0-.1,0,0,0,0,0,0,0,.1-.2.2h-.2Z"/>
            <path class="cls-1" d="M70.8,11.2s0-.1,0-.2v-.2c0-.2.2-.3.3-.4.2,0,.3,0,.5.1h0c0,.1,0,.1,0,.1,0,0,0,0,0,.1h0v.2h0v.2h-.5Z"/>
            <path class="cls-1" d="M71.1,11.1h0l.2-.2h.2c0-.1,0,0,0,.2h-.3Z"/>
          </g>
        </g>
        <path class="cls-5" d="M25.9,31.4c-1.2-.4-2.1-.9-2.6-1.5s-.8-1.3-.8-2.1.3-1.6,1-2.2c.6-.5,1.5-.8,2.7-.8s1.7.1,2.4.3c.2,0,.4.2.6.4.1.2.2.4.2.7v.4c0,.2,0,.3-.2.5s-.3.1-.5,0c-.8-.3-1.6-.4-2.3-.4s-1.3.4-1.3,1,.4,1,1.2,1.3c1.3.4,2.3.9,2.8,1.4s.8,1.2.8,2.1c0,2.1-1.3,3.1-3.9,3.1s-1.6,0-2.3-.4c-.2,0-.4-.2-.5-.5-.1-.2-.2-.5-.2-.7v-.5c0-.2,0-.3.2-.4s.3,0,.5,0c.7.3,1.4.5,2.2.5s.9,0,1.2-.3.4-.5.4-.8,0-.6-.3-.8c-.2-.2-.5-.4-1-.5h0l-.3.2ZM32.6,35.6c-.2,0-.4,0-.6-.2-.2-.2-.2-.4-.2-.6v-9c0-.2,0-.4.2-.6.2-.2.3-.2.6-.2h1.1c.2,0,.4,0,.6.2.2.2.2.4.2.6v9c0,.2,0,.4-.2.6-.2.2-.3.2-.6.2h-1.1ZM37.7,35.6c-.2,0-.4,0-.6-.2-.2-.2-.2-.4-.2-.6v-9c0-.2,0-.4.2-.6s.4-.2.6-.2h.9c.2,0,.4,0,.6.2.2.2.2.4.2.6v7.6s0,0,0,0h3.5c.2,0,.4,0,.6.2.2.2.2.4.2.6v.4c0,.2,0,.4-.2.6-.2.2-.4.2-.6.2h-5.4.1ZM46.3,34.8l-2.9-9v-.5c0-.2.3-.2.5-.2h1c.2,0,.5,0,.7.2.2.1.3.3.4.6l1.9,7.4h0l2-7.4c0-.2.2-.4.4-.6.2-.1.4-.2.7-.2h.9c.2,0,.4,0,.5.2s.2.3,0,.5l-2.9,9c0,.2-.2.4-.4.6s-.4.2-.7.2h-1c-.2,0-.5,0-.7-.2s-.3-.3-.4-.6h0ZM54.5,35.6c-.2,0-.4,0-.6-.2-.2-.2-.2-.4-.2-.6v-9c0-.2,0-.4.2-.6s.3-.2.6-.2h5.1c.2,0,.4,0,.6.2.2.2.2.4.2.6v.3c0,.2,0,.4-.2.6s-.3.2-.6.2h-3.4s0,0,0,.1v1.9s0,.1,0,.1h3.1c.2,0,.4,0,.6.2.2.2.2.4.2.6v.2c0,.2,0,.4-.2.6s-.3.2-.6.2h-3.1s0,0,0,.1v2.4s0,0,0,0h3.4c.2,0,.4,0,.6.2s.2.4.2.6v.3c0,.2,0,.4-.2.6-.2.2-.3.2-.6.2h-5.1v.3ZM63.3,35.6c-.2,0-.4,0-.6-.2-.2-.2-.2-.4-.2-.6v-8.9c0-.2,0-.5.2-.6s.4-.3.6-.3c.9,0,1.8-.1,2.7-.1,1.4,0,2.5.3,3.2.8s1.1,1.3,1.1,2.3-.2,1.2-.6,1.8-.9.9-1.5,1.1h0c.5.3.9.8,1.2,1.7l.8,2.2v.5c0,.2-.3.2-.5.2h-.9c-.2,0-.5,0-.7-.2s-.3-.3-.4-.6l-.7-2.1c0-.4-.3-.7-.5-.8-.2-.1-.5-.2-.9-.2h-.6s0,0,0,.1v3c0,.2,0,.4-.2.6-.2.2-.4.2-.6.2h-.8ZM64.9,26.9v2.8s0,.1,0,.1h.7c.7,0,1.2-.1,1.6-.4s.5-.7.5-1.2c0-1-.7-1.5-2-1.5s-.6,0-.8,0c0,0,0,0,0,.2ZM79.3,31.4c-1.2-.4-2.1-.9-2.6-1.5s-.8-1.3-.8-2.1.3-1.6.9-2.2,1.5-.8,2.7-.8,1.7.1,2.4.3c.2,0,.4.2.6.4,0,.2.2.4.2.7v.4c0,.2,0,.3-.2.5s-.3.1-.5,0c-.8-.3-1.6-.4-2.3-.4s-1.3.4-1.3,1,.4,1,1.2,1.3c1.3.4,2.3.9,2.8,1.4s.8,1.2.8,2.1c0,2.1-1.3,3.1-3.9,3.1s-1.6,0-2.3-.4c-.2,0-.4-.2-.5-.5,0-.2-.2-.5-.2-.7v-.5c0-.2,0-.3.2-.4s.3,0,.5,0c.7.3,1.4.5,2.2.5s.9,0,1.2-.3.4-.5.4-.8,0-.6-.3-.8c-.2-.2-.5-.4-1-.5h0l-.2.2ZM85.7,35.6c-.2,0-.4,0-.6-.2s-.2-.4-.2-.6v-8.9c0-.2,0-.4.2-.6s.3-.3.6-.3c.8,0,1.6-.1,2.4-.1,3.1,0,4.7,1.1,4.7,3.5s-.4,2.2-1.1,2.8-1.8,1-3.2,1-.7,0-1,0c0,0,0,0,0,0v2.6c0,.2,0,.4-.2.6-.2.2-.4.2-.6.2h-.9ZM87.3,26.9v3.2s0,.1,0,.1h.8c.7,0,1.2-.2,1.6-.5s.6-.8.6-1.4c0-1.1-.7-1.7-2.2-1.7s-.5,0-.8,0c0,0,0,0,0,.2h0ZM102.1,34.3c-.9,1-2.1,1.5-3.6,1.5s-2.7-.5-3.6-1.5-1.3-2.3-1.3-4,.4-3,1.3-4,2.1-1.5,3.6-1.5,2.7.5,3.6,1.5,1.3,2.3,1.3,4-.4,3-1.3,4ZM101,30.3c0-2.3-.8-3.4-2.4-3.4s-2.4,1.1-2.4,3.4.8,3.4,2.4,3.4,2.4-1.1,2.4-3.4ZM105.9,35.6c-.2,0-.4,0-.6-.2s-.2-.4-.2-.6v-9c0-.2,0-.4.2-.6s.4-.2.6-.2h.7c.6,0,.9.2,1.2.7l3.1,5.8h0v-5.7c0-.2,0-.4.2-.6s.4-.2.6-.2h.7c.2,0,.4,0,.6.2s.2.4.2.6v9c0,.2,0,.4-.2.6-.2.2-.4.2-.6.2h-.7c-.6,0-.9-.2-1.2-.7l-3.1-5.8h0v5.7c0,.2,0,.4-.2.6-.2.2-.4.2-.6.2h-.7ZM118.5,31.4c-1.2-.4-2.1-.9-2.6-1.5s-.8-1.3-.8-2.1.3-1.6.9-2.2,1.5-.8,2.7-.8,1.7.1,2.4.3c.2,0,.4.2.6.4,0,.2.2.4.2.7v.4c0,.2,0,.3-.2.5s-.3.1-.5,0c-.8-.3-1.6-.4-2.3-.4s-1.3.4-1.3,1,.4,1,1.2,1.3c1.3.4,2.3.9,2.8,1.4s.8,1.2.8,2.1c0,2.1-1.3,3.1-3.9,3.1s-1.6,0-2.3-.4c-.2,0-.4-.2-.5-.5,0-.2-.2-.5-.2-.7v-.5c0-.2,0-.3.2-.4s.3,0,.5,0c.7.3,1.4.5,2.2.5s.9,0,1.2-.3.4-.5.4-.8,0-.6-.3-.8c-.2-.2-.5-.4-1-.5h0l-.2.2ZM131.9,34.3c-.9,1-2.1,1.5-3.6,1.5s-2.7-.5-3.6-1.5-1.3-2.3-1.3-4,.4-3,1.3-4,2.1-1.5,3.6-1.5,2.7.5,3.6,1.5c.9,1,1.3,2.3,1.3,4s-.4,3-1.3,4ZM130.7,30.3c0-2.3-.8-3.4-2.4-3.4s-2.4,1.1-2.4,3.4.8,3.4,2.4,3.4,2.4-1.1,2.4-3.4ZM135.7,35.6c-.2,0-.4,0-.6-.2-.2-.2-.2-.4-.2-.6v-8.9c0-.2,0-.5.2-.6s.4-.3.6-.3c.9,0,1.8-.1,2.7-.1,1.4,0,2.5.3,3.2.8s1.1,1.3,1.1,2.3-.2,1.2-.6,1.8-.9.9-1.5,1.1h0c.5.3.9.8,1.2,1.7l.8,2.2v.5c-.1.2-.3.2-.5.2h-.9c-.2,0-.5,0-.7-.2s-.3-.3-.4-.6l-.7-2.1c-.1-.4-.3-.7-.5-.8s-.5-.2-.9-.2h-.6s-.1,0-.1.1v3c0,.2,0,.4-.2.6-.2.2-.4.2-.6.2h-.8ZM137.3,26.9v2.8s0,.1.1.1h.7c.7,0,1.2-.1,1.6-.4s.5-.7.5-1.2c0-1-.7-1.5-2-1.5s-.6,0-.8,0c0,0-.1,0-.1.2h0Z"/>
        <image class="cls-3" width="504" height="290" transform="translate(34.4 51.9) scale(.2)" xlink:href="neuhouzz-vert-blk.png"/>
      </g>
    </g>
  </g>
</svg>