<?xml version="1.0" encoding="UTF-8"?>
<svg id="uuid-f42db671-26a9-4b3b-9cc0-3cab8d929bee" data-name="Layer 1" xmlns="http://www.w3.org/2000/svg" xmlns:xlink="http://www.w3.org/1999/xlink" viewBox="0 0 164.94 119.9">
  <defs>
    <style>
      .uuid-83ba6ea3-f161-46c8-acb2-f54b25936a2a {
        fill: #fff;
      }

      .uuid-c5309663-4144-48dd-b092-dd488270ecb3 {
        fill: #231f20;
        font-family: MyriadPro-Regular, 'Myriad Pro';
        font-size: 12.79px;
      }

      .uuid-74da1a9f-e8e5-408a-bf6c-cd647be3eba2 {
        letter-spacing: -.02em;
      }

      .uuid-21cbe1ce-fedf-47ea-b9f9-d93b56106943 {
        letter-spacing: 0em;
      }

      .uuid-362284be-5b3f-4460-b791-312a9d597ded {
        letter-spacing: 0em;
      }

      .uuid-c2c837f0-ea8e-455d-b116-494ae2c84807 {
        letter-spacing: 0em;
      }

      .uuid-6a23aa49-c1e8-4be9-b15a-ce76df236f19 {
        letter-spacing: 0em;
      }

      .uuid-e68eae09-acd6-48d3-8409-1f756e480792 {
        fill: #f8b218;
        font-family: Audiowide-Regular, Audiowide;
        font-size: 5.04px;
      }

      .uuid-3b974e1c-990d-458c-b96d-113d306c226b {
        fill: #fab417;
      }

      .uuid-083034d9-1531-47e7-bb1e-1ecbde805a5e {
        fill: url(#uuid-837d0dc9-689c-4050-a0a9-642556679d5e);
      }
    </style>
    <linearGradient id="uuid-837d0dc9-689c-4050-a0a9-642556679d5e" x1="22.48" y1="30.29" x2="142.67" y2="30.29" gradientUnits="userSpaceOnUse">
      <stop offset="0" stop-color="#bcbcbb"/>
      <stop offset="0" stop-color="#fff"/>
      <stop offset=".12" stop-color="#d4d4d4"/>
      <stop offset=".29" stop-color="#9f9f9f"/>
      <stop offset=".41" stop-color="#7e7e7e"/>
      <stop offset=".48" stop-color="#727272"/>
      <stop offset=".77" stop-color="#fff"/>
      <stop offset="1" stop-color="#ebebeb"/>
    </linearGradient>
  </defs>
  <g>
    <rect class="uuid-83ba6ea3-f161-46c8-acb2-f54b25936a2a" x="0" y="0" width="164.94" height="119.9" rx="18.94" ry="18.94"/>
    <rect x="0" y="0" width="164.94" height="46.28" rx="18.94" ry="18.94"/>
  </g>
  <g>
    <text class="uuid-e68eae09-acd6-48d3-8409-1f756e480792" transform="translate(76.76 10.84)"><tspan x="0" y="0">Pe</tspan><tspan class="uuid-74da1a9f-e8e5-408a-bf6c-cd647be3eba2" x="7.35" y="0">n</tspan><tspan x="10.78" y="0">tic</tspan><tspan class="uuid-362284be-5b3f-4460-b791-312a9d597ded" x="17.99" y="0">t</tspan><tspan x="20.81" y="0">on</tspan><tspan class="uuid-21cbe1ce-fedf-47ea-b9f9-d93b56106943" x="1.53" y="6.04">R</tspan><tspan x="5.67" y="6.04">ob</tspan><tspan class="uuid-6a23aa49-c1e8-4be9-b15a-ce76df236f19" x="12.58" y="6.04">o</tspan><tspan class="uuid-c2c837f0-ea8e-455d-b116-494ae2c84807" x="16.01" y="6.04">tics</tspan></text>
    <g>
      <path class="uuid-3b974e1c-990d-458c-b96d-113d306c226b" d="m75.11,12.44c0,3.04-2.46,5.5-5.5,5.5s-5.5-2.46-5.5-5.5,2.46-5.5,5.5-5.5,5.5,2.46,5.5,5.5Zm-3.74,5.07c.11-.04.27-.1.27-.1,0,0,0-.01-.02-.02-.03-.02-.1-.09-.14-.13-.03-.03-.19-.2-.2-.22-.02-.02-.13-.13-.17-.17-.06-.05-.19-.19-.24-.23-.06-.07-.07-.07-.08-.09,0,0-.02-.02-.02-.03,0,0-.01-.02-.01-.02,0,0-.01-.02-.03-.03-.01-.01-.03-.03-.04-.04,0,0-.03-.03-.04-.04-.03-.03-.25-.26-.59-.59-.54-.54-.98-.99-1.27-1.28-.29-.29-.32-.32-.32-.33,0,0,0-.03.02-.05,0-.02.02-.06.02-.08,0-.04,0-.13,0-.17-.01-.09-.05-.17-.11-.24l-.03-.03.16-.16c.09-.09.16-.16.16-.17,0,0,0-.02-.02-.03-.06-.07-.09-.15-.11-.23,0-.04,0-.13,0-.17.01-.07.04-.14.09-.2.03-.04.09-.1.12-.12.08-.06.18-.09.28-.09.07,0,.15.02.22.05.04.02.09.05.11.08h.01s-.1.11-.1.11l-.1.1h0s-.08-.06-.13-.06c-.04,0-.07,0-.1.02-.06.03-.1.07-.12.13,0,.02,0,.03,0,.08s0,.05.01.08c.01.03.03.06.04.07h0s-.09.1-.09.1c-.05.05-.09.09-.09.1,0,0,0,.01.02.02.05.05.13.09.21.11.04.01.05.01.12.01.06,0,.08,0,.1,0,.03,0,.08-.02.1-.03,0,0,.01,0,.34.33.18.18.43.44.56.57.23.23.47.47.91.92.13.13.33.33.45.45.12.12.33.33.45.45s.23.23.23.24c0,0,.04.05.09.1.05.05.14.14.2.2.06.06.12.12.13.12.01,0,.03.02.04.04.02.02.02.02.03.02.03-.01.27-.2.27-.2,0,0,0-.01-.02-.02,0,0-.04-.04-.07-.08-.03-.03-.08-.09-.12-.12-.12-.11-.49-.48-1.18-1.18-.18-.19-.44-.45-.57-.57-.37-.37-.68-.69-.93-.93-.12-.13-.3-.3-.4-.4-.09-.09-.17-.17-.17-.17,0,0,0-.01,0-.03.02-.07.03-.11.03-.18,0-.07,0-.11-.02-.16-.02-.07-.06-.13-.1-.17l-.02-.02.18-.18.18-.18.02.02c.06.05.15.1.23.11.04,0,.13.01.17,0,.04,0,.09-.02.12-.03.01,0,.03,0,.03,0,0,0,.08.08.17.17.09.09.27.27.39.39s.33.33.46.46.4.39.59.59.45.45.57.57c.77.77,1.01,1,1.02,1.01,0,0,.07.07.14.14.07.07.12.12.13.12,0,0,.21-.27.21-.28,0,0-.01-.01-.02-.02-.02-.02-.07-.07-.16-.15-.03-.03-.11-.11-.18-.17-.07-.07-.22-.22-.34-.33s-.32-.32-.45-.44c-.25-.25-.58-.57-.93-.93-.13-.13-.34-.34-.47-.46-.13-.13-.34-.33-.46-.46-.13-.13-.28-.27-.33-.33l-.1-.1v-.03c.07-.17.04-.37-.08-.5l-.02-.02.16-.16.16-.16.03.02c.06.06.14.09.22.11.05.01.16.01.2,0,.03,0,.07-.02.1-.03h.01s.06.05.06.05c.05.05.68.67,1.11,1.1.55.55.65.64.93.92.04.04.07.07.07.07,0,0,.05.04.1.09.08.08.12.12.15.15.01.01.12.11.13.13,0,0,.02.03.04.04s.04.04.06.05c.01.01.05.05.09.09.04.04.08.07.09.08.04.04.09.09.12.12.02.02.04.04.05.05,0,0,.03.04.05.06.02.02.06.07.09.09.03.03.05.05.06.06,0,0,0,0,.01,0,0,0,.02-.03.06-.13,0-.02.02-.05.02-.05,0-.02.03-.09.05-.14v-.04s-.11-.12-.11-.12c-.07-.07-.13-.13-.15-.15-.03-.02-.03-.03-.08-.09-.01-.01-.04-.04-.06-.06-.02-.02-.1-.1-.18-.18-.08-.08-.16-.16-.19-.18s-.06-.06-.09-.08-.05-.05-.05-.05c-.03-.03-.1-.09-.2-.19,0,0-.02-.02-.03-.03-.02-.02-.09-.08-.58-.57-.12-.12-.31-.31-.43-.42-.12-.12-.31-.31-.42-.42s-.28-.27-.36-.36c-.08-.08-.15-.15-.16-.16,0,0,0-.01,0-.04.02-.05.02-.08.02-.14,0-.14-.04-.26-.12-.35l-.02-.02.95-.95.95-.95.03.03s.02.02-.01-.02c-.17-.18-.46-.43-.73-.62-.43-.3-.92-.55-1.41-.7-.11-.04-.13-.04-.19-.06-.03,0-.06-.02-.07-.02-.06-.02-.24-.06-.35-.08-.16-.03-.35-.06-.49-.08-.11-.01-.13-.01-.2-.02-.32-.02-.69-.02-1,.02-.74.08-1.43.31-2.07.68-.93.53-1.69,1.34-2.16,2.29-.04.09-.05.11-.07.15,0,.01-.01.03-.02.04-.04.08-.11.25-.15.37-.03.09-.11.32-.12.38,0,0,0,.02,0,.04-.02.06-.05.2-.06.24,0,0,0,.03-.01.05,0,.03-.02.1-.03.15,0,.01,0,.03,0,.05-.09.53-.1,1.14-.02,1.69.03.23.08.48.14.68,0,.02.01.04.01.04.02.06.05.18.1.31.02.07.08.21.12.3.24.56.56,1.07.97,1.53.07.07.16.17.19.2.02.02.02.02.01,0l-.02-.02.95-.95.95-.95.02.02c.13.12.33.15.5.09h.02s.04.03.04.03c.06.06.65.66.9.91.12.12.31.31.43.43.12.12.28.29.38.38.09.09.17.17.17.17,0,0,.04.04.09.1.02.02.04.04.04.05,0,0,.04.04.06.07s.08.08.12.12.09.09.12.12c.07.08.26.26.33.33.03.03.08.07.1.09.04.04.06.05.08.07,0,0,.06.06.11.11.06.06.1.1.1.1,0,0,.03,0,.07-.02h0Z"/>
      <path class="uuid-3b974e1c-990d-458c-b96d-113d306c226b" d="m67.66,14.3c-.06-.07-.1-.15-.12-.24,0-.04,0-.13,0-.17.03-.18.16-.33.33-.39.1-.03.21-.03.31,0,.06.02.12.06.16.09l.02.02-.09.09-.09.09h-.02s-.07-.06-.13-.06c-.07,0-.12.02-.17.06-.04.04-.06.08-.07.13,0,.06,0,.11.04.16v.02s-.08.09-.08.09c-.05.05-.09.09-.09.09s0,0-.02-.02h0Z"/>
      <path class="uuid-3b974e1c-990d-458c-b96d-113d306c226b" d="m67.98,14.19s-.07-.03-.09-.05l-.02-.02.15-.15c.08-.08.15-.15.16-.15.01,0,.04.05.06.09,0,.02,0,.03,0,.06,0,.05,0,.07-.03.11-.02.03-.06.06-.08.08-.04.02-.11.03-.15.02h0Z"/>
      <path class="uuid-3b974e1c-990d-458c-b96d-113d306c226b" d="m69.01,13.17s-.06-.02-.09-.04l-.03-.02.16-.16.16-.16.02.02s.04.06.04.08c0,.03,0,.08,0,.11-.02.07-.09.14-.17.15-.03,0-.07,0-.09,0h0Z"/>
      <path class="uuid-3b974e1c-990d-458c-b96d-113d306c226b" d="m69.75,12.2s-.05-.07-.07-.11c-.03-.06-.05-.16-.05-.23,0-.13.06-.24.15-.33.08-.08.16-.12.26-.14.03,0,.13,0,.17,0,.06.01.13.04.18.07.03.02.08.06.08.06,0,0-.04.04-.09.09l-.09.09-.02-.02s-.08-.04-.14-.04c-.05,0-.08,0-.11.03-.03.02-.05.04-.07.07-.02.04-.04.08-.04.12,0,.05.01.1.04.14v.02s-.08.09-.08.09c-.05.05-.1.09-.1.09,0,0-.01,0-.02-.02h0Z"/>
      <path class="uuid-3b974e1c-990d-458c-b96d-113d306c226b" d="m67.51,12.18s-.04-.02-.04-.03c0-.01,0-.06-.01-.1,0-.03,0-.04-.02-.06-.01-.01-.03-.02-.07-.02-.06,0-.07,0-.1.07-.04.09-.05.1-.11.08-.03,0-.05-.02-.05-.04,0,0,0-.03,0-.05.01-.08.01-.08,0-.1,0,0-.01-.02-.02-.02-.02-.01-.07-.03-.09-.03-.02,0-.03,0-.05.03,0,.01-.02.02-.02.02,0,0-.01.02-.03.03-.03.04-.04.04-.06.04-.04-.01-.07-.04-.07-.06,0,0,0-.03.02-.07.02-.05.02-.07.02-.08,0-.02,0-.02-.02-.04-.01,0-.02-.02-.03-.02,0,0-.02,0-.02-.01-.03-.02-.06-.01-.09.02-.07.06-.08.07-.1.06-.02,0-.05-.03-.06-.05-.01-.02-.01-.03.01-.08.04-.07.05-.08.05-.09,0-.02,0-.03-.03-.06-.01-.01-.02-.02-.02-.03,0-.01-.03-.02-.05-.02-.01,0-.02,0-.05.02-.02.01-.05.03-.06.03h-.03s-.01,0-.01,0c-.02,0-.02-.01-.04-.04-.03-.04-.03-.05.03-.11.05-.05.06-.06.05-.09,0-.02-.04-.08-.06-.09-.02-.01-.04-.01-.11,0l-.06.02h-.02s-.02-.02-.03-.04c-.01-.02-.02-.03-.02-.05,0-.02,0-.02.06-.07.06-.04.07-.05.07-.08,0-.02-.02-.09-.04-.11-.01-.01-.03-.02-.09-.01-.06,0-.08,0-.09-.01-.01,0-.02-.05-.02-.07,0-.02.01-.04.04-.05.01,0,.02,0,.03-.01,0,0,.02,0,.02,0,.03-.01.05-.02.06-.03h.01s0-.06,0-.06c0-.05,0-.07-.02-.08-.01-.01-.03-.02-.11-.03-.02,0-.04,0-.05-.01,0,0-.01-.01-.02-.02-.02-.03-.01-.08.02-.1,0,0,.03-.01.07-.02.03,0,.06-.01.07-.01.03,0,.04-.03.04-.09,0-.06,0-.07-.08-.1-.06-.02-.07-.03-.08-.05,0-.02,0-.07.02-.08.02-.02.02-.02.09-.02.08,0,.09,0,.1-.02,0,0,.01-.03.02-.05,0-.02.01-.04.01-.04,0-.03,0-.05-.07-.09-.05-.04-.06-.04-.06-.06,0-.03.03-.08.06-.09,0,0,.03,0,.06.01.03,0,.06.02.07.02.03,0,.04,0,.07-.05.04-.06.03-.08,0-.12-.03-.03-.07-.08-.07-.08,0-.01,0-.04.03-.06.03-.04.04-.04.1,0,.06.03.07.04.09.03.02,0,.03-.01.06-.04.03-.03.04-.04.04-.06,0-.02,0-.03-.05-.1,0-.01-.02-.03-.02-.04v-.02s0-.02,0-.02c0-.02.05-.05.06-.06.02,0,.04,0,.08.05.04.04.06.05.07.05.02,0,.03,0,.07-.03s.05-.04.05-.06c0,0,0-.04-.02-.07-.01-.03-.02-.06-.02-.07,0-.02.06-.06.09-.06.02,0,.03.01.07.06.02.03.04.05.05.06.02.01.04,0,.08-.01.04-.02.05-.02.06-.04,0-.01,0-.02,0-.1,0-.06,0-.05,0-.07.02-.02.07-.03.09-.02.02,0,.03.02.04.06.03.08.05.09.08.09.01,0,.04,0,.09-.01.01,0,.03-.02.04-.04,0,0,0-.04,0-.07,0-.05,0-.07.02-.08,0,0,.03-.02.05-.02.03,0,.04,0,.06.02,0,.01.01.02.02.06.01.07.02.09.03.1.02.02.1.02.13.01.02,0,.03-.02.05-.08.02-.06.02-.07.04-.08,0,0,.01,0,.04,0,.04,0,.06.01.07.03,0,.01,0,.02,0,.08,0,.08,0,.08.03.1.01,0,.04.01.06.02.03,0,.03,0,.05,0,.02,0,.03-.02.04-.04,0,0,.01-.02.02-.03s.01-.02.02-.03c0-.01.02-.02.02-.03.03-.02.12.02.11.05,0,0,0,.02,0,.04,0,.02,0,.04-.01.05,0,.02,0,.06,0,.07,0,.01.02.02.06.04.06.03.07.03.13-.04.05-.05.06-.06.08-.05.02,0,.06.03.07.05.01.02,0,.02-.03.11-.02.05-.02.07.02.11.05.04.05.04.07.04.02,0,.03,0,.07-.03.06-.04.07-.04.08-.04.02,0,.05.04.06.06,0,.01,0,.02,0,.03,0,.01-.04.06-.07.09,0,0-.02.04-.02.04,0,.01.02.04.04.07,0,0,.01.01.01.02s0,0,.02.01c.03.01.03.01.11-.02.04-.02.06-.02.07-.02.01,0,.03.02.04.04.03.05.02.06-.06.12-.03.03-.05.05-.05.07,0,0,0,.03.02.05.03.06.04.07.11.05.02,0,.05,0,.06-.01.04,0,.05.01.07.06,0,.03,0,.02,0,.05,0,0-.02.02-.05.03-.02.01-.05.03-.06.04-.03.01-.03.03-.03.05,0,.03.01.08.02.1.01.02.02.02.08.02.07,0,.09,0,.1.02,0,0,.01.02.01.04,0,.03,0,.03,0,.04-.01.02-.03.03-.08.04-.02,0-.05.01-.07.02-.01,0-.02.01-.02.02,0,.01,0,.02,0,.06,0,.04,0,.05,0,.06,0,.01.03.03.05.03.05.01.1.03.1.03,0,0,.01,0,.02.03,0,.01,0,.02,0,.02,0,0,0,.02,0,.03,0,.04-.02.05-.11.05-.07,0-.08,0-.1.07,0,.02,0,.04,0,.05,0,.04,0,.04.07.08.03.02.06.03.06.03,0,0,0,.01.01.02,0,.02,0,.02,0,.07,0,.02-.01.02-.02.03h-.01s-.04,0-.04,0c-.02,0-.05,0-.07-.01-.05,0-.06,0-.09.05-.04.08-.04.08.05.15.04.03.05.05.05.06,0,.01-.02.05-.04.07-.02.02-.03.02-.05.01-.01,0-.02,0-.03-.01,0,0-.02,0-.03-.01-.07-.03-.09-.03-.13.02-.02.02-.04.06-.04.07s.02.04.03.05c.02.02.06.08.06.09,0,.01,0,.03-.02.05-.02.02-.04.03-.05.03,0,0-.05-.02-.08-.05-.01-.01-.03-.02-.04-.02-.02,0-.04,0-.05,0-.01,0-.06.05-.07.06-.02.02-.02.05.02.11.01.03.02.06.03.06,0,.02,0,.03-.03.05-.03.02-.04.02-.06.02h-.02l-.05-.05s-.06-.06-.08-.06c-.01,0-.04.01-.07.03,0,0-.02.01-.03.02-.02.01-.03.04-.01.11,0,.02.01.04.01.05,0,.02,0,.03,0,.04,0,.01-.03.03-.06.03-.01,0-.02,0-.03,0-.01,0-.02,0-.03-.03,0-.01-.02-.03-.02-.03,0-.02-.04-.06-.05-.07-.02,0-.05,0-.09,0-.04.01-.06.03-.06.05,0,.15,0,.14-.02.16,0,0-.02,0-.04.01-.02,0-.03,0-.04,0-.02,0-.03-.02-.05-.08-.01-.03-.02-.06-.03-.07-.01-.01-.02-.02-.08-.01-.05,0-.05,0-.06.01-.02.01-.02.02-.03.09,0,.03-.02.06-.02.07-.01.02-.04.03-.08.02h0Zm-.16-.51s.01,0,.02,0c.03,0,.07-.05.08-.1,0-.01,0-.09,0-.21v-.22s-.03-.03-.06-.04c-.09-.04-.17-.08-.21-.12-.02-.02-.05-.04-.06-.04-.03,0-.04,0-.17.08-.04.02-.09.05-.11.07-.1.06-.11.07-.13.09-.01.02-.03.06-.03.08,0,.03.02.07.06.11.09.09.2.16.31.22.04.02.13.06.13.06,0,0,.01,0,.03,0,.06.02.13.04.14.03Zm.62,0s.12-.04.15-.05c0,0,.02,0,.03-.01.03-.01.07-.03.09-.04,0,0,.02-.01.03-.02.08-.05.2-.13.25-.19.02-.02.03-.04.04-.07,0-.02,0-.02,0-.05-.01-.05-.04-.07-.1-.11-.02-.01-.06-.04-.09-.05-.03-.02-.06-.04-.08-.05-.11-.07-.13-.08-.15-.07s-.04,0-.08.05c-.03.03-.13.09-.14.09,0,0-.08.03-.09.04,0,0-.02.02-.02.03,0,.01,0,.03,0,.22v.21s.01.02.01.02c.01.03.04.06.06.06,0,0,.02,0,.02,0,.02,0,.04,0,.08,0h0Zm.13-1.23c0-.26-.21-.47-.47-.47s-.47.21-.47.47.21.47.47.47.47-.21.47-.47Zm-1.52.41s.04-.02.17-.09c.03-.02.07-.04.08-.05.11-.06.11-.06.12-.09,0-.02,0-.02,0-.06-.02-.1-.02-.15,0-.24,0-.04,0-.05,0-.07,0-.02-.02-.03-.13-.1-.05-.03-.11-.07-.13-.08-.11-.06-.11-.06-.15-.06-.03,0-.04,0-.06,0-.03.01-.05.03-.06.06,0,.02-.03.08-.03.13-.02.1-.02.25-.01.34,0,.03,0,.07,0,.07,0,0,0,.02,0,.03,0,.01,0,.04.01.06.01.05.02.08.05.1.01.01.04.03.06.04.02,0,.07,0,.09,0h0Zm2.22,0s.06-.05.07-.11c.02-.07.02-.08.03-.14,0-.05,0-.08,0-.16,0-.13,0-.2-.03-.3-.02-.07-.04-.1-.08-.12-.02,0-.03,0-.06,0-.03,0-.04,0-.06.01-.01,0-.04.02-.05.03-.03.02-.1.06-.17.1-.08.05-.11.07-.12.08-.02.02-.02.03-.01.08,0,.06,0,.19,0,.23,0,.04,0,.06,0,.07,0,.02.02.02.07.05.02.01.06.03.07.04.02.01.03.02.03.02,0,0,0,0,.01,0,0,0,.02.01.03.02s.04.02.07.04c.09.05.1.06.15.06.02,0,.03,0,.05-.01h0Zm-1.65-.91s.03-.02.04-.03c.02-.02.08-.05.1-.07.03-.02.08-.04.11-.05.04-.01.05-.03.06-.05,0-.02,0-.4,0-.43-.01-.04-.03-.07-.07-.09-.02,0-.03-.01-.05-.01-.04,0-.08.01-.19.05-.05.02-.12.06-.17.09-.04.02-.07.05-.09.06-.01,0-.03.02-.03.03-.04.03-.11.09-.13.12-.03.04-.03.1,0,.14.02.03.04.04.09.07.02.01.05.03.05.03s.03.02.04.02.06.04.1.06c.1.06.11.06.15.05h0Zm1.03,0s.05-.03.08-.05c.05-.03.13-.07.22-.13.04-.02.06-.04.07-.08.02-.04.02-.07,0-.11,0-.02-.05-.06-.1-.11-.02-.02-.14-.1-.14-.1,0,0-.01,0-.02-.01-.01,0-.03-.02-.04-.03-.04-.02-.07-.03-.08-.04,0,0-.02,0-.03-.01-.01,0-.03-.01-.04-.01,0,0-.02,0-.03-.01,0,0-.02,0-.03-.01s-.03,0-.04-.01c-.02,0-.06-.01-.08-.01-.04,0-.08.04-.1.08v.02s-.01.21-.01.21c0,.23,0,.23.03.25,0,0,.03.02.05.02.07.02.13.06.21.12.04.03.06.04.1.02h0Z"/>
      <path class="uuid-3b974e1c-990d-458c-b96d-113d306c226b" d="m70.08,12.09s-.06-.03-.08-.04l-.02-.02.15-.15c.09-.09.16-.15.16-.15,0,0,.03.04.04.06.02.04.03.1.02.14-.02.08-.09.14-.16.16-.03,0-.08,0-.11,0h0Z"/>
      <path class="uuid-3b974e1c-990d-458c-b96d-113d306c226b" d="m70.79,11.17c-.05-.06-.09-.14-.11-.23,0-.04-.01-.12,0-.16.03-.18.16-.34.34-.4.16-.05.33-.02.46.1l.02.02-.09.09-.09.09h-.01s-.06-.05-.08-.05c-.03,0-.1,0-.12,0-.06.02-.11.06-.14.11,0,.02-.02.04-.02.06-.01.06,0,.14.05.19h.01s-.09.1-.09.1c-.05.05-.09.09-.09.09,0,0,0,0-.02-.02h0Z"/>
      <path class="uuid-3b974e1c-990d-458c-b96d-113d306c226b" d="m71.14,11.07s-.09-.03-.12-.05h-.02s.15-.17.15-.17c.08-.08.15-.15.16-.15,0,0,.02.02.04.05.05.09.03.19-.04.26-.02.02-.03.03-.06.04-.04.02-.08.03-.11.02Z"/>
    </g>
  </g>
  <path class="uuid-083034d9-1531-47e7-bb1e-1ecbde805a5e" d="m25.94,31.35c-1.22-.39-2.1-.87-2.64-1.45-.54-.58-.81-1.28-.81-2.11,0-.91.32-1.63.95-2.16.63-.53,1.54-.79,2.72-.79.89,0,1.7.1,2.43.31.23.07.42.21.56.41.14.21.21.44.21.69v.42c0,.19-.08.34-.25.45-.17.11-.34.13-.52.06-.82-.29-1.58-.44-2.28-.44-.89,0-1.34.35-1.34,1.05,0,.59.39,1.01,1.16,1.26,1.34.41,2.26.88,2.78,1.42s.78,1.25.78,2.14c0,2.08-1.31,3.12-3.94,3.12-.83,0-1.59-.13-2.27-.39-.23-.09-.41-.24-.54-.46-.13-.22-.2-.46-.2-.72v-.46c0-.17.08-.31.23-.4.15-.09.31-.1.46-.02.71.35,1.43.52,2.16.52.51,0,.9-.1,1.17-.3.27-.2.4-.48.4-.85,0-.32-.09-.58-.28-.78-.18-.2-.5-.38-.96-.52Zm6.62,4.24c-.22,0-.41-.08-.57-.25-.16-.16-.24-.36-.24-.58v-8.95c0-.22.08-.42.24-.58.16-.17.35-.25.57-.25h1.08c.22,0,.41.08.57.25.16.16.24.36.24.58v8.95c0,.22-.08.42-.24.58-.16.17-.35.25-.57.25h-1.08Zm5.14,0c-.22,0-.42-.08-.58-.25-.17-.16-.25-.36-.25-.58v-8.95c0-.22.08-.42.25-.58.16-.17.36-.25.58-.25h.9c.22,0,.41.08.57.25.16.16.24.36.24.58v7.61c0,.08.04.12.13.12h3.53c.22,0,.42.08.58.25.16.17.25.36.25.58v.39c0,.22-.08.42-.25.58-.17.17-.36.25-.58.25h-5.38Zm8.57-.78l-2.94-9.04c-.07-.19-.04-.37.08-.54.12-.17.28-.25.49-.25h.97c.24,0,.46.08.65.23.19.15.32.34.38.57l1.9,7.42s0,.01.01.01c0,0,.01,0,.01-.01l1.96-7.42c.06-.23.18-.42.38-.57.19-.15.41-.23.65-.23h.92c.2,0,.37.08.49.25.12.16.15.34.08.54l-2.94,9.04c-.07.23-.2.42-.4.57-.2.15-.42.22-.68.22h-.96c-.24,0-.46-.07-.66-.22-.2-.15-.34-.33-.41-.57Zm8.19.78c-.22,0-.41-.08-.57-.25-.16-.16-.24-.36-.24-.58v-8.95c0-.22.08-.42.24-.58.16-.17.35-.25.57-.25h5.14c.22,0,.41.08.57.25.16.16.24.36.24.58v.33c0,.22-.08.42-.24.58-.16.17-.35.25-.57.25h-3.37c-.08,0-.12.04-.12.12v1.92c0,.09.04.13.12.13h3.08c.22,0,.41.08.57.25.16.16.24.36.24.58v.22c0,.22-.08.42-.24.58-.16.17-.35.25-.57.25h-3.08c-.08,0-.12.04-.12.12v2.35c0,.08.04.12.12.12h3.37c.22,0,.41.08.57.25.16.17.24.36.24.58v.33c0,.22-.08.42-.24.58-.16.17-.35.25-.57.25h-5.14Zm8.85,0c-.22,0-.42-.08-.58-.25-.17-.16-.25-.36-.25-.58v-8.88c0-.24.08-.45.24-.62.16-.17.36-.27.59-.29.86-.09,1.75-.13,2.66-.13,1.45,0,2.54.27,3.25.82.71.55,1.07,1.32,1.07,2.33,0,.65-.19,1.23-.57,1.75s-.87.89-1.48,1.11c0,0-.01,0-.01.01,0,.02,0,.03.03.03.47.27.88.84,1.21,1.71l.83,2.21c.07.18.04.36-.07.52-.12.17-.27.25-.46.25h-.89c-.25,0-.48-.07-.68-.22-.2-.15-.34-.33-.42-.57l-.73-2.09c-.14-.41-.3-.68-.49-.83-.19-.15-.49-.22-.9-.22h-.61c-.08,0-.12.04-.12.13v2.96c0,.22-.08.42-.25.58-.16.17-.36.25-.58.25h-.77Zm1.6-8.66v2.79c0,.09.04.13.12.13h.7c.68,0,1.2-.14,1.55-.43s.54-.69.54-1.2c0-1.01-.66-1.51-1.99-1.51-.3,0-.56.02-.79.06-.09.02-.13.07-.13.16Zm14.37,4.42c-1.22-.39-2.1-.87-2.64-1.45-.54-.58-.81-1.28-.81-2.11,0-.91.32-1.63.95-2.16.63-.53,1.54-.79,2.72-.79.89,0,1.7.1,2.43.31.23.07.42.21.56.41.14.21.21.44.21.69v.42c0,.19-.08.34-.25.45-.17.11-.34.13-.52.06-.82-.29-1.58-.44-2.28-.44-.89,0-1.34.35-1.34,1.05,0,.59.39,1.01,1.16,1.26,1.34.41,2.26.88,2.78,1.42s.78,1.25.78,2.14c0,2.08-1.31,3.12-3.94,3.12-.83,0-1.59-.13-2.27-.39-.23-.09-.41-.24-.54-.46-.13-.22-.2-.46-.2-.72v-.46c0-.17.08-.31.23-.4.15-.09.31-.1.46-.02.71.35,1.43.52,2.16.52.51,0,.9-.1,1.17-.3.27-.2.4-.48.4-.85,0-.32-.09-.58-.28-.78-.18-.2-.5-.38-.96-.52Zm6.42,4.24c-.22,0-.42-.08-.58-.25-.17-.16-.25-.36-.25-.58v-8.88c0-.23.08-.44.23-.62.15-.18.35-.29.58-.31.82-.08,1.62-.12,2.38-.12,3.1,0,4.65,1.15,4.65,3.46,0,1.25-.36,2.2-1.08,2.84s-1.78.97-3.17.97c-.37,0-.71-.01-1.03-.04-.09,0-.13.04-.13.12v2.59c0,.22-.08.42-.25.58-.16.17-.36.25-.58.25h-.77Zm1.6-8.66v3.17c0,.07.04.11.13.13.33.04.59.06.79.06.7,0,1.24-.16,1.62-.49.38-.32.57-.78.57-1.36,0-1.15-.73-1.73-2.19-1.73-.24,0-.51.02-.8.07-.08.02-.12.07-.12.15Zm14.85,7.36c-.89.96-2.1,1.45-3.63,1.45s-2.74-.48-3.63-1.45c-.89-.96-1.34-2.3-1.34-4s.45-3.04,1.34-4c.89-.96,2.1-1.45,3.63-1.45s2.74.48,3.63,1.45c.89.96,1.34,2.3,1.34,4s-.45,3.04-1.34,4Zm-1.19-4c0-2.28-.81-3.41-2.44-3.41s-2.44,1.14-2.44,3.41.81,3.41,2.44,3.41,2.44-1.14,2.44-3.41Zm4.91,5.3c-.22,0-.42-.08-.58-.25-.17-.16-.25-.36-.25-.58v-8.95c0-.22.08-.42.25-.58.16-.17.36-.25.58-.25h.71c.55,0,.95.24,1.21.73l3.05,5.77s0,.01.01.01.01,0,.01-.01v-5.67c0-.22.08-.42.25-.58.16-.17.36-.25.58-.25h.71c.22,0,.42.08.58.25.16.16.25.36.25.58v8.95c0,.22-.08.42-.25.58-.17.17-.36.25-.58.25h-.71c-.55,0-.95-.24-1.21-.73l-3.05-5.77s0-.01-.01-.01c0,0-.01,0-.01.01v5.67c0,.22-.08.42-.25.58-.17.17-.36.25-.58.25h-.71Zm12.67-4.24c-1.22-.39-2.1-.87-2.64-1.45-.54-.58-.81-1.28-.81-2.11,0-.91.32-1.63.95-2.16.63-.53,1.54-.79,2.72-.79.89,0,1.7.1,2.43.31.23.07.42.21.56.41.14.21.21.44.21.69v.42c0,.19-.08.34-.25.45-.17.11-.34.13-.52.06-.82-.29-1.58-.44-2.28-.44-.89,0-1.34.35-1.34,1.05,0,.59.39,1.01,1.16,1.26,1.34.41,2.26.88,2.78,1.42s.78,1.25.78,2.14c0,2.08-1.31,3.12-3.94,3.12-.83,0-1.59-.13-2.27-.39-.23-.09-.41-.24-.54-.46-.13-.22-.2-.46-.2-.72v-.46c0-.17.08-.31.23-.4.15-.09.31-.1.46-.02.71.35,1.43.52,2.16.52.51,0,.9-.1,1.17-.3.27-.2.4-.48.4-.85,0-.32-.09-.58-.28-.78-.18-.2-.5-.38-.96-.52Zm13.4,2.94c-.89.96-2.1,1.45-3.63,1.45s-2.74-.48-3.63-1.45c-.89-.96-1.34-2.3-1.34-4s.45-3.04,1.34-4c.89-.96,2.1-1.45,3.63-1.45s2.74.48,3.63,1.45c.89.96,1.34,2.3,1.34,4s-.45,3.04-1.34,4Zm-1.19-4c0-2.28-.81-3.41-2.44-3.41s-2.44,1.14-2.44,3.41.81,3.41,2.44,3.41,2.44-1.14,2.44-3.41Zm4.91,5.3c-.22,0-.42-.08-.58-.25-.17-.16-.25-.36-.25-.58v-8.88c0-.24.08-.45.24-.62.16-.17.36-.27.59-.29.86-.09,1.75-.13,2.66-.13,1.45,0,2.54.27,3.25.82.71.55,1.07,1.32,1.07,2.33,0,.65-.19,1.23-.57,1.75s-.87.89-1.48,1.11c0,0-.01,0-.01.01,0,.02,0,.03.03.03.47.27.88.84,1.21,1.71l.83,2.21c.07.18.04.36-.07.52-.12.17-.27.25-.46.25h-.89c-.25,0-.48-.07-.68-.22-.2-.15-.34-.33-.42-.57l-.73-2.09c-.14-.41-.3-.68-.49-.83-.19-.15-.49-.22-.9-.22h-.61c-.08,0-.12.04-.12.13v2.96c0,.22-.08.42-.25.58-.16.17-.36.25-.58.25h-.77Zm1.6-8.66v2.79c0,.09.04.13.12.13h.7c.68,0,1.2-.14,1.55-.43s.54-.69.54-1.2c0-1.01-.66-1.51-1.99-1.51-.3,0-.56.02-.79.06-.09.02-.13.07-.13.16Z"/>
  <text class="uuid-c5309663-4144-48dd-b092-dd488270ecb3" transform="translate(17.55 85.3)"><tspan x="0" y="0">missing logo - neuhouzz</tspan></text>
</svg>