<?xml version="1.0" encoding="UTF-8"?>
<svg id="Layer_1" data-name="Layer 1" xmlns="http://www.w3.org/2000/svg" xmlns:xlink="http://www.w3.org/1999/xlink" viewBox="0 0 196.93 72">
  <defs>
    <style>
      .cls-1, .cls-2 {
        fill: #fff;
      }

      .cls-3 {
        fill: #1a468c;
      }

      .cls-4 {
        fill: none;
      }

      .cls-2 {
        font-family: FrutigerLTStd-Light, 'Frutiger LT Std';
        font-size: 15.55px;
        font-weight: 300;
        letter-spacing: 0em;
      }

      .cls-5 {
        fill: #faa41a;
      }

      .cls-6 {
        clip-path: url(#clippath);
      }
    </style>
    <clipPath id="clippath">
      <rect class="cls-4" x="60.63" y="10.54" width="121.37" height="45.6"/>
    </clipPath>
  </defs>
  <rect class="cls-3" x="0" width="196.94" height="72"/>
  <g class="cls-6">
    <path class="cls-1" d="M95.98,38.66l.09,1.63c.01.24-.16.46-.4.51-.69.13-1.63.28-2.23.28-2.98,0-3.89-1.14-3.89-4.87v-5.71h-1.14c-.27,0-.49-.22-.49-.49v-1.69c0-.27.22-.49.49-.49h1.14v-2.01c0-.23.16-.42.37-.48l1.98-.48c.15-.03.3,0,.42.09.12.09.19.24.19.39v2.49h3.01c.27,0,.49.22.49.49v1.69c0,.27-.22.49-.49.49h-3.01v5.29c0,1.83.06,2.46,1.35,2.46.47,0,1.22-.03,1.61-.05.26,0,.5.19.51.47M86.65,34.23c0,4.71-1.79,6.82-5.8,6.82s-5.83-2.1-5.83-6.82,1.8-6.72,5.83-6.72,5.8,2.13,5.8,6.72M83.64,34.23c0-2.89-.79-4.02-2.8-4.02s-2.83,1.05-2.83,4.02c0,2.69.45,4.15,2.83,4.15s2.8-1.52,2.8-4.15M130.78,28.01c-.09-.12-.23-.19-.39-.19h-1.92c-.22,0-.41.15-.47.37l-2.57,9.69h-.2l-2.57-9.69c-.06-.22-.25-.37-.48-.37h-1.91c-.15,0-.3.07-.39.19-.09.12-.12.28-.09.42l2.83,10.87c.14.54.64,1.45,1.62,1.45h.55c-.05.18-.1.38-.15.54l-.03.08c-.16.5-.39,1.26-1.79,1.26l-2.45-.15c-.14-.01-.27.04-.37.14-.1.1-.15.23-.15.37l.06,1.28c0,.22.16.4.37.45.72.18,2.1.39,3.23.43.06,0,.1,0,.16,0,1.85,0,3.1-1.2,3.73-3.55.73-2.76,1.65-6.3,2.32-8.89.3-1.17.56-2.17.75-2.88l.37-1.41c.04-.15,0-.3-.09-.43M73.21,40.07c.06.15.05.33-.04.47-.1.14-.25.22-.42.22h-2.29c-.2,0-.37-.11-.45-.29l-2.94-6.61c-1.46-.01-2.73-.09-3.42-.14v6.55c0,.27-.22.49-.49.49h-2.05c-.27,0-.5-.22-.5-.49v-16.58c0-.25.19-.46.44-.49,2.63-.3,4.74-.33,5.52-.33.27,0,.41,0,.41,0,5.05,0,6.11,2.98,6.11,5.48,0,2.09-.99,3.59-3.04,4.61l3.15,7.11ZM66.99,25.72h-1.08c-1.21,0-1.9.09-2.24.16v5.11c.58.04,1.69.1,3.18.08,1.93-.02,3.13-1.04,3.13-2.67,0-1.3-.78-2.69-2.98-2.69M108.04,31.9v8.58c0,.15-.06.28-.17.37-.11.09-.25.14-.39.12-1-.14-1.48-.46-1.96-.82-.02.01-2.24.9-4.23.9-2.39,0-3.76-1.51-3.76-4.14s1.26-3.71,4.33-3.94l3.21-.26v-.78c0-.99-.59-1.55-1.61-1.55-1.41,0-3.42.17-4.49.26-.14.01-.27-.03-.37-.12-.1-.09-.16-.22-.17-.35l-.06-1.64c-.01-.25.17-.47.41-.51.96-.15,3.34-.5,4.83-.5,3.01,0,4.41,1.39,4.41,4.38M102.23,35.16c-1.16.11-1.71.64-1.71,1.66,0,.63.17,1.69,1.32,1.69,1.37,0,3.22-.52,3.24-.52v-2.98l-2.85.15ZM117.63,27.73c-1.3.08-2.59.82-3.39,1.39v-.8c0-.27-.22-.49-.49-.49h-1.97c-.27,0-.49.22-.49.49v11.96c0,.27.22.49.49.49h1.97c.27,0,.49-.22.49-.49v-8.27c.44-.37,1.82-1.41,3.47-1.55.25-.02.45-.23.45-.49v-1.75c0-.14-.06-.26-.16-.36-.1-.09-.23-.15-.37-.13"/>
    <path class="cls-5" d="M181.96,32.63v-.06s-.05-.03-.05-.03c-.97-.59-2.24-.92-3.47-.94-.02-.16-.18-1.33-.2-1.49,1.19-.34,2.32-.98,3.12-1.8l.04-.04v-.06c-.07-.44-.24-1.06-.39-1.43l-.02-.06-.06-.02c-1.09-.31-2.4-.3-3.6,0-.06-.15-.5-1.23-.56-1.38,1.06-.64,1.98-1.56,2.54-2.55l.03-.05-.02-.06c-.16-.38-.48-.93-.74-1.28l-.04-.05h-.07c-1.12-.02-2.38.32-3.48.91-.1-.14-.82-1.07-.91-1.2.86-.89,1.52-2.01,1.8-3.11l.02-.06-.04-.05c-.26-.34-.7-.79-1.04-1.06l-.05-.04h-.06c-1.1.29-2.22.95-3.11,1.8-.14-.1-1.07-.83-1.2-.94.59-1.05.94-2.26.94-3.38,0-.03,0-.15,0-.15l-.05-.04c-.35-.27-.89-.58-1.29-.74l-.05-.02-.05.03c-.99.55-1.9,1.47-2.54,2.53-.16-.06-1.3-.54-1.45-.6.15-.59.24-1.21.24-1.82s-.07-1.22-.24-1.77v-.06s-.07-.02-.07-.02c-.38-.16-.97-.33-1.42-.39h-.07s-.04.03-.04.03c-.82.79-1.46,1.92-1.8,3.11-.17-.03-1.34-.17-1.52-.19-.02-1.23-.35-2.49-.93-3.47l-.03-.06h-.06c-.42-.06-1.07-.06-1.48,0h-.07s-.03.06-.03.06c-.58.97-.91,2.23-.93,3.47-.17.02-1.36.17-1.54.2-.34-1.19-.98-2.33-1.8-3.12l-.05-.05h-.07c-.44.08-1.05.24-1.42.39l-.06.03-.02.06c-.15.56-.24,1.17-.24,1.79s.1,1.22.24,1.81c-.15.06-1.29.56-1.45.62-.64-1.06-1.55-1.98-2.54-2.54l-.05-.03-.06.02c-.38.17-.93.48-1.28.74l-.05.03v.17c0,1.11.34,2.33.93,3.38-.13.11-.99.78-1.12.89-.89-.86-2.01-1.52-3.12-1.81h-.06s-.04.03-.04.03c-.34.25-.8.7-1.06,1.04l-.04.05.02.06c.28,1.1.94,2.23,1.79,3.12-.09.13-.84,1.11-.95,1.24-1.07-.6-2.33-.95-3.47-.94h-.06s-.04.05-.04.05c-.25.33-.57.87-.74,1.28l-.02.05.03.06c.55.98,1.48,1.9,2.54,2.55-.06.15-.49,1.21-.56,1.37-1.22-.3-2.52-.31-3.6.01l-.06.02-.02.05c-.16.38-.33.98-.39,1.43v.06s.04.05.04.05c.79.81,1.93,1.46,3.12,1.79-.02.17-.18,1.34-.2,1.5-1.23.02-2.5.35-3.47.93l-.05.03v.06c-.03.21-.05.48-.05.74s.02.53.04.74v.06s.06.03.06.03c.97.58,2.23.91,3.47.93.02.17.19,1.37.21,1.54-1.19.35-2.32,1-3.11,1.81l-.04.05v.06c.08.44.24,1.06.39,1.43l.02.06.06.02c1.1.31,2.4.3,3.61,0,.06.15.53,1.22.59,1.37-1.06.63-1.98,1.55-2.54,2.54l-.03.06.02.06c.16.39.49.94.74,1.28l.04.05h.06c1.14.02,2.39-.32,3.48-.92.1.13.84,1.09.93,1.22-.85.87-1.52,1.99-1.8,3.11v.06s.02.05.02.05c.26.33.71.78,1.04,1.05l.05.04.06-.02c1.1-.27,2.22-.93,3.12-1.79.14.11,1.09.84,1.23.94-.59,1.08-.93,2.3-.93,3.42v.13l.06.04c.33.25.87.56,1.27.74l.06.02.06-.03c.99-.55,1.91-1.48,2.55-2.55.15.06,1.19.49,1.35.55-.15.59-.24,1.2-.24,1.79s.08,1.24.24,1.79v.06s.08.02.08.02c.38.16.98.33,1.42.4h.07s.04-.04.04-.04c.82-.8,1.46-1.93,1.78-3.11.17.03,1.37.2,1.54.22.02,1.24.36,2.5.94,3.47l.03.05h.07c.43.06,1.06.06,1.48,0h.06s.03-.06.03-.06c.58-.96.91-2.23.94-3.47.17-.02,1.29-.18,1.46-.21.33,1.2.98,2.32,1.8,3.12l.04.04h.06c.45-.08,1.06-.23,1.44-.39l.05-.03.02-.06c.16-.56.23-1.17.23-1.79s-.09-1.23-.23-1.82c.16-.06,1.25-.53,1.4-.6.64,1.06,1.56,1.99,2.54,2.55l.05.03.06-.02c.39-.16.95-.48,1.29-.75l.05-.03s0-.13,0-.17c0-1.09-.35-2.31-.92-3.38.13-.1,1.03-.8,1.16-.91.9.85,2.02,1.51,3.12,1.8l.06.02.05-.04c.34-.26.79-.72,1.05-1.04l.04-.05-.02-.05c-.27-1.1-.93-2.22-1.79-3.12.1-.13.83-1.09.92-1.22,1.09.6,2.34.94,3.47.92h.06l.04-.05c.27-.34.58-.88.74-1.29l.03-.05-.03-.06c-.54-.97-1.46-1.89-2.52-2.55.06-.15.49-1.2.56-1.36,1.2.31,2.5.32,3.59,0l.05-.02.03-.05c.16-.39.32-.98.39-1.43v-.06s-.04-.05-.04-.05c-.79-.82-1.92-1.46-3.1-1.8.02-.16.19-1.29.2-1.46,1.25-.02,2.52-.35,3.48-.94l.05-.03v-.07c.03-.21.05-.47.05-.74s-.01-.53-.04-.73M159.22,50.29c-9.42,0-17.08-7.66-17.08-17.09s7.66-17.08,17.08-17.08,17.08,7.66,17.08,17.08-7.66,17.09-17.08,17.09"/>
    <path class="cls-5" d="M159.21,18.18c-8.28,0-15.02,6.74-15.02,15.03s6.74,15.03,15.02,15.03,15.03-6.74,15.03-15.03-6.74-15.03-15.03-15.03M161.11,20.59c.14-.12.34-.08.53-.04,3.02.73,5.24,2.01,7.4,4.28.15.16.24.31.24.45,0,.01,0,.03,0,.05-.05.21-.28.32-.48.42l-6.32,3.06c-.25.12-.48.13-.66.02-.19-.11-.3-.31-.32-.59l-.51-7c-.02-.33.03-.54.15-.64M149.37,24.89h0c2.16-2.27,4.38-3.55,7.4-4.28.19-.04.39-.08.52.04.13.1.17.31.15.64l-.51,7c-.02.27-.13.48-.32.59-.18.11-.42.1-.66-.01l-6.32-3.06c-.21-.1-.45-.21-.49-.42-.02-.14.05-.31.23-.5M147.87,37.87c-.27.19-.48.25-.63.2-.17-.06-.23-.25-.28-.44-.89-2.98-.89-5.54-.01-8.55.08-.26.18-.4.32-.45.2-.07.41.08.6.21l5.81,3.95c.22.15.35.35.35.57s-.13.41-.34.57l-5.82,3.94ZM157.4,46.09c-.14.11-.33.08-.52.03-3.02-.72-5.24-2-7.4-4.28-.16-.16-.23-.31-.23-.44,0-.02,0-.04,0-.06.03-.2.27-.32.48-.41l6.32-3.07c.25-.12.49-.12.67-.01.18.11.3.31.32.58l.51,7.02c.02.33-.03.54-.15.64M159.2,37.34c-2.27,0-4.11-1.84-4.11-4.1,0-1.38.69-2.66,1.85-3.43.38-.26.9-.15,1.15.23.25.38.15.9-.23,1.15-.69.46-1.1,1.22-1.1,2.04,0,1.35,1.1,2.45,2.45,2.45s2.45-1.1,2.45-2.45c0-.83-.41-1.59-1.1-2.05-.38-.25-.48-.77-.23-1.15.25-.38.77-.49,1.15-.24,1.15.77,1.85,2.05,1.85,3.43,0,2.26-1.84,4.1-4.11,4.1M169.04,41.76c-2.15,2.27-4.36,3.55-7.4,4.27-.26.07-.44.04-.55-.05-.16-.13-.14-.4-.12-.63l.5-7.01c.03-.27.14-.48.33-.59.19-.1.43-.09.66.02l6.32,3.06c.3.15.45.29.48.45.03.18-.1.33-.24.48M171.17,28.6c.17.06.24.25.29.43.89,2.99.89,5.54,0,8.55-.07.26-.18.4-.31.46-.2.06-.42-.08-.6-.22l-5.82-3.95c-.22-.15-.35-.35-.35-.57s.13-.42.35-.57l5.82-3.94c.26-.19.47-.25.62-.19"/>
  </g>
  <text class="cls-2" transform="translate(13.63 61.46) scale(1 1.02)"><tspan x="0" y="0">Club of Penticton</tspan></text>
</svg>