<?xml version="1.0" encoding="UTF-8"?>
<svg id="uuid-616113e6-c791-4019-ae77-15c24e5a4e54" data-name="Layer 1" xmlns="http://www.w3.org/2000/svg" xmlns:xlink="http://www.w3.org/1999/xlink" viewBox="0 0 164.94 119.9">
  <defs>
    <style>
      .uuid-3ee58b73-73dd-4081-91b9-2f012cd14f2a {
        fill: #0d8140;
      }

      .uuid-12c02189-1fa6-4dcc-b884-47aadce2a77e {
        fill: #fff;
      }

      .uuid-558f3289-9f5c-4cef-a84d-9a9cadf94b67 {
        letter-spacing: -.02em;
      }

      .uuid-52bbca82-009f-4279-99d1-777774023224 {
        letter-spacing: 0em;
      }

      .uuid-d8cef82c-9b51-40ac-8ee9-19a6e3f69398 {
        letter-spacing: 0em;
      }

      .uuid-1ffaf33a-c1f2-4e13-95bb-32bbbaaaf720 {
        letter-spacing: 0em;
      }

      .uuid-1bd498d4-2193-4d2f-9495-ca76d113f009 {
        fill: none;
      }

      .uuid-f25011ab-b234-45c1-8342-f61cc65327f8 {
        letter-spacing: 0em;
      }

      .uuid-f69228f6-d583-4d0d-b230-76ad8282b571 {
        fill: url(#uuid-756f74b4-db8a-4ced-a0a2-e1e673d658b8);
      }

      .uuid-10cb84c7-e435-426e-be51-247c1818f7e9 {
        fill: #f8b218;
        font-family: Audiowide-Regular, Audiowide;
        font-size: 5.04px;
      }

      .uuid-5f76e2d2-085b-42df-96a2-fd90afa27670 {
        fill: #fab417;
      }

      .uuid-3a9f3a86-0090-437b-9d3b-ea1516e8c277 {
        fill: #0e8140;
      }
    </style>
    <linearGradient id="uuid-756f74b4-db8a-4ced-a0a2-e1e673d658b8" x1="26.69" y1="31.87" x2="138.18" y2="31.87" gradientUnits="userSpaceOnUse">
      <stop offset="0" stop-color="#c9a861"/>
      <stop offset="0" stop-color="#b88e2f"/>
      <stop offset=".23" stop-color="#fede9f"/>
      <stop offset=".41" stop-color="#eac05b"/>
      <stop offset=".59" stop-color="#a77e2c"/>
      <stop offset=".77" stop-color="#c7972c"/>
      <stop offset="1" stop-color="#956d29"/>
    </linearGradient>
  </defs>
  <g>
    <rect class="uuid-12c02189-1fa6-4dcc-b884-47aadce2a77e" x="0" y="0" width="164.94" height="119.9" rx="18.94" ry="18.94"/>
    <rect x="0" y="0" width="164.94" height="46.28" rx="18.94" ry="18.94"/>
  </g>
  <g>
    <text class="uuid-10cb84c7-e435-426e-be51-247c1818f7e9" transform="translate(76.76 10.84)"><tspan x="0" y="0">Pe</tspan><tspan class="uuid-558f3289-9f5c-4cef-a84d-9a9cadf94b67" x="7.35" y="0">n</tspan><tspan x="10.78" y="0">tic</tspan><tspan class="uuid-d8cef82c-9b51-40ac-8ee9-19a6e3f69398" x="17.99" y="0">t</tspan><tspan x="20.81" y="0">on</tspan><tspan class="uuid-52bbca82-009f-4279-99d1-777774023224" x="1.53" y="6.04">R</tspan><tspan x="5.67" y="6.04">ob</tspan><tspan class="uuid-f25011ab-b234-45c1-8342-f61cc65327f8" x="12.58" y="6.04">o</tspan><tspan class="uuid-1ffaf33a-c1f2-4e13-95bb-32bbbaaaf720" x="16.01" y="6.04">tics</tspan></text>
    <g>
      <path class="uuid-5f76e2d2-085b-42df-96a2-fd90afa27670" d="m75.11,12.44c0,3.04-2.46,5.5-5.5,5.5s-5.5-2.46-5.5-5.5,2.46-5.5,5.5-5.5,5.5,2.46,5.5,5.5Zm-3.74,5.07c.11-.04.27-.1.27-.1,0,0,0-.01-.02-.02-.03-.02-.1-.09-.14-.13-.03-.03-.19-.2-.2-.22-.02-.02-.13-.13-.17-.17-.06-.05-.19-.19-.24-.23-.06-.07-.07-.07-.08-.09,0,0-.02-.02-.02-.03,0,0-.01-.02-.01-.02,0,0-.01-.02-.03-.03-.01-.01-.03-.03-.04-.04,0,0-.03-.03-.04-.04-.03-.03-.25-.26-.59-.59-.54-.54-.98-.99-1.27-1.28-.29-.29-.32-.32-.32-.33,0,0,0-.03.02-.05,0-.02.02-.06.02-.08,0-.04,0-.13,0-.17-.01-.09-.05-.17-.11-.24l-.03-.03.16-.16c.09-.09.16-.16.16-.17,0,0,0-.02-.02-.03-.06-.07-.09-.15-.11-.23,0-.04,0-.13,0-.17.01-.07.04-.14.09-.2.03-.04.09-.1.12-.12.08-.06.18-.09.28-.09.07,0,.15.02.22.05.04.02.09.05.11.08h.01s-.1.11-.1.11l-.1.1h0s-.08-.06-.13-.06c-.04,0-.07,0-.1.02-.06.03-.1.07-.12.13,0,.02,0,.03,0,.08s0,.05.01.08c.01.03.03.06.04.07h0s-.09.1-.09.1c-.05.05-.09.09-.09.1,0,0,0,.01.02.02.05.05.13.09.21.11.04.01.05.01.12.01.06,0,.08,0,.1,0,.03,0,.08-.02.1-.03,0,0,.01,0,.34.33.18.18.43.44.56.57.23.23.47.47.91.92.13.13.33.33.45.45.12.12.33.33.45.45s.23.23.23.24c0,0,.04.05.09.1.05.05.14.14.2.2.06.06.12.12.13.12.01,0,.03.02.04.04.02.02.02.02.03.02.03-.01.27-.2.27-.2,0,0,0-.01-.02-.02,0,0-.04-.04-.07-.08-.03-.03-.08-.09-.12-.12-.12-.11-.49-.48-1.18-1.18-.18-.19-.44-.45-.57-.57-.37-.37-.68-.69-.93-.93-.12-.13-.3-.3-.4-.4-.09-.09-.17-.17-.17-.17,0,0,0-.01,0-.03.02-.07.03-.11.03-.18,0-.07,0-.11-.02-.16-.02-.07-.06-.13-.1-.17l-.02-.02.18-.18.18-.18.02.02c.06.05.15.1.23.11.04,0,.13.01.17,0,.04,0,.09-.02.12-.03.01,0,.03,0,.03,0,0,0,.08.08.17.17.09.09.27.27.39.39s.33.33.46.46.4.39.59.59.45.45.57.57c.77.77,1.01,1,1.02,1.01,0,0,.07.07.14.14.07.07.12.12.13.12,0,0,.21-.27.21-.28,0,0-.01-.01-.02-.02-.02-.02-.07-.07-.16-.15-.03-.03-.11-.11-.18-.17-.07-.07-.22-.22-.34-.33s-.32-.32-.45-.44c-.25-.25-.58-.57-.93-.93-.13-.13-.34-.34-.47-.46-.13-.13-.34-.33-.46-.46-.13-.13-.28-.27-.33-.33l-.1-.1v-.03c.07-.17.04-.37-.08-.5l-.02-.02.16-.16.16-.16.03.02c.06.06.14.09.22.11.05.01.16.01.2,0,.03,0,.07-.02.1-.03h.01s.06.05.06.05c.05.05.68.67,1.11,1.1.55.55.65.64.93.92.04.04.07.07.07.07,0,0,.05.04.1.09.08.08.12.12.15.15.01.01.12.11.13.13,0,0,.02.03.04.04s.04.04.06.05c.01.01.05.05.09.09.04.04.08.07.09.08.04.04.09.09.12.12.02.02.04.04.05.05,0,0,.03.04.05.06.02.02.06.07.09.09.03.03.05.05.06.06,0,0,0,0,.01,0,0,0,.02-.03.06-.13,0-.02.02-.05.02-.05,0-.02.03-.09.05-.14v-.04s-.11-.12-.11-.12c-.07-.07-.13-.13-.15-.15-.03-.02-.03-.03-.08-.09-.01-.01-.04-.04-.06-.06-.02-.02-.1-.1-.18-.18-.08-.08-.16-.16-.19-.18s-.06-.06-.09-.08-.05-.05-.05-.05c-.03-.03-.1-.09-.2-.19,0,0-.02-.02-.03-.03-.02-.02-.09-.08-.58-.57-.12-.12-.31-.31-.43-.42-.12-.12-.31-.31-.42-.42s-.28-.27-.36-.36c-.08-.08-.15-.15-.16-.16,0,0,0-.01,0-.04.02-.05.02-.08.02-.14,0-.14-.04-.26-.12-.35l-.02-.02.95-.95.95-.95.03.03s.02.02-.01-.02c-.17-.18-.46-.43-.73-.62-.43-.3-.92-.55-1.41-.7-.11-.04-.13-.04-.19-.06-.03,0-.06-.02-.07-.02-.06-.02-.24-.06-.35-.08-.16-.03-.35-.06-.49-.08-.11-.01-.13-.01-.2-.02-.32-.02-.69-.02-1,.02-.74.08-1.43.31-2.07.68-.93.53-1.69,1.34-2.16,2.29-.04.09-.05.11-.07.15,0,.01-.01.03-.02.04-.04.08-.11.25-.15.37-.03.09-.11.32-.12.38,0,0,0,.02,0,.04-.02.06-.05.2-.06.24,0,0,0,.03-.01.05,0,.03-.02.1-.03.15,0,.01,0,.03,0,.05-.09.53-.1,1.14-.02,1.69.03.23.08.48.14.68,0,.02.01.04.01.04.02.06.05.18.1.31.02.07.08.21.12.3.24.56.56,1.07.97,1.53.07.07.16.17.19.2.02.02.02.02.01,0l-.02-.02.95-.95.95-.95.02.02c.13.12.33.15.5.09h.02s.04.03.04.03c.06.06.65.66.9.91.12.12.31.31.43.43.12.12.28.29.38.38.09.09.17.17.17.17,0,0,.04.04.09.1.02.02.04.04.04.05,0,0,.04.04.06.07s.08.08.12.12.09.09.12.12c.07.08.26.26.33.33.03.03.08.07.1.09.04.04.06.05.08.07,0,0,.06.06.11.11.06.06.1.1.1.1,0,0,.03,0,.07-.02h0Z"/>
      <path class="uuid-5f76e2d2-085b-42df-96a2-fd90afa27670" d="m67.66,14.3c-.06-.07-.1-.15-.12-.24,0-.04,0-.13,0-.17.03-.18.16-.33.33-.39.1-.03.21-.03.31,0,.06.02.12.06.16.09l.02.02-.09.09-.09.09h-.02s-.07-.06-.13-.06c-.07,0-.12.02-.17.06-.04.04-.06.08-.07.13,0,.06,0,.11.04.16v.02s-.08.09-.08.09c-.05.05-.09.09-.09.09s0,0-.02-.02h0Z"/>
      <path class="uuid-5f76e2d2-085b-42df-96a2-fd90afa27670" d="m67.98,14.19s-.07-.03-.09-.05l-.02-.02.15-.15c.08-.08.15-.15.16-.15.01,0,.04.05.06.09,0,.02,0,.03,0,.06,0,.05,0,.07-.03.11-.02.03-.06.06-.08.08-.04.02-.11.03-.15.02h0Z"/>
      <path class="uuid-5f76e2d2-085b-42df-96a2-fd90afa27670" d="m69.01,13.17s-.06-.02-.09-.04l-.03-.02.16-.16.16-.16.02.02s.04.06.04.08c0,.03,0,.08,0,.11-.02.07-.09.14-.17.15-.03,0-.07,0-.09,0h0Z"/>
      <path class="uuid-5f76e2d2-085b-42df-96a2-fd90afa27670" d="m69.75,12.2s-.05-.07-.07-.11c-.03-.06-.05-.16-.05-.23,0-.13.06-.24.15-.33.08-.08.16-.12.26-.14.03,0,.13,0,.17,0,.06.01.13.04.18.07.03.02.08.06.08.06,0,0-.04.04-.09.09l-.09.09-.02-.02s-.08-.04-.14-.04c-.05,0-.08,0-.11.03-.03.02-.05.04-.07.07-.02.04-.04.08-.04.12,0,.05.01.1.04.14v.02s-.08.09-.08.09c-.05.05-.1.09-.1.09,0,0-.01,0-.02-.02h0Z"/>
      <path class="uuid-5f76e2d2-085b-42df-96a2-fd90afa27670" d="m67.51,12.18s-.04-.02-.04-.03c0-.01,0-.06-.01-.1,0-.03,0-.04-.02-.06-.01-.01-.03-.02-.07-.02-.06,0-.07,0-.1.07-.04.09-.05.1-.11.08-.03,0-.05-.02-.05-.04,0,0,0-.03,0-.05.01-.08.01-.08,0-.1,0,0-.01-.02-.02-.02-.02-.01-.07-.03-.09-.03-.02,0-.03,0-.05.03,0,.01-.02.02-.02.02,0,0-.01.02-.03.03-.03.04-.04.04-.06.04-.04-.01-.07-.04-.07-.06,0,0,0-.03.02-.07.02-.05.02-.07.02-.08,0-.02,0-.02-.02-.04-.01,0-.02-.02-.03-.02,0,0-.02,0-.02-.01-.03-.02-.06-.01-.09.02-.07.06-.08.07-.1.06-.02,0-.05-.03-.06-.05-.01-.02-.01-.03.01-.08.04-.07.05-.08.05-.09,0-.02,0-.03-.03-.06-.01-.01-.02-.02-.02-.03,0-.01-.03-.02-.05-.02-.01,0-.02,0-.05.02-.02.01-.05.03-.06.03h-.03s-.01,0-.01,0c-.02,0-.02-.01-.04-.04-.03-.04-.03-.05.03-.11.05-.05.06-.06.05-.09,0-.02-.04-.08-.06-.09-.02-.01-.04-.01-.11,0l-.06.02h-.02s-.02-.02-.03-.04c-.01-.02-.02-.03-.02-.05,0-.02,0-.02.06-.07.06-.04.07-.05.07-.08,0-.02-.02-.09-.04-.11-.01-.01-.03-.02-.09-.01-.06,0-.08,0-.09-.01-.01,0-.02-.05-.02-.07,0-.02.01-.04.04-.05.01,0,.02,0,.03-.01,0,0,.02,0,.02,0,.03-.01.05-.02.06-.03h.01s0-.06,0-.06c0-.05,0-.07-.02-.08-.01-.01-.03-.02-.11-.03-.02,0-.04,0-.05-.01,0,0-.01-.01-.02-.02-.02-.03-.01-.08.02-.1,0,0,.03-.01.07-.02.03,0,.06-.01.07-.01.03,0,.04-.03.04-.09,0-.06,0-.07-.08-.1-.06-.02-.07-.03-.08-.05,0-.02,0-.07.02-.08.02-.02.02-.02.09-.02.08,0,.09,0,.1-.02,0,0,.01-.03.02-.05,0-.02.01-.04.01-.04,0-.03,0-.05-.07-.09-.05-.04-.06-.04-.06-.06,0-.03.03-.08.06-.09,0,0,.03,0,.06.01.03,0,.06.02.07.02.03,0,.04,0,.07-.05.04-.06.03-.08,0-.12-.03-.03-.07-.08-.07-.08,0-.01,0-.04.03-.06.03-.04.04-.04.1,0,.06.03.07.04.09.03.02,0,.03-.01.06-.04.03-.03.04-.04.04-.06,0-.02,0-.03-.05-.1,0-.01-.02-.03-.02-.04v-.02s0-.02,0-.02c0-.02.05-.05.06-.06.02,0,.04,0,.08.05.04.04.06.05.07.05.02,0,.03,0,.07-.03s.05-.04.05-.06c0,0,0-.04-.02-.07-.01-.03-.02-.06-.02-.07,0-.02.06-.06.09-.06.02,0,.03.01.07.06.02.03.04.05.05.06.02.01.04,0,.08-.01.04-.02.05-.02.06-.04,0-.01,0-.02,0-.1,0-.06,0-.05,0-.07.02-.02.07-.03.09-.02.02,0,.03.02.04.06.03.08.05.09.08.09.01,0,.04,0,.09-.01.01,0,.03-.02.04-.04,0,0,0-.04,0-.07,0-.05,0-.07.02-.08,0,0,.03-.02.05-.02.03,0,.04,0,.06.02,0,.01.01.02.02.06.01.07.02.09.03.1.02.02.1.02.13.01.02,0,.03-.02.05-.08.02-.06.02-.07.04-.08,0,0,.01,0,.04,0,.04,0,.06.01.07.03,0,.01,0,.02,0,.08,0,.08,0,.08.03.1.01,0,.04.01.06.02.03,0,.03,0,.05,0,.02,0,.03-.02.04-.04,0,0,.01-.02.02-.03s.01-.02.02-.03c0-.01.02-.02.02-.03.03-.02.12.02.11.05,0,0,0,.02,0,.04,0,.02,0,.04-.01.05,0,.02,0,.06,0,.07,0,.01.02.02.06.04.06.03.07.03.13-.04.05-.05.06-.06.08-.05.02,0,.06.03.07.05.01.02,0,.02-.03.11-.02.05-.02.07.02.11.05.04.05.04.07.04.02,0,.03,0,.07-.03.06-.04.07-.04.08-.04.02,0,.05.04.06.06,0,.01,0,.02,0,.03,0,.01-.04.06-.07.09,0,0-.02.04-.02.04,0,.01.02.04.04.07,0,0,.01.01.01.02s0,0,.02.01c.03.01.03.01.11-.02.04-.02.06-.02.07-.02.01,0,.03.02.04.04.03.05.02.06-.06.12-.03.03-.05.05-.05.07,0,0,0,.03.02.05.03.06.04.07.11.05.02,0,.05,0,.06-.01.04,0,.05.01.07.06,0,.03,0,.02,0,.05,0,0-.02.02-.05.03-.02.01-.05.03-.06.04-.03.01-.03.03-.03.05,0,.03.01.08.02.1.01.02.02.02.08.02.07,0,.09,0,.1.02,0,0,.01.02.01.04,0,.03,0,.03,0,.04-.01.02-.03.03-.08.04-.02,0-.05.01-.07.02-.01,0-.02.01-.02.02,0,.01,0,.02,0,.06,0,.04,0,.05,0,.06,0,.01.03.03.05.03.05.01.1.03.1.03,0,0,.01,0,.02.03,0,.01,0,.02,0,.02,0,0,0,.02,0,.03,0,.04-.02.05-.11.05-.07,0-.08,0-.1.07,0,.02,0,.04,0,.05,0,.04,0,.04.07.08.03.02.06.03.06.03,0,0,0,.01.01.02,0,.02,0,.02,0,.07,0,.02-.01.02-.02.03h-.01s-.04,0-.04,0c-.02,0-.05,0-.07-.01-.05,0-.06,0-.09.05-.04.08-.04.08.05.15.04.03.05.05.05.06,0,.01-.02.05-.04.07-.02.02-.03.02-.05.01-.01,0-.02,0-.03-.01,0,0-.02,0-.03-.01-.07-.03-.09-.03-.13.02-.02.02-.04.06-.04.07s.02.04.03.05c.02.02.06.08.06.09,0,.01,0,.03-.02.05-.02.02-.04.03-.05.03,0,0-.05-.02-.08-.05-.01-.01-.03-.02-.04-.02-.02,0-.04,0-.05,0-.01,0-.06.05-.07.06-.02.02-.02.05.02.11.01.03.02.06.03.06,0,.02,0,.03-.03.05-.03.02-.04.02-.06.02h-.02l-.05-.05s-.06-.06-.08-.06c-.01,0-.04.01-.07.03,0,0-.02.01-.03.02-.02.01-.03.04-.01.11,0,.02.01.04.01.05,0,.02,0,.03,0,.04,0,.01-.03.03-.06.03-.01,0-.02,0-.03,0-.01,0-.02,0-.03-.03,0-.01-.02-.03-.02-.03,0-.02-.04-.06-.05-.07-.02,0-.05,0-.09,0-.04.01-.06.03-.06.05,0,.15,0,.14-.02.16,0,0-.02,0-.04.01-.02,0-.03,0-.04,0-.02,0-.03-.02-.05-.08-.01-.03-.02-.06-.03-.07-.01-.01-.02-.02-.08-.01-.05,0-.05,0-.06.01-.02.01-.02.02-.03.09,0,.03-.02.06-.02.07-.01.02-.04.03-.08.02h0Zm-.16-.51s.01,0,.02,0c.03,0,.07-.05.08-.1,0-.01,0-.09,0-.21v-.22s-.03-.03-.06-.04c-.09-.04-.17-.08-.21-.12-.02-.02-.05-.04-.06-.04-.03,0-.04,0-.17.08-.04.02-.09.05-.11.07-.1.06-.11.07-.13.09-.01.02-.03.06-.03.08,0,.03.02.07.06.11.09.09.2.16.31.22.04.02.13.06.13.06,0,0,.01,0,.03,0,.06.02.13.04.14.03Zm.62,0s.12-.04.15-.05c0,0,.02,0,.03-.01.03-.01.07-.03.09-.04,0,0,.02-.01.03-.02.08-.05.2-.13.25-.19.02-.02.03-.04.04-.07,0-.02,0-.02,0-.05-.01-.05-.04-.07-.1-.11-.02-.01-.06-.04-.09-.05-.03-.02-.06-.04-.08-.05-.11-.07-.13-.08-.15-.07s-.04,0-.08.05c-.03.03-.13.09-.14.09,0,0-.08.03-.09.04,0,0-.02.02-.02.03,0,.01,0,.03,0,.22v.21s.01.02.01.02c.01.03.04.06.06.06,0,0,.02,0,.02,0,.02,0,.04,0,.08,0h0Zm.13-1.23c0-.26-.21-.47-.47-.47s-.47.21-.47.47.21.47.47.47.47-.21.47-.47Zm-1.52.41s.04-.02.17-.09c.03-.02.07-.04.08-.05.11-.06.11-.06.12-.09,0-.02,0-.02,0-.06-.02-.1-.02-.15,0-.24,0-.04,0-.05,0-.07,0-.02-.02-.03-.13-.1-.05-.03-.11-.07-.13-.08-.11-.06-.11-.06-.15-.06-.03,0-.04,0-.06,0-.03.01-.05.03-.06.06,0,.02-.03.08-.03.13-.02.1-.02.25-.01.34,0,.03,0,.07,0,.07,0,0,0,.02,0,.03,0,.01,0,.04.01.06.01.05.02.08.05.1.01.01.04.03.06.04.02,0,.07,0,.09,0h0Zm2.22,0s.06-.05.07-.11c.02-.07.02-.08.03-.14,0-.05,0-.08,0-.16,0-.13,0-.2-.03-.3-.02-.07-.04-.1-.08-.12-.02,0-.03,0-.06,0-.03,0-.04,0-.06.01-.01,0-.04.02-.05.03-.03.02-.1.06-.17.1-.08.05-.11.07-.12.08-.02.02-.02.03-.01.08,0,.06,0,.19,0,.23,0,.04,0,.06,0,.07,0,.02.02.02.07.05.02.01.06.03.07.04.02.01.03.02.03.02,0,0,0,0,.01,0,0,0,.02.01.03.02s.04.02.07.04c.09.05.1.06.15.06.02,0,.03,0,.05-.01h0Zm-1.65-.91s.03-.02.04-.03c.02-.02.08-.05.1-.07.03-.02.08-.04.11-.05.04-.01.05-.03.06-.05,0-.02,0-.4,0-.43-.01-.04-.03-.07-.07-.09-.02,0-.03-.01-.05-.01-.04,0-.08.01-.19.05-.05.02-.12.06-.17.09-.04.02-.07.05-.09.06-.01,0-.03.02-.03.03-.04.03-.11.09-.13.12-.03.04-.03.1,0,.14.02.03.04.04.09.07.02.01.05.03.05.03s.03.02.04.02.06.04.1.06c.1.06.11.06.15.05h0Zm1.03,0s.05-.03.08-.05c.05-.03.13-.07.22-.13.04-.02.06-.04.07-.08.02-.04.02-.07,0-.11,0-.02-.05-.06-.1-.11-.02-.02-.14-.1-.14-.1,0,0-.01,0-.02-.01-.01,0-.03-.02-.04-.03-.04-.02-.07-.03-.08-.04,0,0-.02,0-.03-.01-.01,0-.03-.01-.04-.01,0,0-.02,0-.03-.01,0,0-.02,0-.03-.01s-.03,0-.04-.01c-.02,0-.06-.01-.08-.01-.04,0-.08.04-.1.08v.02s-.01.21-.01.21c0,.23,0,.23.03.25,0,0,.03.02.05.02.07.02.13.06.21.12.04.03.06.04.1.02h0Z"/>
      <path class="uuid-5f76e2d2-085b-42df-96a2-fd90afa27670" d="m70.08,12.09s-.06-.03-.08-.04l-.02-.02.15-.15c.09-.09.16-.15.16-.15,0,0,.03.04.04.06.02.04.03.1.02.14-.02.08-.09.14-.16.16-.03,0-.08,0-.11,0h0Z"/>
      <path class="uuid-5f76e2d2-085b-42df-96a2-fd90afa27670" d="m70.79,11.17c-.05-.06-.09-.14-.11-.23,0-.04-.01-.12,0-.16.03-.18.16-.34.34-.4.16-.05.33-.02.46.1l.02.02-.09.09-.09.09h-.01s-.06-.05-.08-.05c-.03,0-.1,0-.12,0-.06.02-.11.06-.14.11,0,.02-.02.04-.02.06-.01.06,0,.14.05.19h.01s-.09.1-.09.1c-.05.05-.09.09-.09.09,0,0,0,0-.02-.02h0Z"/>
      <path class="uuid-5f76e2d2-085b-42df-96a2-fd90afa27670" d="m71.14,11.07s-.09-.03-.12-.05h-.02s.15-.17.15-.17c.08-.08.15-.15.16-.15,0,0,.02.02.04.05.05.09.03.19-.04.26-.02.02-.03.03-.06.04-.04.02-.08.03-.11.02Z"/>
    </g>
  </g>
  <path class="uuid-f69228f6-d583-4d0d-b230-76ad8282b571" d="m32.06,37.32c-1.63,0-2.93-.48-3.91-1.45s-1.47-2.3-1.47-4,.48-3.05,1.44-4.01,2.31-1.44,4.04-1.44c.72,0,1.41.06,2.08.17.23.04.42.15.57.34.15.19.23.4.23.65v.39c0,.2-.08.37-.25.49-.17.13-.35.16-.55.12-.6-.14-1.2-.2-1.79-.2-2.17,0-3.25,1.16-3.25,3.49,0,1.16.26,2.03.78,2.62.52.58,1.26.87,2.23.87.3,0,.6-.04.92-.12.09-.02.13-.07.13-.16v-2.37c0-.08-.04-.12-.13-.12h-1.35c-.22,0-.42-.08-.58-.25-.16-.16-.25-.36-.25-.58v-.22c0-.22.08-.42.25-.58.17-.17.36-.25.58-.25h3.01c.22,0,.41.08.57.25.16.16.24.36.24.58v4.34c0,.25-.07.48-.22.68-.15.2-.33.33-.57.4-.87.23-1.79.35-2.75.35Zm13.61-1.45c-.89.96-2.1,1.45-3.63,1.45s-2.74-.48-3.63-1.45c-.89-.96-1.34-2.3-1.34-4s.45-3.04,1.34-4c.89-.96,2.1-1.45,3.63-1.45s2.74.48,3.63,1.45c.89.96,1.34,2.3,1.34,4s-.45,3.04-1.34,4Zm-1.19-4c0-2.28-.81-3.41-2.44-3.41s-2.44,1.14-2.44,3.41.81,3.41,2.44,3.41,2.44-1.14,2.44-3.41Zm4.91,5.3c-.22,0-.42-.08-.58-.25-.17-.16-.25-.36-.25-.58v-8.95c0-.22.08-.42.25-.58.16-.17.36-.25.58-.25h.9c.22,0,.41.08.57.25.16.16.24.36.24.58v7.61c0,.08.04.12.13.12h3.53c.22,0,.42.08.58.25.16.17.25.36.25.58v.39c0,.22-.08.42-.25.58-.17.17-.36.25-.58.25h-5.38Zm8.86.03c-.23-.02-.43-.12-.58-.3-.16-.18-.23-.39-.23-.63v-8.8c0-.24.08-.45.23-.63.15-.18.35-.28.58-.3.75-.08,1.5-.12,2.24-.12,1.73,0,3.07.46,4.01,1.38.94.92,1.41,2.23,1.41,3.92,0,1.84-.47,3.23-1.41,4.18-.94.94-2.28,1.42-4.01,1.42-.74,0-1.48-.04-2.24-.12Zm1.6-8.63v6.6c0,.09.04.14.13.16.19.04.43.06.7.06.98,0,1.7-.29,2.17-.86.47-.57.7-1.51.7-2.8,0-1.16-.24-2.01-.71-2.56s-1.2-.81-2.17-.81c-.27,0-.5.02-.7.06-.09.02-.13.07-.13.16Zm14.94,4.36c-1.22-.39-2.1-.87-2.64-1.45-.54-.58-.81-1.28-.81-2.11,0-.91.32-1.63.95-2.16.63-.53,1.54-.79,2.72-.79.89,0,1.7.1,2.43.31.23.07.42.21.56.41.14.21.21.44.21.69v.42c0,.19-.08.34-.25.45-.17.11-.34.13-.52.06-.82-.29-1.58-.44-2.28-.44-.89,0-1.34.35-1.34,1.05,0,.59.39,1.01,1.16,1.26,1.34.41,2.26.88,2.78,1.42s.78,1.25.78,2.14c0,2.08-1.31,3.12-3.94,3.12-.83,0-1.59-.13-2.27-.39-.23-.09-.41-.24-.54-.46-.13-.22-.2-.46-.2-.72v-.46c0-.17.08-.31.23-.4.15-.09.31-.1.46-.02.71.35,1.43.52,2.16.52.51,0,.9-.1,1.17-.3.27-.2.4-.48.4-.85,0-.32-.09-.58-.28-.78-.18-.2-.5-.38-.96-.52Zm6.42,4.24c-.22,0-.42-.08-.58-.25-.17-.16-.25-.36-.25-.58v-8.88c0-.23.08-.44.23-.62.15-.18.35-.29.58-.31.82-.08,1.62-.12,2.38-.12,3.1,0,4.65,1.15,4.65,3.46,0,1.25-.36,2.2-1.08,2.84s-1.78.97-3.17.97c-.37,0-.71-.01-1.03-.04-.09,0-.13.04-.13.12v2.59c0,.22-.08.42-.25.58-.16.17-.36.25-.58.25h-.77Zm1.6-8.66v3.17c0,.07.04.11.13.13.33.04.59.06.79.06.7,0,1.24-.16,1.62-.49.38-.32.57-.78.57-1.36,0-1.15-.73-1.73-2.19-1.73-.24,0-.51.02-.8.07-.08.02-.12.07-.12.15Zm14.85,7.36c-.89.96-2.1,1.45-3.63,1.45s-2.74-.48-3.63-1.45c-.89-.96-1.34-2.3-1.34-4s.45-3.04,1.34-4c.89-.96,2.1-1.45,3.63-1.45s2.74.48,3.63,1.45c.89.96,1.34,2.3,1.34,4s-.45,3.04-1.34,4Zm-1.19-4c0-2.28-.81-3.41-2.44-3.41s-2.44,1.14-2.44,3.41.81,3.41,2.44,3.41,2.44-1.14,2.44-3.41Zm4.91,5.3c-.22,0-.42-.08-.58-.25-.17-.16-.25-.36-.25-.58v-8.95c0-.22.08-.42.25-.58.16-.17.36-.25.58-.25h.71c.55,0,.95.24,1.21.73l3.05,5.77s0,.01.01.01.01,0,.01-.01v-5.67c0-.22.08-.42.25-.58.16-.17.36-.25.58-.25h.71c.22,0,.42.08.58.25.16.16.25.36.25.58v8.95c0,.22-.08.42-.25.58-.17.17-.36.25-.58.25h-.71c-.55,0-.95-.24-1.21-.73l-3.05-5.77s0-.01-.01-.01c0,0-.01,0-.01.01v5.67c0,.22-.08.42-.25.58-.17.17-.36.25-.58.25h-.71Zm12.67-4.24c-1.22-.39-2.1-.87-2.64-1.45-.54-.58-.81-1.28-.81-2.11,0-.91.32-1.63.95-2.16.63-.53,1.54-.79,2.72-.79.89,0,1.7.1,2.43.31.23.07.42.21.56.41.14.21.21.44.21.69v.42c0,.19-.08.34-.25.45-.17.11-.34.13-.52.06-.82-.29-1.58-.44-2.28-.44-.89,0-1.34.35-1.34,1.05,0,.59.39,1.01,1.16,1.26,1.34.41,2.26.88,2.78,1.42s.78,1.25.78,2.14c0,2.08-1.31,3.12-3.94,3.12-.83,0-1.59-.13-2.27-.39-.23-.09-.41-.24-.54-.46-.13-.22-.2-.46-.2-.72v-.46c0-.17.08-.31.23-.4.15-.09.31-.1.46-.02.71.35,1.43.52,2.16.52.51,0,.9-.1,1.17-.3.27-.2.4-.48.4-.85,0-.32-.09-.58-.28-.78-.18-.2-.5-.38-.96-.52Zm13.4,2.94c-.89.96-2.1,1.45-3.63,1.45s-2.74-.48-3.63-1.45c-.89-.96-1.34-2.3-1.34-4s.45-3.04,1.34-4c.89-.96,2.1-1.45,3.63-1.45s2.74.48,3.63,1.45c.89.96,1.34,2.3,1.34,4s-.45,3.04-1.34,4Zm-1.19-4c0-2.28-.81-3.41-2.44-3.41s-2.44,1.14-2.44,3.41.81,3.41,2.44,3.41,2.44-1.14,2.44-3.41Zm4.91,5.3c-.22,0-.42-.08-.58-.25-.17-.16-.25-.36-.25-.58v-8.88c0-.24.08-.45.24-.62.16-.17.36-.27.59-.29.86-.09,1.75-.13,2.66-.13,1.45,0,2.54.27,3.25.82.71.55,1.07,1.32,1.07,2.33,0,.65-.19,1.23-.57,1.75s-.87.89-1.48,1.11c0,0-.01,0-.01.01,0,.02,0,.03.03.03.47.27.88.84,1.21,1.71l.83,2.21c.07.18.04.36-.07.52-.12.17-.27.25-.46.25h-.89c-.25,0-.48-.07-.68-.22-.2-.15-.34-.33-.42-.57l-.73-2.09c-.14-.41-.3-.68-.49-.83-.19-.15-.49-.22-.9-.22h-.61c-.08,0-.12.04-.12.13v2.96c0,.22-.08.42-.25.58-.16.17-.36.25-.58.25h-.77Zm1.6-8.66v2.79c0,.09.04.13.12.13h.7c.68,0,1.2-.14,1.55-.43s.54-.69.54-1.2c0-1.01-.66-1.51-1.99-1.51-.3,0-.56.02-.79.06-.09.02-.13.07-.13.16Z"/>
  <g>
    <g id="uuid-1344fc59-78d9-4c53-b301-9138e85794c5" data-name="Wyper Law">
      <path class="uuid-3ee58b73-73dd-4081-91b9-2f012cd14f2a" d="m25.34,95.97v-.83c1.2.08,2.32.12,3.34.12.7,0,2.08-.04,4.15-.12v.83c-.68.15-1.14.32-1.36.52-.14.11-.21.25-.21.42,0,.1.01.2.03.31.02.08.32,1.01.88,2.79l1.92,5.94c.34-.85,1.16-3.04,2.46-6.56-.44-1.23-.73-1.99-.89-2.27-.16-.28-.33-.48-.51-.59-.19-.12-.67-.3-1.47-.54v-.83c1.77.08,3.04.12,3.81.12s1.99-.04,3.71-.12v.83l-.26.07c-.73.17-1.16.31-1.29.42-.13.11-.19.25-.19.41,0,.08.01.18.03.29l1.27,4.09c.49,1.59.99,3.11,1.49,4.56,1.84-5.52,2.76-8.51,2.76-8.97,0-.15-.07-.28-.21-.39-.14-.11-.64-.27-1.51-.48v-.83c1.1.08,1.97.12,2.61.12.45,0,1.4-.04,2.86-.12v.83c-.81.16-1.33.34-1.58.55-.25.21-.49.65-.71,1.33-.15.48-.46,1.35-.94,2.62-.95,2.57-2.21,6.22-3.79,10.96h-1.01c-.64-2.14-1.74-5.37-3.48-10-1.47,3.85-2.69,7.18-3.67,10h-1.01l-2.8-8.16c-1.23-3.48-1.99-5.49-2.25-6.04-.14-.29-.29-.5-.46-.63-.23-.19-.81-.4-1.73-.63Z"/>
      <path class="uuid-3ee58b73-73dd-4081-91b9-2f012cd14f2a" d="m47.4,100.31v-.62l1.54.06c.7.02,1.12.03,1.25.03.51,0,1.45-.03,2.81-.09v.62c-.6.14-.94.25-1.03.33-.09.07-.14.15-.14.24,0,.09.04.2.12.34.19.33.5.9.92,1.71.43.82.85,1.6,1.28,2.35l2.2-4.27c.05-.11.08-.18.08-.23,0-.08-.04-.14-.11-.2-.08-.06-.42-.14-1.05-.27v-.62l.38.02c.87.04,1.45.07,1.75.07.32,0,1.01-.03,2.05-.09v.62c-.68.14-1.12.28-1.34.42-.21.14-.43.4-.67.77-.15.24-1.09,1.87-2.81,4.9v3c0,.48.03.78.08.9.05.12.14.21.29.28.09.04.47.13,1.13.27l.26.05v.62c-1.42-.06-2.39-.09-2.91-.09-.38,0-1.38.03-3.01.09v-.62c.17-.03.29-.06.38-.07.56-.09.92-.18,1.08-.27.1-.06.18-.16.23-.3.05-.14.07-.55.07-1.23v-2.46c-.35-.57-.86-1.44-1.54-2.61-.88-1.52-1.42-2.41-1.6-2.67-.19-.27-.38-.47-.58-.6-.2-.13-.57-.26-1.1-.37Z"/>
      <path class="uuid-3ee58b73-73dd-4081-91b9-2f012cd14f2a" d="m60.2,100.31v-.62c1.45.06,2.58.09,3.4.09l2.64-.04c.78,0,1.4.09,1.86.27.45.18.82.5,1.11.97.28.47.42,1.04.42,1.72,0,1.08-.34,1.96-1.03,2.66-.69.7-1.63,1.05-2.83,1.05-.37,0-.83-.05-1.39-.14.01,1.49.02,2.35.02,2.58v.61c0,.53.03.85.12.96.14.18.62.32,1.45.42.09.01.24.03.42.06v.62c-1.5-.06-2.58-.09-3.24-.09-.77,0-1.75.03-2.94.09v-.62c.92-.17,1.43-.31,1.54-.41.11-.1.17-.29.19-.56.02-.27.04-1.78.06-4.51v-2.52c-.02-1.02-.04-1.61-.07-1.79-.03-.18-.1-.31-.2-.38-.14-.1-.53-.21-1.18-.34-.08-.01-.19-.03-.34-.07Zm4.18,5.01c.32.03.59.05.82.05.61,0,1.08-.2,1.42-.59.34-.39.51-1,.51-1.83,0-.73-.17-1.29-.5-1.67-.33-.38-.81-.57-1.43-.57-.24,0-.51.03-.82.08v4.52Z"/>
      <path class="uuid-3ee58b73-73dd-4081-91b9-2f012cd14f2a" d="m70.25,100.31v-.62c1.26.06,2.63.09,4.11.09,1.71,0,3.48-.03,5.3-.09.02,1.16.08,2.17.2,3.03h-.67c-.06-.18-.11-.31-.13-.41-.26-.79-.46-1.25-.6-1.38-.15-.13-.48-.19-.99-.19h-3c-.04.94-.07,2.3-.08,4.08l1.37.02c.71,0,1.15-.07,1.32-.22.17-.15.34-.64.52-1.49h.65c-.06.82-.09,1.54-.09,2.16s.03,1.34.09,2.22h-.65c-.15-.9-.29-1.41-.42-1.54-.14-.13-.55-.2-1.23-.2h-1.54v4.66h3.12c.34,0,.57-.02.69-.07.18-.07.35-.2.5-.39.32-.37.69-.97,1.12-1.78h.69c-.3.92-.63,2.02-.98,3.31-1.78-.06-3.64-.09-5.59-.09-.88,0-2.12.03-3.7.09v-.62c.87-.17,1.36-.3,1.49-.4.17-.13.26-.45.26-.97v-.28l.02-3.3v-3.9c0-.59-.04-.96-.09-1.11-.06-.14-.17-.26-.33-.34-.16-.08-.61-.18-1.34-.29Z"/>
      <path class="uuid-3ee58b73-73dd-4081-91b9-2f012cd14f2a" d="m80.92,100.31v-.62c1.77.06,2.81.09,3.13.09.34,0,.83,0,1.47-.03.64-.02,1.12-.03,1.42-.03.78,0,1.39.11,1.82.32.43.21.78.55,1.05,1.01.26.46.4.97.4,1.54,0,.48-.09.95-.28,1.4-.19.45-.44.83-.75,1.14-.2.21-.53.43-.98.67.36.65.88,1.57,1.56,2.76.5.87.83,1.39.98,1.57.15.17.32.31.5.4.27.13.77.26,1.48.38v.62c-.89-.06-1.61-.09-2.17-.09-.59,0-1.31.03-2.18.09-.64-1.56-1.45-3.35-2.45-5.35-.3-.01-.61-.03-.94-.07l.03,3.46c.01.43.04.69.1.8.06.1.14.18.24.22.07.04.54.15,1.4.32v.62c-1.22-.06-2.2-.09-2.93-.09s-1.7.03-2.9.09v-.62c.88-.17,1.38-.31,1.49-.4.11-.09.18-.28.21-.56.02-.15.03-1.57.03-4.27v-2.48c0-1.17-.03-1.87-.06-2.11-.03-.17-.1-.3-.22-.39-.11-.09-.48-.19-1.11-.3l-.35-.07Zm4.07,4.84c.26.01.46.02.58.02.73,0,1.27-.18,1.62-.55.35-.37.52-.93.52-1.69,0-.71-.16-1.25-.5-1.63-.33-.37-.78-.56-1.34-.56-.23,0-.53.02-.9.06v4.36Z"/>
      <path class="uuid-3ee58b73-73dd-4081-91b9-2f012cd14f2a" d="m98.36,95.99v-.86c1.86.09,3.3.13,4.34.13s2.47-.04,4.23-.13v.86c-1.49.24-2.31.39-2.44.46-.22.13-.33.47-.33,1.01l-.04,2.97v9.62h3.97c.65,0,1.09-.05,1.31-.14.3-.13.59-.37.86-.71.28-.34.76-1.13,1.46-2.36h.98c-.49,1.43-.96,2.99-1.43,4.7-3.08-.08-5.65-.13-7.69-.13-1.68,0-3.42.04-5.22.13v-.86c1.29-.27,1.99-.46,2.12-.56.13-.1.21-.29.24-.56.03-.27.05-2.12.05-5.55v-4.21s-.01-.74-.01-.74c0-1.23-.04-1.97-.12-2.22-.06-.19-.16-.31-.3-.39-.14-.07-.8-.23-1.99-.48Z"/>
      <path class="uuid-3ee58b73-73dd-4081-91b9-2f012cd14f2a" d="m120.06,111.51v-.62c.63-.12,1-.22,1.1-.3.1-.08.15-.18.15-.32,0-.08-.02-.17-.05-.27-.08-.23-.35-.94-.81-2.1-.74-.02-1.35-.02-1.84-.02-.4,0-1.07,0-2.01.02-.59,1.46-.88,2.26-.88,2.4s.04.23.13.3c.08.06.45.16,1.11.3v.62c-.66-.06-1.29-.09-1.89-.09-.65,0-1.31.03-1.97.09v-.62c.47-.11.79-.23.97-.36.12-.09.23-.22.33-.4.2-.35.81-1.7,1.83-4.06.64-1.49,1.56-3.7,2.75-6.63h.63c.49,1.3,1.49,3.74,3.02,7.3.85,1.98,1.35,3.11,1.52,3.38.12.19.23.32.34.4.12.08.48.2,1.09.37v.62c-.92-.06-1.78-.09-2.58-.09s-1.76.03-2.94.09Zm-1.5-8.48l-1.6,3.92h1.55c.37,0,.9,0,1.6,0l-1.55-3.92Z"/>
      <path class="uuid-3ee58b73-73dd-4081-91b9-2f012cd14f2a" d="m123.29,100.06v-.62c.87.06,1.67.09,2.41.09.5,0,1.5-.03,2.99-.09v.62c-.49.11-.82.24-.98.38-.1.08-.15.19-.15.31,0,.07,0,.15.02.23.02.06.23.75.64,2.06l1.38,4.4c.24-.63.83-2.25,1.77-4.86-.31-.91-.53-1.48-.64-1.68-.11-.21-.24-.35-.37-.44-.13-.09-.49-.22-1.05-.4v-.62c1.28.06,2.19.09,2.75.09s1.43-.03,2.67-.09v.62l-.19.05c-.53.13-.84.23-.93.31-.09.08-.14.18-.14.3,0,.06,0,.13.02.22l.92,3.03c.35,1.18.71,2.3,1.07,3.38,1.32-4.09,1.99-6.31,1.99-6.65,0-.11-.05-.21-.15-.29-.1-.08-.46-.2-1.09-.36v-.62c.79.06,1.42.09,1.88.09.32,0,1.01-.03,2.06-.09v.62c-.58.12-.96.25-1.14.41-.18.16-.35.48-.51.98-.11.36-.33,1-.67,1.94-.68,1.9-1.59,4.61-2.73,8.12h-.72c-.51-1.75-1.34-4.22-2.51-7.41-1.06,2.85-1.94,5.32-2.64,7.41h-.73l-2.02-6.05c-.89-2.58-1.43-4.07-1.62-4.47-.1-.22-.21-.37-.33-.47-.17-.14-.58-.29-1.25-.47Z"/>
    </g>
    <g>
      <path class="uuid-3a9f3a86-0090-437b-9d3b-ea1516e8c277" d="m68.06,82.11c0-5.28-.24-9.15-.73-11.59-.49-2.44-1.27-3.66-2.34-3.66-.32,0-.63.08-.94.23-.19,1.05-.28,2.14-.28,3.25,0,4.53,1.61,8.68,4.3,11.92,0-.05,0-.09,0-.14Z"/>
      <path class="uuid-3a9f3a86-0090-437b-9d3b-ea1516e8c277" d="m82.69,51.55c-8.46,0-15.62,5.51-18.05,13.11.69-.38,1.38-.57,1.97-.57,1.06,0,1.87.39,2.42,1.17.55.78,1.3,2.22,1.71,4.32.61,3.12.64,6.72.64,10.79l1.66-3.5,1.1-2.05,1.6-3.05c.92-1.73,1.53-3.12,1.85-4.16l4.05-2.43c-.08.84-.12,1.57-.12,2.16,0,1.89,1.58,13.15,1.81,14.53.34-.61,2.54-6.11,2.54-6.11,1.88-4.02,1.95-5,1.95-6.58,0-1.07-.46-1.88-1.37-2.43l3.1-2.96c1.18.74,2.27,1.76,2.27,2.8,0,1.39-7.87,17.98-8.16,18.68l-2.32,2.59-.07-.73c-.23-2.33-.66-5.09-1.29-8.27l-.21-1-.29-1.48c-.22-1.08-.36-1.86-.43-2.36l-.33-2.28c-.02-.17-.08-.55-.17-1.17l-2.33,4.46-.95,1.81c-1.74,3.29-3.35,6.02-4.27,8.21l-.03.03c3.22,2.53,7.29,4.03,11.72,4.03,10.45,0,18.93-8.41,18.93-18.79s-8.47-18.79-18.93-18.79Z"/>
    </g>
    <rect class="uuid-1bd498d4-2193-4d2f-9495-ca76d113f009" x="23.13" y="51.55" width="118.83" height="59.87"/>
  </g>
</svg>